<svg xmlns="http://www.w3.org/2000/svg" xmlns:xlink="http://www.w3.org/1999/xlink" width="124.767" height="124.767" viewBox="0 0 124.767 124.767">
  <defs>
    <radialGradient id="radial-gradient" cx="0.076" cy="0.019" r="1.465" gradientTransform="translate(0.001)" gradientUnits="objectBoundingBox">
      <stop offset="0" stop-color="#f6f6f7"/>
      <stop offset="0.477" stop-color="#f9f9fa"/>
      <stop offset="0.715" stop-color="#fff"/>
    </radialGradient>
  </defs>
  <g id="Grupo_50460" data-name="Grupo 50460" transform="translate(-217 -997)">
    <g id="Grupo_18531" data-name="Grupo 18531" transform="translate(217 997)">
      <g id="Grupo_18423" data-name="Grupo 18423" transform="translate(0 0)">
        <g id="Grupo_18421" data-name="Grupo 18421">
          <g id="Grupo_18420" data-name="Grupo 18420">
            <g id="Grupo_18419" data-name="Grupo 18419">
              <path id="Trazado_40936" data-name="Trazado 40936" d="M319.39,2208.1a62.384,62.384,0,1,1-62.383-62.382A62.383,62.383,0,0,1,319.39,2208.1Z" transform="translate(-194.623 -2145.721)" fill="#fff"/>
            </g>
          </g>
        </g>
        <path id="Trazado_40937" data-name="Trazado 40937" d="M318.65,2207.3a62.382,62.382,0,1,0-62.383,62.385A62.136,62.136,0,0,0,318.65,2207.3Z" transform="translate(-193.883 -2144.915)" fill="url(#radial-gradient)"/>
        <path id="Trazado_40938" data-name="Trazado 40938" d="M297.307,2200.746a47.617,47.617,0,1,0-47.617,47.617A47.44,47.44,0,0,0,297.307,2200.746Z" transform="translate(-187.117 -2138.156)" fill="none" stroke="#7d6eb2" stroke-miterlimit="10" stroke-width="4"/>
        <g id="Grupo_18422" data-name="Grupo 18422" transform="translate(11.052 35.024)">
          <path id="Trazado_40939" data-name="Trazado 40939" d="M307.953,2164.488a62.391,62.391,0,0,1-107.408,62.125,62.193,62.193,0,0,0,107.408-62.125Z" transform="translate(-200.545 -2164.488)" fill="#eceef0"/>
        </g>
      </g>
    </g>
    <g id="Grupo_53006" data-name="Grupo 53006" transform="translate(533.021 620.012)">
      <path id="Trazado_96649" data-name="Trazado 96649" d="M-281.237,433.5c-2.353-2.138-1.334-3.591.292-5.093,1.341-1.239,2.457-2.594,4.474-1.03.234.181,1.771-.591,1.875-1.094.55-2.66,2.564-1.916,4.187-1.966,1.446-.044,3.021-.243,3.282,1.971.176,1.489,1.18,1.806,2.381.907,1.852-1.386,2.872,0,3.93,1.139s2.86,2.084,1.3,4.121c-.959,1.249-.437,2.159.969,2.377,2.575.4,1.855,2.348,1.92,3.875.06,1.423.387,3.059-1.764,3.448-1.532.277-2.128,1.093-1.062,2.518,1.431,1.911-.251,2.827-1.277,3.9-1.05,1.1-2.026,2.639-3.912,1.291-1.383-.989-2.293-.58-2.526,1.025-.3,2.032-1.8,1.892-3.141,1.789-1.5-.116-3.536.795-4.136-1.621-.422-1.7-1.177-2.125-2.735-1.084-1.755,1.172-2.672-.381-3.686-1.378s-2.609-1.892-1.456-3.654c1.14-1.74.526-2.37-1.236-2.893-2.273-.675-1.535-2.753-1.4-4.237a6.36,6.36,0,0,1,1.69-2.9A9.418,9.418,0,0,1-281.237,433.5Zm10.479,13.163c3.4-.021,6.718-2.31,7.561-5.413a6.381,6.381,0,0,0-.376-2.443c-.672.427-1.364.826-2,1.3-.194.143-.221.5-.353.737a5.3,5.3,0,0,1-6.241,2.886,5.533,5.533,0,0,1-4.141-5.241c0-2.471,1.795-4.47,4.424-5.326.849-.276,1.5-1.174,2.238-1.786-1.035-.272-2.148-.937-3.091-.748a8,8,0,0,0-6.163,8.892A8.082,8.082,0,0,0-270.758,446.662Z" transform="translate(0 -4.75)" fill="#00223d"/>
      <path id="Trazado_96650" data-name="Trazado 96650" d="M-233.916,442.026c-1.808-2.118-3.56-4.011-5.106-6.059-.681-.9-1.48-2.218-1.306-3.181,1.165-6.468-2.427-10.7-7.022-13.913-2.645-1.851-6.277-2.308-9.482-3.338-.993-.319-2.042-.46-3.066-.682l.132-1.187a39,39,0,0,1,5.227.034,20.274,20.274,0,0,1,16.512,15.243c.082.357.3.79.182,1.07-1.595,3.759,1.17,5.757,3.2,8.053.306.346.608.7.913,1.043,2.668,3.04,2.5,4.075-1.009,6.1-.043,2.906,1.475,6.075-1.611,8.483-.372.29-.1,1.564.057,2.342.474,2.307-.5,3.746-2.58,4.552-4.789,1.858-15.068-.9-18.115-4.941a13.564,13.564,0,0,1-1.276-2.888l.749-.461a5.872,5.872,0,0,1,1.361,1.051c3.911,5.534,9.79,5.655,15.651,5.59,1.608-.018,2.487-1.012,2.2-3.047-.22-1.577.454-3.28,1.09-4.88A8.317,8.317,0,0,1-233.916,442.026Z" transform="translate(-11.255 0)" fill="#00223d"/>
      <path id="Trazado_96651" data-name="Trazado 96651" d="M-236.389,413.706a19.851,19.851,0,0,1,3.649.031c8.431,1.6,13.7,6.735,16.254,14.814a2.744,2.744,0,0,1,.238,1.614c-1.434,3.387,1,5.254,2.787,7.387.414.5.852.971,1.279,1.456,2.887,3.282,2.754,4.156-.944,6.191.024,2.928,1.508,6.108-1.616,8.5-.321.246-.046,1.363.064,2.058.455,2.891-.451,4.3-3.33,5.085a7,7,0,0,1-7.236-1.721c1.835,0,3.007-.011,4.179,0,3.893.044,4.311-.559,4.115-4.31-.066-1.26.892-2.574,1.545-4.291-1.078-2.351.132-6.431,3.14-8.432-1.667-1.964-3.307-3.914-4.967-5.845-1.271-1.478-2.051-3-1.23-5.047a4.079,4.079,0,0,0-.072-2.408A18.2,18.2,0,0,0-234,415.579a16.451,16.451,0,0,1-2.6-.762Z" transform="translate(-21.627 -0.019)" fill="#00223d"/>
      <path id="Trazado_96652" data-name="Trazado 96652" d="M-192.778,445.205c.082,3.007,1.308,5.89-1.358,8.3-.426.385-.311,1.519-.231,2.283.329,3.108-.807,4.692-3.883,5.253-2.763.5-4.764.048-6.363-1.927,1.919,0,3.389.05,4.856-.011,3.152-.129,3.716-.852,3.225-3.89-.1-.614-.323-1.474-.024-1.844,1.97-2.438,1.7-5.113,1.474-7.98-.075-.979,1.607-2.095,2.856-3.59-1.163-1.391-2.637-3.189-4.15-4.954-1.481-1.727-2.8-3.407-1.714-5.954a4.137,4.137,0,0,0-.279-2.684c-2.64-7.206-7.614-11.6-15.367-12.636a14,14,0,0,1-2.511-.824q.066-.453.131-.906a18.5,18.5,0,0,1,3.045-.181,20.321,20.321,0,0,1,16.913,14.795,2.31,2.31,0,0,1,.161,1.087c-1.415,4.5,1.92,6.856,4.313,9.627C-189,442.275-189.175,443.272-192.778,445.205Z" transform="translate(-30.687 -0.023)" fill="#00223d"/>
      <path id="Trazado_96653" data-name="Trazado 96653" d="M-201.057,507.136c-1.063-2.806-.732-4.538,1.714-6.084-.27,2.393-.487,4.317-.7,6.24Z" transform="translate(-37.194 -38.937)" fill="#00223d"/>
      <path id="Trazado_96654" data-name="Trazado 96654" d="M-243.366,505.072l2.169-3.419a17.194,17.194,0,0,1,.3,3.4,8.294,8.294,0,0,1-1.058,2.394Z" transform="translate(-18.615 -39.204)" fill="#00223d"/>
      <path id="Trazado_96655" data-name="Trazado 96655" d="M-220.445,507.9c-1.993-2.8-1.659-5.288.914-6.968Z" transform="translate(-28.246 -38.883)" fill="#00223d"/>
      <path id="Trazado_96656" data-name="Trazado 96656" d="M-265.76,451.746A8.082,8.082,0,0,1-273.9,444.6a8,8,0,0,1,6.163-8.892c.943-.189,2.056.476,3.091.748-.74.613-1.388,1.51-2.238,1.786-2.629.856-4.419,2.855-4.424,5.326a5.533,5.533,0,0,0,4.141,5.241,5.3,5.3,0,0,0,6.241-2.886c.131-.241.159-.595.353-.737.638-.472,1.331-.87,2-1.3a6.379,6.379,0,0,1,.376,2.443C-259.041,449.435-262.362,451.725-265.76,451.746Z" transform="translate(-4.998 -9.834)" fill="#fff"/>
      <path id="Trazado_96657" data-name="Trazado 96657" d="M8.193,16.07A8.082,8.082,0,0,1,.049,8.926,8,8,0,0,1,6.212.033C7.155-.155,8.268.509,9.3.782c-.74.613-1.388,1.51-2.238,1.786-2.629.856-4.419,2.855-4.424,5.326a5.533,5.533,0,0,0,4.141,5.241,5.3,5.3,0,0,0,6.241-2.886c.131-.241.159-.595.353-.737.638-.472,1.331-.87,2-1.3a6.379,6.379,0,0,1,.376,2.443C14.912,13.759,11.591,16.049,8.193,16.07Z" transform="translate(-260.139 431.05) rotate(120)" fill="#fff"/>
    </g>
  </g>
</svg>
