<svg xmlns="http://www.w3.org/2000/svg" xmlns:xlink="http://www.w3.org/1999/xlink" width="91.927" height="91.927" viewBox="0 0 91.927 91.927">
  <defs>
    <radialGradient id="radial-gradient" cx="0.076" cy="0.019" r="1.465" gradientTransform="translate(0.001)" gradientUnits="objectBoundingBox">
      <stop offset="0" stop-color="#f6f6f7"/>
      <stop offset="0.477" stop-color="#f9f9fa"/>
      <stop offset="0.715" stop-color="#fff"/>
    </radialGradient>
  </defs>
  <g id="Grupo_53045" data-name="Grupo 53045" transform="translate(-217 -997)">
    <g id="Grupo_18531" data-name="Grupo 18531" transform="translate(142 1024)">
      <g id="Grupo_18423" data-name="Grupo 18423" transform="translate(75 -27)">
        <g id="Grupo_18421" data-name="Grupo 18421">
          <g id="Grupo_18420" data-name="Grupo 18420">
            <g id="Grupo_18419" data-name="Grupo 18419">
              <path id="Trazado_40936" data-name="Trazado 40936" d="M286.55,2191.684a45.964,45.964,0,1,1-45.963-45.962A45.963,45.963,0,0,1,286.55,2191.684Z" transform="translate(-194.623 -2145.721)" fill="#fff"/>
            </g>
          </g>
        </g>
        <path id="Trazado_40937" data-name="Trazado 40937" d="M286.23,2191.334a45.963,45.963,0,1,0-45.963,45.965A45.782,45.782,0,0,0,286.23,2191.334Z" transform="translate(-194.303 -2145.372)" fill="url(#radial-gradient)"/>
        <path id="Trazado_40938" data-name="Trazado 40938" d="M272.56,2188.562a35.084,35.084,0,1,0-35.084,35.084A34.953,34.953,0,0,0,272.56,2188.562Z" transform="translate(-191.373 -2142.446)" fill="none" stroke="#7d6eb2" stroke-miterlimit="10" stroke-width="4"/>
        <g id="Grupo_18422" data-name="Grupo 18422" transform="translate(8.143 25.805)">
          <path id="Trazado_40939" data-name="Trazado 40939" d="M279.682,2164.488a45.969,45.969,0,0,1-79.137,45.773,45.823,45.823,0,0,0,79.137-45.773Z" transform="translate(-200.545 -2164.488)" fill="#eceef0"/>
        </g>
      </g>
    </g>
    <g id="Grupo_46647" data-name="Grupo 46647" transform="translate(197.97 703.124)">
      <g id="Grupo_46631" data-name="Grupo 46631" transform="translate(50.325 318.851)">
        <path id="Trazado_96937" data-name="Trazado 96937" d="M73.363,359.679h-21.4a1.635,1.635,0,0,1-1.634-1.634V320.484a1.635,1.635,0,0,1,1.634-1.633h21.4A1.634,1.634,0,0,1,75,320.484v37.561A1.635,1.635,0,0,1,73.363,359.679Zm-21.4-40.133a.94.94,0,0,0-.939.938v37.561a.94.94,0,0,0,.939.939h21.4a.94.94,0,0,0,.938-.939V320.484a.939.939,0,0,0-.938-.938Z" transform="translate(-50.325 -318.851)" fill="#00223d"/>
      </g>
      <g id="Grupo_46632" data-name="Grupo 46632" transform="translate(59.633 321.333)">
        <path id="Trazado_96938" data-name="Trazado 96938" d="M69.433,323.119H64.072a.347.347,0,0,1,0-.695h5.361a.347.347,0,1,1,0,.695Z" transform="translate(-63.725 -322.424)" fill="#00223d"/>
      </g>
      <g id="Grupo_46633" data-name="Grupo 46633" transform="translate(52.057 323.198)">
        <path id="Trazado_96939" data-name="Trazado 96939" d="M74.026,354.734H52.818V325.109H74.026Zm-20.514-.695H73.332V325.8H53.513Z" transform="translate(-52.818 -325.109)" fill="#00223d"/>
      </g>
      <g id="Grupo_46634" data-name="Grupo 46634" transform="translate(60.598 353.87)">
        <path id="Trazado_96940" data-name="Trazado 96940" d="M67.177,373.392a2.062,2.062,0,1,1,2.062-2.062A2.065,2.065,0,0,1,67.177,373.392Zm0-3.43a1.368,1.368,0,1,0,1.368,1.368A1.369,1.369,0,0,0,67.177,369.962Z" transform="translate(-65.115 -369.267)" fill="#00223d"/>
      </g>
      <g id="Grupo_46635" data-name="Grupo 46635" transform="translate(53.524 329.092)">
        <path id="Trazado_96941" data-name="Trazado 96941" d="M64.408,352.551a9.479,9.479,0,1,1,9.478-9.479A9.489,9.489,0,0,1,64.408,352.551Zm0-18.263a8.784,8.784,0,1,0,8.783,8.784A8.793,8.793,0,0,0,64.408,334.289Z" transform="translate(-54.93 -333.594)" fill="#00223d"/>
      </g>
      <g id="Grupo_46636" data-name="Grupo 46636" transform="translate(56.222 331.789)">
        <path id="Trazado_96942" data-name="Trazado 96942" d="M65.594,351.038a6.78,6.78,0,1,1,6.78-6.779A6.787,6.787,0,0,1,65.594,351.038Zm0-12.866a6.085,6.085,0,1,0,6.085,6.086A6.093,6.093,0,0,0,65.594,338.173Z" transform="translate(-58.815 -337.478)" fill="#00223d"/>
      </g>
      <g id="Grupo_46637" data-name="Grupo 46637" transform="translate(58.962 334.532)">
        <path id="Trazado_96943" data-name="Trazado 96943" d="M70.643,345.617a3.691,3.691,0,1,1-3.691-3.691,3.691,3.691,0,0,1,3.691,3.691Z" transform="translate(-62.913 -341.579)" fill="#00223d"/>
        <path id="Trazado_96944" data-name="Trazado 96944" d="M66.8,349.5a4.038,4.038,0,1,1,4.038-4.038A4.044,4.044,0,0,1,66.8,349.5Zm0-7.382a3.344,3.344,0,1,0,3.344,3.344A3.348,3.348,0,0,0,66.8,342.121Z" transform="translate(-62.76 -341.426)" fill="#00223d"/>
      </g>
      <g id="Grupo_46638" data-name="Grupo 46638" transform="translate(76.03 334.573)">
        <path id="Trazado_96945" data-name="Trazado 96945" d="M94.658,344.974l.529-1.847a1.286,1.286,0,0,0-1.236-1.641H89.3a1.287,1.287,0,0,0-1.237.932l-.733,2.562Z" transform="translate(-87.331 -341.486)" fill="#00223d"/>
      </g>
      <g id="Grupo_46639" data-name="Grupo 46639" transform="translate(76.03 339.077)">
        <path id="Trazado_96946" data-name="Trazado 96946" d="M94.658,347.976l.529,1.847a1.286,1.286,0,0,1-1.236,1.641H89.3a1.286,1.286,0,0,1-1.237-.933l-.733-2.56Z" transform="translate(-87.331 -347.97)" fill="#00223d"/>
      </g>
      <g id="Grupo_46640" data-name="Grupo 46640" transform="translate(62.263 338.061)">
        <path id="Trazado_96947" data-name="Trazado 96947" d="M89.237,347.03a.518.518,0,0,1-.517.512L68,347.573a.5.5,0,0,1-.493-.547.492.492,0,0,1,.492-.5l20.715-.015a.518.518,0,0,1,.519.523Z" transform="translate(-67.511 -346.507)" fill="#00223d"/>
      </g>
      <g id="Grupo_46641" data-name="Grupo 46641" transform="translate(78.139 331.341)">
        <path id="Trazado_96948" data-name="Trazado 96948" d="M99.45,337.528H90.715a.347.347,0,1,1,0-.695H99.45a.347.347,0,1,1,0,.695Z" transform="translate(-90.368 -336.833)" fill="#00223d"/>
      </g>
      <g id="Grupo_46642" data-name="Grupo 46642" transform="translate(78.675 345.918)">
        <path id="Trazado_96949" data-name="Trazado 96949" d="M100.221,358.513H91.486a.347.347,0,1,1,0-.695h8.735a.347.347,0,1,1,0,.695Z" transform="translate(-91.139 -357.818)" fill="#00223d"/>
      </g>
      <g id="Grupo_46643" data-name="Grupo 46643" transform="translate(84.355 343.935)">
        <path id="Trazado_96950" data-name="Trazado 96950" d="M104.54,355.658H99.664a.347.347,0,1,1,0-.695h4.876a.347.347,0,1,1,0,.695Z" transform="translate(-99.317 -354.963)" fill="#00223d"/>
      </g>
      <g id="Grupo_46644" data-name="Grupo 46644" transform="translate(86.231 338.094)">
        <path id="Trazado_96951" data-name="Trazado 96951" d="M108.045,347.249h-5.681a.347.347,0,0,1,0-.695h5.681a.347.347,0,0,1,0,.695Z" transform="translate(-102.017 -346.554)" fill="#00223d"/>
      </g>
      <g id="Grupo_46645" data-name="Grupo 46645" transform="translate(62.614 326.921)">
        <path id="Trazado_96952" data-name="Trazado 96952" d="M75.977,334.131a.347.347,0,0,1-.235-.092,10.878,10.878,0,0,0-7.378-2.876.347.347,0,1,1,0-.695,11.565,11.565,0,0,1,7.848,3.059.347.347,0,0,1-.235.6Z" transform="translate(-68.017 -330.469)" fill="#00223d"/>
      </g>
      <g id="Grupo_46646" data-name="Grupo 46646" transform="translate(55.139 346.616)">
        <path id="Trazado_96953" data-name="Trazado 96953" d="M61.562,361.878a.34.34,0,0,1-.113-.019,11.519,11.519,0,0,1-4.081-2.433.347.347,0,1,1,.47-.511,10.827,10.827,0,0,0,3.837,2.288.347.347,0,0,1-.113.676Z" transform="translate(-57.255 -358.823)" fill="#00223d"/>
      </g>
    </g>
  </g>
</svg>
