<svg id="Grupo_16412" data-name="Grupo 16412" xmlns="http://www.w3.org/2000/svg" xmlns:xlink="http://www.w3.org/1999/xlink" width="170.896" height="202.186" viewBox="0 0 170.896 202.186">
  <defs>
    <clipPath id="clip-path">
      <path id="Trazado_27207" data-name="Trazado 27207" d="M423.26,366.945a95.36,95.36,0,0,0,8.552,10.78,15.234,15.234,0,0,0-3.078,6.608c-.723,5.455,2.555,7.672,2.555,7.672v5.8h-8.7v-9.842l-5.1-20.85Z" transform="translate(-417.484 -366.945)" fill="none"/>
    </clipPath>
  </defs>
  <g id="Grupo_16392" data-name="Grupo 16392" transform="translate(98.423 131.624)">
    <g id="Grupo_16361" data-name="Grupo 16361" transform="translate(4.649 1.938)">
      <g id="Grupo_16360" data-name="Grupo 16360">
        <path id="Trazado_27198" data-name="Trazado 27198" d="M425.43,389.7h0a8.629,8.629,0,0,0,11.813-3.062l20.522-34.88L442.888,343l-20.521,34.88A8.629,8.629,0,0,0,425.43,389.7Z" transform="translate(-421.175 -343.004)" fill="#202f5a"/>
      </g>
    </g>
    <g id="Grupo_16366" data-name="Grupo 16366" transform="translate(5.05 8.264)">
      <g id="Grupo_16363" data-name="Grupo 16363">
        <g id="Grupo_16362" data-name="Grupo 16362">
          <path id="Trazado_27199" data-name="Trazado 27199" d="M422.838,355.776l12.594,12.432a4.518,4.518,0,0,0,6.389-.041h0a4.519,4.519,0,0,0-.041-6.39l-12.594-12.431a4.516,4.516,0,0,0-6.389.041h0A4.518,4.518,0,0,0,422.838,355.776Z" transform="translate(-421.495 -348.043)" fill="#f7cf8a"/>
        </g>
      </g>
      <g id="Grupo_16365" data-name="Grupo 16365" transform="translate(13.24 13.277)" opacity="0.4">
        <g id="Grupo_16364" data-name="Grupo 16364">
          <path id="Trazado_27200" data-name="Trazado 27200" d="M433.121,364.829h0a3.628,3.628,0,0,0,5.131-.034h0a3.628,3.628,0,0,0-.033-5.13h0a3.627,3.627,0,0,0-5.131.033h0A3.627,3.627,0,0,0,433.121,364.829Z" transform="translate(-432.041 -358.619)" fill="#fff"/>
        </g>
      </g>
    </g>
    <g id="Grupo_16371" data-name="Grupo 16371" transform="translate(9.081)">
      <g id="Grupo_16368" data-name="Grupo 16368">
        <g id="Grupo_16367" data-name="Grupo 16367">
          <path id="Trazado_27201" data-name="Trazado 27201" d="M426.049,349.193l13.323,13.153a4.52,4.52,0,0,0,6.39-.041h0a4.518,4.518,0,0,0-.041-6.389L432.4,342.763a4.516,4.516,0,0,0-6.389.041h0A4.518,4.518,0,0,0,426.049,349.193Z" transform="translate(-424.706 -341.46)" fill="#f7cf8a"/>
        </g>
      </g>
      <g id="Grupo_16370" data-name="Grupo 16370" transform="translate(12.468 12.496)">
        <g id="Grupo_16369" data-name="Grupo 16369" transform="translate(0 0)">
          <rect id="Rectángulo_4113" data-name="Rectángulo 4113" width="7.256" height="7.256" rx="0.955" transform="translate(0 5.164) rotate(-45.371)" fill="#f9deb1"/>
        </g>
      </g>
    </g>
    <g id="Grupo_16374" data-name="Grupo 16374" transform="translate(0.658 9.635)">
      <g id="Grupo_16373" data-name="Grupo 16373">
        <g id="Grupo_16372" data-name="Grupo 16372">
          <path id="Trazado_27202" data-name="Trazado 27202" d="M418,372.042a4.481,4.481,0,0,0,.972-.97l13.915,6.922,14.945-9.536-5.155-6.96-8.158-2.2a5.173,5.173,0,0,1,1.938-10.133l9.892,1.144a5.748,5.748,0,0,1,3.914,2.23l10.99,14.448a5.569,5.569,0,0,1-.045,6.8l-18.138,23.188v5.371H422.453l.09-9.842Z" transform="translate(-417.996 -349.134)" fill="#f7c366"/>
        </g>
      </g>
    </g>
    <g id="Grupo_16376" data-name="Grupo 16376" transform="translate(0.416 31.253)">
      <g id="Grupo_16375" data-name="Grupo 16375">
        <path id="Trazado_27203" data-name="Trazado 27203" d="M419.232,366.355l3.947.741a95.366,95.366,0,0,0,8.552,10.78,15.234,15.234,0,0,0-3.078,6.608c-.723,5.455,2.555,7.672,2.555,7.672v5.8h-8.7V388.11L417.8,368.9C418.4,368.521,418.874,366.931,419.232,366.355Z" transform="translate(-417.803 -366.355)" fill="#edb961"/>
      </g>
    </g>
    <g id="Grupo_16381" data-name="Grupo 16381" transform="translate(1.215 17.225)">
      <g id="Grupo_16378" data-name="Grupo 16378">
        <g id="Grupo_16377" data-name="Grupo 16377">
          <path id="Trazado_27204" data-name="Trazado 27204" d="M419.466,362.164l13.13,12.961a3.448,3.448,0,0,0,4.877-.031l1.5-1.521a3.448,3.448,0,0,0-.031-4.877l-12.369-12.211a4.52,4.52,0,0,0-6.39.041l-.751.761A3.45,3.45,0,0,0,419.466,362.164Z" transform="translate(-418.439 -355.181)" fill="#f7cf8a"/>
        </g>
      </g>
      <g id="Grupo_16380" data-name="Grupo 16380" transform="translate(12.699 12.306)" opacity="0.4">
        <g id="Grupo_16379" data-name="Grupo 16379">
          <path id="Trazado_27205" data-name="Trazado 27205" d="M429.633,371.193h0a3.628,3.628,0,0,0,5.131-.034h0a3.628,3.628,0,0,0-.033-5.131h0a3.628,3.628,0,0,0-5.131.034h0A3.628,3.628,0,0,0,429.633,371.193Z" transform="translate(-428.555 -364.983)" fill="#fff"/>
        </g>
      </g>
    </g>
    <g id="Grupo_16383" data-name="Grupo 16383" transform="translate(14.164 10.201)" opacity="0.5">
      <g id="Grupo_16382" data-name="Grupo 16382" transform="translate(0 0)">
        <rect id="Rectángulo_4114" data-name="Rectángulo 4114" width="8.471" height="8.471" rx="2.89" transform="matrix(0.127, -0.992, 0.992, 0.127, 0, 8.402)" fill="#fff"/>
      </g>
    </g>
    <g id="Grupo_16387" data-name="Grupo 16387" transform="translate(0.015 31.994)">
      <g id="Grupo_16386" data-name="Grupo 16386" clip-path="url(#clip-path)">
        <g id="Grupo_16385" data-name="Grupo 16385" transform="translate(4.145 5.966)">
          <g id="Grupo_16384" data-name="Grupo 16384">
            <path id="Trazado_27206" data-name="Trazado 27206" d="M441.82,371.7l-5.15,8.751a7.3,7.3,0,0,1-10,2.592l-2.282-1.343a7.306,7.306,0,0,1-2.592-10H441.82Z" transform="translate(-420.786 -371.697)" fill="#202f5a"/>
          </g>
        </g>
      </g>
    </g>
    <g id="Grupo_16391" data-name="Grupo 16391" transform="translate(0 27.992)">
      <g id="Grupo_16389" data-name="Grupo 16389">
        <g id="Grupo_16388" data-name="Grupo 16388">
          <path id="Trazado_27208" data-name="Trazado 27208" d="M418.815,371.49l9.036,8.921a4.517,4.517,0,0,0,6.389-.043h0a4.517,4.517,0,0,0-.04-6.389l-9.036-8.92a4.519,4.519,0,0,0-6.39.041h0A4.518,4.518,0,0,0,418.815,371.49Z" transform="translate(-417.472 -363.757)" fill="#f7cf8a"/>
        </g>
      </g>
      <g id="Grupo_16390" data-name="Grupo 16390" transform="translate(9.683 9.766)" opacity="0.4">
        <path id="Trazado_27209" data-name="Trazado 27209" d="M426.263,377.746h0a3.628,3.628,0,0,0,5.131-.034h0a3.627,3.627,0,0,0-.033-5.13h0a3.627,3.627,0,0,0-5.131.033h0A3.629,3.629,0,0,0,426.263,377.746Z" transform="translate(-425.185 -371.536)" fill="#fff"/>
      </g>
    </g>
  </g>
  <g id="Grupo_16409" data-name="Grupo 16409">
    <g id="Grupo_16405" data-name="Grupo 16405" transform="translate(47.694 36.354)">
      <g id="Grupo_16394" data-name="Grupo 16394" transform="translate(8.357 19.362)">
        <g id="Grupo_16393" data-name="Grupo 16393">
          <path id="Trazado_27210" data-name="Trazado 27210" d="M413.172,288.482l-10.97-7.487L383.72,305.083l14.105,10.585Z" transform="translate(-383.72 -280.994)" fill="#314482"/>
        </g>
      </g>
      <g id="Grupo_16396" data-name="Grupo 16396" transform="translate(70.937 62.672)">
        <g id="Grupo_16395" data-name="Grupo 16395">
          <path id="Trazado_27211" data-name="Trazado 27211" d="M479.348,336.065l-22.023-20.571-23.756,33.139,27.521,15.13Z" transform="translate(-433.569 -315.493)" fill="#314482"/>
        </g>
      </g>
      <g id="Grupo_16399" data-name="Grupo 16399" transform="translate(3.878 2.794)">
        <g id="Grupo_16398" data-name="Grupo 16398">
          <g id="Grupo_16397" data-name="Grupo 16397">
            <path id="Trazado_27212" data-name="Trazado 27212" d="M470.967,327.675,433.041,267.8l-52.889,73.4,67.059,19.612Z" transform="translate(-380.153 -267.797)" fill="#edece8"/>
          </g>
        </g>
      </g>
      <g id="Grupo_16402" data-name="Grupo 16402" transform="translate(0 0)">
        <g id="Grupo_16401" data-name="Grupo 16401">
          <g id="Grupo_16400" data-name="Grupo 16400">
            <rect id="Rectángulo_4115" data-name="Rectángulo 4115" width="90.474" height="9.56" transform="matrix(0.585, -0.811, 0.811, 0.585, 0, 73.405)" fill="#202f5a"/>
          </g>
        </g>
      </g>
      <g id="Grupo_16404" data-name="Grupo 16404" transform="translate(91.041 77.494)">
        <g id="Grupo_16403" data-name="Grupo 16403" transform="translate(0 0)">
          <rect id="Rectángulo_4116" data-name="Rectángulo 4116" width="12.747" height="37.286" transform="matrix(-0.811, -0.585, 0.585, -0.811, 10.335, 37.693)" fill="#202f5a"/>
        </g>
      </g>
    </g>
    <g id="Grupo_16406" data-name="Grupo 16406" transform="translate(16.588 21.07)">
      <path id="Trazado_27213" data-name="Trazado 27213" d="M390.735,282.227l-2.682,3.475L352.285,262l8.626-8.6Z" transform="translate(-352.285 -253.396)" fill="#2d3e76"/>
    </g>
    <g id="Grupo_16407" data-name="Grupo 16407" transform="translate(0 56.652)">
      <path id="Trazado_27214" data-name="Trazado 27214" d="M382.339,296.938l-1.145,4.237-42.122-8.185,4.671-11.25Z" transform="translate(-339.072 -281.74)" fill="#2d3e76"/>
    </g>
    <g id="Grupo_16408" data-name="Grupo 16408" transform="translate(49.733)">
      <path id="Trazado_27215" data-name="Trazado 27215" d="M405.751,277.878l-3.853,2.1-23.211-36.091,10.584-7.277Z" transform="translate(-378.687 -236.613)" fill="#2d3e76"/>
    </g>
  </g>
  <g id="Grupo_16410" data-name="Grupo 16410" transform="translate(100.528 190.7)">
    <rect id="Rectángulo_4117" data-name="Rectángulo 4117" width="26.077" height="6.519" fill="#edece8"/>
  </g>
  <g id="Grupo_16411" data-name="Grupo 16411" transform="translate(99.069 193.99)">
    <rect id="Rectángulo_4118" data-name="Rectángulo 4118" width="28.995" height="8.196" fill="#202f5a"/>
  </g>
</svg>
