<svg xmlns="http://www.w3.org/2000/svg" width="354" height="303.85" viewBox="0 0 354 303.85">
  <g id="Vegetable_shop" data-name="Vegetable shop" transform="translate(-173.77 -331.045)">
    <path id="Street" d="M527.77,431.549h-354a17.7,17.7,0,0,1,17.7-17.7h318.6a17.7,17.7,0,0,1,17.7,17.7Z" transform="translate(0 203.347)" fill="#555152"/>
    <g id="Building" transform="translate(188.519 372.345)">
      <rect id="Rectángulo_4119" data-name="Rectángulo 4119" width="295.001" height="244.85" transform="translate(14.751)" fill="#e6ebea"/>
      <g id="Grupo_16416" data-name="Grupo 16416" transform="translate(0 174.051)">
        <path id="Trazado_27221" data-name="Trazado 27221" d="M487.79,393.361h-295a14.75,14.75,0,0,0-14.749,14.749V464.16h324.5V408.11A14.75,14.75,0,0,0,487.79,393.361Z" transform="translate(-178.038 -393.361)" fill="#c44d58"/>
        <path id="Trazado_27222" data-name="Trazado 27222" d="M487.79,393.361h-295a14.75,14.75,0,0,0-14.749,14.749h324.5A14.75,14.75,0,0,0,487.79,393.361Z" transform="translate(-178.038 -393.361)" fill="#ff6b6b"/>
      </g>
    </g>
    <g id="Roof" transform="translate(188.519 331.045)">
      <path id="Trazado_27223" data-name="Trazado 27223" d="M182.306,343v61.948A14.751,14.751,0,0,0,197.059,390.2a14.749,14.749,0,1,0,29.5,0,14.749,14.749,0,1,0,29.5,0,14.751,14.751,0,0,0,29.5,0,14.749,14.749,0,1,0,29.5,0,14.751,14.751,0,0,0,29.5,0,14.749,14.749,0,1,0,29.5,0,14.751,14.751,0,0,0,29.5,0,14.749,14.749,0,1,0,29.5,0,14.749,14.749,0,1,0,29.5,0,14.751,14.751,0,0,0,14.753,14.749V343Z" transform="translate(-167.557 -301.695)" fill="#a7a7b8"/>
      <g id="Grupo_16419" data-name="Grupo 16419" transform="translate(29.501)">
        <g id="Grupo_16417" data-name="Grupo 16417" transform="translate(0.001 41.301)">
          <path id="Trazado_27224" data-name="Trazado 27224" d="M201.324,390.2h0a14.75,14.75,0,0,1-14.749-14.749V343h29.5v32.45A14.75,14.75,0,0,1,201.324,390.2Z" transform="translate(-186.575 -342.996)" fill="#cacdd1"/>
          <path id="Trazado_27225" data-name="Trazado 27225" d="M218.4,390.2h0a14.751,14.751,0,0,1-14.753-14.749V343h29.5v32.45A14.75,14.75,0,0,1,218.4,390.2Z" transform="translate(-144.65 -342.996)" fill="#cacdd1"/>
          <path id="Trazado_27226" data-name="Trazado 27226" d="M235.469,390.2h0a14.75,14.75,0,0,1-14.749-14.749V343h29.5v32.45A14.751,14.751,0,0,1,235.469,390.2Z" transform="translate(-102.722 -342.996)" fill="#cacdd1"/>
          <path id="Trazado_27227" data-name="Trazado 27227" d="M252.542,390.2h0a14.75,14.75,0,0,1-14.749-14.749V343h29.5v32.45A14.751,14.751,0,0,1,252.542,390.2Z" transform="translate(-60.795 -342.996)" fill="#cacdd1"/>
          <path id="Trazado_27228" data-name="Trazado 27228" d="M269.615,390.2h0a14.75,14.75,0,0,1-14.749-14.749V343h29.5v32.45A14.75,14.75,0,0,1,269.615,390.2Z" transform="translate(-18.867 -342.996)" fill="#cacdd1"/>
        </g>
        <g id="Grupo_16418" data-name="Grupo 16418">
          <path id="Trazado_27229" data-name="Trazado 27229" d="M223.381,331.045l-2.66,41.3h29.5l-2.66-41.3Z" transform="translate(-102.72 -331.045)" fill="#e6ebea"/>
          <path id="Trazado_27230" data-name="Trazado 27230" d="M216.282,331.045l-12.634,41.3h29.5l7.647-41.3Z" transform="translate(-144.648 -331.045)" fill="#e6ebea"/>
          <path id="Trazado_27231" data-name="Trazado 27231" d="M209.183,331.045l-22.608,41.3h29.5l17.621-41.3Z" transform="translate(-186.575 -331.045)" fill="#e6ebea"/>
          <path id="Trazado_27232" data-name="Trazado 27232" d="M235.58,331.045l7.647,41.3h29.5l-12.634-41.3Z" transform="translate(-66.227 -331.045)" fill="#e6ebea"/>
          <path id="Trazado_27233" data-name="Trazado 27233" d="M249.767,331.045l17.621,41.3h29.5l-22.608-41.3Z" transform="translate(-31.388 -331.045)" fill="#e6ebea"/>
        </g>
      </g>
      <g id="Grupo_16422" data-name="Grupo 16422">
        <g id="Grupo_16420" data-name="Grupo 16420" transform="translate(0 41.301)">
          <path id="Trazado_27234" data-name="Trazado 27234" d="M192.787,390.2h0a14.75,14.75,0,0,1-14.749-14.749V343h29.5v32.45A14.751,14.751,0,0,1,192.787,390.2Z" transform="translate(-178.038 -342.996)" fill="#c44d58"/>
          <path id="Trazado_27235" data-name="Trazado 27235" d="M209.86,390.2h0a14.75,14.75,0,0,1-14.749-14.749V343h29.5v32.45A14.75,14.75,0,0,1,209.86,390.2Z" transform="translate(-136.11 -342.996)" fill="#c44d58"/>
          <path id="Trazado_27236" data-name="Trazado 27236" d="M226.933,390.2h0a14.75,14.75,0,0,1-14.749-14.749V343h29.5v32.45A14.75,14.75,0,0,1,226.933,390.2Z" transform="translate(-94.183 -342.996)" fill="#c44d58"/>
          <path id="Trazado_27237" data-name="Trazado 27237" d="M244.006,390.2h0a14.75,14.75,0,0,1-14.749-14.749V343h29.5v32.45A14.75,14.75,0,0,1,244.006,390.2Z" transform="translate(-52.255 -342.996)" fill="#c44d58"/>
          <path id="Trazado_27238" data-name="Trazado 27238" d="M261.079,390.2h0a14.75,14.75,0,0,1-14.749-14.749V343h29.5v32.45A14.75,14.75,0,0,1,261.079,390.2Z" transform="translate(-10.328 -342.996)" fill="#c44d58"/>
          <path id="Trazado_27239" data-name="Trazado 27239" d="M278.155,390.2h0A14.75,14.75,0,0,1,263.4,375.446V343h29.5v32.45A14.75,14.75,0,0,1,278.155,390.2Z" transform="translate(31.597 -342.996)" fill="#c44d58"/>
        </g>
        <g id="Grupo_16421" data-name="Grupo 16421" transform="translate(0.001)">
          <path id="Trazado_27240" data-name="Trazado 27240" d="M212.732,331.045l-17.621,41.3h29.5l12.634-41.3Z" transform="translate(-136.111 -331.045)" fill="#ff6b6b"/>
          <path id="Trazado_27241" data-name="Trazado 27241" d="M205.634,331.045l-27.6,41.3h29.5l22.608-41.3Z" transform="translate(-178.038 -331.045)" fill="#ff6b6b"/>
          <path id="Trazado_27242" data-name="Trazado 27242" d="M219.831,331.045l-7.647,41.3h29.5l2.66-41.3Z" transform="translate(-94.184 -331.045)" fill="#ff6b6b"/>
          <path id="Trazado_27243" data-name="Trazado 27243" d="M256.86,331.045l22.608,41.3h29.5l-27.6-41.3Z" transform="translate(15.532 -331.045)" fill="#ff6b6b"/>
          <path id="Trazado_27244" data-name="Trazado 27244" d="M228.487,331.045l2.66,41.3h29.5L253,331.045Z" transform="translate(-54.147 -331.045)" fill="#ff6b6b"/>
          <path id="Trazado_27245" data-name="Trazado 27245" d="M242.674,331.045l12.634,41.3h29.5l-17.621-41.3Z" transform="translate(-19.308 -331.045)" fill="#ff6b6b"/>
        </g>
      </g>
    </g>
    <g id="Door" transform="translate(400.92 437.245)">
      <g id="Grupo_16423" data-name="Grupo 16423">
        <rect id="Rectángulo_4120" data-name="Rectángulo 4120" width="82.6" height="14.75" transform="translate(0 165.2)" fill="#a7a7b8"/>
        <rect id="Rectángulo_4121" data-name="Rectángulo 4121" width="82.6" height="5.9" transform="translate(0 165.2)" fill="#e6ebea"/>
        <rect id="Rectángulo_4122" data-name="Rectángulo 4122" width="82.6" height="165.2" fill="#cacdd1"/>
      </g>
      <g id="Grupo_16424" data-name="Grupo 16424" transform="translate(5.9 5.9)">
        <rect id="Rectángulo_4123" data-name="Rectángulo 4123" width="70.8" height="159.3" fill="#bf8e56"/>
        <rect id="Rectángulo_4124" data-name="Rectángulo 4124" width="70.8" height="5.9" fill="#9b6640"/>
      </g>
      <g id="Grupo_16429" data-name="Grupo 16429" transform="translate(11.8 17.701)">
        <g id="Grupo_16426" data-name="Grupo 16426" transform="translate(5.899 53.098)">
          <path id="Trazado_27246" data-name="Trazado 27246" d="M268.222,382.263a23.6,23.6,0,0,0-23.6,23.6v35.4a23.6,23.6,0,0,0,47.2,0v-35.4A23.6,23.6,0,0,0,268.222,382.263Z" transform="translate(-244.622 -382.263)" fill="#9b6640"/>
          <g id="Grupo_16425" data-name="Grupo 16425" transform="translate(5.903 5.903)">
            <path id="Trazado_27247" data-name="Trazado 27247" d="M264.027,454.77a17.717,17.717,0,0,1-17.7-17.7v-35.4a17.7,17.7,0,1,1,35.4,0v35.4A17.717,17.717,0,0,1,264.027,454.77Z" transform="translate(-246.33 -383.971)" fill="#5aa5ad"/>
            <path id="Trazado_27248" data-name="Trazado 27248" d="M264.027,383.971a17.717,17.717,0,0,0-17.7,17.7v5.9a17.7,17.7,0,1,1,35.4,0v-5.9A17.717,17.717,0,0,0,264.027,383.971Z" transform="translate(-246.33 -383.971)" fill="#1d7789"/>
          </g>
        </g>
        <g id="Grupo_16428" data-name="Grupo 16428" transform="translate(5.899)">
          <path id="Trazado_27249" data-name="Trazado 27249" d="M291.825,390.5a23.6,23.6,0,1,1-23.6-23.6A23.6,23.6,0,0,1,291.825,390.5Z" transform="translate(-244.622 -366.898)" fill="#9b6640"/>
          <g id="Grupo_16427" data-name="Grupo 16427" transform="translate(5.903 5.899)">
            <path id="Trazado_27250" data-name="Trazado 27250" d="M281.728,386.305a17.7,17.7,0,1,1-17.7-17.7A17.7,17.7,0,0,1,281.728,386.305Z" transform="translate(-246.33 -368.605)" fill="#5aa5ad"/>
            <path id="Trazado_27251" data-name="Trazado 27251" d="M264.027,374.5a17.688,17.688,0,0,1,17.434,14.753,17.691,17.691,0,1,0-35.132-2.951,18.055,18.055,0,0,0,.263,2.951A17.693,17.693,0,0,1,264.027,374.5Z" transform="translate(-246.33 -368.605)" fill="#1d7789"/>
          </g>
        </g>
        <path id="Trazado_27252" data-name="Trazado 27252" d="M251.765,380.556h-5.9a2.95,2.95,0,0,0-2.951,2.951h0a2.949,2.949,0,0,0,2.951,2.948h5.9a2.951,2.951,0,0,0,2.951-2.948h0A2.952,2.952,0,0,0,251.765,380.556Z" transform="translate(-242.915 -333.357)" fill="#9b6640"/>
      </g>
    </g>
    <g id="Vegetables" transform="translate(218.02 546.395)">
      <g id="Grupo_16430" data-name="Grupo 16430">
        <rect id="Rectángulo_4125" data-name="Rectángulo 4125" width="168.15" height="41.3" fill="#bf8e56"/>
        <rect id="Rectángulo_4126" data-name="Rectángulo 4126" width="168.15" height="29.5" transform="translate(0 41.3)" fill="#9b6640"/>
        <rect id="Rectángulo_4127" data-name="Rectángulo 4127" width="47.2" height="29.5" transform="translate(5.9 5.9)" fill="#773d29"/>
        <rect id="Rectángulo_4128" data-name="Rectángulo 4128" width="44.25" height="29.5" transform="translate(59 5.9)" fill="#773d29"/>
        <rect id="Rectángulo_4129" data-name="Rectángulo 4129" width="53.1" height="29.5" transform="translate(109.15 5.9)" fill="#773d29"/>
      </g>
      <g id="Grupo_16436" data-name="Grupo 16436" transform="translate(2.95 2.949)">
        <g id="Grupo_16431" data-name="Grupo 16431">
          <path id="Trazado_27253" data-name="Trazado 27253" d="M207.689,403.064a8.85,8.85,0,1,1-8.85-8.85A8.85,8.85,0,0,1,207.689,403.064Z" transform="translate(-181.14 -394.214)" fill="#c44d58"/>
          <path id="Trazado_27254" data-name="Trazado 27254" d="M212.812,403.064a8.85,8.85,0,1,1-8.85-8.85A8.85,8.85,0,0,1,212.812,403.064Z" transform="translate(-168.561 -394.214)" fill="#ffb435"/>
          <circle id="Elipse_1096" data-name="Elipse 1096" cx="8.85" cy="8.85" r="8.85" transform="translate(0 8.851)" fill="#ffb435"/>
          <path id="Trazado_27255" data-name="Trazado 27255" d="M210.25,405.625a8.85,8.85,0,1,1-8.85-8.85A8.85,8.85,0,0,1,210.25,405.625Z" transform="translate(-174.85 -387.925)" fill="#ff6b6b"/>
          <path id="Trazado_27256" data-name="Trazado 27256" d="M215.373,405.625a8.85,8.85,0,1,1-8.85-8.85A8.85,8.85,0,0,1,215.373,405.625Z" transform="translate(-162.272 -387.925)" fill="#ff6b6b"/>
          <path id="Trazado_27257" data-name="Trazado 27257" d="M207.689,407.33a8.85,8.85,0,1,1-8.85-8.847A8.85,8.85,0,0,1,207.689,407.33Z" transform="translate(-181.14 -383.73)" fill="#c44d58"/>
          <circle id="Elipse_1097" data-name="Elipse 1097" cx="8.85" cy="8.85" r="8.85" transform="translate(26.55 14.751)" fill="#c44d58"/>
          <path id="Trazado_27258" data-name="Trazado 27258" d="M188.282,409.893a8.85,8.85,0,1,1,17.7,0Z" transform="translate(-185.332 -377.443)" fill="#ff6b6b"/>
          <path id="Trazado_27259" data-name="Trazado 27259" d="M192.55,409.893a8.85,8.85,0,1,1,17.7,0Z" transform="translate(-174.85 -377.443)" fill="#ffb435"/>
          <path id="Trazado_27260" data-name="Trazado 27260" d="M196.818,409.893a8.85,8.85,0,1,1,17.7,0Z" transform="translate(-164.369 -377.443)" fill="#ff6b6b"/>
        </g>
        <g id="Grupo_16434" data-name="Grupo 16434" transform="translate(56.048 2.951)">
          <g id="Grupo_16432" data-name="Grupo 16432">
            <path id="Trazado_27261" data-name="Trazado 27261" d="M208.074,395.068h0a4.427,4.427,0,0,0-4.427,4.427v13.273h8.85V399.495A4.424,4.424,0,0,0,208.074,395.068Z" transform="translate(-203.647 -395.068)" fill="#3c966e"/>
            <path id="Trazado_27262" data-name="Trazado 27262" d="M210.635,395.068h0a4.427,4.427,0,0,0-4.427,4.427v13.273h8.85V399.495A4.424,4.424,0,0,0,210.635,395.068Z" transform="translate(-197.358 -395.068)" fill="#74d4a8"/>
            <path id="Trazado_27263" data-name="Trazado 27263" d="M213.2,395.068h0a4.427,4.427,0,0,0-4.427,4.427v13.273h8.85V399.495A4.424,4.424,0,0,0,213.2,395.068Z" transform="translate(-191.068 -395.068)" fill="#3c966e"/>
            <path id="Trazado_27264" data-name="Trazado 27264" d="M215.757,395.068h0a4.427,4.427,0,0,0-4.427,4.427v13.273h8.85V399.495A4.424,4.424,0,0,0,215.757,395.068Z" transform="translate(-184.779 -395.068)" fill="#74d4a8"/>
            <path id="Trazado_27265" data-name="Trazado 27265" d="M218.318,395.068h0a4.425,4.425,0,0,0-4.427,4.427v13.273h8.85V399.495A4.424,4.424,0,0,0,218.318,395.068Z" transform="translate(-178.49 -395.068)" fill="#3c966e"/>
          </g>
          <g id="Grupo_16433" data-name="Grupo 16433" transform="translate(0 11.802)">
            <path id="Trazado_27266" data-name="Trazado 27266" d="M208.074,398.483h0a4.426,4.426,0,0,0-4.427,4.424V416.18h8.85V402.906A4.423,4.423,0,0,0,208.074,398.483Z" transform="translate(-203.647 -398.483)" fill="#74d4a8"/>
            <path id="Trazado_27267" data-name="Trazado 27267" d="M210.635,398.483h0a4.426,4.426,0,0,0-4.427,4.424V416.18h8.85V402.906A4.423,4.423,0,0,0,210.635,398.483Z" transform="translate(-197.358 -398.483)" fill="#3c966e"/>
            <path id="Trazado_27268" data-name="Trazado 27268" d="M213.2,398.483h0a4.426,4.426,0,0,0-4.427,4.424V416.18h8.85V402.906A4.423,4.423,0,0,0,213.2,398.483Z" transform="translate(-191.068 -398.483)" fill="#74d4a8"/>
            <path id="Trazado_27269" data-name="Trazado 27269" d="M215.757,398.483h0a4.426,4.426,0,0,0-4.427,4.424V416.18h8.85V402.906A4.423,4.423,0,0,0,215.757,398.483Z" transform="translate(-184.779 -398.483)" fill="#3c966e"/>
            <path id="Trazado_27270" data-name="Trazado 27270" d="M218.318,398.483h0a4.424,4.424,0,0,0-4.427,4.424V416.18h8.85V402.906A4.423,4.423,0,0,0,218.318,398.483Z" transform="translate(-178.49 -398.483)" fill="#74d4a8"/>
          </g>
        </g>
        <g id="Grupo_16435" data-name="Grupo 16435" transform="translate(106.199 2.951)">
          <path id="Trazado_27271" data-name="Trazado 27271" d="M231.546,395.068h0a4.424,4.424,0,0,0-4.423,4.427v13.273h8.85V399.495A4.427,4.427,0,0,0,231.546,395.068Z" transform="translate(-196.145 -395.068)" fill="#f7e4be"/>
          <path id="Trazado_27272" data-name="Trazado 27272" d="M234.107,395.068h0a4.424,4.424,0,0,0-4.423,4.427v13.273h8.847V399.495A4.424,4.424,0,0,0,234.107,395.068Z" transform="translate(-189.856 -395.068)" fill="#ffb435"/>
          <path id="Trazado_27273" data-name="Trazado 27273" d="M223.863,395.068h0a4.424,4.424,0,0,0-4.423,4.427v13.273h8.85V399.495A4.427,4.427,0,0,0,223.863,395.068Z" transform="translate(-215.013 -395.068)" fill="#f7e4be"/>
          <path id="Trazado_27274" data-name="Trazado 27274" d="M226.424,395.068h0A4.424,4.424,0,0,0,222,399.495v13.273h8.85V399.495A4.427,4.427,0,0,0,226.424,395.068Z" transform="translate(-208.724 -395.068)" fill="#ffb435"/>
          <path id="Trazado_27275" data-name="Trazado 27275" d="M228.985,395.068h0a4.424,4.424,0,0,0-4.423,4.427v13.273h8.85V399.495A4.427,4.427,0,0,0,228.985,395.068Z" transform="translate(-202.435 -395.068)" fill="#9b6640"/>
          <path id="Trazado_27276" data-name="Trazado 27276" d="M232.83,398.483h0a4.424,4.424,0,0,0-4.427,4.424V416.18h8.85V402.906A4.423,4.423,0,0,0,232.83,398.483Z" transform="translate(-193.002 -386.681)" fill="#9b6640"/>
          <path id="Trazado_27277" data-name="Trazado 27277" d="M235.387,398.483h0a4.423,4.423,0,0,0-4.423,4.424V416.18h8.85V402.906A4.424,4.424,0,0,0,235.387,398.483Z" transform="translate(-186.713 -386.681)" fill="#f7e4be"/>
          <path id="Trazado_27278" data-name="Trazado 27278" d="M230.269,398.483h0a4.424,4.424,0,0,0-4.427,4.424V416.18h8.85V402.906A4.423,4.423,0,0,0,230.269,398.483Z" transform="translate(-199.291 -386.681)" fill="#ffb435"/>
          <path id="Trazado_27279" data-name="Trazado 27279" d="M225.147,398.483h0a4.426,4.426,0,0,0-4.427,4.424V416.18h8.85V402.906A4.423,4.423,0,0,0,225.147,398.483Z" transform="translate(-211.87 -386.681)" fill="#9b6640"/>
          <path id="Trazado_27280" data-name="Trazado 27280" d="M227.708,398.483h0a4.426,4.426,0,0,0-4.427,4.424V416.18h8.85V402.906A4.423,4.423,0,0,0,227.708,398.483Z" transform="translate(-205.58 -386.681)" fill="#f7e4be"/>
          <path id="Trazado_27281" data-name="Trazado 27281" d="M222.586,398.483h0a4.426,4.426,0,0,0-4.427,4.424V416.18h8.85V402.906A4.423,4.423,0,0,0,222.586,398.483Z" transform="translate(-218.159 -386.681)" fill="#ffb435"/>
        </g>
      </g>
    </g>
    <g id="Window" transform="translate(218.02 437.245)">
      <g id="Window-2" data-name="Window">
        <rect id="Rectángulo_4130" data-name="Rectángulo 4130" width="168.15" height="103.25" fill="#cacdd1"/>
        <g id="Grupo_16437" data-name="Grupo 16437" transform="translate(5.9 5.9)">
          <rect id="Rectángulo_4131" data-name="Rectángulo 4131" width="48.183" height="91.45" transform="translate(108.167)" fill="#5aa5ad"/>
          <rect id="Rectángulo_4132" data-name="Rectángulo 4132" width="48.184" height="91.45" transform="translate(54.083)" fill="#5aa5ad"/>
          <rect id="Rectángulo_4133" data-name="Rectángulo 4133" width="48.183" height="91.45" fill="#5aa5ad"/>
        </g>
        <g id="Grupo_16438" data-name="Grupo 16438" transform="translate(5.9 5.9)">
          <rect id="Rectángulo_4134" data-name="Rectángulo 4134" width="48.183" height="5.9" transform="translate(108.167)" fill="#1d7789"/>
          <rect id="Rectángulo_4135" data-name="Rectángulo 4135" width="48.184" height="5.9" transform="translate(54.083)" fill="#1d7789"/>
          <rect id="Rectángulo_4136" data-name="Rectángulo 4136" width="48.183" height="5.9" fill="#1d7789"/>
        </g>
      </g>
      <g id="Plant" transform="translate(129.31 70.799)">
        <path id="Trazado_27282" data-name="Trazado 27282" d="M238.742,387.385h-11.8a2.949,2.949,0,0,0-2.948,2.951h0a5.9,5.9,0,0,0,5.9,5.9h5.9a5.9,5.9,0,0,0,5.9-5.9h0A2.949,2.949,0,0,0,238.742,387.385Z" transform="translate(-223.993 -369.684)" fill="#3c8e9b"/>
        <path id="Trazado_27283" data-name="Trazado 27283" d="M223.993,384.824h0a8.849,8.849,0,0,1,8.847,8.85h0a8.847,8.847,0,0,1-8.847-8.85Z" transform="translate(-223.993 -375.974)" fill="#3c8e9b"/>
        <path id="Trazado_27284" data-name="Trazado 27284" d="M235.4,382.263v8.85a8.861,8.861,0,0,1-8.85,8.85v-8.85a8.873,8.873,0,0,1,8.85-8.85Z" transform="translate(-217.706 -382.263)" fill="#3c8e9b"/>
      </g>
      <g id="Grupo_16439" data-name="Grupo 16439" transform="translate(15.242 32.45)">
        <rect id="Rectángulo_4137" data-name="Rectángulo 4137" width="29.5" height="41.3" fill="#e6ebea"/>
        <rect id="Rectángulo_4138" data-name="Rectángulo 4138" width="5.9" height="5.9" transform="translate(20.65 5.9)" fill="#c44d58"/>
        <rect id="Rectángulo_4139" data-name="Rectángulo 4139" width="14.75" height="5.9" transform="translate(2.95 5.9)" fill="#a7a7b8"/>
        <rect id="Rectángulo_4140" data-name="Rectángulo 4140" width="5.9" height="5.9" transform="translate(20.65 14.75)" fill="#c44d58"/>
        <rect id="Rectángulo_4141" data-name="Rectángulo 4141" width="14.75" height="5.9" transform="translate(2.95 14.75)" fill="#a7a7b8"/>
        <rect id="Rectángulo_4142" data-name="Rectángulo 4142" width="5.9" height="5.9" transform="translate(20.65 23.6)" fill="#c44d58"/>
        <rect id="Rectángulo_4143" data-name="Rectángulo 4143" width="14.75" height="5.9" transform="translate(2.95 23.6)" fill="#a7a7b8"/>
      </g>
    </g>
  </g>
</svg>
