<svg xmlns="http://www.w3.org/2000/svg" xmlns:xlink="http://www.w3.org/1999/xlink" width="124.767" height="124.767" viewBox="0 0 124.767 124.767">
  <defs>
    <radialGradient id="radial-gradient" cx="0.076" cy="0.019" r="1.465" gradientTransform="translate(0.001)" gradientUnits="objectBoundingBox">
      <stop offset="0" stop-color="#f6f6f7"/>
      <stop offset="0.477" stop-color="#f9f9fa"/>
      <stop offset="0.715" stop-color="#fff"/>
    </radialGradient>
  </defs>
  <g id="Grupo_50460" data-name="Grupo 50460" transform="translate(-217 -997)">
    <g id="Grupo_18531" data-name="Grupo 18531" transform="translate(217 997)">
      <g id="Grupo_18423" data-name="Grupo 18423" transform="translate(0 0)">
        <g id="Grupo_18421" data-name="Grupo 18421">
          <g id="Grupo_18420" data-name="Grupo 18420">
            <g id="Grupo_18419" data-name="Grupo 18419">
              <path id="Trazado_40936" data-name="Trazado 40936" d="M319.39,2208.1a62.384,62.384,0,1,1-62.383-62.382A62.383,62.383,0,0,1,319.39,2208.1Z" transform="translate(-194.623 -2145.721)" fill="#fff"/>
            </g>
          </g>
        </g>
        <path id="Trazado_40937" data-name="Trazado 40937" d="M318.65,2207.3a62.382,62.382,0,1,0-62.383,62.385A62.136,62.136,0,0,0,318.65,2207.3Z" transform="translate(-193.883 -2144.915)" fill="url(#radial-gradient)"/>
        <path id="Trazado_40938" data-name="Trazado 40938" d="M297.307,2200.746a47.617,47.617,0,1,0-47.617,47.617A47.44,47.44,0,0,0,297.307,2200.746Z" transform="translate(-187.117 -2138.156)" fill="none" stroke="#7d6eb2" stroke-miterlimit="10" stroke-width="4"/>
        <g id="Grupo_18422" data-name="Grupo 18422" transform="translate(11.052 35.024)">
          <path id="Trazado_40939" data-name="Trazado 40939" d="M307.953,2164.488a62.391,62.391,0,0,1-107.408,62.125,62.193,62.193,0,0,0,107.408-62.125Z" transform="translate(-200.545 -2164.488)" fill="#eceef0"/>
        </g>
      </g>
    </g>
    <g id="Grupo_53004" data-name="Grupo 53004" transform="translate(-19.598 693.352)">
      <path id="Trazado_96545" data-name="Trazado 96545" d="M272.07,383.72a4.015,4.015,0,0,1,4.164-2.927c-1.351-2.021-1.849-4.063-.771-6.223a5.669,5.669,0,0,1,4.065-3.053v-7.523h20.484v-5.626h-8.359v-4.062c0-1.285-.007-2.57,0-3.854.021-2.979,1.505-4.683,4.428-5.123a20.9,20.9,0,0,1-1.4-3.3,6.316,6.316,0,0,1,4.8-7.689,5.244,5.244,0,0,0,.6-.223h1.8c3.114.778,5.116,2.624,5.568,5.9a6.824,6.824,0,0,1-1.739,5.183c3.6.942,4.6,2.28,4.6,6.042,0,2.3,0,4.6,0,7.043h-8.344V363.9h20.418v7.477c4.691,1.85,5.839,4.992,3.386,9.391a4.063,4.063,0,0,1,4.124,2.951v8.224h-16.7q-.011-3.79-.021-7.58a3.355,3.355,0,0,1,1.9-3.111,9.949,9.949,0,0,1,2.032-.593c-2.189-4.69-1.333-6.991,3.441-9.285V365.84H301.954v5.636c4.5,1.49,5.651,4.63,3.4,9.192,3.3.759,3.979,1.628,3.979,5.109q0,3.084,0,6.167h-16.7c0-2.484.008-4.968,0-7.452a3.346,3.346,0,0,1,1.619-3.023,12.062,12.062,0,0,1,2.324-.858c-2.216-4.522-1.249-7.15,3.445-9.22,0-1.826,0-3.651,0-5.515H281.4v5.571c4.583,1.649,5.674,4.611,3.432,9.241a1.631,1.631,0,0,0,.331.124c2.54.357,3.619,1.548,3.629,4.066.01,2.355-.012,4.71-.02,7.066h-16.7Zm25.212-27.3h7.456v-5.415h1.845v5.432h1.862c0-2.312.117-4.576-.04-6.821a2.547,2.547,0,0,0-2.813-2.406q-4.625-.028-9.249,0a2.586,2.586,0,0,0-2.811,2.419c-.139,2.248-.036,4.51-.036,6.777h1.984v-5.386h1.8Zm-10.306,33.652c0-1.985.042-3.862-.016-5.735a1.626,1.626,0,0,0-1.732-1.688c-3.164-.04-6.328-.034-9.493-.011a1.7,1.7,0,0,0-1.806,1.652c-.111,1.9-.032,3.821-.032,5.736h2.02v-4.464h1.809v4.479h5.635v-4.5h1.8v4.529Zm41.08,0c0-1.969.078-3.886-.034-5.792a1.65,1.65,0,0,0-1.692-1.621c-3.207-.032-6.417-.079-9.619.045-.579.023-1.57.789-1.615,1.281-.185,2.018-.077,4.062-.077,6.084h1.8v-4.492H318.7v4.463h5.6v-4.478h1.842v4.51ZM298.2,385.538v4.53h5.589v-4.506h1.9v4.481h1.843c0-1.919.042-3.752-.016-5.581a1.7,1.7,0,0,0-1.774-1.808c-3.162-.046-6.325-.032-9.488-.01a1.635,1.635,0,0,0-1.767,1.527c-.113,1.946-.034,3.9-.034,5.887h1.88v-4.518Zm2.838-49.6a4.713,4.713,0,1,0,4.66,4.833A4.853,4.853,0,0,0,301.036,335.935Zm3.677,41.082a3.731,3.731,0,1,0-3.734,3.779A3.817,3.817,0,0,0,304.712,377.017Zm-20.545-.029a3.754,3.754,0,0,0-3.74-3.754,3.78,3.78,0,0,0,.061,7.559A3.733,3.733,0,0,0,284.167,376.988Zm33.621-.053a3.729,3.729,0,0,0,3.627,3.855,3.778,3.778,0,0,0,.164-7.553A3.751,3.751,0,0,0,317.788,376.934Z" fill="#00223d"/>
      <path id="Trazado_96556" data-name="Trazado 96556" d="M321.211,465.412v1.652h-1.649v-1.652Z" transform="translate(-35.287 -97.551)" fill="#00223d"/>
      <path id="Trazado_96557" data-name="Trazado 96557" d="M335.95,467.016H334.3v-1.69h1.652Z" transform="translate(-46.236 -97.487)" fill="#00223d"/>
      <path id="Trazado_96558" data-name="Trazado 96558" d="M350.192,467.052h-1.641v-1.644h1.641Z" transform="translate(-56.826 -97.548)" fill="#00223d"/>
      <path id="Trazado_96559" data-name="Trazado 96559" d="M363.092,467.018v-1.611h1.7v1.611Z" transform="translate(-67.63 -97.547)" fill="#00223d"/>
      <path id="Trazado_96560" data-name="Trazado 96560" d="M401.094,466.991H399.44v-1.683h1.654Z" transform="translate(-94.637 -97.473)" fill="#00223d"/>
      <path id="Trazado_96561" data-name="Trazado 96561" d="M414.222,465.227h1.633v1.644h-1.633Z" transform="translate(-105.62 -97.413)" fill="#00223d"/>
      <path id="Trazado_96562" data-name="Trazado 96562" d="M430.1,467.056h-1.611V465.4H430.1Z" transform="translate(-116.222 -97.54)" fill="#00223d"/>
      <path id="Trazado_96563" data-name="Trazado 96563" d="M444.947,465.371v1.645H443.3v-1.645Z" transform="translate(-127.224 -97.52)" fill="#00223d"/>
    </g>
  </g>
</svg>
