<svg xmlns="http://www.w3.org/2000/svg" xmlns:xlink="http://www.w3.org/1999/xlink" width="254.448" height="271.125" viewBox="0 0 254.448 271.125">
  <defs>
    <linearGradient id="linear-gradient" x1="1.047" y1="-0.803" x2="0.223" y2="1.106" gradientUnits="objectBoundingBox">
      <stop offset="0" stop-color="#1d325f"/>
      <stop offset="1" stop-color="#00030e"/>
    </linearGradient>
    <linearGradient id="linear-gradient-2" x1="2.929" y1="-13.106" x2="0.343" y2="1.338" xlink:href="#linear-gradient"/>
    <linearGradient id="linear-gradient-3" x1="4.546" y1="-12.953" x2="0.602" y2="0.147" xlink:href="#linear-gradient"/>
    <linearGradient id="linear-gradient-4" x1="0.5" x2="0.5" y2="1" gradientUnits="objectBoundingBox">
      <stop offset="0" stop-color="#fff"/>
      <stop offset="1" stop-color="#d2e6ee"/>
    </linearGradient>
  </defs>
  <g id="Grupo_46331" data-name="Grupo 46331" transform="translate(-147.716 -96.925)">
    <path id="Trazado_96572" data-name="Trazado 96572" d="M200.488,175.892c-33.384-10.813-61.475,21.348-49.389,48.095,12.532,27.734,45.127,3.294,31.663-4.333-6.767-3.834-19.624,3.789-24.022,15.459-5.575,14.79-7.912,26.132-4.617,43.187,6.645,34.39,39.415,54.8,69.256,34.309,15.637-10.735,31.131-28.789,55.423-28.789" transform="translate(0 -4.537)" fill="none" stroke="#fff" stroke-miterlimit="10" stroke-width="1" stroke-dasharray="3"/>
    <path id="Trazado_96573" data-name="Trazado 96573" d="M219.335,172.477a25.515,25.515,0,0,0-.613-5.572,2.887,2.887,0,0,1,1.358-3.145l2.526-1.458a2.879,2.879,0,0,0,1.054-3.934L221,153.751a2.881,2.881,0,0,0-3.935-1.054l-2.533,1.462a2.885,2.885,0,0,1-3.4-.4,25.4,25.4,0,0,0-9.645-5.571,2.882,2.882,0,0,1-2.042-2.747v-2.923a2.88,2.88,0,0,0-2.88-2.88h-5.331a2.88,2.88,0,0,0-2.88,2.88v2.923a2.883,2.883,0,0,1-2.041,2.747,25.4,25.4,0,0,0-9.646,5.571,2.885,2.885,0,0,1-3.4.4l-2.533-1.462a2.879,2.879,0,0,0-3.934,1.054l-2.666,4.617a2.88,2.88,0,0,0,1.055,3.934l2.525,1.458a2.885,2.885,0,0,1,1.358,3.145,25.618,25.618,0,0,0,0,11.144,2.887,2.887,0,0,1-1.358,3.145l-2.525,1.458a2.88,2.88,0,0,0-1.055,3.934l2.666,4.617a2.879,2.879,0,0,0,3.934,1.054l2.533-1.462a2.887,2.887,0,0,1,3.4.4,25.405,25.405,0,0,0,9.646,5.571,2.883,2.883,0,0,1,2.041,2.747v2.923a2.88,2.88,0,0,0,2.88,2.88h5.331a2.88,2.88,0,0,0,2.88-2.88v-2.923a2.882,2.882,0,0,1,2.042-2.747,25.4,25.4,0,0,0,9.645-5.571,2.887,2.887,0,0,1,3.4-.4l2.533,1.463A2.881,2.881,0,0,0,221,191.2l2.665-4.616a2.88,2.88,0,0,0-1.054-3.935l-2.526-1.458a2.886,2.886,0,0,1-1.358-3.145A25.515,25.515,0,0,0,219.335,172.477ZM193.892,185.5a13.019,13.019,0,1,1,13.019-13.019A13.019,13.019,0,0,1,193.892,185.5Z" transform="translate(-0.599 -3.219)" fill="#fff"/>
    <path id="Trazado_96574" data-name="Trazado 96574" d="M259.133,185.221a19.7,19.7,0,0,0-.474-4.309,2.232,2.232,0,0,1,1.051-2.43l1.952-1.128a2.226,2.226,0,0,0,.815-3.042l-2.061-3.57a2.226,2.226,0,0,0-3.042-.815l-1.958,1.131a2.232,2.232,0,0,1-2.631-.307,19.638,19.638,0,0,0-7.457-4.307,2.231,2.231,0,0,1-1.579-2.125v-2.259a2.227,2.227,0,0,0-2.226-2.227H237.4a2.227,2.227,0,0,0-2.227,2.227v2.259a2.23,2.23,0,0,1-1.578,2.125,19.634,19.634,0,0,0-7.458,4.307,2.231,2.231,0,0,1-2.631.307l-1.958-1.131a2.226,2.226,0,0,0-3.042.815l-2.061,3.57a2.227,2.227,0,0,0,.815,3.042l1.953,1.128a2.229,2.229,0,0,1,1.051,2.43,19.817,19.817,0,0,0,0,8.617,2.23,2.23,0,0,1-1.051,2.431l-1.953,1.128a2.227,2.227,0,0,0-.815,3.042l2.061,3.57a2.227,2.227,0,0,0,3.042.815l1.958-1.132a2.231,2.231,0,0,1,2.631.307A19.636,19.636,0,0,0,233.6,204a2.229,2.229,0,0,1,1.578,2.124v2.26a2.227,2.227,0,0,0,2.227,2.227h4.122a2.227,2.227,0,0,0,2.226-2.227v-2.26A2.229,2.229,0,0,1,245.328,204a19.64,19.64,0,0,0,7.457-4.308,2.23,2.23,0,0,1,2.631-.306l1.958,1.131a2.227,2.227,0,0,0,3.042-.815l2.061-3.57a2.226,2.226,0,0,0-.815-3.042l-1.952-1.128a2.233,2.233,0,0,1-1.051-2.431A19.691,19.691,0,0,0,259.133,185.221Zm-19.671,10.065a10.065,10.065,0,1,1,10.065-10.065A10.066,10.066,0,0,1,239.462,195.287Z" transform="translate(-2.624 -4)" fill="#7d6eb2"/>
    <path id="Trazado_96575" data-name="Trazado 96575" d="M214.432,179.132c7.537,4.477,26.159,9.448,35.029,1.92s9-24.077,2.043-33.4c-2.636-3.535-7.9-6.312-11.246-3.439-2.9,2.5-1.826,7.492.927,10.154,5.256,5.084,14.218,4.265,20.342.27,19.832-12.936,36.284-27.995,58.288-32.866,27.04-5.986,49.364,7.431,41.134,26.675-3.7,8.66-7.58,17.459-8.685,26.813s2.838,20.36,11.819,23.2c5.713,1.8,11.842-.1,17.664-1.524s12.515-2.191,17.323,1.386c4.939,3.674,6.576,11.291,3.737,16.753-7.1,13.664-43.977,16.919-43.977,35.457" transform="translate(-2.558 -2.473)" fill="none" stroke="#fff" stroke-miterlimit="10" stroke-width="1" stroke-dasharray="3"/>
    <g id="Grupo_46303" data-name="Grupo 46303" transform="translate(321.934 138.263)">
      <g id="Grupo_46301" data-name="Grupo 46301" transform="translate(0 0)">
        <rect id="Rectángulo_28305" data-name="Rectángulo 28305" width="55.56" height="74.869" rx="5.13" fill="#fff"/>
        <path id="Trazado_96576" data-name="Trazado 96576" d="M334.046,141.557h45.7a4.93,4.93,0,0,1,4.931,4.931v65.006a4.931,4.931,0,0,1-4.931,4.932" transform="translate(-329.115 -141.557)" fill="none" stroke="#00223d" stroke-linecap="round" stroke-miterlimit="10" stroke-width="0.25"/>
      </g>
      <g id="Grupo_46302" data-name="Grupo 46302" transform="translate(8.784 20.092)">
        <rect id="Rectángulo_28306" data-name="Rectángulo 28306" width="32.466" height="2.661" fill="#e8e8e8"/>
        <rect id="Rectángulo_28307" data-name="Rectángulo 28307" width="32.466" height="2.661" transform="translate(0 10.252)" fill="#e8e8e8"/>
        <rect id="Rectángulo_28308" data-name="Rectángulo 28308" width="32.466" height="2.661" transform="translate(0 20.505)" fill="#e8e8e8"/>
        <rect id="Rectángulo_28309" data-name="Rectángulo 28309" width="32.466" height="2.661" transform="translate(0 30.757)" fill="#e8e8e8"/>
        <rect id="Rectángulo_28310" data-name="Rectángulo 28310" width="32.466" height="2.661" transform="translate(0 41.009)" fill="#e8e8e8"/>
      </g>
      <rect id="Rectángulo_28311" data-name="Rectángulo 28311" width="5.145" height="5.145" rx="0.969" transform="translate(44.686 18.85)" fill="none" stroke="#00223d" stroke-linecap="round" stroke-miterlimit="10" stroke-width="0.25"/>
      <rect id="Rectángulo_28312" data-name="Rectángulo 28312" width="5.145" height="5.145" rx="0.969" transform="translate(44.686 29.102)" fill="none" stroke="#00223d" stroke-linecap="round" stroke-miterlimit="10" stroke-width="0.25"/>
      <rect id="Rectángulo_28313" data-name="Rectángulo 28313" width="5.145" height="5.145" rx="0.969" transform="translate(44.686 39.354)" fill="none" stroke="#00223d" stroke-linecap="round" stroke-miterlimit="10" stroke-width="0.25"/>
      <rect id="Rectángulo_28314" data-name="Rectángulo 28314" width="5.145" height="5.145" rx="0.969" transform="translate(44.686 49.606)" fill="none" stroke="#00223d" stroke-linecap="round" stroke-miterlimit="10" stroke-width="0.25"/>
      <rect id="Rectángulo_28315" data-name="Rectángulo 28315" width="5.145" height="5.145" rx="0.969" transform="translate(44.686 59.858)" fill="none" stroke="#00223d" stroke-linecap="round" stroke-miterlimit="10" stroke-width="0.25"/>
      <path id="Trazado_96577" data-name="Trazado 96577" d="M376.368,165.385l.03-3.252,3.253.03-.03,3.222Z" transform="translate(-330.751 -142.352)" fill="#26aab7"/>
      <path id="Trazado_96578" data-name="Trazado 96578" d="M376.368,176.05l.03-3.253,3.253.03-.03,3.223Z" transform="translate(-330.751 -142.764)" fill="#26aab7"/>
      <path id="Trazado_96579" data-name="Trazado 96579" d="M376.368,186.714l.03-3.253,3.253.03-.03,3.222Z" transform="translate(-330.751 -143.176)" fill="#26aab7"/>
    </g>
    <g id="Grupo_46314" data-name="Grupo 46314" transform="translate(283.188 241.849)">
      <g id="Grupo_46304" data-name="Grupo 46304" transform="translate(0 8.45)">
        <rect id="Rectángulo_28316" data-name="Rectángulo 28316" width="109.958" height="87.488" rx="12" fill="#fff"/>
        <path id="Trazado_96580" data-name="Trazado 96580" d="M398.571,271.738V333a13.115,13.115,0,0,1-13.115,13.115H301.728A13.115,13.115,0,0,1,288.613,333" transform="translate(-288.613 -258.623)" fill="none" stroke="#00223d" stroke-miterlimit="10" stroke-width="0.25"/>
        <path id="Trazado_96581" data-name="Trazado 96581" d="M288.613,271.211A13.115,13.115,0,0,1,301.728,258.1h83.728a13.115,13.115,0,0,1,13.115,13.115Z" transform="translate(-288.613 -258.096)" fill="#7d6eb2"/>
      </g>
      <g id="Grupo_46309" data-name="Grupo 46309" transform="translate(15.652 31.326)">
        <g id="Grupo_46305" data-name="Grupo 46305">
          <rect id="Rectángulo_28317" data-name="Rectángulo 28317" width="13.723" height="9.596" rx="1.684" fill="#e8e8e8"/>
          <rect id="Rectángulo_28318" data-name="Rectángulo 28318" width="13.723" height="9.596" rx="1.684" transform="translate(16.233)" fill="#e8e8e8"/>
          <rect id="Rectángulo_28319" data-name="Rectángulo 28319" width="13.723" height="9.596" rx="1.684" transform="translate(32.466)" fill="#e8e8e8"/>
          <rect id="Rectángulo_28320" data-name="Rectángulo 28320" width="13.723" height="9.596" rx="1.684" transform="translate(48.698)" fill="#e8e8e8"/>
          <rect id="Rectángulo_28321" data-name="Rectángulo 28321" width="13.723" height="9.596" rx="1.684" transform="translate(64.931)" fill="#e8e8e8"/>
        </g>
        <g id="Grupo_46306" data-name="Grupo 46306" transform="translate(0 13.434)">
          <rect id="Rectángulo_28322" data-name="Rectángulo 28322" width="13.723" height="9.596" rx="1.684" fill="#e8e8e8"/>
          <rect id="Rectángulo_28323" data-name="Rectángulo 28323" width="13.723" height="9.596" rx="1.684" transform="translate(16.233)" fill="#7d6eb2"/>
          <rect id="Rectángulo_28324" data-name="Rectángulo 28324" width="13.723" height="9.596" rx="1.684" transform="translate(32.466)" fill="#e8e8e8"/>
          <rect id="Rectángulo_28325" data-name="Rectángulo 28325" width="13.723" height="9.596" rx="1.684" transform="translate(48.698)" fill="#e8e8e8"/>
          <rect id="Rectángulo_28326" data-name="Rectángulo 28326" width="13.723" height="9.596" rx="1.684" transform="translate(64.931)" fill="#e8e8e8"/>
        </g>
        <g id="Grupo_46307" data-name="Grupo 46307" transform="translate(0 26.868)">
          <rect id="Rectángulo_28327" data-name="Rectángulo 28327" width="13.723" height="9.596" rx="1.684" fill="#e8e8e8"/>
          <rect id="Rectángulo_28328" data-name="Rectángulo 28328" width="13.723" height="9.596" rx="1.684" transform="translate(16.233)" fill="#e8e8e8"/>
          <rect id="Rectángulo_28329" data-name="Rectángulo 28329" width="13.723" height="9.596" rx="1.684" transform="translate(32.466)" fill="#e8e8e8"/>
          <rect id="Rectángulo_28330" data-name="Rectángulo 28330" width="13.723" height="9.596" rx="1.684" transform="translate(48.698)" fill="#7d6eb2"/>
          <rect id="Rectángulo_28331" data-name="Rectángulo 28331" width="13.723" height="9.596" rx="1.684" transform="translate(64.931)" fill="#e8e8e8"/>
        </g>
        <g id="Grupo_46308" data-name="Grupo 46308" transform="translate(0 40.302)">
          <rect id="Rectángulo_28332" data-name="Rectángulo 28332" width="13.723" height="9.596" rx="1.684" fill="#e8e8e8"/>
          <rect id="Rectángulo_28333" data-name="Rectángulo 28333" width="13.723" height="9.596" rx="1.684" transform="translate(16.233)" fill="#e8e8e8"/>
          <rect id="Rectángulo_28334" data-name="Rectángulo 28334" width="13.723" height="9.596" rx="1.684" transform="translate(32.466)" fill="#e8e8e8"/>
          <rect id="Rectángulo_28335" data-name="Rectángulo 28335" width="13.723" height="9.596" rx="1.684" transform="translate(48.698)" fill="#e8e8e8"/>
          <rect id="Rectángulo_28336" data-name="Rectángulo 28336" width="13.723" height="9.596" rx="1.684" transform="translate(64.931)" fill="#e8e8e8"/>
        </g>
      </g>
      <g id="Grupo_46310" data-name="Grupo 46310" transform="translate(79.788)">
        <path id="Trazado_96582" data-name="Trazado 96582" d="M374.869,266.206h0a3.261,3.261,0,0,1-3.261-3.261V252.567a3.261,3.261,0,0,1,3.261-3.261h0a3.261,3.261,0,0,1,3.261,3.261v10.378A3.261,3.261,0,0,1,374.869,266.206Z" transform="translate(-371.608 -249.306)" fill="#cfdeff"/>
        <path id="Trazado_96583" data-name="Trazado 96583" d="M378.13,252.7v10.378a3.261,3.261,0,0,1-3.261,3.261h0a3.261,3.261,0,0,1-3.261-3.261" transform="translate(-371.608 -249.437)" fill="none" stroke="#00030e" stroke-linecap="round" stroke-miterlimit="10" stroke-width="0.25"/>
      </g>
      <g id="Grupo_46311" data-name="Grupo 46311" transform="translate(50.62 31.765)">
        <path id="Trazado_96584" data-name="Trazado 96584" d="M348.532,291.066h0l-5.741-5.742a2.1,2.1,0,0,1,0-2.975h0l5.741,5.742A2.1,2.1,0,0,1,348.532,291.066Z" transform="translate(-341.303 -282.348)" fill="#00223d"/>
        <path id="Trazado_96585" data-name="Trazado 96585" d="M341.268,289.613h0l5.742-5.742a2.1,2.1,0,0,1,2.975,0h0l-5.742,5.742A2.105,2.105,0,0,1,341.268,289.613Z" transform="translate(-341.268 -282.383)" fill="#00223d"/>
      </g>
      <g id="Grupo_46312" data-name="Grupo 46312" transform="translate(18.154 58.634)">
        <path id="Trazado_96586" data-name="Trazado 96586" d="M314.762,319.014h0l-5.742-5.742a2.1,2.1,0,0,1,0-2.974h0l5.742,5.741A2.105,2.105,0,0,1,314.762,319.014Z" transform="translate(-307.532 -310.297)" fill="#00223d"/>
        <path id="Trazado_96587" data-name="Trazado 96587" d="M307.5,317.561h0l5.742-5.742a2.1,2.1,0,0,1,2.975,0h0l-5.742,5.742A2.105,2.105,0,0,1,307.5,317.561Z" transform="translate(-307.497 -310.332)" fill="#00223d"/>
      </g>
      <g id="Grupo_46313" data-name="Grupo 46313" transform="translate(83.086 72.068)">
        <path id="Trazado_96588" data-name="Trazado 96588" d="M382.3,332.988h0l-5.742-5.742a2.1,2.1,0,0,1,0-2.974h0l5.742,5.742A2.1,2.1,0,0,1,382.3,332.988Z" transform="translate(-375.074 -324.271)" fill="#00223d"/>
        <path id="Trazado_96589" data-name="Trazado 96589" d="M375.039,331.535h0l5.742-5.742a2.1,2.1,0,0,1,2.974,0h0l-5.741,5.742A2.1,2.1,0,0,1,375.039,331.535Z" transform="translate(-375.039 -324.306)" fill="#00223d"/>
      </g>
    </g>
    <g id="Grupo_46316" data-name="Grupo 46316" transform="translate(219.726 141.444)">
      <circle id="Elipse_3888" data-name="Elipse 3888" cx="61.475" cy="61.475" r="61.475" transform="translate(0 121.296) rotate(-80.594)" fill="#12263f"/>
      <circle id="Elipse_3889" data-name="Elipse 3889" cx="48.562" cy="48.562" r="48.562" transform="translate(2.019 70.695) rotate(-45)" fill="#fff"/>
      <g id="Grupo_46315" data-name="Grupo 46315" transform="translate(25.381 25.381)">
        <rect id="Rectángulo_28337" data-name="Rectángulo 28337" width="5.377" height="7.688" rx="0.973" transform="translate(42.625)" fill="#e8e8e8"/>
        <rect id="Rectángulo_28338" data-name="Rectángulo 28338" width="5.377" height="7.688" rx="0.973" transform="translate(20.329 7.415) rotate(-29.999)" fill="#e8e8e8"/>
        <rect id="Rectángulo_28339" data-name="Rectángulo 28339" width="5.377" height="7.688" rx="0.973" transform="translate(4.727 24.985) rotate(-59.999)" fill="#e8e8e8"/>
        <rect id="Rectángulo_28340" data-name="Rectángulo 28340" width="5.377" height="7.688" rx="0.973" transform="translate(0 48.002) rotate(-90)" fill="#e8e8e8"/>
        <rect id="Rectángulo_28341" data-name="Rectángulo 28341" width="5.377" height="7.688" rx="0.973" transform="translate(7.415 70.299) rotate(-120.001)" fill="#e8e8e8"/>
        <rect id="Rectángulo_28342" data-name="Rectángulo 28342" width="5.377" height="7.688" rx="0.973" transform="translate(24.985 85.901) rotate(-150.001)" fill="#e8e8e8"/>
        <rect id="Rectángulo_28343" data-name="Rectángulo 28343" width="5.377" height="7.688" rx="0.973" transform="translate(48.002 90.628) rotate(180)" fill="#e8e8e8"/>
        <rect id="Rectángulo_28344" data-name="Rectángulo 28344" width="5.377" height="7.688" rx="0.973" transform="translate(70.299 83.213) rotate(150.001)" fill="#e8e8e8"/>
        <rect id="Rectángulo_28345" data-name="Rectángulo 28345" width="5.377" height="7.688" rx="0.973" transform="translate(85.901 65.642) rotate(119.999)" fill="#e8e8e8"/>
        <rect id="Rectángulo_28346" data-name="Rectángulo 28346" width="5.377" height="7.688" rx="0.973" transform="translate(90.628 42.625) rotate(90)" fill="#e8e8e8"/>
        <rect id="Rectángulo_28347" data-name="Rectángulo 28347" width="5.377" height="7.688" rx="0.973" transform="translate(83.213 20.329) rotate(60)" fill="#e8e8e8"/>
        <rect id="Rectángulo_28348" data-name="Rectángulo 28348" width="5.377" height="7.688" rx="0.973" transform="translate(65.642 4.727) rotate(29.999)" fill="#e8e8e8"/>
      </g>
      <path id="Trazado_96590" data-name="Trazado 96590" d="M296.138,167.888a48.562,48.562,0,0,1,0,97.124" transform="translate(-225.442 -145.755)" fill="none" stroke="#00223d" stroke-miterlimit="10" stroke-width="0.25"/>
      <path id="Trazado_96591" data-name="Trazado 96591" d="M296.138,154.456a61.475,61.475,0,0,1,0,122.949" transform="translate(-225.442 -145.236)" fill="none" stroke="#00223d" stroke-miterlimit="10" stroke-width="0.25"/>
      <path id="Trazado_96592" data-name="Trazado 96592" d="M296.6,178.1c1.607,7.624,5.521,32.418.068,45.053a.731.731,0,0,1-1.34,0c-5.454-12.635-1.539-37.429.068-45.053A.615.615,0,0,1,296.6,178.1Z" transform="translate(-225.303 -146.131)" fill="#00223d"/>
      <path id="Trazado_96593" data-name="Trazado 96593" d="M265.012,217.83c5.887-1.242,26.853-4.265,36.612-.053a.565.565,0,0,1,0,1.034c-9.759,4.212-30.725,1.189-36.612-.052A.475.475,0,0,1,265.012,217.83Z" transform="translate(-224.225 -147.599)" fill="#00223d"/>
    </g>
    <g id="Grupo_46321" data-name="Grupo 46321" transform="translate(178.953 182.554)">
      <g id="Grupo_46317" data-name="Grupo 46317" transform="translate(20.98)">
        <path id="Trazado_96594" data-name="Trazado 96594" d="M204.962,217l3.952-11.116h11.774l-2.66,9.447Z" transform="translate(-202.125 -188.333)" fill="#f4b7bc" stroke="#f4b7bc" stroke-linecap="round" stroke-linejoin="round" stroke-width="0.25"/>
        <path id="Trazado_96595" data-name="Trazado 96595" d="M218.944,210.828l-.391,4.7,1.264-4.5Z" transform="translate(-202.65 -188.524)" fill="#00030e" stroke="#00030e" stroke-miterlimit="10" stroke-width="0.25"/>
        <circle id="Elipse_3890" data-name="Elipse 3890" cx="9.038" cy="9.038" r="9.038" transform="translate(0 17.968) rotate(-76.718)" fill="#f4b7bc" stroke="#f4b7bc" stroke-linecap="round" stroke-linejoin="round" stroke-width="0.25"/>
        <path id="Trazado_96596" data-name="Trazado 96596" d="M221.474,195.184c2.093,4.242,2.434,11.069.273,14.027s-5.006-.228-5.632-1.821c0,0-1.961-1.777-1.65-3.185.363-1.644,2.484-1.4,2.787.4" transform="translate(-202.491 -187.919)" fill="#f4b7bc" stroke="#f4b7bc" stroke-linecap="round" stroke-linejoin="round" stroke-width="0.25"/>
        <path id="Trazado_96597" data-name="Trazado 96597" d="M215.455,207.058c.892.844,1.928.106,1.763-1.022" transform="translate(-202.53 -188.339)" fill="none" stroke="#00030e" stroke-linecap="round" stroke-linejoin="round" stroke-width="0.25"/>
        <path id="Trazado_96598" data-name="Trazado 96598" d="M215.839,202.95c.924.5,1.33,1.928,2.515,1.711.89-.164,1.135-1.223.968-1.966s-.378-1.8.038-2.3,1.759-1.462.9-2.685.937-2.435,1.2-3.908c.476-2.675-2.915-7.187-9.181-5.969-7.758,1.508-7.394,6.861-7.394,6.861a4.863,4.863,0,0,0-2.34,3.04c-.711,2.112.064,4.5,2.669,7.018s1.974,3.259,1.457,3.89-.172,1.376,1.778,1.491,6.29,0,6.5-3.785a5.314,5.314,0,0,1-.955-1.81A1.326,1.326,0,0,1,215.839,202.95Z" transform="translate(-202.021 -187.627)" stroke="#00030e" stroke-linecap="round" stroke-linejoin="round" stroke-width="0.25" fill="url(#linear-gradient)"/>
        <path id="Trazado_96599" data-name="Trazado 96599" d="M222.514,197.527c1.257,4.113,1.2,9.3-.608,11.775a2.343,2.343,0,0,1-3.354.818" transform="translate(-202.65 -188.01)" fill="none" stroke="#00030e" stroke-linecap="round" stroke-linejoin="round" stroke-width="0.25"/>
        <path id="Trazado_96600" data-name="Trazado 96600" d="M203.441,217.652,204.9,214.7s4.019-1.918,14.057-.564l.677,1.517Z" transform="translate(-202.066 -188.633)" fill="#167377"/>
      </g>
      <g id="Grupo_46319" data-name="Grupo 46319" transform="translate(0 19.401)">
        <path id="Trazado_96601" data-name="Trazado 96601" d="M232.652,209.6a4.586,4.586,0,0,0-2.758-.917h-1.353l-2.894-.82a1.3,1.3,0,0,0-1.223.279c-.8.714-2.308,2.056-3.041,2.74-.177.164.048.525.211.579a2.235,2.235,0,0,0,1.945-.39l.166-.118,1.213,1.416a9.322,9.322,0,0,1,1.741,3.057c1.585,4.648,4.584,4.038,6.277,5.276l3.757-7.963C234.977,211.356,233.579,210.288,232.652,209.6Zm-7.189.738,1.138.378.17.806Z" transform="translate(-181.777 -207.808)" fill="#f4b7bc" stroke="#f4b7bc" stroke-linecap="round" stroke-linejoin="round" stroke-width="0.25"/>
        <path id="Trazado_96602" data-name="Trazado 96602" d="M233.181,216.5c-.417.527-2.748.107-5.314.773v.339c1.647,2.489,3.927,2.26,5.323,3.281l3.757-7.963A14.571,14.571,0,0,0,233.181,216.5Z" transform="translate(-182.03 -208.006)" fill="#00030e" stroke="#00030e" stroke-linecap="round" stroke-linejoin="round" stroke-width="0.25"/>
        <path id="Trazado_96603" data-name="Trazado 96603" d="M200.1,218.5c-11.32,2.994-20.523,27.791-19.884,32.392s9.577,20.09,19.743,24.936l3.137-8.7S192.27,255.942,192.6,251.791c0,0,.588-2.83,5.253-7.547Z" transform="translate(-180.187 -208.221)" fill="#8ec8c8"/>
        <g id="Grupo_46318" data-name="Grupo 46318" transform="translate(12.219 20.193)">
          <path id="Trazado_96604" data-name="Trazado 96604" d="M200.923,266.612a39.669,39.669,0,0,1-1.189,10.53c.326.179.654.348.983.5l3.137-8.7s-1.343-1.387-3.066-3.363A9.912,9.912,0,0,1,200.923,266.612Z" transform="translate(-193.162 -230.234)" fill="#00030e" stroke="#00030e" stroke-linecap="round" stroke-linejoin="round" stroke-width="0.25"/>
          <path id="Trazado_96605" data-name="Trazado 96605" d="M198.349,244.643l1.79-15.83c-6.474,1.229-8.117,6.216-6.842,10.354,1.393,4.52,1.631,5,2.7,8.094A35.007,35.007,0,0,1,198.349,244.643Z" transform="translate(-192.897 -228.813)" fill="#00030e" stroke="#00030e" stroke-linecap="round" stroke-linejoin="round" stroke-width="0.25"/>
        </g>
        <path id="Trazado_96606" data-name="Trazado 96606" d="M200.8,290.1c-4.627-11.057,4.293-16.43-1.43-34.846-3.14-10.1-5.158-18.494-6.387-24.33a10.757,10.757,0,0,1,7.6-12.536c7.414-2.136,18.111-4,27.615-1.465a10.731,10.731,0,0,1,7.725,8.141c1.953,9.16,7.983,29.834,6.05,65.036Z" transform="translate(-180.673 -208.113)" fill="#8ec8c8"/>
        <path id="Trazado_96607" data-name="Trazado 96607" d="M200.814,290.715c-4.627-11.057,4.293-16.43-1.43-34.846-3.14-10.1-5.158-18.494-6.387-24.33" transform="translate(-180.682 -208.725)" fill="none" stroke="#00030e" stroke-linecap="round" stroke-linejoin="round" stroke-width="0.25"/>
        <path id="Trazado_96608" data-name="Trazado 96608" d="M233.725,241.578s6.571,24.91,1.7,49.524" transform="translate(-182.256 -209.113)" fill="none" stroke="#00030e" stroke-linecap="round" stroke-miterlimit="10" stroke-width="0.25"/>
        <path id="Trazado_96609" data-name="Trazado 96609" d="M228.174,238.847c4.789,5.075,14.17,14.9,14.17,14.9a110.6,110.6,0,0,0-2.705-16.143Z" transform="translate(-182.042 -208.96)" fill="#00030e" stroke="#00030e" stroke-linecap="round" stroke-miterlimit="10" stroke-width="0.25"/>
        <path id="Trazado_96610" data-name="Trazado 96610" d="M212.465,290.159a20.286,20.286,0,0,1-.526-13.284c3.942-12.451-15.783-55.859-5.486-59.78" transform="translate(-181.086 -208.167)" fill="none" stroke="#00030e" stroke-linecap="round" stroke-miterlimit="10" stroke-width="0.25"/>
        <path id="Trazado_96611" data-name="Trazado 96611" d="M254.366,237.893c2.812-10.1-17.205-24.962-17.205-24.962a9.467,9.467,0,0,0-3.757,7.963Z" transform="translate(-182.244 -208.006)" fill="#8ec8c8"/>
        <path id="Trazado_96612" data-name="Trazado 96612" d="M233.4,221.028l6.766,5.487,6.6-.26a98.461,98.461,0,0,0-12.381-9.852A9.3,9.3,0,0,0,233.4,221.028Z" transform="translate(-182.244 -208.14)" fill="#00030e" stroke="#00030e" stroke-miterlimit="10" stroke-width="0.25"/>
        <path id="Trazado_96613" data-name="Trazado 96613" d="M228.043,216.643c-7.211-.765-7.12,16.408,0,21.393s23.991,6.9,25.908,0S236.517,217.543,228.043,216.643Z" transform="translate(-181.829 -208.149)" fill="#8ec8c8"/>
        <path id="Trazado_96614" data-name="Trazado 96614" d="M223.027,229.368c.679,3.708,2.36,7.292,5.03,9.161,7.119,4.986,23.991,6.9,25.908,0" transform="translate(-181.843 -208.641)" fill="none" stroke="#00030e" stroke-linecap="round" stroke-miterlimit="10" stroke-width="0.25"/>
        <path id="Trazado_96615" data-name="Trazado 96615" d="M249.457,228.875c-5.909-5.888-15.778-11.655-21.2-12.231" transform="translate(-182.045 -208.15)" fill="none" stroke="#00030e" stroke-linecap="round" stroke-miterlimit="10" stroke-width="0.25"/>
        <path id="Trazado_96616" data-name="Trazado 96616" d="M254.379,237.893c2.812-10.1-17.205-24.962-17.205-24.962a9.495,9.495,0,0,0-3.448,5.1" transform="translate(-182.256 -208.006)" fill="none" stroke="#00030e" stroke-linecap="round" stroke-miterlimit="10" stroke-width="0.25"/>
        <path id="Trazado_96617" data-name="Trazado 96617" d="M200.9,218.391c5.8-1.671,13.611-3.173,21.287-2.536" transform="translate(-180.988 -208.113)" fill="none" stroke="#00030e" stroke-linecap="round" stroke-linejoin="round" stroke-width="0.25"/>
      </g>
      <g id="Grupo_46320" data-name="Grupo 46320" transform="translate(16.638 101.389)">
        <path id="Trazado_96618" data-name="Trazado 96618" d="M219.4,293.093H200.988a24.729,24.729,0,0,0,1.547,3.049s-.541,24.361-1.624,30.586c-1.006,5.779-5.509,13.656-2.253,43.112,2.425,1.565,6.973.447,10.268-.7L219.4,301.974Z" transform="translate(-197.494 -293.093)" fill="#8ec8c8"/>
        <path id="Trazado_96619" data-name="Trazado 96619" d="M215.8,295.561l-.615,37.9,4.9-31.4v-6.509Z" transform="translate(-198.178 -293.188)" fill="#00030e" stroke="#00030e" stroke-linecap="round" stroke-miterlimit="10" stroke-width="0.25"/>
        <path id="Trazado_96620" data-name="Trazado 96620" d="M230.142,369.97c5.665-30.95,8.468-56.377,9.594-76.877l-26.908,0a13.576,13.576,0,0,0,5.908,5.167s8.453,23.062,5.06,31.3c-4.192,10.181-4.985,29.744-5.09,40.312C220.965,372.92,227.283,372.414,230.142,369.97Z" transform="translate(-198.086 -293.093)" fill="#8ec8c8"/>
        <path id="Trazado_96621" data-name="Trazado 96621" d="M239.283,293.094H201.128c.19.454.408.919.645,1.393H239.2C239.227,294.025,239.258,293.552,239.283,293.094Z" transform="translate(-197.634 -293.093)" fill="#00030e" stroke="#00030e" stroke-miterlimit="10" stroke-width="0.25"/>
        <path id="Trazado_96622" data-name="Trazado 96622" d="M238.183,377.93a4.923,4.923,0,0,0-1.751-1.6l-6.055-3.276c-2.859,2.445-9.177,2.95-11.436-.09-.019,1.924-.015,3.551-.006,4.767a2.452,2.452,0,0,0,2.455,2.428h16.89a.744.744,0,0,0,.619-1.157Z" transform="translate(-198.322 -296.18)" stroke="#00030e" stroke-linecap="round" stroke-linejoin="round" stroke-width="0.25" fill="url(#linear-gradient-2)"/>
        <path id="Trazado_96623" data-name="Trazado 96623" d="M198.7,372.9q.326,2.949.759,6.19a1.2,1.2,0,0,0,1.186,1.044H210.68a1.192,1.192,0,0,0,1.153-1.525,45.657,45.657,0,0,0-2.86-6.409C205.677,373.345,201.129,374.463,198.7,372.9Z" transform="translate(-197.54 -296.15)" stroke="#00030e" stroke-linecap="round" stroke-linejoin="round" stroke-width="0.25" fill="url(#linear-gradient-3)"/>
        <path id="Trazado_96624" data-name="Trazado 96624" d="M214.532,295.562a10.881,10.881,0,0,0,4.27,2.8s8.453,23.062,5.06,31.3" transform="translate(-198.152 -293.188)" fill="none" stroke="#00030e" stroke-linecap="round" stroke-miterlimit="10" stroke-width="0.25"/>
        <path id="Trazado_96625" data-name="Trazado 96625" d="M235.14,293.093c-.575,25.807-2.866,42.9-8.754,78.724" transform="translate(-198.61 -293.093)" fill="none" stroke="#00030e" stroke-miterlimit="10" stroke-width="0.25"/>
        <line id="Línea_1506" data-name="Línea 1506" y1="10.385" x2="2.146" transform="translate(36.183)" fill="none" stroke="#00030e" stroke-miterlimit="10" stroke-width="0.25"/>
        <line id="Línea_1507" data-name="Línea 1507" x1="8.959" y2="63.432" transform="translate(10.502 12.925)" fill="none" stroke="#00030e" stroke-miterlimit="10" stroke-width="0.25"/>
      </g>
    </g>
    <path id="Trazado_96628" data-name="Trazado 96628" d="M181.2,275.3l.99,2.677a8.841,8.841,0,0,0,5.223,5.223l2.677.991-2.677.99a8.844,8.844,0,0,0-5.223,5.223l-.99,2.677-.991-2.677a8.841,8.841,0,0,0-5.223-5.223l-2.677-.99,2.677-.991a8.839,8.839,0,0,0,5.223-5.223Z" transform="translate(-0.93 -8.462)" fill="#26aab7"/>
    <path id="Trazado_96631" data-name="Trazado 96631" d="M252.9,278.168l.28.757a2.5,2.5,0,0,0,1.475,1.475l.756.28-.756.28a2.5,2.5,0,0,0-1.475,1.475l-.28.757-.28-.757a2.5,2.5,0,0,0-1.476-1.475l-.756-.28.756-.28a2.5,2.5,0,0,0,1.476-1.475Z" transform="translate(-3.948 -8.573)" fill="#26aab7"/>
    <path id="Trazado_96633" data-name="Trazado 96633" d="M172.212,264.724l.28.756a2.5,2.5,0,0,0,1.475,1.476l.757.279-.757.281a2.492,2.492,0,0,0-1.475,1.475l-.28.756-.28-.756a2.492,2.492,0,0,0-1.475-1.475l-.757-.281.757-.279a2.5,2.5,0,0,0,1.475-1.476Z" transform="translate(-0.829 -8.053)" fill="#26aab7"/>
    <g id="Grupo_46332" data-name="Grupo 46332" transform="translate(148.24 114.85)">
      <g id="Grupo_46137" data-name="Grupo 46137" transform="translate(0 9.357)">
        <g id="Grupo_46134" data-name="Grupo 46134">
          <path id="Trazado_96135" data-name="Trazado 96135" d="M503.329,1093.035a.3.3,0,0,1-.2-.26c-.03-.4-.051-.8-.064-1.2a.294.294,0,0,1,.292-.3c.4-.009.295.394.375,1.465a.293.293,0,0,1-.279.314A.311.311,0,0,1,503.329,1093.035Z" transform="translate(-503.068 -1061.589)" fill="#00223d"/>
          <path id="Trazado_96136" data-name="Trazado 96136" d="M504.768,693.293c.074-.759.18-1.524.314-2.275a.3.3,0,0,1,.35-.236c.447.087.156.339-.063,2.576a.3.3,0,0,1-.329.262A.3.3,0,0,1,504.768,693.293Zm1.2-5.893c.23-.731.494-1.465.775-2.159a.3.3,0,0,1,.562.227c-.28.691-.534,1.4-.759,2.116a.3.3,0,0,1-.577-.183Zm2.392-5.515c.375-.663.781-1.32,1.208-1.951a.3.3,0,0,1,.5.334c-.418.619-.817,1.262-1.184,1.912A.3.3,0,0,1,508.365,681.885Zm3.529-4.483a.294.294,0,0,1-.032-.419c.506-.572,1.043-1.131,1.594-1.662.284-.273.709.155.426.427-.54.52-1.066,1.068-1.562,1.628A.3.3,0,0,1,511.894,677.4Zm4.367-4.084a.292.292,0,0,1,.055-.416c.616-.457,1.258-.9,1.909-1.3a.3.3,0,0,1,.33.5c-.637.4-1.267.829-1.87,1.276A.307.307,0,0,1,516.261,673.318Zm5.3-2.963a.3.3,0,0,1-.167-.151.291.291,0,0,1,.14-.395c.7-.324,1.42-.623,2.143-.891a.308.308,0,0,1,.392.174.292.292,0,0,1-.171.382c-.708.263-1.414.557-2.1.874A.306.306,0,0,1,521.559,670.355Zm5.7-1.961a.3.3,0,0,1-.189-.208.292.292,0,0,1,.219-.358c.753-.176,1.522-.325,2.288-.442a.306.306,0,0,1,.349.248.292.292,0,0,1-.247.339c-.75.115-1.5.261-2.242.433A.306.306,0,0,1,527.261,668.394Zm5.809-1.042a.294.294,0,0,1,.289-.3c.775-.02,1.562-.011,2.34.029a.3.3,0,1,1-.022.593c-.761-.039-1.533-.048-2.292-.028A.305.305,0,0,1,533.07,667.353Zm19.349,6.45c-1.809-1.381-2.216-1.359-1.968-1.734a.3.3,0,0,1,.417-.083c.653.423,1.3.877,1.916,1.349A.3.3,0,1,1,552.419,673.8Zm-13.287-6.055a.3.3,0,0,1,.347-.239c.766.136,1.536.3,2.291.5a.3.3,0,1,1-.144.574c-.74-.19-1.5-.354-2.245-.487A.3.3,0,0,1,539.133,667.747Zm8.156,2.9c-2.047-.99-2.446-.888-2.281-1.307a.308.308,0,0,1,.39-.165c.727.285,1.451.6,2.151.94a.3.3,0,1,1-.26.532Z" transform="translate(-504.648 -667.038)" fill="#00223d"/>
          <path id="Trazado_96137" data-name="Trazado 96137" d="M1225.719,792.921c-.694-.741-1.124-.992-.836-1.275a.305.305,0,0,1,.427,0c.748.737,1.123,1.031.835,1.291A.344.344,0,0,1,1225.719,792.921Z" transform="translate(-1174.29 -782.847)" fill="#00223d"/>
        </g>
        <g id="Grupo_46135" data-name="Grupo 46135" transform="translate(7.073 29.952)">
          <path id="Trazado_96138" data-name="Trazado 96138" d="M1350.858,1096.837a.3.3,0,0,1-.2-.3c.021-.39.034-.785.039-1.174a.294.294,0,0,1,.306-.289.305.305,0,0,1,.3.3c0,.4-.018.8-.04,1.2a.3.3,0,0,1-.318.276A.315.315,0,0,1,1350.858,1096.837Z" transform="translate(-1298.423 -1095.078)" fill="#00223d"/>
          <path id="Trazado_96139" data-name="Trazado 96139" d="M665.826,1189.961c-.777-.318-1.55-.672-2.3-1.052a.3.3,0,0,1-.134-.4c.211-.41.382-.025,2.656.9a.3.3,0,0,1,.168.388A.308.308,0,0,1,665.826,1189.961Zm3.673.937c.115-.446.379-.105,2.783.32a.3.3,0,0,1,.249.345.3.3,0,0,1-.347.24c-.823-.146-1.652-.327-2.465-.541A.3.3,0,0,1,669.5,1190.9Zm-9.492-4.089c-.688-.477-1.366-.988-2.013-1.52a.294.294,0,0,1-.042-.418c.3-.353.379.058,2.4,1.455a.3.3,0,0,1,.077.414A.3.3,0,0,1,660.006,1186.808Zm16.152,5.415a.3.3,0,0,1-.2-.289.294.294,0,0,1,.31-.284c.821.033,1.651.032,2.467,0a.305.305,0,0,1,.319.284.293.293,0,0,1-.284.31c-.833.036-1.681.037-2.518,0A.311.311,0,0,1,676.158,1192.224Zm6.507-.448a.3.3,0,0,1-.192-.224.292.292,0,0,1,.238-.345c.8-.145,1.61-.325,2.4-.536a.307.307,0,0,1,.374.209.292.292,0,0,1-.207.364c-.8.215-1.628.4-2.448.547A.306.306,0,0,1,682.665,1191.776Zm6.229-1.842a.306.306,0,0,1-.172-.161.291.291,0,0,1,.154-.389c.75-.314,1.495-.664,2.214-1.039a.308.308,0,0,1,.41.124.291.291,0,0,1-.12.4c-.734.383-1.495.74-2.259,1.061A.307.307,0,0,1,688.894,1189.934Zm5.652-3.139a.307.307,0,0,1-.138-.1.292.292,0,0,1,.064-.414c.66-.468,1.307-.97,1.924-1.492a.306.306,0,0,1,.426.034.293.293,0,0,1-.028.418c-.63.532-1.29,1.045-1.963,1.522A.3.3,0,0,1,694.546,1186.8Zm4.709-4.342c-.354-.307.063-.369,1.508-2.295a.3.3,0,0,1,.488.357c-.493.657-1.021,1.3-1.569,1.914A.3.3,0,0,1,699.255,1182.453Zm3.766-5.2c-.414-.224-.024-.372.95-2.572a.3.3,0,0,1,.555.244c-.333.751-.7,1.5-1.1,2.213A.3.3,0,0,1,703.021,1177.256Zm2.474-5.906a.3.3,0,0,1-.186-.361c.222-.776.413-1.568.566-2.354a.3.3,0,0,1,.354-.23.3.3,0,0,1,.24.351c-.157.8-.352,1.609-.578,2.4a.3.3,0,0,1-.372.2Z" transform="translate(-654.124 -1163.269)" fill="#00223d"/>
          <path id="Trazado_96140" data-name="Trazado 96140" d="M605.032,1350.787c-.714-.771-1.075-1.081-.774-1.327s.487.141,1.218.931a.293.293,0,0,1-.017.419A.306.306,0,0,1,605.032,1350.787Z" transform="translate(-604.152 -1331.587)" fill="#00223d"/>
        </g>
        <g id="Grupo_46136" data-name="Grupo 46136" transform="translate(7.504 7.173)">
          <path id="Trazado_96141" data-name="Trazado 96141" d="M614.058,804.012l4.293-.532a19.21,19.21,0,0,0,4.655,3.972c.168,4.139-.114,4.441.328,4.589l4.947,1.648a.356.356,0,0,0,.394-.117l2.605-3.363a19.139,19.139,0,0,0,6.1-.389l3.123,3a.363.363,0,0,0,.409.066l4.631-2.256a.343.343,0,0,0,.191-.358l-.606-4.228a18.242,18.242,0,0,0,3.97-4.516l4.331-.016a.349.349,0,0,0,.332-.237l1.6-4.838a.351.351,0,0,0-.125-.389l-3.461-2.612a18.315,18.315,0,0,0-.488-6c2.874-3.016,3.278-3.018,3.068-3.426-2.4-4.458-2.262-4.838-2.732-4.78l-4.293.532a19.213,19.213,0,0,0-4.655-3.972c-.167-4.137.114-4.441-.328-4.589-4.943-1.553-5.061-1.893-5.341-1.531l-2.605,3.363a19.136,19.136,0,0,0-6.1.389c-3.074-2.836-3.114-3.271-3.532-3.067-4.543,2.313-4.887,2.157-4.821,2.614l.606,4.228a18.241,18.241,0,0,0-3.97,4.516c-4.135.1-4.518-.188-4.664.253-1.5,4.815-1.852,4.945-1.477,5.228l3.461,2.612a18.319,18.319,0,0,0,.488,6c-2.864,3.005-3.278,3.016-3.067,3.426C613.725,803.691,613.588,804.071,614.058,804.012Z" transform="translate(-610.306 -769.538)" fill="#12263f"/>
          <path id="Trazado_96142" data-name="Trazado 96142" d="M859.9,1018.48a4.958,4.958,0,0,1,5.393-4.564,5.111,5.111,0,0,1,4.725,5.371,4.959,4.959,0,0,1-5.393,4.565h0A5.11,5.11,0,0,1,859.9,1018.48Zm4.755,4.927h0Zm.578-8.6a4.067,4.067,0,0,0-4.429,3.748,4.2,4.2,0,0,0,3.881,4.411,4.072,4.072,0,0,0,4.429-3.749A4.2,4.2,0,0,0,865.233,1014.8Z" transform="translate(-842.424 -996.8)" fill="url(#linear-gradient-4)"/>
          <path id="Trazado_96143" data-name="Trazado 96143" d="M756.377,926.753h0a13.386,13.386,0,0,1-2.026-.965.447.447,0,0,1-.2-.542.429.429,0,0,1,.033-.069.454.454,0,0,1,.619-.153,12.529,12.529,0,0,0,2.353,1.065h0a12,12,0,0,0,15.069-6.962q.086-.227.162-.458A12.131,12.131,0,0,0,749.378,911c-1.227,3.706-.155,6.193-.3,6.575a.456.456,0,0,1-.867-.067,12.528,12.528,0,0,1,.478-7.288c3.91-10.35,18.638-10.98,23.771-1.028a12.539,12.539,0,0,1,.79,9.76q-.083.251-.176.5a12.5,12.5,0,0,1-6.278,6.85,13.08,13.08,0,0,1-9.919.629Q756.626,926.847,756.377,926.753Z" transform="translate(-738.255 -892.808)" fill="url(#linear-gradient-4)"/>
        </g>
      </g>
      <g id="Grupo_46141" data-name="Grupo 46141" transform="translate(50.759 0)">
        <g id="Grupo_46138" data-name="Grupo 46138">
          <path id="Trazado_96144" data-name="Trazado 96144" d="M1228.6,791.753a.184.184,0,0,1-.119-.158c-.018-.24-.031-.485-.039-.727a.178.178,0,0,1,.177-.183c.245-.005.179.239.227.889a.178.178,0,0,1-.169.19A.187.187,0,0,1,1228.6,791.753Z" transform="translate(-1228.443 -772.676)" fill="#00223d"/>
          <path id="Trazado_96145" data-name="Trazado 96145" d="M1229.474,549.246c.045-.461.109-.925.191-1.38a.18.18,0,0,1,.212-.143c.272.053.095.206-.038,1.563a.179.179,0,0,1-.2.159A.184.184,0,0,1,1229.474,549.246Zm.731-3.575c.14-.443.3-.889.47-1.31a.184.184,0,0,1,.341.137c-.169.419-.324.85-.46,1.283a.184.184,0,0,1-.35-.111Zm1.451-3.346c.227-.4.474-.8.733-1.184a.184.184,0,0,1,.306.2c-.254.376-.5.766-.718,1.16A.184.184,0,0,1,1231.656,542.326Zm2.141-2.72a.178.178,0,0,1-.02-.254c.307-.347.632-.686.967-1.008.172-.165.43.094.258.259-.328.316-.646.648-.947.988A.185.185,0,0,1,1233.8,539.606Zm2.649-2.478a.177.177,0,0,1,.033-.252c.374-.277.763-.543,1.158-.79a.182.182,0,0,1,.2.3c-.387.242-.768.5-1.135.774A.186.186,0,0,1,1236.446,537.128Zm3.214-1.8a.185.185,0,0,1-.1-.092.177.177,0,0,1,.084-.239c.425-.2.862-.378,1.3-.541a.187.187,0,0,1,.238.105.177.177,0,0,1-.1.232c-.429.159-.858.338-1.274.53A.185.185,0,0,1,1239.66,535.331Zm3.459-1.19a.185.185,0,0,1-.115-.127.177.177,0,0,1,.133-.217c.457-.107.924-.2,1.388-.268a.186.186,0,0,1,.212.15.178.178,0,0,1-.15.206c-.455.07-.913.158-1.36.263A.186.186,0,0,1,1243.119,534.141Zm3.524-.632a.178.178,0,0,1,.175-.185c.471-.012.948-.006,1.42.018a.18.18,0,1,1-.014.36c-.462-.024-.93-.029-1.39-.017A.186.186,0,0,1,1246.643,533.509Zm11.739,3.913c-1.1-.838-1.344-.825-1.194-1.052a.184.184,0,0,1,.253-.05c.4.257.787.532,1.162.819A.18.18,0,1,1,1258.382,537.422Zm-8.061-3.673a.18.18,0,0,1,.211-.145c.464.082.932.184,1.39.3a.18.18,0,1,1-.088.348c-.449-.115-.907-.215-1.362-.3A.183.183,0,0,1,1250.321,533.749Zm4.948,1.761c-1.242-.6-1.484-.539-1.384-.793a.187.187,0,0,1,.237-.1c.441.173.88.365,1.3.57a.181.181,0,0,1,.087.241A.183.183,0,0,1,1255.269,535.509Z" transform="translate(-1229.401 -533.318)" fill="#00223d"/>
          <path id="Trazado_96146" data-name="Trazado 96146" d="M1666.847,609.686c-.421-.449-.682-.6-.507-.773a.185.185,0,0,1,.259,0c.454.447.682.626.507.783A.209.209,0,0,1,1666.847,609.686Z" transform="translate(-1635.647 -603.575)" fill="#00223d"/>
        </g>
        <g id="Grupo_46139" data-name="Grupo 46139" transform="translate(4.291 18.171)">
          <path id="Trazado_96147" data-name="Trazado 96147" d="M1742.764,794.06a.183.183,0,0,1-.119-.18c.013-.237.021-.476.024-.712a.179.179,0,0,1,.185-.175.185.185,0,0,1,.181.185c0,.241-.011.485-.024.727a.179.179,0,0,1-.193.167A.185.185,0,0,1,1742.764,794.06Z" transform="translate(-1710.954 -792.993)" fill="#00223d"/>
          <path id="Trazado_96148" data-name="Trazado 96148" d="M1327.181,850.555c-.471-.193-.94-.408-1.393-.638a.18.18,0,0,1-.081-.243c.128-.248.232-.016,1.611.549a.181.181,0,0,1,.1.236A.186.186,0,0,1,1327.181,850.555Zm2.228.568c.069-.27.23-.064,1.688.194a.183.183,0,0,1,.151.209.18.18,0,0,1-.211.145c-.5-.088-1-.2-1.5-.328A.183.183,0,0,1,1329.409,851.123Zm-5.758-2.481c-.418-.289-.828-.6-1.221-.922a.179.179,0,0,1-.025-.254c.181-.214.23.035,1.454.882a.179.179,0,0,1,.047.251A.184.184,0,0,1,1323.651,848.642Zm9.8,3.285a.184.184,0,0,1-.12-.176.179.179,0,0,1,.188-.172c.5.02,1,.02,1.5,0a.185.185,0,0,1,.194.172.178.178,0,0,1-.172.188c-.506.022-1.02.022-1.528,0A.19.19,0,0,1,1333.45,851.928Zm3.948-.271a.185.185,0,0,1-.116-.136.177.177,0,0,1,.144-.209c.487-.088.977-.2,1.455-.325a.187.187,0,0,1,.227.127.177.177,0,0,1-.125.221c-.488.131-.988.242-1.485.332A.187.187,0,0,1,1337.4,851.656Zm3.779-1.117a.185.185,0,0,1-.1-.1.177.177,0,0,1,.094-.236c.455-.191.906-.4,1.343-.63a.187.187,0,0,1,.249.075.177.177,0,0,1-.073.243c-.446.232-.907.449-1.371.643A.185.185,0,0,1,1341.176,850.539Zm3.429-1.9a.187.187,0,0,1-.084-.063.177.177,0,0,1,.039-.251c.4-.284.793-.589,1.167-.9a.186.186,0,0,1,.259.021.178.178,0,0,1-.017.254c-.382.323-.783.634-1.191.924A.186.186,0,0,1,1344.6,848.635Zm2.857-2.634c-.215-.187.038-.224.914-1.392a.183.183,0,0,1,.3.217c-.3.4-.619.789-.952,1.161A.185.185,0,0,1,1347.462,846Zm2.284-3.153c-.251-.136-.015-.226.577-1.56a.184.184,0,0,1,.336.148c-.2.455-.425.907-.665,1.342A.183.183,0,0,1,1349.746,842.848Zm1.5-3.583a.182.182,0,0,1-.113-.219c.135-.471.25-.951.344-1.428a.18.18,0,0,1,.215-.14.183.183,0,0,1,.145.213c-.1.486-.213.976-.351,1.457a.181.181,0,0,1-.226.121Z" transform="translate(-1320.082 -834.362)" fill="#00223d"/>
          <path id="Trazado_96149" data-name="Trazado 96149" d="M1290.3,948.121c-.433-.468-.652-.656-.47-.805s.3.086.739.565a.177.177,0,0,1-.01.254A.186.186,0,0,1,1290.3,948.121Z" transform="translate(-1289.766 -936.474)" fill="#00223d"/>
        </g>
        <g id="Grupo_46140" data-name="Grupo 46140" transform="translate(4.552 4.351)">
          <path id="Trazado_96150" data-name="Trazado 96150" d="M1295.776,616.415l2.6-.322a11.654,11.654,0,0,0,2.824,2.409c.1,2.511-.069,2.694.2,2.784l3,1a.216.216,0,0,0,.239-.071l1.58-2.04a11.612,11.612,0,0,0,3.7-.236l1.895,1.821a.22.22,0,0,0,.248.04l2.809-1.369a.208.208,0,0,0,.116-.217l-.367-2.565a11.071,11.071,0,0,0,2.409-2.74l2.628-.01a.212.212,0,0,0,.2-.144l.972-2.935a.212.212,0,0,0-.076-.236l-2.1-1.585a11.109,11.109,0,0,0-.3-3.641c1.743-1.83,1.988-1.831,1.861-2.078-1.456-2.7-1.373-2.935-1.658-2.9l-2.6.322a11.658,11.658,0,0,0-2.824-2.409c-.1-2.51.069-2.694-.2-2.784-3-.942-3.07-1.148-3.24-.929l-1.58,2.04a11.608,11.608,0,0,0-3.7.236c-1.865-1.72-1.889-1.984-2.143-1.861-2.756,1.4-2.964,1.309-2.925,1.586l.367,2.565a11.067,11.067,0,0,0-2.409,2.74c-2.508.061-2.741-.115-2.829.154-.909,2.921-1.123,3-.9,3.172l2.1,1.585a11.116,11.116,0,0,0,.3,3.641c-1.737,1.823-1.989,1.83-1.861,2.078C1295.574,616.22,1295.49,616.45,1295.776,616.415Z" transform="translate(-1293.499 -595.5)" fill="#f6c343"/>
          <path id="Trazado_96151" data-name="Trazado 96151" d="M1444.918,746.524a3.008,3.008,0,0,1,3.272-2.769,3.1,3.1,0,0,1,2.867,3.258,3.008,3.008,0,0,1-3.272,2.769h0A3.1,3.1,0,0,1,1444.918,746.524Zm2.885,2.989h0Zm.351-5.219a2.468,2.468,0,0,0-2.687,2.274,2.546,2.546,0,0,0,2.354,2.676,2.47,2.47,0,0,0,2.687-2.274A2.546,2.546,0,0,0,1448.154,744.293Z" transform="translate(-1434.317 -733.371)" fill="url(#linear-gradient-4)"/>
          <path id="Trazado_96152" data-name="Trazado 96152" d="M1382.116,690.877h0a8.116,8.116,0,0,1-1.229-.586.271.271,0,0,1-.12-.329.3.3,0,0,1,.02-.042.276.276,0,0,1,.376-.092,7.612,7.612,0,0,0,1.427.646h0a7.277,7.277,0,0,0,9.142-4.224q.052-.137.1-.278a7.359,7.359,0,0,0-13.96-4.651,8.167,8.167,0,0,0-.181,3.989.277.277,0,0,1-.526-.04,7.6,7.6,0,0,1,.29-4.422c2.372-6.279,11.307-6.661,14.421-.623a7.606,7.606,0,0,1,.479,5.921q-.05.152-.106.3a7.58,7.58,0,0,1-3.809,4.156,7.936,7.936,0,0,1-6.017.382Q1382.267,690.934,1382.116,690.877Z" transform="translate(-1371.122 -670.283)" fill="url(#linear-gradient-4)"/>
        </g>
      </g>
    </g>
    <g id="Grupo_46333" data-name="Grupo 46333" transform="translate(358.593 96.925)">
      <path id="Trazado_94748" data-name="Trazado 94748" d="M102.857,92.836l21.362.221a1.969,1.969,0,0,1,1.766,1.14l1.949,4.2a.239.239,0,0,0,.456-.091l.214-5.2.215-20.795a3.683,3.683,0,0,0-3.645-3.721l-22.064-.228A3.683,3.683,0,0,0,99.389,72l-.177,17.112A3.683,3.683,0,0,0,102.857,92.836Z" transform="translate(-99.212 -68.359)" fill="#00223d" style="mix-blend-mode: multiply;isolation: isolate"/>
      <path id="Rectángulo_28116" data-name="Rectángulo 28116" d="M.555,0H3.943A.556.556,0,0,1,4.5.556V6.916a.556.556,0,0,1-.556.556H.556A.556.556,0,0,1,0,6.916V.555A.555.555,0,0,1,.555,0Z" transform="translate(10.179 12.161) rotate(0.591)" fill="#7d6eb2"/>
      <rect id="Rectángulo_28117" data-name="Rectángulo 28117" width="4.499" height="4.499" rx="0.431" transform="translate(5.104 15.081) rotate(0.593)" fill="#f6c343"/>
      <rect id="Rectángulo_28118" data-name="Rectángulo 28118" width="4.499" height="11.498" rx="0.556" transform="matrix(1, 0.01, -0.01, 1, 15.219, 8.187)" fill="#8ec8c8"/>
      <rect id="Rectángulo_28119" data-name="Rectángulo 28119" width="4.064" height="14.836" rx="0.888" transform="translate(20.253 4.9) rotate(0.593)" fill="#fff"/>
    </g>
  </g>
</svg>
