<svg xmlns="http://www.w3.org/2000/svg" xmlns:xlink="http://www.w3.org/1999/xlink" width="323.962" height="177.333" viewBox="0 0 323.962 177.333">
  <defs>
    <linearGradient id="linear-gradient" x1="0.5" x2="0.5" y2="1" gradientUnits="objectBoundingBox">
      <stop offset="0" stop-color="#fff"/>
      <stop offset="1" stop-color="#d2e6ee"/>
    </linearGradient>
  </defs>
  <g id="Grupo_46286" data-name="Grupo 46286" transform="translate(-41.675 -57.76)">
    <g id="Grupo_42974" data-name="Grupo 42974" transform="translate(150.765 67.932)" opacity="0.29">
      <path id="Trazado_94714" data-name="Trazado 94714" d="M334.43,146.444H265.283V92.994H321.9l12.529,12.529Z" transform="translate(-251.647 -79.239)" fill="#c9c8c3" style="mix-blend-mode: multiply;isolation: isolate"/>
      <line id="Línea_1491" data-name="Línea 1491" x1="12.12" transform="translate(0 14.393)" fill="none" stroke="#00223d" stroke-miterlimit="10" stroke-width="2.075"/>
      <line id="Línea_1492" data-name="Línea 1492" y1="12.12" transform="translate(14.014)" fill="none" stroke="#00223d" stroke-miterlimit="10" stroke-width="2.075"/>
      <path id="Trazado_94715" data-name="Trazado 94715" d="M366.372,94.846v12.5H378.9" transform="translate(-297.255 -80.075)" fill="#fff"/>
    </g>
    <g id="Grupo_42996" data-name="Grupo 42996" transform="translate(64.282 79.064)">
      <g id="Grupo_42995" data-name="Grupo 42995" transform="translate(0 0)">
        <g id="Grupo_42987" data-name="Grupo 42987">
          <path id="Trazado_94716" data-name="Trazado 94716" d="M107.885,227.729l59.178-2.614,18.03,78.942-92.3.5-9.4-45.148A26.39,26.39,0,0,1,107.885,227.729Z" transform="translate(-82.865 -149.978)" fill="#00223d"/>
          <g id="Grupo_42976" data-name="Grupo 42976" transform="translate(8.373 37.567)">
            <line id="Línea_1493" data-name="Línea 1493" x2="2.814" y2="11.004" transform="translate(19.062 28.44)" fill="none" stroke="#122832" stroke-miterlimit="10" stroke-width="5.917"/>
            <line id="Línea_1494" data-name="Línea 1494" x2="2.814" y2="11.004" transform="translate(43.903 28.44)" fill="none" stroke="#122832" stroke-miterlimit="10" stroke-width="5.917"/>
            <g id="Grupo_42975" data-name="Grupo 42975">
              <path id="Trazado_94717" data-name="Trazado 94717" d="M109.468,186.9h48.754l-10.44-30.24H103.537a5.412,5.412,0,0,0-5.116,7.179l6.954,20.144A4.33,4.33,0,0,0,109.468,186.9Z" transform="translate(-98.12 -156.663)" fill="#00223d"/>
            </g>
          </g>
          <g id="Grupo_42986" data-name="Grupo 42986" transform="translate(8.28)">
            <g id="Grupo_42985" data-name="Grupo 42985">
              <g id="Grupo_42984" data-name="Grupo 42984">
                <g id="Grupo_42977" data-name="Grupo 42977" transform="translate(45.842 61.602)">
                  <path id="Trazado_94718" data-name="Trazado 94718" d="M298.469,266.357c7.926-5.26,22.063-14.281,22.063-14.281s24.989-16.215,24.524-17.6-8.9,2.244-8.9,2.244c.66-1.282,8.363-5.87,8.056-6.7s-10.087,4.522-10.52,4.116,9.762-5.914,9.167-7.016-10.791,4.4-11.36,4.143,9.61-6.33,8.318-7.27-15.387,9.735-16.656,9.5,3.156-6.546,2.927-9.341-11.779,14.306-11.779,14.306c-2.651,2.308-23.531,11.273-23.531,11.273Z" transform="translate(-230.791 -211.003)" fill="#df9257"/>
                  <path id="Trazado_94719" data-name="Trazado 94719" d="M349.246,239.954l-3.707,6.843s1.721-6.958,1.283-7.5Z" transform="translate(-255.495 -217.977)" fill="#b6613b"/>
                  <path id="Trazado_94720" data-name="Trazado 94720" d="M229.22,240.515S203,184.758,186.649,205.989c-17.586,22.828,14.007,43.594,30.113,60.62a11.841,11.841,0,0,0,16.146.973l37.98-25.445-6.433-13.151Z" transform="translate(-181.476 -200.776)" fill="#df9257"/>
                  <path id="Trazado_94721" data-name="Trazado 94721" d="M200.986,251.12c7.009-7.934,16.627-18.451,24.254-25.763-8.829-15.049-27.318-34.323-38.591-19.69C173.994,222.095,186.805,237.454,200.986,251.12Z" transform="translate(-181.476 -200.454)" fill="#7d6eb2"/>
                </g>
                <g id="Grupo_42978" data-name="Grupo 42978" transform="translate(10.889 52.326)">
                  <path id="Trazado_94722" data-name="Trazado 94722" d="M117.816,214.69c-.9-14.068,23.21-25.427,23.21-25.427l8.974-5.71.537,1.5L165.5,199.043l2.482-6.472-.141-2.423,2.454,2.577c1.806.3,9.176,10.352,11.108,15.033,2.94,7.124,3.836,16.463,4.118,22.068,6.668,54.594,7.181,56.294,7.181,56.294H125.95S123.417,302.041,117.816,214.69Z" transform="translate(-117.791 -183.554)" fill="#7d6eb2"/>
                  <path id="Trazado_94723" data-name="Trazado 94723" d="M131.687,203.585c.688-.456,44.04,91.572,44.04,91.572H121.994s-4.545-40.313-3.881-72.812C118.113,222.345,118.9,212.053,131.687,203.585Z" transform="translate(-117.906 -192.59)" fill="#53448b"/>
                </g>
                <g id="Grupo_42981" data-name="Grupo 42981" transform="translate(40.754)">
                  <g id="Grupo_42980" data-name="Grupo 42980">
                    <path id="Trazado_94724" data-name="Trazado 94724" d="M204.876,110.976c1.268-2.581.841-6.687.841-6.687s10.645-3.631,8.1-9.717-15.048-2.688-15.048-2.688,4.736-7.262-4.57-1.355c-3.7,2.348-4.317,2.924-7.189,1.645s-7.433.363-8.761,2.769c-.823,1.492-.316,2.818-1.44,2.7-4.164-.436-6.112,3.911-3.252,13.126,0,0-1.441,4.7,1.363,12.026,1.013,2.646,4.466,3.535,4.466,3.535" transform="translate(-172.206 -88.214)" fill="#0e162e"/>
                    <path id="Trazado_94725" data-name="Trazado 94725" d="M206.709,118.384s3.157,21.354-3.346,29.589c-3.338,3.232-7.276,1.814-9.8,1.717-.1-.913.4,7.416.84,14.882,0,.019,0,.038-.005.057-.132,1.285-1.856,1.694-3.888,1.578a12.149,12.149,0,0,1-8.14-3.932l-6.174-6.631,3.445-15.521a25.965,25.965,0,0,0,.547-4.627c-2.508-.316-4.251-4.145-3.2-6.634,1-2.374,4.885-2.53,5.491-.289.615,2.273,2.518,2.212,2.755.327.137-1.086-.685-10.005,5.744-11.059,3.861.27,4.751,2.946,6.717,3.053s3.781-4.037,4.749-2.918C205.488,121.505,206.709,118.384,206.709,118.384Z" transform="translate(-174.004 -101.555)" fill="#df9257"/>
                    <path id="Trazado_94726" data-name="Trazado 94726" d="M179.7,140.243c1.342-4.526,4.316-.808,4.316-.808Z" transform="translate(-175.588 -110.675)" fill="#b6613b"/>
                    <path id="Trazado_94727" data-name="Trazado 94727" d="M206.062,175.689l-3.882-.344,3.092,7.928Z" transform="translate(-185.729 -127.524)" fill="#b6613b"/>
                    <g id="Grupo_42979" data-name="Grupo 42979" transform="translate(22.961 24.412)">
                      <path id="Trazado_94728" data-name="Trazado 94728" d="M225.144,146.257s1.8,4.556,1.538,4.535c-.692-.056-2.11.023-2.11.023Z" transform="translate(-218.792 -138.813)" fill="#b6613b"/>
                      <ellipse id="Elipse_3849" data-name="Elipse 3849" cx="1.227" cy="0.592" rx="1.227" ry="0.592" transform="translate(7.928 8.184) rotate(-88.584)" fill="#0e162e"/>
                      <path id="Trazado_94729" data-name="Trazado 94729" d="M220.4,143.884c-.016.677.235,1.233.562,1.241s.605-.534.622-1.212-.235-1.233-.562-1.241S220.415,143.206,220.4,143.884Z" transform="translate(-216.909 -137.196)" fill="#0e162e"/>
                      <path id="Trazado_94730" data-name="Trazado 94730" d="M214.462,135.055c-.783.077-.838-2.688,3.122-2.328,1.12.1,2.069,1.2,1.544,2.043C218.785,135.318,217.3,134.774,214.462,135.055Z" transform="translate(-214.041 -132.694)" fill="#0e162e"/>
                      <path id="Trazado_94731" data-name="Trazado 94731" d="M231.067,135.612c.744.256,1.886-1.83-.324-2.6a1.406,1.406,0,0,0-1.814,1.962C229.209,135.488,229.894,135.209,231.067,135.612Z" transform="translate(-220.682 -132.789)" fill="#0e162e"/>
                      <path id="Trazado_94732" data-name="Trazado 94732" d="M224.574,157.262l-5.316-.423s.559,2.554,2.889,2.74C224.022,159.73,224.574,157.262,224.574,157.262Z" transform="translate(-216.395 -143.587)" fill="#fff"/>
                    </g>
                  </g>
                </g>
                <path id="Trazado_94733" data-name="Trazado 94733" d="M167.079,342.99c9.452-1.077,26.418-3.048,26.418-3.048s33.985.711,34.2-.734-20.625-12.483-20.625-12.483c-3.412.849-39.271-2.044-39.271-2.044Z" transform="translate(-129.139 -194.898)" fill="#df9257"/>
                <g id="Grupo_42982" data-name="Grupo 42982" transform="translate(0 58.734)">
                  <path id="Trazado_94734" data-name="Trazado 94734" d="M132.557,217.573c.229-4.644,6.634-20.353-2.407-22.247-9.534-2-37.717,26.873-31.244,75.075,1.469,10.938,7.794,19.966,26.756,16.5l35.841-5.283-1.086-13.75-34.737-7.96S131.877,231.36,132.557,217.573Z" transform="translate(-97.951 -195.229)" fill="#df9257"/>
                </g>
                <g id="Grupo_42983" data-name="Grupo 42983" transform="translate(0.232 58.749)">
                  <path id="Trazado_94735" data-name="Trazado 94735" d="M136,248.342c1.447-13.75,2.532-23.032,2.895-30.395.229-4.643.482-20.715-8.558-22.608-6.935-1.452-25.812,16.465-31.968,43.233C108.612,242.313,125.617,245.022,136,248.342Z" transform="translate(-98.373 -195.256)" fill="#7d6eb2"/>
                </g>
              </g>
            </g>
          </g>
        </g>
        <g id="Grupo_42994" data-name="Grupo 42994" transform="translate(58.828 26.43)">
          <g id="Grupo_42993" data-name="Grupo 42993" transform="translate(11.301)">
            <g id="Grupo_42990" data-name="Grupo 42990">
              <g id="Grupo_42988" data-name="Grupo 42988">
                <rect id="Rectángulo_28104" data-name="Rectángulo 28104" width="7.606" height="7.417" rx="3.708" transform="translate(0)" fill="#fff" opacity="0.33"/>
                <path id="Trazado_94736" data-name="Trazado 94736" d="M212.038,143.64c.4-.629.786-1.266,1.151-1.919.985-1.765,1.893-3.6,2.875-5.351h-3.383a2.4,2.4,0,0,0-2.041,2.646v2.125A2.665,2.665,0,0,0,212.038,143.64Z" transform="translate(-210.641 -136.371)" fill="#fff" opacity="0.33"/>
              </g>
              <g id="Grupo_42989" data-name="Grupo 42989" transform="translate(0)">
                <rect id="Rectángulo_28105" data-name="Rectángulo 28105" width="7.606" height="7.417" rx="3.708" fill="none" stroke="#0e162e" stroke-miterlimit="10" stroke-width="2.156"/>
              </g>
            </g>
            <g id="Grupo_42992" data-name="Grupo 42992" transform="translate(9.304 0.148)">
              <g id="Grupo_42991" data-name="Grupo 42991">
                <rect id="Rectángulo_28106" data-name="Rectángulo 28106" width="5.11" height="7.162" rx="2.555" transform="translate(0 0)" fill="#fff" opacity="0.33"/>
                <path id="Trazado_94737" data-name="Trazado 94737" d="M228.212,143.378q1.738-3.3,3.47-6.6a1.251,1.251,0,0,0-.547-.134h-1.973a1.848,1.848,0,0,0-1.569,2.034v3.094A2.27,2.27,0,0,0,228.212,143.378Z" transform="translate(-227.593 -136.641)" fill="#fff" opacity="0.33"/>
              </g>
              <rect id="Rectángulo_28107" data-name="Rectángulo 28107" width="5.11" height="7.162" rx="2.555" transform="translate(0 0)" fill="none" stroke="#0e162e" stroke-miterlimit="10" stroke-width="1.657"/>
            </g>
            <line id="Línea_1495" data-name="Línea 1495" x2="1.552" transform="translate(7.606 4.375)" fill="none" stroke="#0e162e" stroke-miterlimit="10" stroke-width="2.156"/>
          </g>
          <line id="Línea_1496" data-name="Línea 1496" x2="11.228" y2="0.153" transform="translate(0 1.777)" fill="none" stroke="#0e162e" stroke-miterlimit="10" stroke-width="2.156"/>
        </g>
      </g>
    </g>
    <g id="Grupo_43002" data-name="Grupo 43002" transform="translate(41.675 175.301)">
      <g id="Grupo_42998" data-name="Grupo 42998" transform="translate(99.076)">
        <g id="Grupo_42997" data-name="Grupo 42997" transform="translate(0)">
          <rect id="Rectángulo_28108" data-name="Rectángulo 28108" width="48.329" height="5.668" transform="translate(0 46.864)" fill="#8ec8c8"/>
          <path id="Trazado_94738" data-name="Trazado 94738" d="M279.082,348.948q-3.645,2.759-7.172,5.668h21.043v-5.668Z" transform="translate(-244.624 -302.084)" fill="#6fa7a7"/>
          <path id="Trazado_94739" data-name="Trazado 94739" d="M357.708,316.093H281.537l18.386-52.532h76.171Z" transform="translate(-248.967 -263.561)" fill="#8ec8c8"/>
          <line id="Línea_1497" data-name="Línea 1497" x2="76.554" transform="translate(33.936 46.476)" fill="none" stroke="#fff" stroke-miterlimit="10" stroke-width="1.311"/>
          <path id="Trazado_94740" data-name="Trazado 94740" d="M367.982,310.177a4.782,4.782,0,1,0-4.782,4.783A4.782,4.782,0,0,0,367.982,310.177Z" transform="translate(-283.653 -282.435)" fill="#fff"/>
        </g>
      </g>
      <rect id="Rectángulo_28109" data-name="Rectángulo 28109" width="311" height="8.174" transform="translate(0 51.6)" fill="#00223d"/>
    </g>
    <g id="Grupo_43021" data-name="Grupo 43021" transform="translate(73.254 68.166)">
      <g id="Grupo_43012" data-name="Grupo 43012" transform="translate(130.062 29.837)">
        <g id="Grupo_43011" data-name="Grupo 43011">
          <g id="Grupo_43004" data-name="Grupo 43004" transform="translate(14.244 26.319)">
            <g id="Grupo_43003" data-name="Grupo 43003">
              <path id="Trazado_94745" data-name="Trazado 94745" d="M390.16,193.364l-13.289-22.623a.158.158,0,0,0-.286.093v19.291a.153.153,0,0,0,.085.134,1.064,1.064,0,0,1,.286,1.631.192.192,0,0,1-.04.04,1.051,1.051,0,0,1-1.751-.767,1.023,1.023,0,0,1,.538-.9.164.164,0,0,0,.089-.143V170.834a.158.158,0,0,0-.286-.093L362.171,192.9a.158.158,0,0,0,0,.178l6.59,13.955h14.866l6.543-13.49A.157.157,0,0,0,390.16,193.364Z" transform="translate(-362.141 -170.676)" fill="#00223d"/>
            </g>
            <path id="Rectángulo_28110" data-name="Rectángulo 28110" d="M.308,0H14.8a.308.308,0,0,1,.308.308v4.63A1.558,1.558,0,0,1,13.551,6.5H1.558A1.558,1.558,0,0,1,0,4.938V.308A.308.308,0,0,1,.308,0Z" transform="translate(6.494 36.927)" fill="#00223d"/>
          </g>
          <g id="Grupo_43010" data-name="Grupo 43010">
            <g id="Grupo_43007" data-name="Grupo 43007" transform="translate(6.364)">
              <g id="Grupo_43005" data-name="Grupo 43005" transform="translate(1.502 1.229)">
                <path id="Trazado_94746" data-name="Trazado 94746" d="M350.52,124.961A20.485,20.485,0,0,0,371,145.446" transform="translate(-350.52 -124.961)" fill="none" stroke="#f6c343" stroke-miterlimit="10" stroke-width="1.497"/>
                <path id="Trazado_94747" data-name="Trazado 94747" d="M408.329,183.268a20.485,20.485,0,0,0-20.485-20.485" transform="translate(-367.359 -142.025)" fill="none" stroke="#f6c343" stroke-miterlimit="10" stroke-width="1.497"/>
              </g>
              <g id="Grupo_43006" data-name="Grupo 43006">
                <rect id="Rectángulo_28111" data-name="Rectángulo 28111" width="3.004" height="3.004" fill="#00223d"/>
                <rect id="Rectángulo_28112" data-name="Rectángulo 28112" width="3.004" height="3.004" transform="translate(40.697 40.424)" fill="#00223d"/>
              </g>
            </g>
            <g id="Grupo_43009" data-name="Grupo 43009" transform="translate(0 20.622)">
              <line id="Línea_1498" data-name="Línea 1498" x2="54.08" transform="translate(1.571 1.229)" fill="none" stroke="#f6c343" stroke-miterlimit="10" stroke-width="1.497"/>
              <g id="Grupo_43008" data-name="Grupo 43008">
                <rect id="Rectángulo_28113" data-name="Rectángulo 28113" width="3.004" height="3.004" transform="translate(26.699)" fill="#00223d"/>
                <rect id="Rectángulo_28114" data-name="Rectángulo 28114" width="3.004" height="3.004" fill="#00223d"/>
                <rect id="Rectángulo_28115" data-name="Rectángulo 28115" width="3.004" height="3.004" transform="translate(53.534)" fill="#00223d"/>
              </g>
            </g>
          </g>
        </g>
      </g>
      <g id="Grupo_43013" data-name="Grupo 43013" transform="translate(0 0)">
        <path id="Trazado_94748" data-name="Trazado 94748" d="M103.335,96.048l24.164.25a2.228,2.228,0,0,1,2,1.29l2.205,4.75a.271.271,0,0,0,.516-.1l.242-5.885.243-23.523a4.166,4.166,0,0,0-4.123-4.209l-24.958-.258a4.166,4.166,0,0,0-4.21,4.123l-.2,19.357A4.167,4.167,0,0,0,103.335,96.048Z" transform="translate(-99.212 -68.359)" fill="#a0a0a0" opacity="0.22" style="mix-blend-mode: multiply;isolation: isolate"/>
        <path id="Rectángulo_28116" data-name="Rectángulo 28116" d="M.555,0H4.534a.556.556,0,0,1,.556.556V7.9a.556.556,0,0,1-.556.556H.556A.556.556,0,0,1,0,7.9V.555A.555.555,0,0,1,.555,0Z" transform="translate(11.515 13.756) rotate(0.591)" fill="#8ec8c8"/>
        <rect id="Rectángulo_28117" data-name="Rectángulo 28117" width="5.089" height="5.09" rx="0.431" transform="translate(5.774 17.06) rotate(0.593)" fill="#f6c343"/>
        <rect id="Rectángulo_28118" data-name="Rectángulo 28118" width="5.089" height="13.006" rx="0.556" transform="matrix(1, 0.01, -0.01, 1, 17.216, 9.261)" fill="#7d6eb2"/>
        <rect id="Rectángulo_28119" data-name="Rectángulo 28119" width="4.598" height="16.783" rx="0.888" transform="translate(22.91 5.543) rotate(0.593)" fill="#00223d"/>
      </g>
      <g id="Grupo_43020" data-name="Grupo 43020" transform="translate(178.16 78.925)">
        <g id="Grupo_43019" data-name="Grupo 43019" style="mix-blend-mode: multiply;isolation: isolate">
          <g id="Grupo_43014" data-name="Grupo 43014" transform="translate(14.43 2.931)">
            <circle id="Elipse_3851" data-name="Elipse 3851" cx="12.094" cy="12.094" r="12.094" transform="translate(20.738 3.067)" fill="#8ec8c8" style="mix-blend-mode: multiply;isolation: isolate"/>
            <circle id="Elipse_3852" data-name="Elipse 3852" cx="12.094" cy="12.094" r="12.094" transform="matrix(0.361, -0.933, 0.933, 0.361, 0, 22.556)" fill="#7d6eb2" style="mix-blend-mode: multiply;isolation: isolate"/>
            <circle id="Elipse_3853" data-name="Elipse 3853" cx="12.094" cy="12.094" r="12.094" transform="translate(10.671 20.392) rotate(-9.282)" fill="#f6c343" style="mix-blend-mode: multiply;isolation: isolate"/>
          </g>
          <g id="Grupo_43018" data-name="Grupo 43018">
            <rect id="Rectángulo_28120" data-name="Rectángulo 28120" width="74.835" height="49.515" transform="translate(0.934 1.181)" fill="none" stroke="#a0a0a0" stroke-miterlimit="10" stroke-width="0.771" stroke-dasharray="5.231"/>
            <g id="Grupo_43017" data-name="Grupo 43017">
              <g id="Grupo_43015" data-name="Grupo 43015">
                <rect id="Rectángulo_28121" data-name="Rectángulo 28121" width="3.501" height="3.501" fill="#fff" stroke="#00223d" stroke-miterlimit="10" stroke-width="1.744"/>
                <rect id="Rectángulo_28122" data-name="Rectángulo 28122" width="3.501" height="3.501" transform="translate(73.838)" fill="#fff" stroke="#00223d" stroke-miterlimit="10" stroke-width="1.744"/>
              </g>
              <g id="Grupo_43016" data-name="Grupo 43016" transform="translate(0 47.899)">
                <rect id="Rectángulo_28123" data-name="Rectángulo 28123" width="3.501" height="3.501" fill="#fff" stroke="#00223d" stroke-miterlimit="10" stroke-width="1.744"/>
                <rect id="Rectángulo_28124" data-name="Rectángulo 28124" width="3.501" height="3.501" transform="translate(73.838)" fill="#fff" stroke="#00223d" stroke-miterlimit="10" stroke-width="1.744"/>
              </g>
            </g>
          </g>
        </g>
        <path id="Trazado_94749" data-name="Trazado 94749" d="M520.558,303.03l-2.334,6.769a.713.713,0,0,1-1.355-.021l-4.631-14.921a.713.713,0,0,1,.908-.887l14.941,5.023a.713.713,0,0,1-.012,1.355l-7.058,2.235A.713.713,0,0,0,520.558,303.03Z" transform="translate(-463.698 -249.053)" fill="#00223d"/>
      </g>
    </g>
    <g id="Grupo_43024" data-name="Grupo 43024" transform="translate(53.127 97.974)">
      <g id="Grupo_43023" data-name="Grupo 43023" transform="translate(0 33.393)">
        <path id="Trazado_94751" data-name="Trazado 94751" d="M84.932,226.991a3.349,3.349,0,1,0-3.353,3.345A3.349,3.349,0,0,0,84.932,226.991Z" transform="translate(-69.621 -201.615)" fill="#f6c343" style="mix-blend-mode: multiply;isolation: isolate"/>
        <rect id="Rectángulo_28126" data-name="Rectángulo 28126" width="12.918" height="25.359" transform="translate(0.028) rotate(0.064)" fill="none" stroke="#00223d" stroke-miterlimit="10" stroke-width="0.771" stroke-dasharray="5.231" style="mix-blend-mode: multiply;isolation: isolate"/>
      </g>
      <g id="Grupo_46287" data-name="Grupo 46287" transform="translate(213.948 -40.214)">
        <g id="Grupo_46137" data-name="Grupo 46137" transform="translate(0 10.585)">
          <g id="Grupo_46134" data-name="Grupo 46134">
            <path id="Trazado_96135" data-name="Trazado 96135" d="M503.363,1093.266a.343.343,0,0,1-.223-.294c-.033-.448-.058-.9-.073-1.355a.332.332,0,0,1,.33-.342c.457-.01.333.446.424,1.658a.332.332,0,0,1-.316.355A.353.353,0,0,1,503.363,1093.266Z" transform="translate(-503.068 -1057.693)" fill="#00223d"/>
            <path id="Trazado_96136" data-name="Trazado 96136" d="M504.769,696.738c.084-.859.2-1.724.355-2.573a.336.336,0,0,1,.4-.267c.506.1.176.383-.071,2.914a.334.334,0,0,1-.373.3A.343.343,0,0,1,504.769,696.738Zm1.363-6.667c.26-.826.559-1.658.876-2.442a.343.343,0,0,1,.635.256c-.316.782-.6,1.584-.859,2.393a.343.343,0,0,1-.653-.208Zm2.706-6.238c.424-.75.883-1.493,1.367-2.208a.342.342,0,0,1,.571.377c-.473.7-.924,1.428-1.339,2.163A.343.343,0,0,1,508.837,683.834Zm3.992-5.071a.332.332,0,0,1-.037-.474c.573-.647,1.179-1.279,1.8-1.88.321-.309.8.175.482.483-.611.588-1.206,1.208-1.767,1.841A.345.345,0,0,1,512.83,678.762Zm4.94-4.62a.331.331,0,0,1,.062-.47c.7-.517,1.423-1.013,2.159-1.473a.34.34,0,0,1,.373.568c-.721.452-1.433.937-2.116,1.444A.347.347,0,0,1,517.769,674.143Zm5.994-3.352a.344.344,0,0,1-.189-.171.329.329,0,0,1,.158-.446c.791-.366,1.607-.705,2.424-1.008a.348.348,0,0,1,.443.2.33.33,0,0,1-.193.432c-.8.3-1.6.63-2.375.988A.346.346,0,0,1,523.763,670.791Zm6.45-2.218a.344.344,0,0,1-.213-.236.33.33,0,0,1,.247-.4c.851-.2,1.722-.367,2.588-.5a.346.346,0,0,1,.394.28.331.331,0,0,1-.279.383c-.848.13-1.7.3-2.536.49A.346.346,0,0,1,530.213,668.572Zm6.571-1.178a.332.332,0,0,1,.327-.345c.877-.023,1.767-.012,2.647.033a.336.336,0,1,1-.025.671c-.861-.044-1.734-.055-2.593-.032A.345.345,0,0,1,536.783,667.394Zm21.888,7.3c-2.046-1.563-2.507-1.537-2.226-1.961a.343.343,0,0,1,.472-.094c.739.479,1.468.992,2.168,1.526A.336.336,0,1,1,558.672,674.69Zm-15.03-6.849a.335.335,0,0,1,.393-.271c.866.154,1.738.343,2.592.563a.335.335,0,1,1-.163.65c-.837-.215-1.692-.4-2.54-.551A.342.342,0,0,1,543.642,667.84Zm9.226,3.283c-2.316-1.12-2.767-1-2.58-1.479a.348.348,0,0,1,.442-.187c.823.323,1.641.681,2.433,1.063a.335.335,0,1,1-.294.6Z" transform="translate(-504.633 -667.038)" fill="#00223d"/>
            <path id="Trazado_96137" data-name="Trazado 96137" d="M1225.841,793.1c-.785-.838-1.271-1.122-.945-1.442a.345.345,0,0,1,.483,0c.846.834,1.271,1.167.945,1.461A.39.39,0,0,1,1225.841,793.1Z" transform="translate(-1167.663 -781.704)" fill="#00223d"/>
          </g>
          <g id="Grupo_46135" data-name="Grupo 46135" transform="translate(8.001 33.882)">
            <path id="Trazado_96138" data-name="Trazado 96138" d="M1350.884,1097.068a.342.342,0,0,1-.223-.336c.024-.441.038-.888.044-1.328a.333.333,0,0,1,.346-.327.345.345,0,0,1,.338.345c-.005.449-.021.9-.045,1.355a.334.334,0,0,1-.359.312A.351.351,0,0,1,1350.884,1097.068Z" transform="translate(-1291.569 -1095.078)" fill="#00223d"/>
            <path id="Trazado_96139" data-name="Trazado 96139" d="M666.868,1192.79c-.879-.36-1.753-.76-2.6-1.19a.337.337,0,0,1-.152-.453c.239-.463.433-.029,3,1.024a.338.338,0,0,1,.19.439A.348.348,0,0,1,666.868,1192.79Zm4.154,1.059c.13-.5.428-.119,3.148.362a.342.342,0,0,1,.282.39.335.335,0,0,1-.393.271c-.931-.165-1.869-.37-2.789-.611A.341.341,0,0,1,671.022,1193.849Zm-10.737-4.626c-.779-.539-1.545-1.117-2.277-1.719a.333.333,0,0,1-.047-.473c.338-.4.429.066,2.711,1.645a.335.335,0,0,1,.088.468A.344.344,0,0,1,660.285,1189.224Zm18.271,6.126a.342.342,0,0,1-.223-.327.333.333,0,0,1,.35-.322c.928.037,1.867.036,2.791,0a.345.345,0,0,1,.361.321.332.332,0,0,1-.321.35c-.943.04-1.9.041-2.849,0A.35.35,0,0,1,678.556,1195.349Zm7.361-.506a.345.345,0,0,1-.217-.253.331.331,0,0,1,.269-.391c.908-.163,1.821-.367,2.713-.606a.348.348,0,0,1,.423.236.33.33,0,0,1-.234.412c-.91.244-1.842.452-2.769.619A.346.346,0,0,1,685.917,1194.843Zm7.046-2.083a.346.346,0,0,1-.194-.182.33.33,0,0,1,.174-.44c.848-.355,1.691-.751,2.5-1.176a.348.348,0,0,1,.464.141.33.33,0,0,1-.136.454c-.831.433-1.691.837-2.556,1.2A.347.347,0,0,1,692.963,1192.76Zm6.393-3.551a.348.348,0,0,1-.156-.118.33.33,0,0,1,.072-.469c.746-.529,1.478-1.1,2.176-1.687a.346.346,0,0,1,.482.039.331.331,0,0,1-.032.473c-.712.6-1.459,1.182-2.221,1.722A.345.345,0,0,1,699.356,1189.209Zm5.327-4.911c-.4-.348.071-.418,1.705-2.6a.342.342,0,0,1,.552.4c-.558.743-1.155,1.472-1.775,2.165A.345.345,0,0,1,704.683,1184.3Zm4.26-5.879c-.468-.253-.027-.421,1.075-2.909a.343.343,0,0,1,.627.276c-.376.849-.793,1.691-1.24,2.5A.341.341,0,0,1,708.943,1178.418Zm2.8-6.68a.339.339,0,0,1-.21-.408c.251-.878.467-1.774.641-2.662a.336.336,0,0,1,.4-.26.342.342,0,0,1,.271.4c-.178.907-.4,1.82-.654,2.716a.337.337,0,0,1-.421.227Z" transform="translate(-653.63 -1162.596)" fill="#00223d"/>
            <path id="Trazado_96140" data-name="Trazado 96140" d="M605.148,1350.971c-.808-.873-1.216-1.223-.876-1.5s.551.16,1.378,1.053a.331.331,0,0,1-.019.474A.346.346,0,0,1,605.148,1350.971Z" transform="translate(-604.152 -1329.252)" fill="#00223d"/>
          </g>
          <g id="Grupo_46136" data-name="Grupo 46136" transform="translate(8.489 8.114)">
            <path id="Trazado_96141" data-name="Trazado 96141" d="M614.55,808.536l4.856-.6a21.732,21.732,0,0,0,5.266,4.493c.189,4.682-.129,5.024.371,5.191l5.6,1.864a.4.4,0,0,0,.446-.132l2.947-3.8a21.652,21.652,0,0,0,6.9-.44l3.533,3.4a.411.411,0,0,0,.463.074l5.238-2.552a.388.388,0,0,0,.216-.4l-.685-4.783a20.638,20.638,0,0,0,4.491-5.109l4.9-.018a.4.4,0,0,0,.376-.268l1.812-5.473a.4.4,0,0,0-.141-.441l-3.916-2.955a20.717,20.717,0,0,0-.552-6.789c3.251-3.411,3.708-3.414,3.47-3.875-2.714-5.043-2.559-5.472-3.091-5.407l-4.856.6a21.732,21.732,0,0,0-5.266-4.493c-.189-4.679.129-5.024-.371-5.191-5.592-1.757-5.725-2.141-6.042-1.732l-2.947,3.8a21.649,21.649,0,0,0-6.9.44c-3.477-3.208-3.523-3.7-4-3.47-5.139,2.616-5.528,2.44-5.454,2.957l.685,4.783a20.639,20.639,0,0,0-4.491,5.109c-4.677.113-5.11-.213-5.276.286-1.7,5.447-2.095,5.594-1.671,5.914l3.916,2.955a20.722,20.722,0,0,0,.552,6.789c-3.24,3.4-3.708,3.412-3.47,3.875C614.173,808.172,614.019,808.6,614.55,808.536Z" transform="translate(-610.306 -769.538)" fill="#7d6eb2"/>
            <path id="Trazado_96142" data-name="Trazado 96142" d="M859.9,1019.081a5.609,5.609,0,0,1,6.1-5.163,5.781,5.781,0,0,1,5.345,6.076,5.609,5.609,0,0,1-6.1,5.163h0A5.78,5.78,0,0,1,859.9,1019.081Zm5.379,5.574h0Zm.654-9.732a4.6,4.6,0,0,0-5.01,4.24,4.747,4.747,0,0,0,4.39,4.99,4.607,4.607,0,0,0,5.01-4.24A4.747,4.747,0,0,0,865.934,1014.922Z" transform="translate(-840.132 -994.556)" fill="url(#linear-gradient)"/>
            <path id="Trazado_96143" data-name="Trazado 96143" d="M757.492,929.99h0A15.145,15.145,0,0,1,755.2,928.9a.506.506,0,0,1-.224-.613.486.486,0,0,1,.038-.078.514.514,0,0,1,.7-.173,14.178,14.178,0,0,0,2.662,1.2h0a13.568,13.568,0,0,0,17.047-7.876q.1-.256.184-.518a13.722,13.722,0,0,0-26.031-8.672c-1.388,4.193-.175,7.006-.338,7.438a.516.516,0,0,1-.98-.075,14.172,14.172,0,0,1,.54-8.244c4.423-11.708,21.084-12.421,26.89-1.162a14.184,14.184,0,0,1,.894,11.041q-.094.284-.2.562a14.134,14.134,0,0,1-7.1,7.749,14.8,14.8,0,0,1-11.22.712Q757.774,930.1,757.492,929.99Z" transform="translate(-736.992 -891.591)" fill="url(#linear-gradient)"/>
          </g>
        </g>
        <g id="Grupo_46141" data-name="Grupo 46141" transform="translate(57.419 0)">
          <g id="Grupo_46138" data-name="Grupo 46138">
            <path id="Trazado_96144" data-name="Trazado 96144" d="M1228.622,791.894a.208.208,0,0,1-.135-.178c-.02-.272-.035-.548-.044-.822a.2.2,0,0,1,.2-.207c.277-.006.2.271.257,1.006a.2.2,0,0,1-.192.215A.21.21,0,0,1,1228.622,791.894Z" transform="translate(-1228.443 -770.313)" fill="#00223d"/>
            <path id="Trazado_96145" data-name="Trazado 96145" d="M1229.474,551.336c.051-.521.123-1.046.216-1.561a.2.2,0,0,1,.24-.162c.307.06.107.233-.043,1.768a.2.2,0,0,1-.226.18A.208.208,0,0,1,1229.474,551.336Zm.827-4.044c.158-.5.339-1.006.532-1.482a.208.208,0,0,1,.385.156c-.192.474-.366.961-.521,1.452a.208.208,0,0,1-.4-.126Zm1.642-3.784c.257-.455.536-.906.829-1.339a.208.208,0,0,1,.346.229c-.287.425-.56.866-.812,1.312A.208.208,0,0,1,1231.942,543.508Zm2.422-3.077a.2.2,0,0,1-.022-.288c.347-.392.715-.776,1.094-1.14.195-.187.487.106.292.293-.371.357-.731.733-1.072,1.117A.209.209,0,0,1,1234.364,540.431Zm3-2.8a.2.2,0,0,1,.038-.285c.423-.313.864-.614,1.31-.894a.206.206,0,0,1,.226.345c-.437.274-.869.569-1.284.876A.211.211,0,0,1,1237.361,537.628Zm3.636-2.033a.209.209,0,0,1-.115-.1.2.2,0,0,1,.1-.271c.48-.222.975-.428,1.471-.612a.211.211,0,0,1,.269.119.2.2,0,0,1-.117.262c-.486.18-.97.382-1.441.6A.21.21,0,0,1,1241,535.595Zm3.913-1.346a.21.21,0,0,1-.13-.143.2.2,0,0,1,.15-.245c.517-.121,1.045-.223,1.57-.3a.21.21,0,0,1,.239.17.2.2,0,0,1-.169.233c-.515.079-1.032.179-1.538.3A.21.21,0,0,1,1244.91,534.249Zm3.986-.715a.2.2,0,0,1,.2-.209c.532-.014,1.072-.007,1.606.02a.2.2,0,1,1-.016.407c-.522-.027-1.052-.033-1.573-.019A.21.21,0,0,1,1248.9,533.534Zm13.279,4.426c-1.242-.948-1.521-.933-1.35-1.19a.208.208,0,0,1,.286-.057c.448.29.891.6,1.315.926A.2.2,0,1,1,1262.175,537.96Zm-9.118-4.155a.2.2,0,0,1,.239-.164c.525.093,1.054.208,1.572.341a.2.2,0,1,1-.1.394c-.508-.131-1.026-.243-1.541-.335A.208.208,0,0,1,1253.057,533.805Zm5.6,1.992c-1.4-.679-1.679-.609-1.565-.9a.211.211,0,0,1,.268-.113c.5.2,1,.413,1.476.645a.2.2,0,1,1-.178.365Z" transform="translate(-1229.391 -533.318)" fill="#00223d"/>
            <path id="Trazado_96146" data-name="Trazado 96146" d="M1666.921,609.794c-.476-.508-.771-.681-.573-.875a.209.209,0,0,1,.293,0c.513.506.771.708.573.886A.236.236,0,0,1,1666.921,609.794Z" transform="translate(-1631.627 -602.881)" fill="#00223d"/>
          </g>
          <g id="Grupo_46139" data-name="Grupo 46139" transform="translate(4.854 20.555)">
            <path id="Trazado_96147" data-name="Trazado 96147" d="M1742.78,794.2a.208.208,0,0,1-.135-.2c.015-.268.023-.539.027-.805a.2.2,0,0,1,.21-.2.209.209,0,0,1,.2.209c0,.272-.012.549-.027.822a.2.2,0,0,1-.218.189A.211.211,0,0,1,1742.78,794.2Z" transform="translate(-1706.796 -792.993)" fill="#00223d"/>
            <path id="Trazado_96148" data-name="Trazado 96148" d="M1327.813,852.271c-.533-.218-1.064-.461-1.576-.722a.2.2,0,0,1-.092-.275c.145-.281.262-.018,1.823.621a.2.2,0,0,1,.115.266A.211.211,0,0,1,1327.813,852.271Zm2.52.643c.078-.306.26-.072,1.91.22a.207.207,0,0,1,.171.237.2.2,0,0,1-.238.164c-.564-.1-1.134-.225-1.692-.371A.207.207,0,0,1,1330.334,852.914Zm-6.514-2.806c-.472-.327-.937-.678-1.381-1.043a.2.2,0,0,1-.028-.287c.2-.242.26.04,1.645,1a.2.2,0,0,1,.053.284A.209.209,0,0,1,1323.82,850.108Zm11.084,3.716a.208.208,0,0,1-.135-.2.2.2,0,0,1,.213-.2c.563.023,1.133.022,1.693,0a.209.209,0,0,1,.219.195.2.2,0,0,1-.195.212c-.572.025-1.154.025-1.728,0A.215.215,0,0,1,1334.9,853.824Zm4.466-.307a.209.209,0,0,1-.132-.154.2.2,0,0,1,.163-.237c.551-.1,1.1-.223,1.646-.368a.211.211,0,0,1,.257.143.2.2,0,0,1-.142.25c-.552.148-1.117.274-1.68.375A.212.212,0,0,1,1339.37,853.517Zm4.275-1.264a.21.21,0,0,1-.118-.111.2.2,0,0,1,.106-.267c.514-.216,1.026-.456,1.52-.713a.211.211,0,0,1,.281.085.2.2,0,0,1-.083.275c-.5.263-1.026.507-1.551.728A.209.209,0,0,1,1343.645,852.253Zm3.879-2.154a.211.211,0,0,1-.095-.072.2.2,0,0,1,.044-.284c.453-.321.9-.666,1.32-1.024a.21.21,0,0,1,.292.023.2.2,0,0,1-.019.287c-.432.365-.885.717-1.347,1.045A.21.21,0,0,1,1347.523,850.1Zm3.232-2.98c-.243-.211.043-.253,1.034-1.575a.208.208,0,0,1,.335.245c-.338.451-.7.893-1.077,1.314A.209.209,0,0,1,1350.755,847.119Zm2.584-3.567c-.284-.154-.016-.255.652-1.765a.208.208,0,0,1,.38.167c-.228.515-.481,1.026-.752,1.518A.207.207,0,0,1,1353.339,843.553Zm1.7-4.053a.206.206,0,0,1-.128-.248c.152-.533.283-1.076.389-1.615a.2.2,0,0,1,.243-.158.207.207,0,0,1,.164.241c-.108.55-.241,1.1-.4,1.648a.2.2,0,0,1-.255.137Z" transform="translate(-1319.783 -833.954)" fill="#00223d"/>
            <path id="Trazado_96149" data-name="Trazado 96149" d="M1290.37,948.233c-.49-.529-.737-.742-.531-.911s.334.1.836.639a.2.2,0,0,1-.012.288A.21.21,0,0,1,1290.37,948.233Z" transform="translate(-1289.766 -935.057)" fill="#00223d"/>
          </g>
          <g id="Grupo_46140" data-name="Grupo 46140" transform="translate(5.15 4.922)">
            <path id="Trazado_96150" data-name="Trazado 96150" d="M1296.074,619.159l2.946-.365a13.185,13.185,0,0,0,3.194,2.725c.115,2.84-.078,3.048.225,3.149l3.4,1.131a.244.244,0,0,0,.271-.08l1.788-2.308a13.138,13.138,0,0,0,4.185-.267l2.143,2.06a.249.249,0,0,0,.281.045l3.178-1.548a.235.235,0,0,0,.131-.245l-.416-2.9a12.521,12.521,0,0,0,2.725-3.1l2.973-.011a.239.239,0,0,0,.228-.163l1.1-3.32a.24.24,0,0,0-.086-.267l-2.375-1.793a12.568,12.568,0,0,0-.335-4.118c1.972-2.07,2.249-2.071,2.105-2.351-1.646-3.059-1.553-3.32-1.875-3.28l-2.946.365a13.186,13.186,0,0,0-3.194-2.726c-.115-2.839.078-3.048-.225-3.149-3.392-1.066-3.473-1.3-3.666-1.051l-1.788,2.308a13.132,13.132,0,0,0-4.185.267c-2.109-1.946-2.137-2.245-2.424-2.105-3.118,1.587-3.354,1.48-3.309,1.794l.416,2.9a12.518,12.518,0,0,0-2.725,3.1c-2.837.069-3.1-.129-3.2.174-1.029,3.3-1.271,3.394-1.014,3.588l2.375,1.793a12.574,12.574,0,0,0,.335,4.118c-1.965,2.063-2.25,2.07-2.105,2.351C1295.846,618.939,1295.752,619.2,1296.074,619.159Z" transform="translate(-1293.499 -595.501)" fill="#8ec8c8"/>
            <path id="Trazado_96151" data-name="Trazado 96151" d="M1444.919,746.888a3.4,3.4,0,0,1,3.7-3.132,3.507,3.507,0,0,1,3.243,3.686,3.4,3.4,0,0,1-3.7,3.132h0A3.507,3.507,0,0,1,1444.919,746.888Zm3.263,3.381h0Zm.4-5.9a2.791,2.791,0,0,0-3.04,2.573,2.88,2.88,0,0,0,2.663,3.027,2.794,2.794,0,0,0,3.04-2.573A2.88,2.88,0,0,0,1448.579,744.365Z" transform="translate(-1432.926 -732.01)" fill="url(#linear-gradient)"/>
            <path id="Trazado_96152" data-name="Trazado 96152" d="M1382.792,692.84h0a9.188,9.188,0,0,1-1.39-.662.307.307,0,0,1-.136-.372.318.318,0,0,1,.023-.048.312.312,0,0,1,.425-.1,8.609,8.609,0,0,0,1.615.73h0a8.231,8.231,0,0,0,10.342-4.778q.059-.155.111-.314a8.325,8.325,0,0,0-15.792-5.261,9.239,9.239,0,0,0-.205,4.512.313.313,0,0,1-.595-.046,8.6,8.6,0,0,1,.328-5c2.683-7.1,12.791-7.535,16.313-.705a8.6,8.6,0,0,1,.542,6.7q-.057.172-.12.341a8.575,8.575,0,0,1-4.309,4.7,8.977,8.977,0,0,1-6.807.432C1383.021,692.924,1382.906,692.883,1382.792,692.84Z" transform="translate(-1370.356 -669.545)" fill="url(#linear-gradient)"/>
          </g>
        </g>
      </g>
    </g>
  </g>
</svg>
