<svg xmlns="http://www.w3.org/2000/svg" xmlns:xlink="http://www.w3.org/1999/xlink" width="313.849" height="258.562" viewBox="0 0 313.849 258.562">
  <defs>
    <linearGradient id="linear-gradient" x1="0.5" x2="0.5" y2="1" gradientUnits="objectBoundingBox">
      <stop offset="0" stop-color="#fff"/>
      <stop offset="1" stop-color="#d2e6ee"/>
    </linearGradient>
    <linearGradient id="linear-gradient-2" y1="0.5" x2="1" y2="0.5" gradientUnits="objectBoundingBox">
      <stop offset="0" stop-color="#ff928e"/>
      <stop offset="1" stop-color="#feb3b1"/>
    </linearGradient>
    <linearGradient id="linear-gradient-5" x1="294.087" y1="1.605" x2="296.088" y2="4.278" xlink:href="#linear-gradient-2"/>
    <linearGradient id="linear-gradient-6" x1="0.439" y1="-3.503" x2="0.505" y2="0.689" xlink:href="#linear-gradient-2"/>
    <linearGradient id="linear-gradient-7" x1="0.511" y1="0.146" x2="0.456" y2="1.705" xlink:href="#linear-gradient-2"/>
    <linearGradient id="linear-gradient-8" x1="-47.545" y1="17.427" x2="-48.867" y2="15.942" xlink:href="#linear-gradient-2"/>
    <linearGradient id="linear-gradient-9" x1="-155.484" y1="82.575" x2="-159.791" y2="75.375" xlink:href="#linear-gradient-2"/>
    <linearGradient id="linear-gradient-10" x1="1.66" y1="1.186" x2="0.085" y2="0.256" xlink:href="#linear-gradient-2"/>
    <linearGradient id="linear-gradient-11" x1="0.892" y1="0.928" x2="-0.916" y2="-1.638" xlink:href="#linear-gradient-2"/>
    <linearGradient id="linear-gradient-12" y1="0.5" x2="1" y2="0.5" gradientUnits="objectBoundingBox">
      <stop offset="0" stop-color="#dae3fe"/>
      <stop offset="1" stop-color="#e9effd"/>
    </linearGradient>
    <linearGradient id="linear-gradient-13" x1="0" y1="0.5" x2="1" y2="0.5" xlink:href="#linear-gradient-12"/>
    <linearGradient id="linear-gradient-25" x1="0" y1="0.5" x2="1" y2="0.5" xlink:href="#linear-gradient-12"/>
    <linearGradient id="linear-gradient-26" x1="0" y1="0.5" x2="1" y2="0.5" xlink:href="#linear-gradient-12"/>
    <linearGradient id="linear-gradient-30" x1="0" y1="0.5" x2="1" y2="0.5" xlink:href="#linear-gradient-12"/>
    <linearGradient id="linear-gradient-34" x1="0" y1="0.5" x2="1" y2="0.5" xlink:href="#linear-gradient-12"/>
    <linearGradient id="linear-gradient-111" x1="0" y1="0.5" x2="1" y2="0.5" xlink:href="#linear-gradient-12"/>
  </defs>
  <g id="Grupo_53013" data-name="Grupo 53013" transform="translate(-323.582 -253.746)">
    <g id="Grupo_46161" data-name="Grupo 46161" transform="translate(323.582 279.663)">
      <path id="Trazado_96199" data-name="Trazado 96199" d="M323.582,421.7v144.4c0,11.879,9.125,21.592,20.572,21.9,50.843,1.36,228.666,4.658,277.065,3.917a15.826,15.826,0,0,0,15.3-15.659c.933-33.545,2.449-114.21-3.16-151.66a16.2,16.2,0,0,0-15.289-14.039c-42.6-1.414-231.1-5.9-279.48-4.776C330.244,405.971,323.582,413.04,323.582,421.7Z" transform="translate(-323.582 -405.597)" fill="#00223d"/>
      <path id="Trazado_96200" data-name="Trazado 96200" d="M374.757,448.253V585.439a12.478,12.478,0,0,0,12.052,12.69L656.7,601.588a12.126,12.126,0,0,0,12.085-12.3l.451-135.96a8.886,8.886,0,0,0-8.5-9.064l-276.315-5.791A9.606,9.606,0,0,0,374.757,448.253Z" transform="translate(-366.023 -432.856)" fill="#f1f1f1"/>
      <path id="Trazado_96201" data-name="Trazado 96201" d="M669.233,1398.2h-.006L373.17,1392.97a.325.325,0,0,1-.32-.331.334.334,0,0,1,.331-.32l296.057,5.233a.325.325,0,0,1-.005.651Z" transform="translate(-364.442 -1223.91)" fill="#fff" opacity="0.65"/>
    </g>
    <g id="Grupo_46178" data-name="Grupo 46178" transform="translate(341.456 298.831)">
      <path id="Trazado_96202" data-name="Trazado 96202" d="M513.211,931.607H435.149a4.262,4.262,0,0,1-4.262-4.261V919.6a3.14,3.14,0,0,1,3.14-3.14h80.306a3.14,3.14,0,0,1,3.14,3.14v7.745A4.262,4.262,0,0,1,513.211,931.607Z" transform="translate(-430.447 -848.437)" fill="#707070" opacity="0.37"/>
      <path id="Trazado_96203" data-name="Trazado 96203" d="M513.211,1094.925H435.149a4.262,4.262,0,0,1-4.262-4.262v-42.142a3.14,3.14,0,0,1,3.14-3.14h80.306a3.14,3.14,0,0,1,3.14,3.14v42.142A4.262,4.262,0,0,1,513.211,1094.925Z" transform="translate(-430.447 -955.354)" fill="#707070" opacity="0.37"/>
      <path id="Trazado_96204" data-name="Trazado 96204" d="M1075.959,931.607H997.9a4.262,4.262,0,0,1-4.262-4.261V919.6a3.14,3.14,0,0,1,3.14-3.14h80.306a3.14,3.14,0,0,1,3.14,3.14v7.745A4.261,4.261,0,0,1,1075.959,931.607Z" transform="translate(-897.148 -848.437)" fill="#707070" opacity="0.37"/>
      <path id="Trazado_96205" data-name="Trazado 96205" d="M1075.959,1094.925H997.9a4.262,4.262,0,0,1-4.262-4.262v-42.142a3.14,3.14,0,0,1,3.14-3.14h80.306a3.14,3.14,0,0,1,3.14,3.14v42.142A4.262,4.262,0,0,1,1075.959,1094.925Z" transform="translate(-897.148 -955.354)" fill="#707070" opacity="0.37"/>
      <path id="Trazado_96206" data-name="Trazado 96206" d="M1638.706,931.607h-78.063a4.261,4.261,0,0,1-4.262-4.261V919.6a3.14,3.14,0,0,1,3.14-3.14h80.306a3.14,3.14,0,0,1,3.14,3.14v7.745A4.262,4.262,0,0,1,1638.706,931.607Z" transform="translate(-1363.848 -848.437)" fill="#707070" opacity="0.37"/>
      <path id="Trazado_96207" data-name="Trazado 96207" d="M1638.706,1094.925h-78.063a4.262,4.262,0,0,1-4.262-4.262v-42.142a3.14,3.14,0,0,1,3.14-3.14h80.306a3.14,3.14,0,0,1,3.14,3.14v42.142A4.262,4.262,0,0,1,1638.706,1094.925Z" transform="translate(-1363.848 -955.354)" fill="#707070" opacity="0.37"/>
      <g id="Grupo_46162" data-name="Grupo 46162" transform="translate(0)">
        <path id="Trazado_96208" data-name="Trazado 96208" d="M428.848,527.945c-.225,9.629-2.06,40.471,2.629,47.069,6.636,9.34,62.431,4.916,76.073,1.229s7.005-38.344,5.53-48.3-29.05-10.323-49.366-9.955S429.046,519.465,428.848,527.945Z" transform="translate(-428.308 -517.903)" fill="#f6c343"/>
        <path id="Trazado_96209" data-name="Trazado 96209" d="M902.682,607.7a.572.572,0,0,1-.568-.508c-.47-4.162-1.072-7.98-1.512-10.767l-.179-1.136a.572.572,0,0,1,1.13-.177l.179,1.135c.441,2.8,1.046,6.629,1.519,10.817a.573.573,0,0,1-.569.636Z" transform="translate(-819.84 -581.53)" fill="#fff"/>
        <path id="Trazado_96210" data-name="Trazado 96210" d="M811.578,735.068a.572.572,0,0,1-.075-1.139,85.217,85.217,0,0,0,9.976-1.8c5.395-1.458,7.791-8.986,7.121-22.375a.572.572,0,0,1,.543-.6.585.585,0,0,1,.6.543c.7,14-1.979,21.919-7.965,23.536a86.294,86.294,0,0,1-10.122,1.827A.592.592,0,0,1,811.578,735.068Z" transform="translate(-745.69 -676.514)" fill="#fff"/>
        <path id="Trazado_96211" data-name="Trazado 96211" d="M450.028,730.333a.572.572,0,0,1-.569-.521c-.256-2.828-.408-6.249-.451-10.168a.572.572,0,1,1,1.144-.012c.043,3.889.193,7.28.447,10.077a.572.572,0,0,1-.518.621Z" transform="translate(-445.475 -684.733)" opacity="0.56" fill="url(#linear-gradient)"/>
        <path id="Trazado_96212" data-name="Trazado 96212" d="M450.551,555.191h-.017a.572.572,0,0,1-.555-.589c.056-1.858.117-3.592.171-5.135.061-1.73.113-3.219.14-4.371.16-6.854,9.313-8.68,23.007-9.314a.572.572,0,1,1,.053,1.143c-15.448.714-21.8,3.09-21.917,8.2-.027,1.156-.079,2.65-.141,4.385-.054,1.541-.115,3.273-.171,5.129A.572.572,0,0,1,450.551,555.191Z" transform="translate(-446.28 -532.729)" fill="#fff"/>
        <path id="Trazado_96213" data-name="Trazado 96213" d="M599.056,624.06a1.223,1.223,0,0,1-1.04-1.864l21.3-34.577A1.222,1.222,0,0,1,621.4,588.9l-21.3,34.577A1.222,1.222,0,0,1,599.056,624.06Z" transform="translate(-568.901 -575.239)" fill="#fff"/>
        <path id="Trazado_96214" data-name="Trazado 96214" d="M536.823,646.975a1.219,1.219,0,0,1-.907-.4l-8.31-9.185a5.588,5.588,0,0,1-1.379-4.123,5.431,5.431,0,0,1,1.86-3.79l8.756-7.36a1.222,1.222,0,0,1,1.573,1.871l-8.756,7.36a2.978,2.978,0,0,0-.994,2.085,3.134,3.134,0,0,0,.753,2.316l8.31,9.185a1.222,1.222,0,0,1-.906,2.043Z" transform="translate(-509.504 -604.091)" fill="#fff"/>
        <path id="Trazado_96215" data-name="Trazado 96215" d="M743.749,646.975a1.222,1.222,0,0,1-.906-2.042l8.31-9.185a3.135,3.135,0,0,0,.753-2.316,2.978,2.978,0,0,0-.994-2.085l-8.756-7.36a1.222,1.222,0,1,1,1.573-1.871l8.756,7.36a5.43,5.43,0,0,1,1.86,3.79,5.589,5.589,0,0,1-1.379,4.122l-8.31,9.185A1.219,1.219,0,0,1,743.749,646.975Z" transform="translate(-688.227 -604.091)" fill="#fff"/>
      </g>
      <g id="Grupo_46164" data-name="Grupo 46164" transform="translate(96.621 0.349)">
        <path id="Trazado_96216" data-name="Trazado 96216" d="M994.96,529.991c-.225,9.629-2.059,40.471,2.629,47.069,6.636,9.34,62.432,4.916,76.073,1.229s7-38.344,5.53-48.3-29.05-10.323-49.366-9.954S995.158,521.512,994.96,529.991Z" transform="translate(-994.42 -519.95)" fill="#00223d"/>
        <path id="Trazado_96217" data-name="Trazado 96217" d="M1468.8,607.7a.572.572,0,0,1-.568-.508c-.47-4.162-1.072-7.98-1.512-10.767l-.178-1.136a.572.572,0,1,1,1.13-.177l.179,1.135c.441,2.8,1.046,6.629,1.519,10.817a.573.573,0,0,1-.569.636Z" transform="translate(-1385.953 -581.879)" fill="#fff"/>
        <path id="Trazado_96218" data-name="Trazado 96218" d="M1377.691,735.068a.572.572,0,0,1-.075-1.139,85.223,85.223,0,0,0,9.976-1.8c5.395-1.458,7.791-8.986,7.121-22.375a.572.572,0,0,1,.543-.6.585.585,0,0,1,.6.543c.7,14-1.979,21.919-7.965,23.536a86.293,86.293,0,0,1-10.122,1.827A.589.589,0,0,1,1377.691,735.068Z" transform="translate(-1311.802 -676.864)" fill="#fff"/>
        <path id="Trazado_96219" data-name="Trazado 96219" d="M1016.14,730.333a.572.572,0,0,1-.569-.521c-.256-2.828-.408-6.249-.451-10.168a.572.572,0,0,1,1.144-.012c.042,3.889.193,7.28.446,10.077a.572.572,0,0,1-.518.621Z" transform="translate(-1011.587 -685.082)" fill="#fff"/>
        <path id="Trazado_96220" data-name="Trazado 96220" d="M1016.663,555.191h-.017a.572.572,0,0,1-.555-.589c.056-1.858.117-3.592.171-5.135.061-1.73.113-3.219.14-4.371.16-6.854,9.313-8.68,23.007-9.314a.572.572,0,1,1,.053,1.143c-15.448.714-21.8,3.09-21.917,8.2-.027,1.156-.079,2.65-.141,4.385-.054,1.541-.115,3.273-.171,5.129A.572.572,0,0,1,1016.663,555.191Z" transform="translate(-1012.392 -533.079)" fill="#fff"/>
        <g id="Grupo_46163" data-name="Grupo 46163" transform="translate(21.549 7.027)">
          <path id="Trazado_96221" data-name="Trazado 96221" d="M1252.868,584a1.222,1.222,0,0,1-1.2-1.44l3.689-20.432a1.223,1.223,0,0,1,1.429-.984,22.232,22.232,0,0,1,17.852,18.469,1.223,1.223,0,0,1-1.033,1.394l-20.558,2.979A1.2,1.2,0,0,1,1252.868,584Zm4.667-20.188-3.162,17.512,17.621-2.554A19.792,19.792,0,0,0,1257.535,563.81Z" transform="translate(-1229.293 -561.121)" fill="#fff"/>
          <path id="Trazado_96222" data-name="Trazado 96222" d="M1138.841,651.671a18.162,18.162,0,1,1,3.374-36.005,1.222,1.222,0,0,1,.977,1.419l-2.672,14.8,14.89-2.158a1.224,1.224,0,0,1,1.384,1.025,18.176,18.176,0,0,1-17.953,20.922Zm0-33.878a15.717,15.717,0,1,0,15.717,15.717c0-.4-.015-.791-.044-1.185l-15.323,2.221a1.223,1.223,0,0,1-1.378-1.427l2.75-15.229A15.586,15.586,0,0,0,1138.841,617.793Z" transform="translate(-1120.68 -606.093)" fill="#fff"/>
        </g>
      </g>
      <g id="Grupo_46165" data-name="Grupo 46165" transform="translate(193.242 0.349)">
        <path id="Trazado_96223" data-name="Trazado 96223" d="M1561.073,529.991c-.225,9.629-2.059,40.471,2.629,47.069,6.636,9.34,62.432,4.916,76.073,1.229s7-38.344,5.53-48.3-29.051-10.323-49.366-9.954S1561.271,521.512,1561.073,529.991Z" transform="translate(-1560.533 -519.95)" fill="#8ec8c8"/>
        <path id="Trazado_96224" data-name="Trazado 96224" d="M2034.907,607.7a.572.572,0,0,1-.568-.508c-.469-4.162-1.072-7.98-1.511-10.767l-.179-1.136a.572.572,0,0,1,1.131-.177l.178,1.135c.441,2.8,1.046,6.629,1.519,10.817a.572.572,0,0,1-.5.633A.565.565,0,0,1,2034.907,607.7Z" transform="translate(-1952.065 -581.879)" fill="#fff"/>
        <path id="Trazado_96225" data-name="Trazado 96225" d="M1943.8,735.068a.572.572,0,0,1-.075-1.139,85.217,85.217,0,0,0,9.976-1.8c5.395-1.458,7.791-8.986,7.121-22.375a.572.572,0,0,1,.543-.6.585.585,0,0,1,.6.543c.7,14-1.979,21.919-7.965,23.536a86.3,86.3,0,0,1-10.122,1.827A.6.6,0,0,1,1943.8,735.068Z" transform="translate(-1877.915 -676.864)" fill="#fff"/>
        <path id="Trazado_96226" data-name="Trazado 96226" d="M1582.253,730.333a.572.572,0,0,1-.569-.521c-.256-2.828-.408-6.249-.451-10.168a.572.572,0,0,1,1.145-.012c.042,3.889.193,7.28.446,10.077a.572.572,0,0,1-.518.621Z" transform="translate(-1577.7 -685.082)" fill="#fff"/>
        <path id="Trazado_96227" data-name="Trazado 96227" d="M1582.776,555.191h-.017a.572.572,0,0,1-.555-.589c.056-1.858.117-3.592.171-5.135.061-1.73.113-3.219.14-4.371.16-6.854,9.313-8.68,23.007-9.314a.572.572,0,1,1,.053,1.143c-15.448.714-21.8,3.09-21.917,8.2-.027,1.156-.079,2.65-.141,4.385-.054,1.541-.115,3.273-.171,5.129A.572.572,0,0,1,1582.776,555.191Z" transform="translate(-1578.505 -533.079)" fill="#fff"/>
        <path id="Trazado_96228" data-name="Trazado 96228" d="M1754.053,638.347a1.471,1.471,0,0,1-1.47-1.432l-.672-25.091a2.37,2.37,0,0,1,3.372-2.21l24.786,11.593a2.369,2.369,0,0,1,.111,4.236L1758.3,637.108a1.471,1.471,0,1,1-1.384-2.6l20.867-11.125-22.906-10.714.647,24.163a1.472,1.472,0,0,1-1.431,1.51Z" transform="translate(-1719.247 -594.124)" fill="#fff"/>
      </g>
    </g>
    <g id="Grupo_46186" data-name="Grupo 46186" transform="translate(371.361 348.447)">
      <path id="Trazado_96247" data-name="Trazado 96247" d="M945.187,1485.612s-.569,3.22-.848,6.408a2.2,2.2,0,0,0,2.1,2.379c4.245.177,13.325.521,16.583.375a.714.714,0,0,0,.629-.979h0a1.6,1.6,0,0,0-.818-.862l-15-6.893Z" transform="translate(-908.95 -1331.285)" fill="#00223d"/>
      <path id="Trazado_96248" data-name="Trazado 96248" d="M946.042,1475.3l.457,3.852s2.628,1.223,4.422-.154l-1.088-4.292Z" transform="translate(-910.27 -1322.863)" fill="url(#linear-gradient-2)"/>
      <path id="Trazado_96249" data-name="Trazado 96249" d="M907.206,1159.646c-.2,1.006-1.06,50.193,4.2,72.236a.748.748,0,0,1-.439.87,13.037,13.037,0,0,1-4.282.87,1.289,1.289,0,0,1-1.278-.925c-1.5-5.115-8.7-30.738-9.644-55.216-1.05-27.351,0-.931,0-.931l.616-16.907Z" transform="translate(-871.091 -1079.624)" fill="#8ec8c8"/>
      <path id="Trazado_96250" data-name="Trazado 96250" d="M866.272,1492.981a23.175,23.175,0,0,0-1.782,5.945,1.34,1.34,0,0,0,1.179,1.6c1.4.138,3.559.315,5.288.3a1.336,1.336,0,0,0,1.323-1.49,11.269,11.269,0,0,0-2.63-6.18Z" transform="translate(-847.288 -1336.974)" fill="#00223d"/>
      <path id="Trazado_96251" data-name="Trazado 96251" d="M868.912,1470.482l1.068,5.825a3.765,3.765,0,0,0,3.144.216l-.51-6.267Z" transform="translate(-850.723 -1319.43)" fill="url(#linear-gradient-2)"/>
      <path id="Trazado_96252" data-name="Trazado 96252" d="M850.651,1157.054c-4.3,25.952.933,64.142,2.7,71.617a1.165,1.165,0,0,0,.941.885,7.826,7.826,0,0,0,3.364-.134,1.068,1.068,0,0,0,.768-.984c.237-6.043-.189-43.142,3.817-57.8a3.33,3.33,0,0,1,1.285-1.837l7.777-5.529.6-8.937Z" transform="translate(-835.346 -1075.523)" fill="#8ec8c8"/>
      <g id="Grupo_46179" data-name="Grupo 46179" transform="translate(13.699 12.399)">
        <path id="Trazado_96253" data-name="Trazado 96253" d="M878.22,943.424c-12.887-.213-27.106,3.383-27.106,3.383-3.841,22.414-.672,48.267-.672,48.267,9.977,2.616,21.231-1.6,21.231-1.6,1.658-9.369,9.4-35.734,9.4-35.734a42.449,42.449,0,0,0,15.755-5,27.634,27.634,0,0,1-5.461-11.423A43.241,43.241,0,0,1,878.22,943.424Z" transform="translate(-849.213 -923.465)" fill="#00223d"/>
        <path id="Trazado_96254" data-name="Trazado 96254" d="M1059.033,863.982a2.466,2.466,0,0,0-2.868-.806c-1.9,8.011-11.84,14.506-22.056,17.681a27.638,27.638,0,0,0,5.462,11.423C1056.524,882.747,1059.033,863.982,1059.033,863.982Z" transform="translate(-991.961 -863.005)" fill="url(#linear-gradient-2)"/>
      </g>
      <g id="Grupo_46180" data-name="Grupo 46180" transform="translate(77.903)">
        <path id="Trazado_96255" data-name="Trazado 96255" d="M1133.424,822.376c.133.421-1.4,1.062-2.3-.66-.031-.826-.533-4.362-.04-5.034a65.869,65.869,0,0,1,7.72-8.071,1.212,1.212,0,0,1,.151,1.684l-2.471,2.574a11.959,11.959,0,0,1,1.443,2.852,3.461,3.461,0,0,1-.345,2.548c-.434.781-1.025,1.8-1.585,2.592A3.418,3.418,0,0,1,1133.424,822.376Z" transform="translate(-1130.864 -808.611)" fill="url(#linear-gradient-5)"/>
        <path id="Trazado_96256" data-name="Trazado 96256" d="M1140.743,834.614l-2.251,1.909-.706,1.9,2.007,2.227a25.924,25.924,0,0,1,1.176-4.587C1141.471,835.247,1141.21,834.853,1140.743,834.614Z" transform="translate(-1136.207 -828.686)" fill="url(#linear-gradient-6)"/>
      </g>
      <path id="Trazado_96257" data-name="Trazado 96257" d="M815.022,977.879,810.079,965.4s-12.037,8.179-14.016,18.548a27.381,27.381,0,0,1,10.138,2.842C808.03,982.678,815.022,977.879,815.022,977.879Z" transform="translate(-794.48 -929.66)" fill="#00223d"/>
      <path id="Trazado_96258" data-name="Trazado 96258" d="M905.229,904.663l-4.1,11.858a.427.427,0,0,0,.2.514,9.638,9.638,0,0,0,10-.672,2.011,2.011,0,0,0,.926-1.437l1.328-10.263Z" transform="translate(-875.577 -882.767)" fill="url(#linear-gradient-7)"/>
      <g id="Grupo_46181" data-name="Grupo 46181" transform="translate(21.87 4.752)">
        <path id="Trazado_96259" data-name="Trazado 96259" d="M922.74,856.492s4.5,8.475,3.925,11.9-6.157,3.178-11.031.4l-3.4-9.152Z" transform="translate(-906.036 -850.329)" fill="url(#linear-gradient-8)"/>
        <path id="Trazado_96260" data-name="Trazado 96260" d="M894.873,843.422a.349.349,0,0,0,.152-.511,9.116,9.116,0,0,1-1.253-2.66s-.81-.518,2.06-1.205,7.149-1.753,8.049-4.2c.877-2.382-1.427-8.37-5.1-3.6a.349.349,0,0,1-.553,0,3.6,3.6,0,0,0-4.387-1.425,3.3,3.3,0,0,0-2.262,3.192.347.347,0,0,1-.411.356,4.028,4.028,0,0,0-4.7,2.193c-.96,2.11-.336,3.3.232,3.889a.348.348,0,0,1-.149.578,2.1,2.1,0,0,0-1.479,2.392c.122,2.215,2.6,2.02,3.3,1.919a.35.35,0,0,1,.31.11c.6.669,3.329,3.51,6.278,3.853a.352.352,0,0,0,.37-.465l-1.276-3.709a.351.351,0,0,1,.19-.435Z" transform="translate(-885.058 -829.457)" fill="#00223d"/>
        <path id="Trazado_96261" data-name="Trazado 96261" d="M918.669,889.34s-3.206-2.2-3.44-.348,2.887,2.683,4.433,1.993Z" transform="translate(-908.342 -874.848)" fill="url(#linear-gradient-9)"/>
      </g>
      <path id="Trazado_96272" data-name="Trazado 96272" d="M790.785,1045.192s-8.227,18.739,11.883,21.482l2.742-2.285s-10.055-5.485-4.571-16.454C800.841,1047.934,794.9,1042.906,790.785,1045.192Z" transform="translate(-789.119 -990.802)" fill="url(#linear-gradient-10)"/>
      <path id="Trazado_96273" data-name="Trazado 96273" d="M851.3,1131.42h7.313s4.571,5.942,4.114,7.313-4.974.281-4.974.281l-2.339-3.938s-6.856.457-6.856-1.371S851.3,1131.42,851.3,1131.42Z" transform="translate(-835.009 -1057.834)" fill="url(#linear-gradient-11)"/>
    </g>
    <g id="Grupo_46189" data-name="Grupo 46189" transform="translate(472.239 253.746)">
      <path id="Trazado_96282" data-name="Trazado 96282" d="M1372.358,1292.9l-.967-.173a.167.167,0,1,1,.059-.329h.006l.955.179h.005a.163.163,0,0,1-.059.32Z" transform="translate(-1341.099 -1115.126)" fill="url(#linear-gradient-12)"/>
      <path id="Trazado_96283" data-name="Trazado 96283" d="M1353.773,1288.255l-.943-.271a.181.181,0,1,1,.1-.348h0l.005,0,.93.276.005,0a.177.177,0,0,1-.1.339Z" transform="translate(-1325.711 -1111.171)" fill="url(#linear-gradient-13)"/>
      <path id="Trazado_96284" data-name="Trazado 96284" d="M1335.743,1281.767l-.912-.363a.2.2,0,0,1,.145-.363h0l.005,0,.9.367.005,0a.191.191,0,0,1-.143.354Z" transform="translate(-1310.792 -1105.696)" fill="url(#linear-gradient-13)"/>
      <path id="Trazado_96285" data-name="Trazado 96285" d="M1318.42,1273.568l-.873-.449a.209.209,0,0,1,.191-.373h0l.005,0,.859.451.005,0a.205.205,0,0,1-.189.364Z" transform="translate(-1296.465 -1098.81)" fill="url(#linear-gradient-13)"/>
      <path id="Trazado_96286" data-name="Trazado 96286" d="M1301.927,1263.8l-.829-.527a.223.223,0,0,1,.24-.377h0l0,0,.814.528.005,0a.219.219,0,0,1-.236.369Z" transform="translate(-1282.832 -1090.631)" fill="url(#linear-gradient-13)"/>
      <path id="Trazado_96287" data-name="Trazado 96287" d="M1286.361,1252.607l-.779-.6a.238.238,0,0,1,.289-.377h0l0,0,.765.6,0,0a.233.233,0,0,1-.285.369Z" transform="translate(-1269.972 -1081.278)" fill="url(#linear-gradient-13)"/>
      <path id="Trazado_96288" data-name="Trazado 96288" d="M1271.8,1240.13l-.726-.661a.252.252,0,1,1,.338-.372h0l0,0,.712.659,0,0a.247.247,0,0,1-.334.364Z" transform="translate(-1257.949 -1070.868)" fill="url(#linear-gradient-13)"/>
      <path id="Trazado_96289" data-name="Trazado 96289" d="M1258.312,1226.5l-.671-.718a.266.266,0,1,1,.388-.363l0,0,0,0,.655.714,0,0a.261.261,0,0,1-.384.355Z" transform="translate(-1246.819 -1059.509)" fill="url(#linear-gradient-13)"/>
      <path id="Trazado_96290" data-name="Trazado 96290" d="M1245.956,1211.835l-.611-.769a.28.28,0,1,1,.438-.348v0l0,.005.6.764,0,.005a.276.276,0,0,1-.433.341Z" transform="translate(-1236.63 -1047.299)" fill="url(#linear-gradient-13)"/>
      <path id="Trazado_96291" data-name="Trazado 96291" d="M1234.782,1196.238l-.55-.816a.294.294,0,1,1,.488-.328v0l0,.006.535.809,0,.006a.29.29,0,0,1-.482.322Z" transform="translate(-1227.423 -1034.322)" fill="url(#linear-gradient-13)"/>
      <path id="Trazado_96292" data-name="Trazado 96292" d="M1224.861,1179.825l-.484-.856a.308.308,0,0,1,.536-.3v0l0,.007.47.847,0,.006a.3.3,0,0,1-.53.3Z" transform="translate(-1219.258 -1020.676)" fill="url(#linear-gradient-13)"/>
      <path id="Trazado_96293" data-name="Trazado 96293" d="M1216.252,1162.69l-.415-.891a.322.322,0,0,1,.584-.272v0l0,.007.4.881,0,.007a.318.318,0,0,1-.577.266Z" transform="translate(-1212.183 -1006.437)" fill="url(#linear-gradient-13)"/>
      <path id="Trazado_96294" data-name="Trazado 96294" d="M1209.033,1144.935l-.342-.925a.334.334,0,1,1,.627-.232v0l0,.007.331.911,0,.008a.332.332,0,0,1-.623.228Z" transform="translate(-1206.266 -991.691)" fill="url(#linear-gradient-13)"/>
      <path id="Trazado_96295" data-name="Trazado 96295" d="M1203.3,1126.668l-.265-.949a.342.342,0,0,1,.66-.184v0l0,.008.255.934,0,.008a.34.34,0,0,1-.655.181Z" transform="translate(-1201.582 -976.535)" fill="url(#linear-gradient-25)"/>
      <path id="Trazado_96296" data-name="Trazado 96296" d="M1199.072,1108.016l-.188-.966a.35.35,0,1,1,.687-.134v.009l.181.951v.008a.348.348,0,0,1-.683.131Z" transform="translate(-1198.144 -961.066)" fill="url(#linear-gradient-26)"/>
      <path id="Trazado_96297" data-name="Trazado 96297" d="M1196.25,1089.1l-.117-.977a.358.358,0,0,1,.711-.085v.01l.11.962v.008a.356.356,0,0,1-.707.083Z" transform="translate(-1195.865 -945.381)" fill="url(#linear-gradient-13)"/>
      <path id="Trazado_96298" data-name="Trazado 96298" d="M1194.8,1070.026l-.047-.983a.366.366,0,0,1,.731-.035v.009l.041.968v.007a.364.364,0,0,1-.726.033Z" transform="translate(-1194.722 -929.575)" fill="url(#linear-gradient-13)"/>
      <path id="Trazado_96299" data-name="Trazado 96299" d="M1194.578,1050.9l.021-.983a.374.374,0,0,1,.748.016v.009l-.025.968v.008a.372.372,0,0,1-.743-.017Z" transform="translate(-1194.578 -913.731)" fill="url(#linear-gradient-26)"/>
      <path id="Trazado_96300" data-name="Trazado 96300" d="M1195.424,1031.82l.086-.98a.382.382,0,1,1,.761.067v.009l-.089.965v.007a.38.38,0,0,1-.756-.068Z" transform="translate(-1195.278 -897.921)" fill="url(#linear-gradient-30)"/>
      <path id="Trazado_96301" data-name="Trazado 96301" d="M1197.511,1012.853l.148-.972a.39.39,0,0,1,.771.117v.009l-.15.957v.007a.387.387,0,0,1-.766-.119Z" transform="translate(-1197.007 -882.212)" fill="url(#linear-gradient-13)"/>
      <path id="Trazado_96302" data-name="Trazado 96302" d="M1200.785,994.073l.207-.961a.4.4,0,1,1,.778.167v0l0,.007-.209.946,0,.007a.4.4,0,0,1-.772-.168Z" transform="translate(-1199.718 -866.66)" fill="url(#linear-gradient-13)"/>
      <path id="Trazado_96303" data-name="Trazado 96303" d="M1205.19,975.543l.263-.947a.406.406,0,1,1,.782.218v0l0,.007-.264.932,0,.007a.4.4,0,0,1-.776-.218Z" transform="translate(-1203.366 -851.318)" fill="url(#linear-gradient-13)"/>
      <path id="Trazado_96304" data-name="Trazado 96304" d="M1210.672,957.319l.317-.93a.414.414,0,0,1,.783.267v0l0,.007-.317.915,0,.007a.411.411,0,0,1-.778-.267Z" transform="translate(-1207.906 -836.233)" fill="url(#linear-gradient-34)"/>
      <path id="Trazado_96305" data-name="Trazado 96305" d="M1217.186,939.439l.369-.912a.422.422,0,0,1,.781.316v0l0,.006-.369.9,0,.006a.419.419,0,0,1-.776-.317Z" transform="translate(-1213.302 -821.433)" fill="url(#linear-gradient-13)"/>
      <path id="Trazado_96306" data-name="Trazado 96306" d="M1224.686,921.971l.418-.89a.43.43,0,0,1,.778.366v0l0,.006-.417.875,0,.006a.427.427,0,0,1-.772-.365Z" transform="translate(-1219.513 -806.979)" fill="url(#linear-gradient-13)"/>
      <path id="Trazado_96307" data-name="Trazado 96307" d="M1233.128,904.952l.466-.866a.438.438,0,0,1,.771.415v0l0,.006-.464.851,0,.006a.435.435,0,0,1-.765-.414Z" transform="translate(-1226.505 -792.899)" fill="url(#linear-gradient-13)"/>
      <path id="Trazado_96308" data-name="Trazado 96308" d="M1242.48,888.423l.512-.841a.445.445,0,0,1,.761.464v0l0,.006-.509.826,0,.006a.443.443,0,0,1-.755-.463Z" transform="translate(-1234.25 -779.225)" fill="url(#linear-gradient-13)"/>
      <path id="Trazado_96309" data-name="Trazado 96309" d="M1252.729,872.455l.557-.81a.45.45,0,1,1,.741.51h0l0,.006-.551.8,0,.006a.449.449,0,0,1-.74-.51Z" transform="translate(-1242.739 -766.024)" fill="url(#linear-gradient-13)"/>
      <path id="Trazado_96310" data-name="Trazado 96310" d="M1263.816,857.056l.6-.781a.453.453,0,0,1,.719.549h0l0,.005-.589.77,0,.005a.452.452,0,0,1-.718-.549Z" transform="translate(-1251.922 -753.291)" fill="url(#linear-gradient-13)"/>
      <path id="Trazado_96311" data-name="Trazado 96311" d="M1275.639,842.215l.632-.752a.455.455,0,1,1,.7.586h0l0,0-.625.741,0,.005a.454.454,0,0,1-.7-.585Z" transform="translate(-1261.715 -741.02)" fill="url(#linear-gradient-13)"/>
      <path id="Trazado_96312" data-name="Trazado 96312" d="M1288.144,827.943l.665-.723a.458.458,0,1,1,.673.62h0l0,0-.658.713,0,0a.457.457,0,0,1-.672-.619Z" transform="translate(-1272.074 -729.22)" fill="url(#linear-gradient-13)"/>
      <path id="Trazado_96313" data-name="Trazado 96313" d="M1301.277,814.243l.7-.693a.46.46,0,1,1,.65.652h0l0,0-.688.683,0,0a.459.459,0,0,1-.648-.652Z" transform="translate(-1282.954 -717.894)" fill="url(#linear-gradient-13)"/>
      <path id="Trazado_96314" data-name="Trazado 96314" d="M1314.987,801.115l.723-.663a.463.463,0,1,1,.626.682h0l0,0-.716.655,0,0a.462.462,0,0,1-.624-.682Z" transform="translate(-1294.312 -707.041)" fill="url(#linear-gradient-13)"/>
      <path id="Trazado_96315" data-name="Trazado 96315" d="M1329.222,788.552l.749-.634a.466.466,0,1,1,.6.711h0l0,0-.742.626,0,0a.465.465,0,0,1-.6-.71Z" transform="translate(-1306.105 -696.657)" fill="url(#linear-gradient-13)"/>
      <path id="Trazado_96316" data-name="Trazado 96316" d="M1343.936,776.546l.772-.606a.468.468,0,0,1,.578.737h0l0,0-.765.6,0,0a.467.467,0,0,1-.577-.736Z" transform="translate(-1318.296 -686.732)" fill="url(#linear-gradient-13)"/>
      <path id="Trazado_96317" data-name="Trazado 96317" d="M1359.084,765.088l.792-.578a.471.471,0,1,1,.555.761h0l0,0-.785.571,0,0a.47.47,0,0,1-.553-.76Z" transform="translate(-1330.847 -677.261)" fill="url(#linear-gradient-13)"/>
      <path id="Trazado_96318" data-name="Trazado 96318" d="M1374.618,754.161l.812-.551a.473.473,0,1,1,.532.783h0l0,0-.8.544,0,0a.473.473,0,0,1-.531-.783Z" transform="translate(-1343.718 -668.228)" fill="url(#linear-gradient-13)"/>
      <path id="Trazado_96319" data-name="Trazado 96319" d="M1390.522,743.742l.829-.525a.476.476,0,0,1,.51.8h0l0,0-.823.519,0,0a.475.475,0,0,1-.508-.8Z" transform="translate(-1356.896 -659.616)" fill="url(#linear-gradient-13)"/>
      <path id="Trazado_96320" data-name="Trazado 96320" d="M1406.747,733.828l.845-.5a.479.479,0,1,1,.487.824h0l0,0-.838.494,0,0a.478.478,0,0,1-.486-.823Z" transform="translate(-1370.34 -651.42)" fill="url(#linear-gradient-13)"/>
      <path id="Trazado_96321" data-name="Trazado 96321" d="M1423.265,724.4l.859-.475a.481.481,0,0,1,.466.843h0l0,0-.852.469,0,0a.481.481,0,0,1-.465-.841Z" transform="translate(-1384.028 -643.627)" fill="url(#linear-gradient-13)"/>
      <path id="Trazado_96322" data-name="Trazado 96322" d="M1440.047,715.443l.871-.451a.484.484,0,0,1,.445.86h0l0,0-.864.446,0,0a.483.483,0,0,1-.443-.859Z" transform="translate(-1397.935 -636.224)" fill="url(#linear-gradient-13)"/>
      <path id="Trazado_96323" data-name="Trazado 96323" d="M1457.064,706.942l.881-.428a.487.487,0,0,1,.425.876h0l0,0-.875.423h0a.486.486,0,0,1-.423-.874Z" transform="translate(-1412.037 -629.197)" fill="url(#linear-gradient-13)"/>
      <path id="Trazado_96324" data-name="Trazado 96324" d="M1474.283,698.859l.89-.406a.489.489,0,1,1,.406.89h0l-.885.4h0a.488.488,0,0,1-.405-.889Z" transform="translate(-1426.307 -622.515)" fill="url(#linear-gradient-13)"/>
      <path id="Trazado_96325" data-name="Trazado 96325" d="M1491.679,691.165l.9-.387a.492.492,0,0,1,.389.9h0l-.893.383h0a.491.491,0,0,1-.388-.9Z" transform="translate(-1440.725 -616.154)" fill="url(#linear-gradient-13)"/>
      <path id="Trazado_96326" data-name="Trazado 96326" d="M1509.232,683.829l.906-.369a.495.495,0,0,1,.374.916h0l-.9.366h0a.494.494,0,0,1-.372-.915Z" transform="translate(-1455.273 -610.088)" fill="url(#linear-gradient-13)"/>
      <path id="Trazado_96327" data-name="Trazado 96327" d="M1526.931,676.826l.911-.352a.5.5,0,0,1,.359.927h0l-.907.349h0a.5.5,0,0,1-.357-.926Z" transform="translate(-1469.944 -604.297)" fill="url(#linear-gradient-13)"/>
      <path id="Trazado_96328" data-name="Trazado 96328" d="M1544.742,670.125l.917-.338a.5.5,0,1,1,.345.938h0l-.913.334h0a.5.5,0,0,1-.344-.937Z" transform="translate(-1484.707 -598.754)" fill="url(#linear-gradient-13)"/>
      <path id="Trazado_96329" data-name="Trazado 96329" d="M1562.659,663.709l.922-.323a.5.5,0,1,1,.331.943h0l-.918.323h0a.5.5,0,1,1-.332-.944Z" transform="translate(-1499.559 -593.447)" fill="url(#linear-gradient-13)"/>
      <path id="Trazado_96330" data-name="Trazado 96330" d="M1580.68,657.547l.926-.311a.5.5,0,1,1,.317.943h0l-.923.312h0a.5.5,0,0,1-.319-.944Z" transform="translate(-1514.501 -588.348)" fill="url(#linear-gradient-13)"/>
      <path id="Trazado_96331" data-name="Trazado 96331" d="M1598.781,651.59l.93-.3a.5.5,0,1,1,.305.942l-.927.3a.5.5,0,1,1-.31-.942Z" transform="translate(-1529.509 -583.418)" fill="url(#linear-gradient-13)"/>
      <path id="Trazado_96332" data-name="Trazado 96332" d="M1616.946,645.808l.932-.293a.493.493,0,1,1,.3.941l-.93.294a.494.494,0,1,1-.3-.941Z" transform="translate(-1544.572 -578.631)" fill="url(#linear-gradient-13)"/>
      <path id="Trazado_96333" data-name="Trazado 96333" d="M1635.164,640.169l.935-.286a.491.491,0,1,1,.287.939l-.932.287a.492.492,0,1,1-.291-.939Z" transform="translate(-1559.679 -573.961)" fill="url(#linear-gradient-13)"/>
      <path id="Trazado_96334" data-name="Trazado 96334" d="M1653.42,634.642l.936-.281a.488.488,0,0,1,.281.936l-.934.282a.489.489,0,0,1-.284-.936Z" transform="translate(-1574.818 -569.382)" fill="url(#linear-gradient-13)"/>
      <path id="Trazado_96335" data-name="Trazado 96335" d="M1671.7,629.2l.936-.278a.486.486,0,1,1,.277.932l-.935.279a.487.487,0,0,1-.279-.933Z" transform="translate(-1589.979 -564.868)" fill="url(#linear-gradient-13)"/>
      <path id="Trazado_96336" data-name="Trazado 96336" d="M1689.993,623.8l.937-.276a.484.484,0,0,1,.274.928l-.936.277a.485.485,0,1,1-.275-.929Z" transform="translate(-1605.15 -560.394)" fill="url(#linear-gradient-13)"/>
      <path id="Trazado_96337" data-name="Trazado 96337" d="M1708.292,618.413l.937-.276a.482.482,0,0,1,.273.924l-.937.277a.482.482,0,0,1-.274-.925Z" transform="translate(-1620.327 -555.928)" fill="url(#linear-gradient-13)"/>
      <path id="Trazado_96338" data-name="Trazado 96338" d="M1726.585,613.009l.936-.278a.48.48,0,0,1,.274.919l-.937.279a.48.48,0,0,1-.274-.92Z" transform="translate(-1635.5 -551.445)" fill="url(#linear-gradient-13)"/>
      <path id="Trazado_96339" data-name="Trazado 96339" d="M1744.867,607.552l.936-.281a.477.477,0,0,1,.276.914l-.936.283a.478.478,0,0,1-.276-.915Z" transform="translate(-1650.664 -546.917)" fill="url(#linear-gradient-13)"/>
      <path id="Trazado_96340" data-name="Trazado 96340" d="M1763.127,602.011l.934-.286a.475.475,0,1,1,.28.908l-.935.288a.476.476,0,0,1-.28-.909Z" transform="translate(-1665.81 -542.316)" fill="url(#linear-gradient-13)"/>
      <path id="Trazado_96341" data-name="Trazado 96341" d="M1781.354,596.354l.932-.292a.473.473,0,1,1,.285.9l-.933.294a.473.473,0,0,1-.285-.9Z" transform="translate(-1680.93 -537.618)" fill="url(#linear-gradient-13)"/>
      <path id="Trazado_96342" data-name="Trazado 96342" d="M1799.535,590.547l.928-.3a.47.47,0,1,1,.292.894l-.931.3a.471.471,0,0,1-.292-.9Z" transform="translate(-1696.012 -532.795)" fill="url(#linear-gradient-13)"/>
      <path id="Trazado_96343" data-name="Trazado 96343" d="M1817.659,584.561l.925-.31h0a.468.468,0,0,1,.3.887l-.927.313a.469.469,0,1,1-.3-.888Z" transform="translate(-1711.048 -527.821)" fill="url(#linear-gradient-13)"/>
      <path id="Trazado_96344" data-name="Trazado 96344" d="M1835.711,578.362l.92-.322h0a.466.466,0,0,1,.308.88l-.923.324a.467.467,0,1,1-.309-.881h0Z" transform="translate(-1726.025 -522.669)" fill="url(#linear-gradient-13)"/>
      <path id="Trazado_96345" data-name="Trazado 96345" d="M1853.683,571.918l.915-.335h0a.464.464,0,0,1,.319.871l-.918.337a.464.464,0,1,1-.32-.872h0Z" transform="translate(-1740.936 -517.313)" fill="url(#linear-gradient-13)"/>
      <path id="Trazado_96346" data-name="Trazado 96346" d="M1871.552,565.2l.909-.349h0a.461.461,0,0,1,.332.861l-.913.352a.462.462,0,0,1-.333-.862h0Z" transform="translate(-1755.762 -511.728)" fill="url(#linear-gradient-13)"/>
      <path id="Trazado_96347" data-name="Trazado 96347" d="M1889.3,558.18l.9-.365h0a.459.459,0,0,1,.346.851l-.906.369a.46.46,0,0,1-.346-.852h0Z" transform="translate(-1770.489 -505.889)" fill="url(#linear-gradient-13)"/>
      <path id="Trazado_96348" data-name="Trazado 96348" d="M1906.911,550.825l.894-.383h0a.457.457,0,0,1,.361.84l-.9.386a.458.458,0,0,1-.362-.841h0Z" transform="translate(-1785.102 -499.772)" fill="url(#linear-gradient-13)"/>
      <path id="Trazado_96349" data-name="Trazado 96349" d="M1924.371,543.105l.886-.4h0a.455.455,0,0,1,.377.828l-.891.406a.455.455,0,0,1-.378-.829h0Z" transform="translate(-1799.59 -493.351)" fill="url(#linear-gradient-13)"/>
      <path id="Trazado_96350" data-name="Trazado 96350" d="M1941.659,534.982l.874-.424,0,0a.452.452,0,0,1,.4.814l-.882.429a.453.453,0,0,1-.4-.815h0Z" transform="translate(-1813.936 -486.591)" fill="url(#linear-gradient-13)"/>
      <path id="Trazado_96351" data-name="Trazado 96351" d="M1958.692,526.294l.856-.456.005,0a.45.45,0,0,1,.424.794l-.866.463a.451.451,0,0,1-.425-.8h0Z" transform="translate(-1828.075 -479.352)" fill="url(#linear-gradient-13)"/>
      <path id="Trazado_96352" data-name="Trazado 96352" d="M1975.356,516.884l.833-.495.007,0a.447.447,0,0,1,.458.769l-.844.5a.448.448,0,1,1-.46-.77h0Z" transform="translate(-1841.91 -471.507)" fill="url(#linear-gradient-13)"/>
      <path id="Trazado_96353" data-name="Trazado 96353" d="M1991.549,506.637l.8-.54.007,0a.441.441,0,0,1,.493.73l-.814.553a.443.443,0,1,1-.5-.732h0Z" transform="translate(-1855.358 -462.96)" fill="url(#linear-gradient-13)"/>
      <path id="Trazado_96354" data-name="Trazado 96354" d="M2007.1,495.387l.762-.593.008-.006a.434.434,0,0,1,.534.684l-.775.609a.436.436,0,1,1-.538-.686h0Z" transform="translate(-1868.278 -453.572)" fill="url(#linear-gradient-13)"/>
      <path id="Trazado_96355" data-name="Trazado 96355" d="M2021.794,482.992l.709-.653.009-.008a.427.427,0,0,1,.58.627l-.724.672a.429.429,0,1,1-.584-.629h0Z" transform="translate(-1880.487 -443.223)" fill="url(#linear-gradient-13)"/>
      <path id="Trazado_96356" data-name="Trazado 96356" d="M2035.355,469.321l.641-.72.009-.01a.42.42,0,0,1,.628.558l-.656.743a.422.422,0,1,1-.633-.559h0Z" transform="translate(-1891.76 -431.805)" fill="url(#linear-gradient-13)"/>
      <path id="Trazado_96357" data-name="Trazado 96357" d="M2047.447,454.309l.552-.786.009-.013a.413.413,0,0,1,.678.473l-.566.814a.416.416,0,0,1-.682-.474h0Z" transform="translate(-1901.814 -419.269)" fill="url(#linear-gradient-25)"/>
      <path id="Trazado_96358" data-name="Trazado 96358" d="M2057.666,437.974l.444-.85.008-.015a.407.407,0,0,1,.722.375l-.456.882a.409.409,0,1,1-.726-.375h0Z" transform="translate(-1910.314 -405.632)" fill="url(#linear-gradient-13)"/>
      <path id="Trazado_96359" data-name="Trazado 96359" d="M2065.642,420.5c.112-.3.219-.6.319-.9v0a.4.4,0,0,1,.759.249c-.1.316-.213.629-.327.94a.4.4,0,1,1-.754-.278v0Z" transform="translate(-1916.952 -391.062)" fill="url(#linear-gradient-25)"/>
      <path id="Trazado_96360" data-name="Trazado 96360" d="M2070.952,402.071l.173-.942,0-.018a.393.393,0,0,1,.773.14l-.175.978a.395.395,0,1,1-.777-.139v0Z" transform="translate(-1921.37 -375.692)" fill="url(#linear-gradient-26)"/>
      <path id="Trazado_96361" data-name="Trazado 96361" d="M2073.382,383.2l.029-.959v-.017a.386.386,0,0,1,.772.022l-.026.993a.388.388,0,0,1-.776-.021V383.2Z" transform="translate(-1923.392 -359.989)" fill="url(#linear-gradient-13)"/>
      <path id="Trazado_96362" data-name="Trazado 96362" d="M2072.46,364.263l-.109-.955,0-.016a.379.379,0,0,1,.753-.087l.116.987a.381.381,0,1,1-.757.09h0Z" transform="translate(-1922.533 -344.245)" fill="url(#linear-gradient-13)"/>
      <path id="Trazado_96363" data-name="Trazado 96363" d="M2068.716,345.682l-.242-.929,0-.015a.372.372,0,0,1,.72-.189l.254.959a.375.375,0,0,1-.724.192v0Z" transform="translate(-1919.309 -328.82)" fill="url(#linear-gradient-26)"/>
      <path id="Trazado_96364" data-name="Trazado 96364" d="M2062.388,327.81l-.371-.887-.006-.014a.366.366,0,0,1,.674-.284l.387.915a.367.367,0,1,1-.677.287h0Z" transform="translate(-1913.939 -314.001)" fill="url(#linear-gradient-13)"/>
      <path id="Trazado_96365" data-name="Trazado 96365" d="M2053.558,311.036l-.5-.822-.008-.014a.358.358,0,0,1,.613-.371l.516.848a.361.361,0,0,1-.616.375h0Z" transform="translate(-1906.492 -300.114)" fill="url(#linear-gradient-13)"/>
      <path id="Trazado_96366" data-name="Trazado 96366" d="M2042.325,295.79l-.614-.736-.01-.013a.352.352,0,0,1,.539-.452l.639.759a.354.354,0,0,1-.542.456h0Z" transform="translate(-1897.05 -287.514)" fill="url(#linear-gradient-13)"/>
      <path id="Trazado_96367" data-name="Trazado 96367" d="M2028.851,282.539c-.239-.213-.479-.425-.725-.628a.345.345,0,0,1,.437-.534c.257.21.507.428.755.648a.347.347,0,0,1-.46.52h0Z" transform="translate(-1885.756 -276.595)" fill="url(#linear-gradient-13)"/>
      <path id="Trazado_96368" data-name="Trazado 96368" d="M2013.321,271.626l-.818-.5-.014-.008a.338.338,0,0,1,.352-.577l.848.515a.34.34,0,0,1-.353.582h0Z" transform="translate(-1872.759 -267.632)" fill="url(#linear-gradient-13)"/>
      <path id="Trazado_96369" data-name="Trazado 96369" d="M1996.3,263.334l-.887-.37-.014-.006a.331.331,0,0,1,.253-.612l.917.377a.333.333,0,1,1-.253.617h0Z" transform="translate(-1858.552 -260.858)" fill="url(#linear-gradient-13)"/>
      <path id="Trazado_96370" data-name="Trazado 96370" d="M1978.232,257.711l-.933-.236-.014,0a.319.319,0,0,1,.155-.619l.961.236a.323.323,0,0,1-.154.627h0Z" transform="translate(-1843.498 -256.314)" fill="url(#linear-gradient-13)"/>
      <path id="Trazado_96371" data-name="Trazado 96371" d="M1959.53,254.777l-.958-.1h-.013a.307.307,0,0,1,.061-.611l.985.1a.31.31,0,0,1-.06.618h-.016Z" transform="translate(-1827.939 -254.009)" fill="url(#linear-gradient-13)"/>
      <path id="Trazado_96372" data-name="Trazado 96372" d="M1940.582,254.343l-.963.04h-.013a.295.295,0,0,1-.027-.589l.99-.048a.3.3,0,1,1,.029.6h-.016Z" transform="translate(-1812.194 -253.746)" fill="url(#linear-gradient-13)"/>
      <path id="Trazado_96373" data-name="Trazado 96373" d="M1921.8,256.229l-.946.183-.013,0a.283.283,0,0,1-.109-.554l.969-.2a.286.286,0,0,1,.113.561h0Z" transform="translate(-1796.611 -255.332)" fill="url(#linear-gradient-13)"/>
      <path id="Trazado_96374" data-name="Trazado 96374" d="M1903.653,260.96l-.9.329-.012,0a.27.27,0,0,1-.187-.508l.926-.344a.274.274,0,0,1,.191.514h0Z" transform="translate(-1781.572 -259.284)" fill="url(#linear-gradient-13)"/>
      <path id="Trazado_96375" data-name="Trazado 96375" d="M1886.649,268.578c-.281.155-.563.309-.839.475a.258.258,0,0,1-.268-.442c.281-.172.57-.333.858-.495a.262.262,0,0,1,.256.457h0Z" transform="translate(-1767.51 -265.636)" fill="url(#linear-gradient-13)"/>
      <path id="Trazado_96376" data-name="Trazado 96376" d="M1871.228,279.022l-.746.609-.009.008a.246.246,0,0,1-.313-.38l.76-.63a.25.25,0,1,1,.319.385h0Z" transform="translate(-1754.781 -274.334)" fill="url(#linear-gradient-13)"/>
      <path id="Trazado_96377" data-name="Trazado 96377" d="M1857.837,291.951l-.641.721-.007.008a.234.234,0,0,1-.351-.31l.65-.742a.238.238,0,1,1,.358.313h0Z" transform="translate(-1743.759 -285.095)" fill="url(#linear-gradient-13)"/>
      <path id="Trazado_96378" data-name="Trazado 96378" d="M1846.662,306.918l-.526.812-.005.008a.222.222,0,0,1-.374-.24l.531-.833a.226.226,0,1,1,.38.242h0Z" transform="translate(-1734.589 -297.547)" fill="url(#linear-gradient-26)"/>
      <path id="Trazado_96379" data-name="Trazado 96379" d="M1837.9,323.491l-.4.88,0,.008a.21.21,0,0,1-.383-.172l.4-.9a.213.213,0,1,1,.39.174v0Z" transform="translate(-1727.435 -311.33)" fill="url(#linear-gradient-25)"/>
      <path id="Trazado_96380" data-name="Trazado 96380" d="M1831.723,341.269l-.265.93,0,.009a.2.2,0,0,1-.381-.107l.263-.949a.2.2,0,0,1,.388.108h0Z" transform="translate(-1722.435 -326.111)" fill="url(#linear-gradient-13)"/>
      <path id="Trazado_96381" data-name="Trazado 96381" d="M1828.319,359.889l-.12.96v.009a.186.186,0,0,1-.368-.045l.115-.978a.189.189,0,0,1,.376.044h0Z" transform="translate(-1719.749 -341.589)" fill="url(#linear-gradient-111)"/>
      <path id="Trazado_96382" data-name="Trazado 96382" d="M1827.692,378.922l.036.967v.009a.173.173,0,0,1-.346.014l-.044-.984a.177.177,0,0,1,.354-.016h0Z" transform="translate(-1719.342 -357.409)" fill="url(#linear-gradient-34)"/>
      <path id="Trazado_96383" data-name="Trazado 96383" d="M1829.649,397.909l.12.6v.005a.163.163,0,0,1-.318.066l-.127-.605a.165.165,0,1,1,.323-.068h0Z" transform="translate(-1720.987 -373.19)" fill="url(#linear-gradient-26)"/>
    </g>
  </g>
</svg>
