<svg xmlns="http://www.w3.org/2000/svg" xmlns:xlink="http://www.w3.org/1999/xlink" width="297.991" height="290.674" viewBox="0 0 297.991 290.674">
  <defs>
    <linearGradient id="linear-gradient" x1="0.5" x2="0.5" y2="1" gradientUnits="objectBoundingBox">
      <stop offset="0" stop-color="#fff"/>
      <stop offset="1" stop-color="#d2e6ee"/>
    </linearGradient>
  </defs>
  <g id="Grupo_46353" data-name="Grupo 46353" transform="translate(-411.73 -101.791)">
    <path id="Trazado_96663" data-name="Trazado 96663" d="M426.195,157.888h-4.57v-4.568a1.764,1.764,0,0,0-1.763-1.765h-.037a1.764,1.764,0,0,0-1.763,1.765v4.568h-4.568a1.765,1.765,0,0,0-1.765,1.765v.035a1.763,1.763,0,0,0,1.765,1.763h4.568v4.57a1.762,1.762,0,0,0,1.763,1.762h.037a1.762,1.762,0,0,0,1.763-1.762v-4.57h4.57a1.762,1.762,0,0,0,1.763-1.763v-.035A1.764,1.764,0,0,0,426.195,157.888Z" transform="translate(0 66.564)" fill="#f1f1f1"/>
    <path id="Trazado_96664" data-name="Trazado 96664" d="M469.4,108.123h-4.57v-4.568a1.764,1.764,0,0,0-1.763-1.765h-.035a1.765,1.765,0,0,0-1.765,1.765v4.568H456.7a1.765,1.765,0,0,0-1.765,1.765v.035a1.764,1.764,0,0,0,1.765,1.763h4.568v4.57a1.764,1.764,0,0,0,1.765,1.762h.035a1.764,1.764,0,0,0,1.763-1.762v-4.57h4.57a1.764,1.764,0,0,0,1.762-1.763v-.035A1.764,1.764,0,0,0,469.4,108.123Z" transform="translate(57.793 0)" fill="#f1f1f1"/>
    <path id="Trazado_96665" data-name="Trazado 96665" d="M511.948,115.639h-4.57v-4.568a1.762,1.762,0,0,0-1.763-1.763h-.037a1.762,1.762,0,0,0-1.763,1.763v4.568h-4.57a1.764,1.764,0,0,0-1.763,1.765v.035a1.764,1.764,0,0,0,1.763,1.765h4.57v4.568a1.764,1.764,0,0,0,1.763,1.765h.037a1.764,1.764,0,0,0,1.763-1.765V119.2h4.57a1.764,1.764,0,0,0,1.763-1.765V117.4A1.764,1.764,0,0,0,511.948,115.639Z" transform="translate(114.7 10.056)" fill="#f1f1f1"/>
    <path id="Trazado_96666" data-name="Trazado 96666" d="M545.116,163.436h-4.57v-4.568a1.764,1.764,0,0,0-1.762-1.765h-.037a1.764,1.764,0,0,0-1.763,1.765v4.568h-4.57a1.764,1.764,0,0,0-1.763,1.765v.035A1.764,1.764,0,0,0,532.414,167h4.57v4.568a1.764,1.764,0,0,0,1.763,1.765h.037a1.764,1.764,0,0,0,1.762-1.765V167h4.57a1.764,1.764,0,0,0,1.763-1.765V165.2A1.764,1.764,0,0,0,545.116,163.436Z" transform="translate(159.064 73.985)" fill="#f1f1f1"/>
    <g id="Grupo_46353-2" data-name="Grupo 46353" transform="translate(435.295 127.444)">
      <path id="Trazado_96667" data-name="Trazado 96667" d="M498.674,203.219a49.394,49.394,0,1,0-68.518-13.591A49.394,49.394,0,0,0,498.674,203.219Z" transform="translate(-421.811 -112.765)" fill="#110239"/>
      <path id="Trazado_96668" data-name="Trazado 96668" d="M439.9,113.292a49.392,49.392,0,0,1,14.175,97.762Z" transform="translate(-397.618 -112.745)" fill="#26aab7"/>
      <path id="Trazado_96669" data-name="Trazado 96669" d="M441.6,198.954l-.243-.023,3.448-49.189,41.237-27.588a49.373,49.373,0,0,1-44.442,76.8Z" transform="translate(-395.663 -100.208)" fill="#7d6eb2"/>
      <path id="Trazado_96670" data-name="Trazado 96670" d="M464.682,186.591a49.618,49.618,0,0,0,8.5.4l-1.966-49.362L422.256,131.1A49.391,49.391,0,0,0,464.682,186.591Z" transform="translate(-421.805 -88.241)" fill="#f1f1f1"/>
    </g>
    <g id="Grupo_46370" data-name="Grupo 46370" transform="translate(431.262 192.842)">
      <g id="Grupo_46359" data-name="Grupo 46359" transform="translate(232.032 107.59)">
        <g id="Grupo_46355" data-name="Grupo 46355" transform="translate(19.67 9.251)">
          <path id="Trazado_96674" data-name="Trazado 96674" d="M528.208,210.569a.522.522,0,0,1-.442-.566.615.615,0,0,1,.659-.5c4.988.3,11.653-2.616,13.668-7.478.243-.584.484-1.232.739-1.912,1.218-3.266,2.751-7.361,5.956-8.836a7.07,7.07,0,0,1,5.369-.037.521.521,0,0,1,.311.725.673.673,0,0,1-.8.341,5.722,5.722,0,0,0-4.4-.019c-2.716,1.251-4.154,5.08-5.3,8.132-.26.692-.51,1.351-.755,1.945-2.3,5.517-9.511,8.544-14.918,8.221C528.266,210.578,528.236,210.573,528.208,210.569Z" transform="translate(-527.762 -190.727)" fill="#fff"/>
        </g>
        <g id="Grupo_46356" data-name="Grupo 46356" transform="translate(9.088 0)">
          <path id="Trazado_96675" data-name="Trazado 96675" d="M530.724,215.3a8.817,8.817,0,0,1-5.238-3.037c-1.851-2.377-2.144-5.963-.818-10.393.131-.439.3-.949.482-1.5,1.04-3.165,2.627-8,1.063-10.68a3.807,3.807,0,0,0-2.527-1.765.571.571,0,0,1-.425-.718.647.647,0,0,1,.767-.418l.007,0a5.031,5.031,0,0,1,3.277,2.321c1.8,3.107.115,8.217-.991,11.559-.178.545-.344,1.043-.472,1.475-1.232,4.093-1.008,7.361.631,9.472,1.4,1.8,3.845,2.8,7.263,2.98a.531.531,0,0,1,.538.575.617.617,0,0,1-.655.512A17.547,17.547,0,0,1,530.724,215.3Z" transform="translate(-523.235 -186.769)" fill="#fff"/>
        </g>
        <g id="Grupo_46357" data-name="Grupo 46357" transform="translate(11.586 50.293)">
          <path id="Trazado_96676" data-name="Trazado 96676" d="M526.456,220.853a5.638,5.638,0,0,1-1.919-.7.447.447,0,0,1-.122-.687.64.64,0,0,1,.8-.133c2.985,1.8,9.058-.538,11.641-2.359a15.515,15.515,0,0,0,3.069-3.485c1.837-2.506,3.747-5.117,6.765-5.2a.489.489,0,0,1,.559.491.588.588,0,0,1-.594.524c-2.377.068-4.109,2.429-5.771,4.694a16.265,16.265,0,0,1-3.34,3.738C535.234,219.364,530.171,221.531,526.456,220.853Z" transform="translate(-524.304 -208.284)" fill="#fff"/>
        </g>
        <g id="Grupo_46358" data-name="Grupo 46358" transform="translate(0 34.949)">
          <path id="Trazado_96677" data-name="Trazado 96677" d="M528.2,228.543a7.256,7.256,0,0,1-2.066-.729c-3.759-2-5.989-7.12-6.571-10.1-.311-1.6.168-3.719.678-5.972.816-3.6,1.667-7.356-.676-9.07a.5.5,0,0,1-.075-.753.66.66,0,0,1,.844-.079c2.882,2.113,1.912,6.37,1.064,10.084-.493,2.155-.954,4.18-.68,5.6.521,2.7,2.623,7.62,6.045,9.446a5.662,5.662,0,0,0,4.189.5.573.573,0,0,1,.7.33.515.515,0,0,1-.411.619A7.08,7.08,0,0,1,528.2,228.543Z" transform="translate(-519.348 -201.72)" fill="#fff"/>
        </g>
      </g>
      <g id="Grupo_46367" data-name="Grupo 46367" transform="translate(70.328)">
        <rect id="Rectángulo_28349" data-name="Rectángulo 28349" width="176.521" height="193.171" fill="url(#linear-gradient)"/>
        <rect id="Rectángulo_28350" data-name="Rectángulo 28350" width="152.784" height="165.83" transform="translate(11.868 13.67)" fill="#f6c343"/>
        <path id="Trazado_96684" data-name="Trazado 96684" d="M554.407,220.5a7.643,7.643,0,0,0-9.6-1.957s11.379-25.108,4.18-37.546a11.21,11.21,0,0,0-2.578-3.027c1.8-8.287-6.134-11.767-12.429-14.988a52.665,52.665,0,0,0-12.719-4.577c-8.226-1.711-17.48-1.342-24.953,2.786-8.357,4.614-16.751,14.03-25.437,11.889-1.8,4.222-1.538,7.686-.325,12.712a32.4,32.4,0,0,0,6.669,12.651,98.467,98.467,0,0,0,6.5,20.1,7.64,7.64,0,0,0-9.6,1.957c-4.364,5.019,7.2,17.674,9.818,19.2a54.933,54.933,0,0,0,9.649,18.7,42.442,42.442,0,0,0,9.893,8.691h-.839s-2.438,23.025-6.9,30.818H531.2c-4.123-7.2-6.512-27.333-6.854-30.388A42.548,42.548,0,0,0,534.94,258.4a54.984,54.984,0,0,0,9.649-18.7C547.207,238.172,558.771,225.517,554.407,220.5Z" transform="translate(-424.218 -118.406)" fill="#fff"/>
        <g id="Grupo_46366" data-name="Grupo 46366" transform="translate(76.058 72.55)">
          <path id="Trazado_96685" data-name="Trazado 96685" d="M489.8,209.795v-8.153a32.309,32.309,0,0,0,8.759-8.212,13.964,13.964,0,0,0,2.934-8.156,9.948,9.948,0,0,0-.075-1.19,2.663,2.663,0,0,0-1.075-2.183,4.589,4.589,0,0,0-2.265-.5,2.794,2.794,0,0,0-1.931.732,2.411,2.411,0,0,0-.816,1.924,8.127,8.127,0,0,0,.075,1.19,4.579,4.579,0,0,0,.15.718c.049.154.152.418.313.795s.292.687.39.93l-12.209,2.382c-.077-.264-.206-.673-.393-1.237s-.3-.935-.351-1.129-.131-.493-.241-.9a6.032,6.032,0,0,1-.206-.993q-.035-.382-.091-.947c-.037-.376-.056-.769-.056-1.176v-.243a13.277,13.277,0,0,1,.666-4.306,10.3,10.3,0,0,1,7.071-6.412,24.382,24.382,0,0,1,7.256-.947q8.352,0,12.786,3.359a11.148,11.148,0,0,1,4.434,9.434,19.779,19.779,0,0,1-3.731,11.022,22.23,22.23,0,0,1-8.962,8.062v6.138Zm-.334,13.5v-10.5h13.177v10.5Z" transform="translate(-482.709 -171.779)" fill="#00223d"/>
        </g>
      </g>
      <g id="Grupo_46369" data-name="Grupo 46369" transform="translate(0 49.124)">
        <path id="Trazado_96686" data-name="Trazado 96686" d="M425.865,175.449s3.425,6.1,1.755,7.934c0,0,4.591,4.175,8.181,2.422s1.51-3.329,1.51-3.329-2.511-1.1-3.763-6.358S425.865,175.449,425.865,175.449Z" transform="translate(-412.355 -145.929)" fill="#f88667"/>
        <path id="Trazado_96687" data-name="Trazado 96687" d="M429.493,184.752a7.538,7.538,0,0,1,6.18-3.77,12.775,12.775,0,0,1-2.125-4.864c-1.253-5.262-7.684-.669-7.684-.669s3.425,6.1,1.755,7.934A14.21,14.21,0,0,0,429.493,184.752Z" transform="translate(-412.355 -145.929)" fill="#e45940"/>
        <path id="Trazado_96688" data-name="Trazado 96688" d="M424.628,174.461s2.01-5.43,5.344-5.526,5.51.25,6.068,1.489,1.629,4.7,2.6,5.921,2.955,2.765,2.971,3.359-1.863.975-1.945,1.225-.713,4.635-1.363,5.147-7.249-1.391-8.406-3.193S424.649,177.846,424.628,174.461Z" transform="translate(-414.01 -152.176)" fill="#f88667"/>
        <path id="Trazado_96689" data-name="Trazado 96689" d="M433.777,176.576c.891.6,3.083,1.2,6.445-.729s1.1-9.808-6.2-8.537-6.723,3.859-8.018,4.575a5.144,5.144,0,0,0-2.744,3.137c-.8,2.676-.587,5.746,3.156,8.471,3.78,2.754,6.05,2.006,6.05,2.006.051-.93-.178-2.464-1.026-2.849a5.244,5.244,0,0,1-1.281-.514,1.435,1.435,0,0,1,1.141-2.529c.83.037,1.363,1.435,1.9,1.91.568.5.881.351,1.148.215.519-.262.732-1.94-.605-3.539C432.875,177.156,432.886,175.975,433.777,176.576Z" transform="translate(-416.347 -154.516)" fill="#110239"/>
        <path id="Trazado_96690" data-name="Trazado 96690" d="M422.522,220.62s-3.008,5.9-2.34,7.125,13.277,6.459,14.781,5.706,1.585-2.92-.83-4.659c-2.59-1.865-4.294-1.6-5.823-3.022s0-4.093,0-4.093Z" transform="translate(-420.086 -83.026)" fill="#cd4022"/>
        <path id="Trazado_96691" data-name="Trazado 96691" d="M435.72,222.157s.4,6.961,1.494,7.831,14.743.8,15.835-.479.407-3.048-2.37-3.6c-2.5-.5-4.343.026-6.279-.755-1.7-.685-2.616-4.444-2.616-4.444Z" transform="translate(-399.173 -82.912)" fill="#cd4022"/>
        <path id="Trazado_96692" data-name="Trazado 96692" d="M444.7,190.967l-17.789,1.094s13.385,31.924,15.222,35.765,4.706,35.5,4.706,35.5l8.2-1.321s-1.73-32.389-2.158-35.054A327.014,327.014,0,0,0,444.7,190.967Z" transform="translate(-410.961 -122.688)" fill="#1363b2"/>
        <path id="Trazado_96693" data-name="Trazado 96693" d="M438.667,203.989c.577-2.978.987-6.842,1.634-9.806.257-1.176,1.9-1.234,2.024-2.405a3.388,3.388,0,0,1-.711-.729l-14.708.9s13.385,31.924,15.222,35.765c.18.379.439,1,.75,1.8-.007-.643-.033-1.288-.079-1.928C442.414,222.409,438.008,207.369,438.667,203.989Z" transform="translate(-410.961 -122.58)" fill="#0054ad"/>
        <path id="Trazado_96694" data-name="Trazado 96694" d="M447.976,191.61h-15.2a23.033,23.033,0,0,0-1.756,12.024c.919,6.515-1.057,19.138-1.169,20.807s-7.978,29.058-9.147,35.292l7,2.506s11.506-33.544,11.952-34.213S447.976,191.61,447.976,191.61Z" transform="translate(-419.253 -121.828)" fill="#1363b2"/>
        <g id="Grupo_46368" data-name="Grupo 46368" transform="translate(29.599 39.244)">
          <path id="Trazado_96695" data-name="Trazado 96695" d="M437.9,201.37s3.006,4.341,5.1,4.009,16.674-9.909,16.674-9.909l-3.062-2.034s-11.608,7.934-12.777,7.6c-.617-.175-3.707-8.128-6.216-14.086-3.093-7.342-4.862-8.4-4.862-8.4Z" transform="translate(-432.748 -178.546)" fill="#f88667"/>
          <path id="Trazado_96696" data-name="Trazado 96696" d="M437.9,201.37s3.006,4.341,5.1,4.009,16.674-9.909,16.674-9.909l-3.062-2.034s-11.608,7.934-12.777,7.6c-.568-.164-3.953-9.119-6.424-14.572-3.354-7.415-4.654-7.917-4.654-7.917Z" transform="translate(-432.748 -178.546)" fill="#e45940"/>
          <path id="Trazado_96697" data-name="Trazado 96697" d="M439.123,189.376c.026-.035-1.248-2.789-1.669-3.614-3.406-6.678-4.706-7.216-4.706-7.216l2.95,13.076C436.881,190.975,438.5,190.264,439.123,189.376Z" transform="translate(-432.748 -178.546)" fill="#f92961"/>
          <path id="Trazado_96698" data-name="Trazado 96698" d="M439.123,189.376c.026-.035-1.248-2.789-1.669-3.614-3.406-6.678-4.706-7.216-4.706-7.216l2.95,13.076C436.881,190.975,438.5,190.264,439.123,189.376Z" transform="translate(-432.748 -178.546)" fill="#cd4022"/>
        </g>
        <path id="Trazado_96699" data-name="Trazado 96699" d="M427.4,216.094s13.642,3.424,25.332-.806c0,0-2.49-11.309-2.49-17.391,0-5.168-1.62-16.225-4.334-18.172a16.092,16.092,0,0,0-4.367-2.373,4.933,4.933,0,0,1-3.006,2.756c-2.087.5-6.12-2.16-6.12-2.16s-8.233,3.221-9.336,5.028c-2.26,3.7,3.74,14.154,5.077,19.582S427.4,216.094,427.4,216.094Z" transform="translate(-416.757 -140.9)" fill="#cd4022"/>
        <path id="Trazado_96700" data-name="Trazado 96700" d="M438.6,212.974a66.069,66.069,0,0,1-.926-7.707,19.206,19.206,0,0,1,.112-6.44c-.161-.563-.327-1.131-.468-1.625-.711-2.482-.641-8.027-3.579-10.832-1.7-1.618-3.77-4.131-6.288-4.565-3.044-.528-1.561-.542-4.285-1.173.124,1-1.22,2.908-.792,4.273,1.755,4.35,5.3,9.731,6.169,13.263,1.337,5.428-.757,13.537-.757,13.537A55.443,55.443,0,0,0,438.6,212.974Z" transform="translate(-417.141 -136.512)" fill="#a72c12"/>
        <path id="Trazado_96701" data-name="Trazado 96701" d="M520.659,226.179a33.827,33.827,0,1,0-46.733-20.613l-48.986,23.656a4.722,4.722,0,0,0-2.253,6.286l.042.086a4.721,4.721,0,0,0,6.286,2.253L478,214.192A33.8,33.8,0,0,0,520.659,226.179Zm-38.013-19.456a26.064,26.064,0,1,1,34.7,12.436A26.064,26.064,0,0,1,482.646,206.724Z" transform="translate(-417.212 -161.758)" fill="#00223d"/>
        <path id="Trazado_96702" data-name="Trazado 96702" d="M429.594,184.888s4.343,8.936,5.262,9.021,16.742-1.171,17.892-1.837a13.766,13.766,0,0,0,1.767-1.47,8.942,8.942,0,0,1,.818-.645,9.517,9.517,0,0,0,1.022-.575c.243-.206,1.108-1.491,1.6-1.37.386.1.355.39.285.7-.089.4-.638.781-.9,1.066-.152.166-.606.626-.526.888.108.353.893-.267,1.071-.379a3.167,3.167,0,0,0,.729-.629,9.8,9.8,0,0,0,.666-.888c.129-.185.25-.381.374-.566.208-.311.393-.591.575-.919.136-.245.353-.526.664-.36.346.187,0,.767-.131,1.017-.145.271-.271.521-.388.8-.077.185-.381.5-.273.711a4.392,4.392,0,0,0,.865-.989c.159-.215.97-1.545,1.339-1.286.589.411-.114,1.283-.388,1.65a3.873,3.873,0,0,1-.605.676c-.1.082-.535.549-.458.542.556-.054.961-.9,1.307-1.295.213-.245.893-.963.986-.248a1.111,1.111,0,0,1-.288.753,3.964,3.964,0,0,1-.874.947,3.085,3.085,0,0,0-.568.64c.416-.012,1.237-1.071,1.615-.788.245.185-.023.692-.159.844a13.342,13.342,0,0,1-3.675,2.471,38.18,38.18,0,0,1-4.21,1.954c-2.052.811-19.458,6.262-21.545,6.012s-7.6-10.919-9.184-14.018S429.594,184.888,429.594,184.888Z" transform="translate(-414.831 -130.901)" fill="#f88667"/>
        <path id="Trazado_96703" data-name="Trazado 96703" d="M426.185,197.264s5.51-2.041,8.684-4.9c0,0-5.222-16.347-10.472-12.609C418.408,184.012,426.185,197.264,426.185,197.264Z" transform="translate(-417.35 -138.434)" fill="#cd4022"/>
        <path id="Trazado_96704" data-name="Trazado 96704" d="M443.017,186.84c.273-.178.65.016,1.122.428-.622-.774-1.363-1.576-.631-1.681.706-.105,1.192.989,1.7,1.328-.273-.381-1.889-1.505-1.26-2.349.374-.5,2.1,1.461,2.461,1.854-.337-.318-1.793-1.854-1.019-2.169.7-.285,1.695,1.029,2.19,1.445.365.306.877.561.961,1.066.166.975-1.26,1.643-2,1.849a3.834,3.834,0,0,1-2.913-.486C443.129,187.826,442.743,187.02,443.017,186.84Z" transform="translate(-389.535 -131.726)" fill="#f88667"/>
      </g>
    </g>
    <g id="Grupo_46373" data-name="Grupo 46373" transform="translate(596.761 148.581)">
      <g id="Grupo_46371" data-name="Grupo 46371">
        <rect id="Rectángulo_28351" data-name="Rectángulo 28351" width="98.949" height="66.936" rx="1.924" fill="url(#linear-gradient)"/>
        <rect id="Rectángulo_28352" data-name="Rectángulo 28352" width="89.953" height="56.273" transform="translate(4.498 5.332)" fill="#110239"/>
      </g>
      <g id="Grupo_46372" data-name="Grupo 46372" transform="translate(10.464 14.1)">
        <path id="Trazado_96705" data-name="Trazado 96705" d="M495.362,148.3s36.492,46.031,78.021,0C531.854,102.265,495.362,148.3,495.362,148.3Z" transform="translate(-495.362 -127.84)" fill="#110239"/>
        <path id="Trazado_96706" data-name="Trazado 96706" d="M497.7,146.66s31.384,39.587,67.1,0C529.082,107.071,497.7,146.66,497.7,146.66Z" transform="translate(-492.237 -126.201)" fill="#fff"/>
      </g>
      <path id="Trazado_96707" data-name="Trazado 96707" d="M539.317,146.515a17.342,17.342,0,1,1-17.342-17.342A17.342,17.342,0,0,1,539.317,146.515Z" transform="translate(-472.499 -111.956)" fill="#dbdada"/>
      <path id="Trazado_96708" data-name="Trazado 96708" d="M529.225,142.842A10.923,10.923,0,1,1,518.3,131.919,10.924,10.924,0,0,1,529.225,142.842Z" transform="translate(-468.826 -108.283)" fill="#110239"/>
      <circle id="Elipse_3891" data-name="Elipse 3891" cx="4.443" cy="4.443" r="4.443" transform="translate(53.514 23.235)" fill="#fff"/>
    </g>
    <g id="Grupo_46374" data-name="Grupo 46374" transform="translate(521.885 140.519)">
      <rect id="Rectángulo_28353" data-name="Rectángulo 28353" width="8.003" height="6.067" fill="#f1f1f1"/>
      <rect id="Rectángulo_28354" data-name="Rectángulo 28354" width="8.003" height="6.067" transform="translate(11.285)" fill="#f1f1f1"/>
      <rect id="Rectángulo_28355" data-name="Rectángulo 28355" width="8.003" height="6.067" transform="translate(22.57)" fill="#167377"/>
      <rect id="Rectángulo_28356" data-name="Rectángulo 28356" width="8.003" height="6.067" transform="translate(33.855)" fill="#f1f1f1"/>
      <rect id="Rectángulo_28357" data-name="Rectángulo 28357" width="8.003" height="6.067" transform="translate(45.139)" fill="#f1f1f1"/>
      <rect id="Rectángulo_28358" data-name="Rectángulo 28358" width="8.004" height="6.067" transform="translate(56.424)" fill="#167377"/>
      <rect id="Rectángulo_28359" data-name="Rectángulo 28359" width="8.003" height="6.067" transform="translate(0 10.359)" fill="#f1f1f1"/>
      <rect id="Rectángulo_28360" data-name="Rectángulo 28360" width="8.003" height="6.067" transform="translate(11.285 10.359)" fill="#f1f1f1"/>
      <rect id="Rectángulo_28361" data-name="Rectángulo 28361" width="8.003" height="6.067" transform="translate(22.57 10.359)" fill="#f1f1f1"/>
      <rect id="Rectángulo_28362" data-name="Rectángulo 28362" width="8.003" height="6.067" transform="translate(33.855 10.359)" fill="#f1f1f1"/>
      <rect id="Rectángulo_28363" data-name="Rectángulo 28363" width="8.003" height="6.067" transform="translate(45.139 10.359)" fill="#167377"/>
      <rect id="Rectángulo_28364" data-name="Rectángulo 28364" width="8.004" height="6.067" transform="translate(56.424 10.359)" fill="#f1f1f1"/>
      <rect id="Rectángulo_28365" data-name="Rectángulo 28365" width="8.003" height="6.067" transform="translate(0 20.718)" fill="#f1f1f1"/>
      <rect id="Rectángulo_28366" data-name="Rectángulo 28366" width="8.003" height="6.067" transform="translate(11.285 20.718)" fill="#167377"/>
      <rect id="Rectángulo_28367" data-name="Rectángulo 28367" width="8.003" height="6.067" transform="translate(22.57 20.718)" fill="#f1f1f1"/>
      <rect id="Rectángulo_28368" data-name="Rectángulo 28368" width="8.003" height="6.067" transform="translate(33.855 20.718)" fill="#f1f1f1"/>
      <rect id="Rectángulo_28369" data-name="Rectángulo 28369" width="8.003" height="6.067" transform="translate(45.139 20.718)" fill="#f1f1f1"/>
      <rect id="Rectángulo_28370" data-name="Rectángulo 28370" width="8.004" height="6.067" transform="translate(56.424 20.718)" fill="#f1f1f1"/>
      <rect id="Rectángulo_28371" data-name="Rectángulo 28371" width="8.003" height="6.067" transform="translate(0 31.078)" fill="#f1f1f1"/>
      <rect id="Rectángulo_28372" data-name="Rectángulo 28372" width="8.003" height="6.067" transform="translate(11.285 31.078)" fill="#f1f1f1"/>
      <rect id="Rectángulo_28373" data-name="Rectángulo 28373" width="8.003" height="6.067" transform="translate(22.57 31.078)" fill="#167377"/>
      <rect id="Rectángulo_28374" data-name="Rectángulo 28374" width="8.003" height="6.067" transform="translate(33.855 31.078)" fill="#f1f1f1"/>
    </g>
  </g>
</svg>
