<svg xmlns="http://www.w3.org/2000/svg" xmlns:xlink="http://www.w3.org/1999/xlink" width="91.927" height="91.927" viewBox="0 0 91.927 91.927">
  <defs>
    <radialGradient id="radial-gradient" cx="0.076" cy="0.019" r="1.465" gradientTransform="translate(0.001)" gradientUnits="objectBoundingBox">
      <stop offset="0" stop-color="#f6f6f7"/>
      <stop offset="0.477" stop-color="#f9f9fa"/>
      <stop offset="0.715" stop-color="#fff"/>
    </radialGradient>
  </defs>
  <g id="Grupo_53047" data-name="Grupo 53047" transform="translate(-217 -997)">
    <g id="Grupo_18531" data-name="Grupo 18531" transform="translate(142 1024)">
      <g id="Grupo_18423" data-name="Grupo 18423" transform="translate(75 -27)">
        <g id="Grupo_18421" data-name="Grupo 18421">
          <g id="Grupo_18420" data-name="Grupo 18420">
            <g id="Grupo_18419" data-name="Grupo 18419">
              <path id="Trazado_40936" data-name="Trazado 40936" d="M286.55,2191.684a45.964,45.964,0,1,1-45.963-45.962A45.963,45.963,0,0,1,286.55,2191.684Z" transform="translate(-194.623 -2145.721)" fill="#fff"/>
            </g>
          </g>
        </g>
        <path id="Trazado_40937" data-name="Trazado 40937" d="M286.23,2191.334a45.963,45.963,0,1,0-45.963,45.965A45.782,45.782,0,0,0,286.23,2191.334Z" transform="translate(-194.303 -2145.372)" fill="url(#radial-gradient)"/>
        <path id="Trazado_40938" data-name="Trazado 40938" d="M272.56,2188.562a35.084,35.084,0,1,0-35.084,35.084A34.953,34.953,0,0,0,272.56,2188.562Z" transform="translate(-191.373 -2142.446)" fill="none" stroke="#7d6eb2" stroke-miterlimit="10" stroke-width="4"/>
        <g id="Grupo_18422" data-name="Grupo 18422" transform="translate(8.143 25.805)">
          <path id="Trazado_40939" data-name="Trazado 40939" d="M279.682,2164.488a45.969,45.969,0,0,1-79.137,45.773,45.823,45.823,0,0,0,79.137-45.773Z" transform="translate(-200.545 -2164.488)" fill="#eceef0"/>
        </g>
      </g>
    </g>
    <g id="Grupo_46649" data-name="Grupo 46649" transform="translate(1044.403 330.007)">
      <path id="Trazado_96954" data-name="Trazado 96954" d="M-723.406,757.552a19.841,19.841,0,0,1,1.978-1.81,2.177,2.177,0,0,1,1.5-.386,31.715,31.715,0,0,1,3.253.986,1.567,1.567,0,0,1,1.213,1.724c-.21,3.837-.405,7.675-.643,11.51a2.251,2.251,0,0,1-1.112,1.911,1.355,1.355,0,0,0-.511.944c-.215,2.731-.408,5.465-.55,8.2-.11,2.117-1.013,3.061-3.1,3.074q-2.056.013-4.112,0c-2.019-.016-2.94-.975-3.047-3.024q-.215-4.1-.551-8.2c-.031-.379-.424-.721-.625-1.094a5.8,5.8,0,0,1-.98-1.96c-.288-3.63-.461-7.269-.638-10.907-.076-1.561.166-1.849,1.627-2.3a11.689,11.689,0,0,0,1.806-.584,2.378,2.378,0,0,1,3.308.792A10.791,10.791,0,0,0-723.406,757.552Zm6,4.023h.138c0-.968.043-1.939-.026-2.9a1.134,1.134,0,0,0-.544-.831c-2.341-.924-2.347-.906-4.181.8-.2.182-.4.353-.589.544a1.011,1.011,0,0,1-1.642-.022c-.545-.541-1.1-1.076-1.688-1.569-.255-.214-.652-.5-.9-.437a23.816,23.816,0,0,0-2.694.97c-.068.027-.051.313-.042.477.2,3.568.405,7.137.637,10.7.016.247.228.653.407.689,1.1.218,1.169,1.007,1.22,1.89.173,2.967.395,5.932.561,8.9.048.852.414,1.177,1.255,1.153,1.369-.039,2.742-.052,4.11,0,.962.039,1.282-.365,1.33-1.288.158-3.035.383-6.066.577-9.1.04-.623.1-1.248.849-1.41.613-.132.762-.509.791-1.073C-717.705,766.575-717.548,764.075-717.4,761.574Z" transform="translate(-56.615 -50.242)" fill="#00223d"/>
      <path id="Trazado_96955" data-name="Trazado 96955" d="M-643.989,757.516a22.3,22.3,0,0,1,2-1.818,2.026,2.026,0,0,1,1.413-.377,33.528,33.528,0,0,1,3.251.981,1.724,1.724,0,0,1,1.317,1.886q-.3,5.554-.636,11.106a2.47,2.47,0,0,1-1.225,2.259c-.309.174-.442.838-.476,1.292-.2,2.631-.331,5.268-.513,7.9-.149,2.148-1.041,2.959-3.195,2.965-1.37,0-2.741.012-4.111,0a2.6,2.6,0,0,1-2.89-2.731c-.207-3.2-.415-6.4-.652-9.6-.045-.614.039-1.134.712-1.2.7-.071.974.405,1.016,1.074.188,3.034.4,6.067.592,9.1.095,1.477.184,1.57,1.658,1.571,1.3,0,2.608-.028,3.91.01.822.024,1.133-.356,1.18-1.128.19-3.1.423-6.2.591-9.3a1.4,1.4,0,0,1,.958-1.444,1.292,1.292,0,0,0,.645-.933c.24-3.4.4-6.8.633-10.2.047-.687-.193-.92-.805-1.218-1.664-.809-2.845-.424-4.037.946-1.223,1.407-1.329,1.315-2.695.039-.342-.32-.7-.622-1.019-.965a1.289,1.289,0,0,0-1.563-.475,1.235,1.235,0,0,1-1.091-.466c-.3-.5.017-.919.568-1.166,1.138-.509,2.145-.6,3.008.542A11.534,11.534,0,0,0-643.989,757.516Z" transform="translate(-121.857 -50.226)" fill="#00223d"/>
      <path id="Trazado_96956" data-name="Trazado 96956" d="M-794.1,757.533c.612-.568,1.241-1.162,1.882-1.743a2.429,2.429,0,0,1,2.953.285,1.03,1.03,0,0,1,.053.918c-.167.237-.674.488-.887.4-.855-.372-1.339.067-1.9.592-2.522,2.367-1.91,2.407-4.372-.017a2.053,2.053,0,0,0-2.474-.352c-1.638.522-1.59.511-1.467,2.259.212,3,.369,6,.515,9.009.034.689.119,1.19.912,1.438a1.4,1.4,0,0,1,.693,1.037c.25,3.064.436,6.133.626,9.2.083,1.333.211,1.472,1.553,1.474q1.856,0,3.712,0c1.25,0,1.4-.153,1.49-1.44.2-3.034.413-6.068.594-9.1.04-.673.168-1.271.974-1.2s.812.66.759,1.344c-.246,3.2-.433,6.4-.649,9.6a2.436,2.436,0,0,1-2.435,2.542c-1.734.083-3.478.078-5.214,0a2.4,2.4,0,0,1-2.448-2.418c-.222-2.9-.373-5.8-.616-8.7-.034-.409-.418-.79-.647-1.18-.308-.523-.846-1.02-.9-1.565-.27-2.792-.419-5.6-.6-8.4-.068-1.034-.1-2.07-.174-3.1a1.772,1.772,0,0,1,1.39-2.026c.1-.029.2-.043.292-.071,1.15-.334,2.372-1.075,3.429-.887C-796.013,755.615-795.141,756.743-794.1,757.533Z" transform="translate(0 -50.34)" fill="#00223d"/>
      <path id="Trazado_96957" data-name="Trazado 96957" d="M-716.963,702.878a4.765,4.765,0,0,1-3.293-3.039c-.073-.215-.577-.26-.849-.435-.375-.241-.944-.475-1.026-.811-.154-.632.383-.975.983-.957a.942.942,0,0,0,1.071-.76,3.805,3.805,0,0,1,2.417-2.382c.52-.181.769-.407.71-.989a.876.876,0,0,1,.9-1.084.883.883,0,0,1,.873,1.106c-.072.606.237.789.734.969a3.918,3.918,0,0,1,2.409,2.4c.187.5.382.784.979.738s1.093.234,1.1.895-.466.941-1.087.873c-.589-.064-.788.217-.975.731a4.411,4.411,0,0,1-2.466,2.495,1.228,1.228,0,0,0-.647.778c-.083.659-.171,1.25-.992,1.208-.759-.039-.852-.624-.836-1.238C-716.96,703.241-716.963,703.108-716.963,702.878Zm3.472-4.336a2.552,2.552,0,0,0-2.513-2.58,2.545,2.545,0,0,0-2.636,2.555,2.611,2.611,0,0,0,2.611,2.613A2.616,2.616,0,0,0-713.491,698.542Z" transform="translate(-63.954)" fill="#00223d"/>
      <path id="Trazado_96958" data-name="Trazado 96958" d="M-779.8,712.915a4.361,4.361,0,0,1-4.313-4.352,4.428,4.428,0,0,1,4.408-4.389,4.409,4.409,0,0,1,4.308,4.382A4.354,4.354,0,0,1-779.8,712.915Zm-2.535-4.346a2.638,2.638,0,0,0,2.558,2.575,2.679,2.679,0,0,0,2.622-2.629,2.6,2.6,0,0,0-2.674-2.544A2.575,2.575,0,0,0-782.333,708.569Z" transform="translate(-14.435 -9.394)" fill="#00223d"/>
      <path id="Trazado_96959" data-name="Trazado 96959" d="M-638.561,712.916a4.348,4.348,0,0,1-4.368-4.392,4.41,4.41,0,0,1,4.343-4.348,4.425,4.425,0,0,1,4.374,4.423A4.361,4.361,0,0,1-638.561,712.916Zm-.026-6.942a2.6,2.6,0,0,0-2.584,2.531,2.668,2.668,0,0,0,2.606,2.641,2.651,2.651,0,0,0,2.575-2.665A2.575,2.575,0,0,0-638.587,705.974Z" transform="translate(-127.281 -9.396)" fill="#00223d"/>
    </g>
  </g>
</svg>
