<svg xmlns="http://www.w3.org/2000/svg" xmlns:xlink="http://www.w3.org/1999/xlink" width="124.767" height="124.767" viewBox="0 0 124.767 124.767">
  <defs>
    <radialGradient id="radial-gradient" cx="0.076" cy="0.019" r="1.465" gradientTransform="translate(0.001)" gradientUnits="objectBoundingBox">
      <stop offset="0" stop-color="#f6f6f7"/>
      <stop offset="0.477" stop-color="#f9f9fa"/>
      <stop offset="0.715" stop-color="#fff"/>
    </radialGradient>
  </defs>
  <g id="Grupo_50460" data-name="Grupo 50460" transform="translate(-217 -997)">
    <g id="Grupo_18531" data-name="Grupo 18531" transform="translate(217 997)">
      <g id="Grupo_18423" data-name="Grupo 18423" transform="translate(0 0)">
        <g id="Grupo_18421" data-name="Grupo 18421">
          <g id="Grupo_18420" data-name="Grupo 18420">
            <g id="Grupo_18419" data-name="Grupo 18419">
              <path id="Trazado_40936" data-name="Trazado 40936" d="M319.39,2208.1a62.384,62.384,0,1,1-62.383-62.382A62.383,62.383,0,0,1,319.39,2208.1Z" transform="translate(-194.623 -2145.721)" fill="#fff"/>
            </g>
          </g>
        </g>
        <path id="Trazado_40937" data-name="Trazado 40937" d="M318.65,2207.3a62.382,62.382,0,1,0-62.383,62.385A62.136,62.136,0,0,0,318.65,2207.3Z" transform="translate(-193.883 -2144.915)" fill="url(#radial-gradient)"/>
        <path id="Trazado_40938" data-name="Trazado 40938" d="M297.307,2200.746a47.617,47.617,0,1,0-47.617,47.617A47.44,47.44,0,0,0,297.307,2200.746Z" transform="translate(-187.117 -2138.156)" fill="none" stroke="#7d6eb2" stroke-miterlimit="10" stroke-width="4"/>
        <g id="Grupo_18422" data-name="Grupo 18422" transform="translate(11.052 35.024)">
          <path id="Trazado_40939" data-name="Trazado 40939" d="M307.953,2164.488a62.391,62.391,0,0,1-107.408,62.125,62.193,62.193,0,0,0,107.408-62.125Z" transform="translate(-200.545 -2164.488)" fill="#eceef0"/>
        </g>
      </g>
    </g>
    <g id="Grupo_53005" data-name="Grupo 53005" transform="translate(4106.113 -1555.805)">
      <path id="Trazado_97062" data-name="Trazado 97062" d="M-3826.407,2875.087h1.677c0,.442,0,.875,0,1.309q.023,2.608.052,5.218c.029,3.03.054,6.06.092,9.089a3.271,3.271,0,0,0,3.168,3.257,3.292,3.292,0,0,0,3.505-2.822,16.681,16.681,0,0,0,.02-2.143q-.035-4.051-.079-8.1c-.029-2.647-.067-5.293-.092-7.94a3.192,3.192,0,0,1,.11-.586,9.562,9.562,0,0,0,.292-1.652c.026-3.693.013-7.386.013-11.08v-.458c.794.364,1.553.719,2.319,1.061a7.732,7.732,0,0,0,2.112.8.282.282,0,0,1,.185.193c.162,1.084.326,2.169.459,3.257a2.88,2.88,0,0,0,3.09,2.366c2.663-.343,5.326-.673,7.989-1.01a4.09,4.09,0,0,0,1.742-.472,2.827,2.827,0,0,0,1.261-3.1c-.3-1.74-.511-3.5-.763-5.246-.048-.337-.083-.678-.161-1.008a2.8,2.8,0,0,0-2.691-2.145c-.139,0-.277,0-.46,0-.089-.492-.181-.989-.27-1.486s-.169-1.008-.268-1.509a.853.853,0,0,0-1.043-.657.865.865,0,0,0-.646,1.019c.165.878.321,1.758.479,2.638a1.462,1.462,0,0,1,0,.237l-4.364.549c-.061-.446-.119-.855-.171-1.264q-.1-.809-.2-1.618a.854.854,0,0,0-1-.789.892.892,0,0,0-.7,1.046c.127.938.238,1.877.353,2.789-.5.126-.984.253-1.467.364a.425.425,0,0,1-.236-.061q-3.3-1.51-6.588-3.028a1.177,1.177,0,0,1-.369-.291,6.3,6.3,0,0,0-4.865-2.236c-1.152-.007-2.307-.032-3.458.006a6.24,6.24,0,0,0-5.4,3.168,1.23,1.23,0,0,1-.414.413q-5.059,2.9-10.126,5.791a5.4,5.4,0,0,0-2.3,2.861c-.107.269-.2.343-.5.275-1.214-.27-2.432-.539-3.66-.732a2.368,2.368,0,0,0-2.626,1.8c-.565,2.335-1.11,4.676-1.664,7.014-.149.631-.322,1.258-.443,1.895a2.368,2.368,0,0,0,1.861,2.8q2.224.507,4.45,1c2.542.571,5.083,1.148,7.627,1.708a2.467,2.467,0,0,0,2.958-1.884q1-4.288,2.016-8.572a2.372,2.372,0,0,0-1.78-3.012c-.429-.117-.857-.236-1.358-.375l5.222-3.377v1.226c0,3.075-.016,6.149.012,9.223a9.274,9.274,0,0,0,.3,1.618,2.362,2.362,0,0,1,.073.4q.058,5.443.108,10.885.036,3.586.078,7.171a3.284,3.284,0,0,0,3.1,3.151,3.326,3.326,0,0,0,3.468-2.355,5.378,5.378,0,0,0,.114-1.3c0-1.451-.015-2.9-.029-4.354q-.052-5.358-.107-10.718C-3826.407,2875.251-3826.407,2875.188-3826.407,2875.087Zm12.94-15.9c-.054-.023-.15-.062-.245-.1-1.434-.656-2.864-1.317-4.3-1.962a1.235,1.235,0,0,0-.639-.13c-.5.069-.722.409-.723,1q0,6.42-.007,12.841a1.783,1.783,0,0,1-.149.806,2.768,2.768,0,0,0-.25,1.521c.016.277.015.554.018.832q.037,3.538.072,7.075c.029,3.223.061,6.446.067,9.668a1.6,1.6,0,0,1-.283.853,1.637,1.637,0,0,1-1.888.557,1.543,1.543,0,0,1-1.077-1.568q-.039-3.328-.067-6.658-.042-4.786-.076-9.573a.9.9,0,0,0-1-.984q-1.5,0-3.009,0c-.83,0-1.125.287-1.117,1.105q.05,5.536.107,11.073c.018,1.718.043,3.436.05,5.154a1.807,1.807,0,0,1-.131.714,1.656,1.656,0,0,1-1.844.889,1.509,1.509,0,0,1-1.277-1.533q-.055-4.258-.1-8.514c-.03-3.2-.05-6.4-.082-9.6a1.637,1.637,0,0,0-.116-.651,3.078,3.078,0,0,1-.281-1.331q.008-4.4,0-8.8c0-.982,0-1.964,0-2.946,0-.546-.254-.914-.746-.949a1.359,1.359,0,0,0-.764.232q-3.714,2.382-7.405,4.8a.687.687,0,0,1-.586.112c-.578-.14-1.164-.253-1.747-.377l-1-.211a3.961,3.961,0,0,1,1.59-2.052c3.5-2.007,7.012-4,10.511-6.018a2,2,0,0,0,.533-.566c.273-.365.485-.781.785-1.119a4.221,4.221,0,0,1,2.015-1.249c.071.457.11.894.211,1.316a11.85,11.85,0,0,0,2.064,4.111.85.85,0,0,0,1.489.006c.566-.9,1.1-1.822,1.583-2.769a6.124,6.124,0,0,0,.648-2.689,4.771,4.771,0,0,1,2.417,1.65,1.416,1.416,0,0,0,.482.4c1.369.641,2.748,1.263,4.123,1.893.859.394,1.716.792,2.514,1.16Zm-24.769,11.55c-.01.051-.029.155-.053.258q-.5,2.1-.992,4.19a.8.8,0,0,1-1.1.691l-9.488-2.144c-.778-.175-1.557-.345-2.335-.522a.693.693,0,0,1-.591-.96q.368-1.568.742-3.134c.118-.5.235-1,.333-1.418Zm28.323-8.793c-.833.063-1.281-.27-1.412-.955-.073-.387-.078-.79-.185-1.165a4.218,4.218,0,0,1,.05-2.392c.2-.689.27-.722.986-.808,1.775-.213,3.549-.444,5.323-.669.909-.115,1.816-.242,2.725-.344a1.132,1.132,0,0,1,1.379,1.033c.12.875.261,1.747.368,2.623a2.379,2.379,0,0,1-.009.968c-.156.494-.613.628-1.094.686-1.289.156-2.577.327-3.865.489Zm-27.318,4.57c-.128.543-.267,1.154-.417,1.764a.751.751,0,0,1-.98.6q-3.921-.879-7.84-1.758c-1.368-.309-2.737-.618-4.1-.937a.654.654,0,0,1-.568-.908c.106-.456.219-.911.319-1.367.167-.763.459-.951,1.222-.789q1.621.346,3.245.682c1.249.26,2.5.491,3.746.782,1.613.377,3.217.8,4.823,1.205A.7.7,0,0,1-3837.23,2866.513Zm26.293-2.843c.414,0,.8.031,1.176-.007.751-.075,1.5-.187,2.247-.285.781-.1,1.561-.208,2.343-.307,1.246-.159,2.495-.3,3.739-.477a12.18,12.18,0,0,0,1.192-.288c.019.14.033.288.06.435a1.05,1.05,0,0,1-.981,1.317q-2.09.256-4.179.523c-1.423.182-2.845.371-4.269.55a1.1,1.1,0,0,1-1.246-.924C-3810.889,2864.02-3810.913,2863.832-3810.937,2863.669Zm-14.667-8.709a6.758,6.758,0,0,1-1.233-3.639h2.481A7.228,7.228,0,0,1-3825.6,2854.96Z" transform="translate(5.345 -245.085)" fill="#00223d"/>
      <path id="Trazado_97063" data-name="Trazado 97063" d="M-3511.745,2591.525c-2.544-1.018-5.145-1.761-7.925-.617a6.041,6.041,0,0,0-2.706-2.073,6.382,6.382,0,0,0-4.917.053.559.559,0,0,1-.624-.056,6.315,6.315,0,0,0-9.614,3.167c-.116.384-.145.794-.236,1.187a.668.668,0,0,1-.2.355,5.58,5.58,0,0,0-2.33,5.211,5.693,5.693,0,0,0,3.52,4.749,6.172,6.172,0,0,0,2.474.566.569.569,0,0,1,.383.2,6.247,6.247,0,0,0,5.781,2.547,6.091,6.091,0,0,0,3.208-1.224.393.393,0,0,1,.43-.06,6.412,6.412,0,0,0,7.267-1.987,5.79,5.79,0,0,0,1.074-4.747,15.168,15.168,0,0,0,2.95-2.675c.041.289.056.527.11.755a7.716,7.716,0,0,0,3.5,5.161,7.068,7.068,0,0,0,10.392-4.276,7.075,7.075,0,0,0-5.373-8.728,6.744,6.744,0,0,0-5.518,1.171C-3510.657,2590.607-3511.177,2591.066-3511.745,2591.525Zm-.221,1.845c-.119.07-.19.117-.267.156a10.375,10.375,0,0,0-3.466,2.674,4.33,4.33,0,0,1-1.72,1.3.871.871,0,0,0-.564,1.243,3.939,3.939,0,0,1-1.2,4.341,4.619,4.619,0,0,1-5.144.645.926.926,0,0,0-1.293.2,4.642,4.642,0,0,1-7.088-1,1.108,1.108,0,0,0-1.151-.6,4.5,4.5,0,0,1-2.8-.712,4.006,4.006,0,0,1-1.867-4.2,3.947,3.947,0,0,1,1.929-2.7,1.085,1.085,0,0,0,.571-1.021,4.164,4.164,0,0,1,.177-1.256,4.606,4.606,0,0,1,7.429-1.818.945.945,0,0,0,1.217.161,8,8,0,0,1,1.542-.582,4.518,4.518,0,0,1,4.938,2.294.87.87,0,0,0,1.449.3,2.9,2.9,0,0,1,1.37-.647,7.652,7.652,0,0,1,2.984.14A11.606,11.606,0,0,1-3511.966,2593.371Zm1.8-.939c.392-.3.741-.6,1.112-.858a5.1,5.1,0,0,1,4-.879,5.367,5.367,0,0,1,4.313,5.872,5.425,5.425,0,0,1-4.4,4.655,5.034,5.034,0,0,1-3.511-.622,5.94,5.94,0,0,1-2.854-5.286.413.413,0,0,1,.184-.306c.485-.267.987-.5,1.477-.761a.86.86,0,0,0,.151-1.462C-3509.816,2592.676-3509.958,2592.582-3510.161,2592.431Z" transform="translate(-314.229)" fill="#00223d"/>
      <path id="Trazado_97072" data-name="Trazado 97072" d="M-3443.669,3000.863a.825.825,0,0,0,.876.849.863.863,0,0,0,.849-.861.907.907,0,0,0-.861-.866A.869.869,0,0,0-3443.669,3000.863Z" transform="translate(-377.455 -385.873)" fill="#00223d"/>
      <path id="Trazado_97073" data-name="Trazado 97073" d="M-3442.141,3092.86a.836.836,0,0,0,.856.876.848.848,0,0,0,.848-.859.879.879,0,0,0-.78-.859A.84.84,0,0,0-3442.141,3092.86Z" transform="translate(-379.062 -472.011)" fill="#00223d"/>
    </g>
  </g>
</svg>
