<svg xmlns="http://www.w3.org/2000/svg" xmlns:xlink="http://www.w3.org/1999/xlink" width="259.023" height="262.253" viewBox="0 0 259.023 262.253">
  <defs>
    <linearGradient id="linear-gradient" x1="0.5" x2="0.5" y2="1" gradientUnits="objectBoundingBox">
      <stop offset="0" stop-color="#fff"/>
      <stop offset="1" stop-color="#f1f7fa"/>
    </linearGradient>
    <clipPath id="clip-path">
      <path id="Trazado_26183" data-name="Trazado 26183" d="M476.548,180.075l-16.958.059a4.982,4.982,0,0,1-.625,6.022,3.878,3.878,0,0,1-4.066.938c-1.713-.851-2.573-3.9-.946-6.94-.3-.01-.725-.023-1.242-.037a39.937,39.937,0,0,0-6.458.064,6.985,6.985,0,0,0-4.105,1.718,5.813,5.813,0,0,0-1.434,2.387,5.9,5.9,0,0,0-.255,1.731c-.009,1.652.064,18.169.066,18.581a4.132,4.132,0,0,0-4.053,1.42,3.861,3.861,0,0,0,4.08,6.2s.124,35.38.128,36.268l35.868-.127Z" transform="translate(-435.557 -180.037)" fill="none"/>
    </clipPath>
    <clipPath id="clip-path-2">
      <path id="Trazado_26197" data-name="Trazado 26197" d="M435.071,165.3l10.105.671a4.26,4.26,0,0,0,1.524,4.74,3.886,3.886,0,0,0,4.026.277,4.026,4.026,0,0,0,1.831-4.527l6.174.41a25.81,25.81,0,0,0,1.05-6.032,29.241,29.241,0,1,0-47.726,20.659l-.788,11.871-.886,13.351a11.476,11.476,0,0,0,.078,2.3,11.325,11.325,0,0,0,.625,2.453,11.463,11.463,0,0,0,8.521,7.239,8.486,8.486,0,0,0,5.779,4.013c.436-7.9,1.328-24.593,1.336-25.038a3.466,3.466,0,0,1-3.753-1.251,3.422,3.422,0,0,1,.518-4.492,3.487,3.487,0,0,1,3.89-.428c.028-.5,1-14.335,1.459-20.759C431.154,166.727,433.376,165.184,435.071,165.3Z" transform="translate(-401.364 -129.655)" fill="none"/>
    </clipPath>
    <clipPath id="clip-path-3">
      <path id="Trazado_26215" data-name="Trazado 26215" d="M327.626,201.36c.632.8,3.125,2.2,3.76,3.854s-1.5,2.091-1.5,2.091c.315,2.62.647,5.768-.984,8.032-1.206,1.672-3.485,3.1-5.445,1.783.527,1.7,1.164,3.513,1.936,5.406a66.694,66.694,0,0,0,3.339,6.995,28.693,28.693,0,0,1-3.18.573,29.016,29.016,0,0,1-7.858-.12c-3.82-2.263-4.662-4.184-4.7-5.544-.059-2.257,2.1-3.249,2.705-5.991.629-2.85-.853-5.606-2.209-7.5a2.342,2.342,0,0,1-2.4.023c-.933-.725-1.845-2.417-.983-3.438a2.467,2.467,0,0,1,2.924-.692c.837-1.335,2.662-3.474,1.742-7.089,2.712-.548,9.751-3.836,10.995-6.79C325.892,193.427,326.995,200.558,327.626,201.36Z" transform="translate(-309.766 -192.958)" fill="#d08b73"/>
    </clipPath>
    <clipPath id="clip-path-4">
      <path id="Trazado_26225" data-name="Trazado 26225" d="M320.643,232.87a33.141,33.141,0,0,1,11.115,13.9q.064-8.243.127-16.487l-4.123-5.992,1.994-6.712,6.265,1.006,3.179,5.37q-.734,3.3-1.467,6.6c.387,3.813.91,9.181,1.477,15.692.491,5.634.911,11.1-1.665,12.808a7.637,7.637,0,0,1-3.407,1.122,7.8,7.8,0,0,1-2.777-.459c-2.341-.859-10.022-7.861-19.632-18.158Z" transform="translate(-311.73 -217.579)" fill="#d08b73"/>
    </clipPath>
    <clipPath id="clip-path-5">
      <path id="Trazado_26257" data-name="Trazado 26257" d="M498.525,296.165s.025,29.109,1.069,34.3,14.7,31.448,14.7,31.448l2.661,3.849,6.59-3.849a125.331,125.331,0,0,0-4.175-18.288c-2.692-8.064-6.833-11.56-6.157-14.691s1.944-15.722,1.082-23.8-2.921-17.439-2.921-17.439l-13.879.263Z" transform="translate(-497.492 -287.689)" fill="url(#linear-gradient)"/>
    </clipPath>
    <clipPath id="clip-path-6">
      <path id="Trazado_26265" data-name="Trazado 26265" d="M507.544,218.816c-.289.767-.7,1.954-.867,2.242s-2.689,1.9-3.1,2.591,1.212,1.217,1.212,1.217c-.044-.019-.989,3.382-1.014,3.721a4.671,4.671,0,0,0,2.255,3.9,4.8,4.8,0,0,0,4.873,0c-.379,1.383-.78,2.759-1.178,4.137l6.821,2.478s.309-4.936,1.007-6.562,2.252-5.864,2.252-5.864a1.762,1.762,0,0,0,1.4-.447c.738-.6,1.116-2.529-.083-2.99a1.645,1.645,0,0,0-2.2.825c-.888-.118-1.639-2.236-1.923-2.908-.889-2.109-.354-4.162.079-6.3-.047.23-1.354.679-1.571.855a5.523,5.523,0,0,0-1.443,2.619,14.043,14.043,0,0,0-.358,1.466c-.2,1.048.057,1.622-1.234,1.23A26.113,26.113,0,0,1,507.544,218.816Z" transform="translate(-503.514 -214.86)" fill="#d08b73"/>
    </clipPath>
  </defs>
  <g id="OBJECTS" transform="translate(-146.471)">
    <g id="Grupo_15980" data-name="Grupo 15980" transform="translate(148.982)">
      <g id="Grupo_15935" data-name="Grupo 15935" transform="translate(17.654)">
        <rect id="Rectángulo_4007" data-name="Rectángulo 4007" width="208.045" height="149.643" rx="13.667" fill="#00223d"/>
        <rect id="Rectángulo_4008" data-name="Rectángulo 4008" width="198.518" height="143.076" rx="13.667" transform="translate(4.764 3.283)" fill="#fefefe"/>
        <g id="Grupo_15927" data-name="Grupo 15927" transform="translate(102.067 60.655)">
          <g id="Grupo_15926" data-name="Grupo 15926" clip-path="url(#clip-path)">
            <g id="Grupo_15925" data-name="Grupo 15925" transform="translate(-35.511 -47.28)">
              <path id="Trazado_26169" data-name="Trazado 26169" d="M442.054,245.7h-1.637a7.673,7.673,0,0,1-7.7-7.645v-.884h17.019v.791A7.709,7.709,0,0,1,442.054,245.7Z" transform="translate(-399.673 -140.252)" fill="#00223d"/>
              <circle id="Elipse_1068" data-name="Elipse 1068" cx="29.241" cy="29.241" r="29.241" transform="translate(0 41.353) rotate(-45)" fill="#fabb49"/>
              <path id="Trazado_26170" data-name="Trazado 26170" d="M456.9,219.292H422.88v-33h33.908Z" transform="translate(-398.383 -133.577)" fill="#fabb49"/>
              <g id="Grupo_15923" data-name="Grupo 15923" transform="translate(34.03 38.479)">
                <path id="Trazado_26171" data-name="Trazado 26171" d="M434.982,208.915h-.961V173.243h.835Z" transform="translate(-433.874 -170.344)" fill="#282e5b"/>
                <path id="Trazado_26172" data-name="Trazado 26172" d="M450.686,208.769h-.961V172.5h.833Z" transform="translate(-435.935 -170.247)" fill="#282e5b"/>
                <path id="Trazado_26173" data-name="Trazado 26173" d="M438.717,174.4h-.03c-.681-.019-.977-.74-1.263-1.438-.268-.651-.57-1.389-1.089-1.507a1.327,1.327,0,0,0-1.143.43,1.565,1.565,0,0,0-.362,1.258l-.948.156a2.522,2.522,0,0,1,.613-2.076,2.273,2.273,0,0,1,2.054-.705c1.006.229,1.427,1.255,1.765,2.08a2.925,2.925,0,0,0,.439.851,5.387,5.387,0,0,0,.639-1.167c.408-.879.832-1.789,1.634-1.792h0c.767,0,1.161.829,1.541,1.631.163.345.467.986.639,1.045a4.069,4.069,0,0,0,.491-.974c.375-.9.843-2.01,1.912-2.238a2.532,2.532,0,0,1,2.535,1.2,2.6,2.6,0,0,1,.33,1.675l-.952-.126a1.645,1.645,0,0,0-.2-1.049,1.6,1.6,0,0,0-1.513-.758c-.578.124-.923.945-1.226,1.671-.334.8-.65,1.551-1.376,1.562H443.2c-.742,0-1.126-.809-1.5-1.593-.16-.337-.493-1.038-.672-1.082-.188,0-.606.9-.763,1.237C439.872,173.523,439.467,174.393,438.717,174.4Z" transform="translate(-433.852 -169.907)" fill="#282e5b"/>
              </g>
              <g id="Grupo_15924" data-name="Grupo 15924" transform="translate(24.466 77.025)">
                <path id="Trazado_26174" data-name="Trazado 26174" d="M456.91,229.109l-34.026-4.876v2.379l33.745,4.834A11.5,11.5,0,0,0,456.91,229.109Z" transform="translate(-422.85 -215.58)" fill="#bec6c4"/>
                <path id="Trazado_26175" data-name="Trazado 26175" d="M456.908,223.736l-34.043-4.878v2.379l34.043,4.878Z" transform="translate(-422.847 -214.875)" fill="#bec6c4"/>
                <path id="Trazado_26176" data-name="Trazado 26176" d="M456.87,214.273H422.844v1.692l34.025,4.878Z" transform="translate(-422.844 -214.273)" fill="#bec6c4"/>
                <path id="Trazado_26177" data-name="Trazado 26177" d="M455.9,234.335l-33-4.728v.118a11.58,11.58,0,0,0,.239,2.294l31.457,4.507A11.465,11.465,0,0,0,455.9,234.335Z" transform="translate(-422.852 -216.285)" fill="#bec6c4"/>
                <path id="Trazado_26178" data-name="Trazado 26178" d="M424.088,235.15a11.434,11.434,0,0,0,10.465,6.7h11.072a11.46,11.46,0,0,0,7.189-2.585Z" transform="translate(-423.008 -217.012)" fill="#bec6c4"/>
                <path id="Trazado_26179" data-name="Trazado 26179" d="M456.87,221.1l-34.025-4.878.018,2.291,34.043,4.878Z" transform="translate(-422.844 -214.529)" fill="#eeeff0"/>
                <path id="Trazado_26180" data-name="Trazado 26180" d="M456.908,228.517v-2.043L422.865,221.6l.016,2.291,34.026,4.876C456.909,228.68,456.909,228.6,456.908,228.517Z" transform="translate(-422.847 -215.234)" fill="#eeeff0"/>
                <path id="Trazado_26181" data-name="Trazado 26181" d="M456.63,231.805l-33.745-4.834.012,2.29,33,4.728A11.421,11.421,0,0,0,456.63,231.805Z" transform="translate(-422.85 -215.939)" fill="#eeeff0"/>
                <path id="Trazado_26182" data-name="Trazado 26182" d="M454.63,236.89l-31.457-4.507a11.359,11.359,0,0,0,.795,2.4l28.726,4.116A11.534,11.534,0,0,0,454.63,236.89Z" transform="translate(-422.888 -216.649)" fill="#eeeff0"/>
              </g>
            </g>
          </g>
        </g>
        <g id="Grupo_15930" data-name="Grupo 15930" transform="translate(72.359 16.882)">
          <g id="Grupo_15929" data-name="Grupo 15929" clip-path="url(#clip-path-2)">
            <g id="Grupo_15928" data-name="Grupo 15928" transform="translate(0 0.001)">
              <path id="Trazado_26184" data-name="Trazado 26184" d="M423.809,232.355a11.653,11.653,0,0,1-1.449-.2,8.5,8.5,0,0,0,13.984.921,11.634,11.634,0,0,1-1.487.008Z" transform="translate(-404.118 -143.103)" fill="#00223d"/>
              <path id="Trazado_26185" data-name="Trazado 26185" d="M459.782,160.835a29.241,29.241,0,1,0-47.726,20.659l-.788,11.871,9.689.643,2.334-35.158a2.492,2.492,0,0,1,.759-1.977,2.271,2.271,0,0,1,2.1-.56c.987.3,1.336,1.352,1.616,2.2a2.912,2.912,0,0,0,.379.879,5.443,5.443,0,0,0,.718-1.12c.469-.849.956-1.727,1.755-1.674h0c.766.052,1.1.907,1.425,1.734.138.355.4,1.016.564,1.088a4.087,4.087,0,0,0,.558-.937c.437-.867.981-1.946,2.063-2.1a2.533,2.533,0,0,1,2.445,1.371,2.562,2.562,0,0,1,.222,1.633l-2.363,35.591,9.689.643.788-11.871A29.2,29.2,0,0,0,459.782,160.835Z" transform="translate(-401.364 -129.656)" fill="#fabb49"/>
              <path id="Trazado_26186" data-name="Trazado 26186" d="M440.074,162.918a1.471,1.471,0,0,0-.154-.566,1.6,1.6,0,0,0-1.457-.861c-.586.083-.986.879-1.34,1.581-.389.772-.756,1.5-1.482,1.462h-.01c-.74-.05-1.067-.885-1.383-1.693-.135-.348-.419-1.071-.6-1.127-.187-.011-.666.855-.847,1.181-.447.812-.911,1.652-1.66,1.6l-.03,0c-.679-.056-.924-.807-1.161-1.522-.221-.668-.472-1.426-.982-1.58a1.329,1.329,0,0,0-1.17.35,1.438,1.438,0,0,0-.438.895h.017l-2.363,35.593,12.655.84Z" transform="translate(-404.467 -133.815)" fill="#fabb49"/>
              <path id="Trazado_26187" data-name="Trazado 26187" d="M427.237,162.491h-.017a1.438,1.438,0,0,1,.438-.895,1.329,1.329,0,0,1,1.17-.35c.51.155.761.912.982,1.58.236.715.481,1.467,1.161,1.522l.03,0c.749.049,1.213-.79,1.66-1.6.181-.326.66-1.192.847-1.181.177.056.46.778.6,1.127.316.808.643,1.644,1.383,1.693h.01c.726.039,1.093-.69,1.482-1.462.354-.7.754-1.5,1.34-1.581a1.6,1.6,0,0,1,1.457.861,1.471,1.471,0,0,1,.154.566l-2.4,36.152.959.064,2.363-35.591a2.561,2.561,0,0,0-.222-1.633,2.533,2.533,0,0,0-2.445-1.371c-1.083.154-1.626,1.233-2.063,2.1a4.084,4.084,0,0,1-.558.937c-.167-.072-.426-.732-.564-1.088-.324-.827-.659-1.682-1.425-1.734h0c-.8-.053-1.286.825-1.755,1.674a5.445,5.445,0,0,1-.718,1.12,2.91,2.91,0,0,1-.379-.879c-.28-.846-.629-1.9-1.616-2.2a2.271,2.271,0,0,0-2.1.56,2.492,2.492,0,0,0-.759,1.977l-2.334,35.158.958.063Z" transform="translate(-404.323 -133.669)" fill="#282e5b"/>
              <path id="Trazado_26188" data-name="Trazado 26188" d="M412.084,212.854l-.158,2.374,33.321,7.176a11.479,11.479,0,0,0,.444-2.312Z" transform="translate(-402.75 -140.571)" fill="#bec6c4"/>
              <path id="Trazado_26189" data-name="Trazado 26189" d="M412.44,207.491l-.158,2.374,33.62,7.24.158-2.374Z" transform="translate(-402.796 -139.867)" fill="#bec6c4"/>
              <path id="Trazado_26190" data-name="Trazado 26190" d="M436.049,204.532l-23.3-1.547-.108,1.629,33.62,7.24.439-6.616Z" transform="translate(-402.843 -139.276)" fill="#bec6c4"/>
              <path id="Trazado_26191" data-name="Trazado 26191" d="M411.739,218.334a11.474,11.474,0,0,0,.078,2.3l31.065,6.69a11.5,11.5,0,0,0,1.453-2.094l-32.589-7.018Z" transform="translate(-402.722 -141.274)" fill="#bec6c4"/>
              <path id="Trazado_26192" data-name="Trazado 26192" d="M412.552,223.828a11.462,11.462,0,0,0,8.521,7.239,11.651,11.651,0,0,0,1.449.2L433.57,232a11.628,11.628,0,0,0,1.487-.008,11.44,11.44,0,0,0,5.864-2.05Z" transform="translate(-402.832 -142.01)" fill="#bec6c4"/>
              <path id="Trazado_26193" data-name="Trazado 26193" d="M412.616,204.86l-.152,2.286,33.62,7.24.152-2.286Z" transform="translate(-402.82 -139.522)" fill="#eeeff0"/>
              <path id="Trazado_26194" data-name="Trazado 26194" d="M412.259,210.223l-.151,2.286,33.607,7.237c.007-.082.023-.162.029-.244l.136-2.039Z" transform="translate(-402.773 -140.225)" fill="#eeeff0"/>
              <path id="Trazado_26195" data-name="Trazado 26195" d="M411.752,217.872l32.589,7.018a11.356,11.356,0,0,0,.884-2.129L411.9,215.586Z" transform="translate(-402.727 -140.929)" fill="#eeeff0"/>
              <path id="Trazado_26196" data-name="Trazado 26196" d="M412.458,223.458l28.369,6.109a11.516,11.516,0,0,0,2.071-1.872l-31.065-6.69A11.327,11.327,0,0,0,412.458,223.458Z" transform="translate(-402.737 -141.64)" fill="#eeeff0"/>
            </g>
          </g>
        </g>
        <path id="Trazado_26198" data-name="Trazado 26198" d="M491.2,142.877a21.6,21.6,0,1,1,0,43.2" transform="translate(-340.791 -114.507)" fill="none" stroke="#282e5b" stroke-linecap="round" stroke-linejoin="round" stroke-width="1.772"/>
        <g id="Grupo_15931" data-name="Grupo 15931" transform="translate(19.314 22.662)">
          <line id="Línea_467" data-name="Línea 467" x2="39.32" fill="none" stroke="#baccc6" stroke-linecap="round" stroke-linejoin="round" stroke-width="2.359"/>
          <line id="Línea_468" data-name="Línea 468" x2="39.32" transform="translate(0 5.708)" fill="none" stroke="#baccc6" stroke-linecap="round" stroke-linejoin="round" stroke-width="2.359"/>
          <line id="Línea_469" data-name="Línea 469" x2="39.32" transform="translate(0 11.415)" fill="none" stroke="#baccc6" stroke-linecap="round" stroke-linejoin="round" stroke-width="2.359"/>
          <line id="Línea_470" data-name="Línea 470" x2="39.32" transform="translate(0 17.123)" fill="none" stroke="#baccc6" stroke-linecap="round" stroke-linejoin="round" stroke-width="2.359"/>
          <line id="Línea_471" data-name="Línea 471" x2="15.249" transform="translate(0 22.831)" fill="none" stroke="#baccc6" stroke-linecap="round" stroke-linejoin="round" stroke-width="2.359"/>
        </g>
        <g id="Grupo_15932" data-name="Grupo 15932" transform="translate(55.81 99.875)">
          <path id="Trazado_26199" data-name="Trazado 26199" d="M390.619,238.452h5.252a7.177,7.177,0,0,0,.169-1.538V225.18H382.315v18.928h6.531a7.187,7.187,0,0,0,1.773-.229Z" transform="translate(-382.315 -225.18)" fill="#7d6eb2"/>
          <path id="Trazado_26200" data-name="Trazado 26200" d="M391.873,245.883a7.2,7.2,0,0,0,5.252-5.427h-5.252Z" transform="translate(-383.569 -227.184)" fill="#675b95"/>
        </g>
        <g id="Grupo_15933" data-name="Grupo 15933" transform="translate(62.504 76.307)">
          <path id="Trazado_26201" data-name="Trazado 26201" d="M398.323,211.325h5.253a7.232,7.232,0,0,0,.169-1.539V198.053H390.02V216.98h6.53a7.188,7.188,0,0,0,1.773-.228Z" transform="translate(-390.02 -198.053)" fill="#8ec8c8"/>
          <path id="Trazado_26202" data-name="Trazado 26202" d="M399.577,218.756a7.2,7.2,0,0,0,5.253-5.427h-5.253Z" transform="translate(-391.274 -200.057)" fill="#5e9b9b"/>
        </g>
        <g id="Grupo_15934" data-name="Grupo 15934" transform="translate(71.265 113.147)">
          <path id="Trazado_26203" data-name="Trazado 26203" d="M410.069,256.384h6.3a8.673,8.673,0,0,0,.2-1.846V240.456H400.1v22.715h7.838a8.592,8.592,0,0,0,2.128-.275Z" transform="translate(-400.104 -240.456)" fill="#dbdada"/>
          <path id="Trazado_26204" data-name="Trazado 26204" d="M411.574,265.3a8.635,8.635,0,0,0,6.3-6.512h-6.3Z" transform="translate(-401.609 -242.861)" fill="#b5b1b1"/>
        </g>
      </g>
      <g id="Grupo_15977" data-name="Grupo 15977" transform="translate(4.604 61.073)">
        <g id="Grupo_15949" data-name="Grupo 15949">
          <g id="Grupo_15941" data-name="Grupo 15941" transform="translate(13.16 90.797)">
            <path id="Trazado_26208" data-name="Trazado 26208" d="M326.712,386.354l9.406-1.268a18.826,18.826,0,0,0,2.334,8.061c4.779,8.34,15.216,9.566,14.878,11.539-.133.772-1.522,1.718-6.429,1.184-1.592-.173-6.367-.572-7.756-2.337s-4.18-1.353-4.18-1.353l.246,3.4-7.457-.533C327.6,402.85,326.872,390.313,326.712,386.354Z" transform="translate(-319.322 -298.153)" fill="#99c3b4"/>
            <path id="Trazado_26209" data-name="Trazado 26209" d="M338.381,288.73c1.149,21.639.229,35.385-.931,44.161a194.447,194.447,0,0,0-1.816,31.727c.045,1.836.547,8.335.594,9.351-3.279.224-9.484,1.376-12.763,1.6-2.967-9.5-1.353-23.25-1.58-28.783-.214-5.182.237-6.008.013-16.341-.215-9.929-.323-14.893-1.246-18.068-.835-2.871-2.2-6.248-2.417-11.5a26.972,26.972,0,0,1,.316-5.825,22.955,22.955,0,0,1,4.519-10.023c1.717.215,3.525.507,5.411.9A70.627,70.627,0,0,1,338.381,288.73Z" transform="translate(-318.206 -285.026)" fill="#031d31"/>
          </g>
          <g id="Grupo_15942" data-name="Grupo 15942" transform="translate(4.439 89.684)">
            <path id="Trazado_26210" data-name="Trazado 26210" d="M317.062,386.354l9.406-1.268a18.81,18.81,0,0,0,2.333,8.061c4.779,8.34,15.217,9.566,14.878,11.539-.133.772-1.522,1.718-6.428,1.184-1.592-.173-6.367-.572-7.757-2.337s-4.179-1.353-4.179-1.353l.246,3.4-7.457-.533C317.947,402.85,317.222,390.313,317.062,386.354Z" transform="translate(-309.334 -297.04)" fill="#d5f2e8"/>
            <path id="Trazado_26211" data-name="Trazado 26211" d="M329.762,288.562c1.149,21.639.228,35.385-.931,44.161a194.339,194.339,0,0,0-1.816,31.727c.045,1.836.546,8.335.593,9.351-3.278.224-9.483,1.376-12.762,1.6-2.968-9.5-1.353-23.25-1.58-28.783-.214-5.182.236-6.008.013-16.341-.186-8.579-.229-12.871-1.247-18.068-1.188-6.063-2.231-6.115-3.185-11.746a49.416,49.416,0,0,1-.433-13.13q.358-1.783.718-3.565l4.3-.023a60.789,60.789,0,0,0,6.431,2.009A70.659,70.659,0,0,1,329.762,288.562Z" transform="translate(-308.167 -283.745)" fill="#00223d"/>
          </g>
          <g id="Grupo_15946" data-name="Grupo 15946">
            <path id="Trazado_26212" data-name="Trazado 26212" d="M306.468,193.984s-1.493-2.507-1.1-3.891,2.5-3.629,5.361-4.143,9.226.966,10.5-1.176.775-3.885-.178-3.429c.258-1.295,4.061-1.336,5.3,1.842a10.8,10.8,0,0,1-.626,9.585c-1.67,3.1-8.233,5.036-10.919,5.613-.023.753-.558,7.892-.558,7.892l.222,7.8a3.775,3.775,0,0,1-3.556,2.829c-3.04.239-7.43-9.869-7.809-16.4S304.834,193.866,306.468,193.984Z" transform="translate(-303.058 -180.519)" fill="#00223d"/>
            <g id="Grupo_15945" data-name="Grupo 15945" transform="translate(5.828 10.807)">
              <path id="Trazado_26213" data-name="Trazado 26213" d="M327.626,201.36c.632.8,3.125,2.2,3.76,3.854s-1.5,2.091-1.5,2.091c.315,2.62.647,5.768-.984,8.032-1.206,1.672-3.485,3.1-5.445,1.783.527,1.7,1.164,3.513,1.936,5.406a66.694,66.694,0,0,0,3.339,6.995,28.693,28.693,0,0,1-3.18.573,29.016,29.016,0,0,1-7.858-.12c-3.82-2.263-4.662-4.184-4.7-5.544-.059-2.257,2.1-3.249,2.705-5.991.629-2.85-.853-5.606-2.209-7.5a2.342,2.342,0,0,1-2.4.023c-.933-.725-1.845-2.417-.983-3.438a2.467,2.467,0,0,1,2.924-.692c.837-1.335,2.662-3.474,1.742-7.089,2.712-.548,9.751-3.836,10.995-6.79C325.892,193.427,326.995,200.558,327.626,201.36Z" transform="translate(-309.766 -192.958)" fill="#d08b73"/>
              <g id="Grupo_15944" data-name="Grupo 15944" clip-path="url(#clip-path-3)">
                <g id="Grupo_15943" data-name="Grupo 15943" transform="translate(5.762 17.497)" opacity="0.5" style="mix-blend-mode: multiply;isolation: isolate">
                  <path id="Trazado_26214" data-name="Trazado 26214" d="M316.414,213.1a4.1,4.1,0,0,0,.833,1.863,15.9,15.9,0,0,0,3.291,3.654,13.051,13.051,0,0,0,4.3,2.417,3.611,3.611,0,0,0,2.033.239,14.434,14.434,0,0,0-1.857-.723,16.953,16.953,0,0,1-4.012-2.5,22.674,22.674,0,0,1-3.333-3.39C316.905,213.709,316.515,213.051,316.414,213.1Z" transform="translate(-316.398 -213.097)" fill="#bc6c56"/>
                </g>
              </g>
            </g>
            <path id="Trazado_26216" data-name="Trazado 26216" d="M313.073,211.753c-.018-.1-.205-.149-.442-.248a2.384,2.384,0,0,1-.382-.2c-.153-.1-.2-.158-.2-.214a2.919,2.919,0,0,1-.007-.465.251.251,0,0,1,.124-.208c.189-.132.4-.219.381-.323s-.181-.208-.558-.161a.77.77,0,0,0-.588.492,1.4,1.4,0,0,0-.077.389,1.568,1.568,0,0,0,.009.408.825.825,0,0,0,.272.477,1.208,1.208,0,0,0,.352.207,1.461,1.461,0,0,0,.607.1C312.915,211.992,313.093,211.846,313.073,211.753Z" transform="translate(-304.141 -184.377)" fill="#bc6c56"/>
          </g>
          <path id="Trazado_26217" data-name="Trazado 26217" d="M315.274,220.258a68.58,68.58,0,0,0-4.94,10.5c-3.8,10.245-4.218,18.961-4.7,30.816-.19,4.714-.289,11.136.084,18.8.012.249,2.656.811,2.942.882l4.594,1.123a15,15,0,0,1,3.132.766l3.315.811a22.654,22.654,0,0,0,5.844.535,38.744,38.744,0,0,0,12.83-2.335c-.408,0-.8-11.22-.813-12.1-.021-1.407,0-1.834-.026-3.01a83.276,83.276,0,0,0-1.46-13.387c-1.425-7.863-2.136-11.794-4.321-16.338a40.4,40.4,0,0,0-6.022-9.1,7.466,7.466,0,0,1-4.663.281C317.913,227.6,315.571,224.315,315.274,220.258Z" transform="translate(-303.375 -185.732)" fill="#d5f2e8"/>
          <path id="Trazado_26218" data-name="Trazado 26218" d="M339.319,269.052v4.914l-12.3-6.494-3.088,1.538h-5.005v-5.327l4.266,2.55,3.409-1.464Z" transform="translate(-305.14 -191.429)" fill="#99c3b4"/>
          <path id="Trazado_26219" data-name="Trazado 26219" d="M323.887,255.39l-4.964,3.724.93,4.189h4.81l1.862-2.172,11.947,4.654c1.533.372,3.784.476,5.094-1.241,1.459-1.914.609-5.195-.594-7.293-3.261-5.687-1.929-16.672-7.758-28.394-.931,1.862-1.194,3.931-2.124,5.792,2.534,6.361-1.186,15.619,1.348,21.981Z" transform="translate(-305.14 -186.86)" fill="#d08b73"/>
          <path id="Trazado_26220" data-name="Trazado 26220" d="M339.062,264.034a6.419,6.419,0,0,1-3.857,1.08,7.767,7.767,0,0,1-2.891-.455,5.23,5.23,0,0,1-2.129-1.709c-.593-.689-1.286-1.325-1.91-1.994l-2.566-2.779c-.733.714-1.614,1.265-2.355,1.977.391-.374,3.824,2.494,4.219,2.786l2.875,2.124a6.094,6.094,0,0,0,2.53,1.485,8.873,8.873,0,0,0,5.98-.7c.981-.556,1.529-2.238,1.827-3.259a9.65,9.65,0,0,0,.271-4.257,12.461,12.461,0,0,1-.3,2.942,5.108,5.108,0,0,1-1.433,2.546C339.239,263.893,339.152,263.965,339.062,264.034Z" transform="translate(-305.721 -190.707)" fill="#bc6c56"/>
          <path id="Trazado_26221" data-name="Trazado 26221" d="M321.533,257.712s-7.4-4.058-9.591-6.692-2.9-10.467-2.215-11.393,12.722,10.82,12.722,10.82l2.909,4.464Z" transform="translate(-303.9 -188.266)" fill="#99c3b4"/>
          <path id="Trazado_26222" data-name="Trazado 26222" d="M325.867,236.473c1.991,1.778,4.354,3.335,6.094,5.361a5.95,5.95,0,0,1,1.214,3.693c.08,1.415.2,2.813.315,4.227L324.9,238.819Z" transform="translate(-305.924 -187.859)" fill="#99c3b4"/>
          <g id="Grupo_15948" data-name="Grupo 15948" transform="translate(7.534 32.198)">
            <path id="Trazado_26223" data-name="Trazado 26223" d="M320.643,232.87a33.141,33.141,0,0,1,11.115,13.9q.064-8.243.127-16.487l-4.123-5.992,1.994-6.712,6.265,1.006,3.179,5.37q-.734,3.3-1.467,6.6c.387,3.813.91,9.181,1.477,15.692.491,5.634.911,11.1-1.665,12.808a7.637,7.637,0,0,1-3.407,1.122,7.8,7.8,0,0,1-2.777-.459c-2.341-.859-10.022-7.861-19.632-18.158Z" transform="translate(-311.73 -217.579)" fill="#d08b73"/>
            <g id="Grupo_15947" data-name="Grupo 15947" clip-path="url(#clip-path-4)">
              <path id="Trazado_26224" data-name="Trazado 26224" d="M332.209,246.208l-9.136,9.217,1.357,1.375,8.4-8.5Z" transform="translate(-313.218 -221.335)" fill="#bc6c56"/>
            </g>
          </g>
          <path id="Trazado_26226" data-name="Trazado 26226" d="M321.312,255.111l9.573-9.981c-2.175-5-15.3-21.384-20.421-10.038C305.5,246.1,319.037,253.456,321.312,255.111Z" transform="translate(-303.887 -187.164)" fill="#bfdbd1"/>
        </g>
        <g id="Grupo_15976" data-name="Grupo 15976" transform="translate(119.93 24.657)">
          <path id="Trazado_26249" data-name="Trazado 26249" d="M486.651,288.028s-8.12,37.028-9.447,42.533-7.042,34.6-7.042,34.6l7.895,2.608s6.935-14.872,7.687-18.472-.392-11.688,1.568-14.955,10.568-21.426,10.568-21.426l-.581-25.23Z" transform="translate(-444.911 -219.236)" fill="#00223d"/>
          <g id="Grupo_15969" data-name="Grupo 15969" transform="translate(48.996 68.453)">
            <path id="Trazado_26250" data-name="Trazado 26250" d="M498.525,296.165s.025,29.109,1.069,34.3,14.7,31.448,14.7,31.448l2.661,3.849,6.59-3.849a125.331,125.331,0,0,0-4.175-18.288c-2.692-8.064-6.833-11.56-6.157-14.691s1.944-15.722,1.082-23.8-2.921-17.439-2.921-17.439l-13.879.263Z" transform="translate(-497.492 -287.689)" fill="#00223d"/>
            <g id="Grupo_15968" data-name="Grupo 15968" clip-path="url(#clip-path-5)">
              <path id="Trazado_26251" data-name="Trazado 26251" d="M523.94,358.855s-3.2-12.1-4.339-14.617-6.852-12.334-6.852-14.389,1.827-10.963,1.827-15.53-4.179-20.332-4.179-20.332" transform="translate(-499.185 -288.515)" fill="none" stroke="#fff" stroke-miterlimit="10" stroke-width="0.516"/>
              <g id="Grupo_15963" data-name="Grupo 15963" transform="translate(6.23 5.791)">
                <path id="Trazado_26252" data-name="Trazado 26252" d="M504.8,294.354a1.666,1.666,0,0,0-.1.574,4.893,4.893,0,0,0,.053,1.593c.125.646.195,1.437.415,2.308a10.038,10.038,0,0,0,1.083,2.692,7.42,7.42,0,0,0,4.017,3.3,6.542,6.542,0,0,0,1.56.329,1.445,1.445,0,0,0,.584-.015,19.768,19.768,0,0,1-2.05-.57,7.6,7.6,0,0,1-3.779-3.243,10.5,10.5,0,0,1-1.069-2.586c-.232-.83-.331-1.62-.493-2.271a5.854,5.854,0,0,1-.169-1.534A1.764,1.764,0,0,0,504.8,294.354Z" transform="translate(-504.663 -294.354)" fill="#fff"/>
              </g>
              <g id="Grupo_15964" data-name="Grupo 15964" transform="translate(-2.748 5.303)">
                <path id="Trazado_26253" data-name="Trazado 26253" d="M494.333,293.832c-.019-.01.016.288.42.489a3.9,3.9,0,0,0,1.734.185c1.453-.021,3.461-.076,5.679-.16s4.223-.182,5.674-.273a14.2,14.2,0,0,0,2.342-.226,14.327,14.327,0,0,0-2.358-.046c-1.453.02-3.459.075-5.672.16s-4.218.182-5.669.272a4.344,4.344,0,0,1-1.671-.05C494.446,294.053,494.365,293.81,494.333,293.832Z" transform="translate(-494.329 -293.792)" fill="#fff"/>
              </g>
              <g id="Grupo_15965" data-name="Grupo 15965" transform="translate(-4.765 2.784)">
                <path id="Trazado_26254" data-name="Trazado 26254" d="M492.007,291.566a19.156,19.156,0,0,0,2.663-.016l6.417-.2,6.418-.166a19.2,19.2,0,0,0,2.659-.139,2.613,2.613,0,0,0-.713-.076c-.46-.024-1.125-.044-1.948-.057-1.645-.026-3.918-.018-6.427.054s-4.779.2-6.42.317c-.82.061-1.483.119-1.941.17A2.562,2.562,0,0,0,492.007,291.566Z" transform="translate(-492.007 -290.893)" fill="#fff"/>
              </g>
              <g id="Grupo_15966" data-name="Grupo 15966" transform="translate(8.313 2.62)">
                <path id="Trazado_26255" data-name="Trazado 26255" d="M507.19,290.7a6.617,6.617,0,0,0,.156,3.17,3.379,3.379,0,0,0,.115-1.6C507.416,291.4,507.3,290.692,507.19,290.7Z" transform="translate(-507.06 -290.705)" fill="#fff"/>
              </g>
              <g id="Grupo_15967" data-name="Grupo 15967" transform="translate(3.749 1.852)">
                <path id="Trazado_26256" data-name="Trazado 26256" d="M501.922,289.821a11.082,11.082,0,0,0,.208,4.109,11.081,11.081,0,0,0-.208-4.109Z" transform="translate(-501.807 -289.821)" fill="#fff"/>
              </g>
            </g>
          </g>
          <path id="Trazado_26258" data-name="Trazado 26258" d="M524.6,363.655l-12.741,7.274s4.993,13.3,4.906,17.675c-.136,6.863-12.157,7-11.129,12.736.151.844,5.442.1,9.419.457s7.007-1.365,7.368-3.712,3.517-3.6,3.517-3.6l1.108,4.453,4.084-2.117Z" transform="translate(-449.557 -229.202)" fill="#7d6eb2"/>
          <path id="Trazado_26259" data-name="Trazado 26259" d="M478.221,373.073,463.814,368.2s-2.214,17.666-5.632,20.393c-7.422,5.923-18.043,7.179-17.015,11.4.2.832,1.908,1.925,7.709,1.656,1.881-.088,7.533-.222,9.082-2.021s4.889-1.189,4.889-1.189l-.1,3.609,8.831-.115C471.318,394.153,474.881,384.036,478.221,373.073Z" transform="translate(-441.098 -229.798)" fill="#7d6eb2"/>
          <g id="Grupo_15974" data-name="Grupo 15974" transform="translate(54.228 0.725)">
            <path id="Trazado_26260" data-name="Trazado 26260" d="M513.536,221.38c-1.406-.651-6.161-2.069-6.434-3.693a2.528,2.528,0,0,1,.188-1.245c2.884-8.088,14.372-8.063,20.489-4.133a7.713,7.713,0,0,0,6,1.4c2.315-.4,4.5-1.406,6.837-1.681,5.237-.619,10.749,3.011,12.619,7.866,2.385,6.191-2.052,11.153-2.548,17.18a11.872,11.872,0,0,0,.581,5.626c.526,1.217.832,1.517-.724,1.872a10.293,10.293,0,0,1-3.2.043,10.642,10.642,0,0,1-4.772-1.291c-2.624-1.661-2.516-4.363-2.9-7.064-.541-3.781-.936-7.582-1.487-11.363-.277-1.9-2.141-6.947-4.3-7.211-2.546-.258-2.306.393-2.306.393.6,1.609.11,4.969-.224,6.606a14.492,14.492,0,0,1-12.456,11.551c-2.354.269-5.134-1.378-7.368-2.17l3.314-8.626Z" transform="translate(-503.982 -209.734)" fill="#00223d"/>
            <g id="Grupo_15971" data-name="Grupo 15971" transform="translate(0 4.453)">
              <path id="Trazado_26261" data-name="Trazado 26261" d="M507.544,218.816c-.289.767-.7,1.954-.867,2.242s-2.689,1.9-3.1,2.591,1.212,1.217,1.212,1.217c-.044-.019-.989,3.382-1.014,3.721a4.671,4.671,0,0,0,2.255,3.9,4.8,4.8,0,0,0,4.873,0c-.379,1.383-.78,2.759-1.178,4.137l6.821,2.478s.309-4.936,1.007-6.562,2.252-5.864,2.252-5.864a1.762,1.762,0,0,0,1.4-.447c.738-.6,1.116-2.529-.083-2.99a1.645,1.645,0,0,0-2.2.825c-.888-.118-1.639-2.236-1.923-2.908-.889-2.109-.354-4.162.079-6.3-.047.23-1.354.679-1.571.855a5.523,5.523,0,0,0-1.443,2.619,14.043,14.043,0,0,0-.358,1.466c-.2,1.048.057,1.622-1.234,1.23A26.113,26.113,0,0,1,507.544,218.816Z" transform="translate(-503.514 -214.86)" fill="#d08b73"/>
              <g id="Grupo_15970" data-name="Grupo 15970" clip-path="url(#clip-path-6)">
                <path id="Trazado_26262" data-name="Trazado 26262" d="M517.38,231.337c-.139-.152-1.741,1.139-3.894,2.44s-4.029,2.143-3.957,2.336c.056.176,2.108-.375,4.325-1.732S517.511,231.468,517.38,231.337Z" transform="translate(-504.303 -217.02)" fill="#bc6c56"/>
                <path id="Trazado_26263" data-name="Trazado 26263" d="M522.291,226.652c-.062.005-.036.281.307.4a.714.714,0,0,0,.6-.075,1.06,1.06,0,0,0,.369-1.287.513.513,0,0,0-.3-.256.535.535,0,0,0-.3.008c-.282.127-.409.248-.379.3s.209.052.429.023c.126.01.141.031.169.109a.743.743,0,0,1-.017.4.535.535,0,0,1-.5.454C522.46,226.737,522.351,226.625,522.291,226.652Z" transform="translate(-505.974 -216.245)" fill="#bc6c56"/>
                <path id="Trazado_26264" data-name="Trazado 26264" d="M519.407,212.948a6.881,6.881,0,0,0-2.086,1.339,7.056,7.056,0,0,0-.913.879c-.154.172-.319.345-.477.535a5,5,0,0,0-.383.663c-.229.467-.414.958-.608,1.479q-.146.39-.3.79a5.049,5.049,0,0,0-.2.868c-.087.57-.235,1.074-.657,1.222a1.956,1.956,0,0,1-1.37-.161,8.293,8.293,0,0,1-2.249-1.311,4.509,4.509,0,0,0-1.588-.918c-.436-.109-.684-.025-.679,0,0,.042.242.025.624.176a5.181,5.181,0,0,1,1.435,1,7.923,7.923,0,0,0,2.3,1.454,2.328,2.328,0,0,0,1.691.187,1.293,1.293,0,0,0,.712-.681,3.548,3.548,0,0,0,.239-.886,4.7,4.7,0,0,1,.182-.806l.283-.776c.183-.507.363-1.008.567-1.45a4.772,4.772,0,0,1,.336-.618l.429-.512a7.419,7.419,0,0,1,.838-.884C518.645,213.512,519.448,213.011,519.407,212.948Z" transform="translate(-504.09 -214.609)" fill="#bc6c56"/>
              </g>
            </g>
            <g id="Grupo_15972" data-name="Grupo 15972" transform="translate(45.163 6.508)">
              <path id="Trazado_26266" data-name="Trazado 26266" d="M564.788,244.1a7.371,7.371,0,0,0-1.083-.58,8.458,8.458,0,0,1-2.48-2.107,9.355,9.355,0,0,1-1.928-4.362,13.6,13.6,0,0,1,.387-5.88c.284-1.02.66-2.023.882-3.06a9.912,9.912,0,0,0,.156-3.046,10.589,10.589,0,0,0-1.731-4.793,9.508,9.508,0,0,0-2.382-2.458,2.874,2.874,0,0,0-1.107-.585,15.621,15.621,0,0,1,3.021,3.341A10.588,10.588,0,0,1,560,225.131a9.564,9.564,0,0,1-.187,2.815c-.215.963-.588,1.947-.887,3.015a13.715,13.715,0,0,0-.342,6.221,9.505,9.505,0,0,0,2.216,4.591,7.687,7.687,0,0,0,2.771,2.023A2.615,2.615,0,0,0,564.788,244.1Z" transform="translate(-555.497 -217.225)" fill="#282e5b"/>
            </g>
            <g id="Grupo_15973" data-name="Grupo 15973" transform="translate(10.712 16.569)">
              <path id="Trazado_26267" data-name="Trazado 26267" d="M515.845,234.8c.016.072.525.05,1.292-.23a7.342,7.342,0,0,0,4.289-4.461c.248-.778.252-1.287.179-1.3-.178-.051-.62,1.9-2.271,3.581C517.717,234.1,515.786,234.624,515.845,234.8Z" transform="translate(-515.844 -228.806)" fill="#282e5b"/>
            </g>
          </g>
          <g id="Grupo_15975" data-name="Grupo 15975" transform="translate(16.172)">
            <path id="Trazado_26268" data-name="Trazado 26268" d="M536.461,291.792s-7.393,20.711-7.054,24.943,4.514,6.715,4.684,7.9c.109.765-1.283,1.611-1.947,1.374a1.811,1.811,0,0,1-.631-.464c-.918-.91-1.8-1.911-2.778-2.752-.577-.5-.819-.539-.758.222.036.429.277,2.855-.094,3.116-.282.2-.914.7-.965-.056s-.728-7.478-.559-9.17a45.253,45.253,0,0,0,0-4.954c-.022-2.192.048-4.37.24-6.56a78.134,78.134,0,0,1,1.193-8.362c.5-2.533.9-5.366,2.442-7.514C532.849,285.867,536.461,291.792,536.461,291.792Z" transform="translate(-468.451 -219.32)" fill="#d08b73"/>
            <path id="Trazado_26269" data-name="Trazado 26269" d="M519.16,255.6a100.225,100.225,0,0,1,.714,14.832c-.069,2.639-.239,5.148-.48,7.512a17.83,17.83,0,0,1,5.365,2.182c2.621,1.622,3.46,3.142,6.145,4.352a13.113,13.113,0,0,0,4.169,1.087,72.605,72.605,0,0,0-3.31-24.847c-2.7-8.4-5.742-12.17-7.386-13.97a30.916,30.916,0,0,0-7.285-5.855q-.111.137-.211.28C514.178,245.018,516.954,251.529,519.16,255.6Z" transform="translate(-467.065 -213.097)" fill="#66559f"/>
            <path id="Trazado_26270" data-name="Trazado 26270" d="M471.439,234.661s-6.225-8.038-6.563-10.069a26.6,26.6,0,0,1-.4-4.8c.056-.593.747-2.314.938-3.555a5.517,5.517,0,0,0-.952-3.076c-.127-.2.1-3.781-.325-4.12s-1.269-.452-1.072,4.035c-2.228-.394-3.329-.2-3.358,1.411s1.524,5.728,1.524,5.728a30.181,30.181,0,0,0,.649,4.571c.48,1.863,2.465,12.073,7.116,16.067C472.466,239.884,471.439,234.661,471.439,234.661Z" transform="translate(-459.712 -208.899)" fill="#d08b73"/>
            <path id="Trazado_26271" data-name="Trazado 26271" d="M509.428,239.258a21.635,21.635,0,0,0-2.432-.493,37.578,37.578,0,0,0-8.053-.132c-2.25.161-4.308.029-6.553-.023-2.864-.067-5.728-.148-8.587-.307a25.588,25.588,0,0,1-5.067-.518c-3.778-1-4.368-2.136-5.982-1.806-2.156.441-2.781,3.051-5.1,7.2a47.956,47.956,0,0,1-5.744,8.11,108.638,108.638,0,0,0,17.636,2.532c4.328.359,7.178.257,8.768-.232h0s.428,1.185.871,2.822a38.14,38.14,0,0,1,.955,5.53c.268,3.11-.975,11.076-5.481,20.57a19.719,19.719,0,0,1,5.611-.84c4.361-.01,6.408,1.4,11.3,1.756a29.208,29.208,0,0,0,6.278-.228c.084-1.31.921-2.213.857-3.4-.067-1.259-.466-2.7.177-3.8.259-.443-.44-1.806-.043-2.921a48.873,48.873,0,0,1,5.455-10.24,34.029,34.029,0,0,0,4.012-7.4c1.432-3.5,1.784-7.427-.427-10.7A14.4,14.4,0,0,0,509.428,239.258Z" transform="translate(-460 -212.444)" fill="#7d6eb2"/>
          </g>
          <path id="Trazado_26272" data-name="Trazado 26272" d="M492.3,255.906a34.129,34.129,0,0,0,6.535-2.309c-4.494,4.723-4.3,10.508-4.811,13.763C493.193,257.781,492.3,255.906,492.3,255.906Z" transform="translate(-447.815 -214.763)" fill="#66559f"/>
        </g>
      </g>
      <line id="Línea_498" data-name="Línea 498" x2="254" transform="translate(0 259.742)" fill="none" stroke="#00223d" stroke-linecap="round" stroke-linejoin="round" stroke-width="5.023"/>
    </g>
  </g>
</svg>
