<svg xmlns="http://www.w3.org/2000/svg" xmlns:xlink="http://www.w3.org/1999/xlink" width="91.927" height="91.927" viewBox="0 0 91.927 91.927">
  <defs>
    <radialGradient id="radial-gradient" cx="0.076" cy="0.019" r="1.465" gradientTransform="translate(0.001)" gradientUnits="objectBoundingBox">
      <stop offset="0" stop-color="#f6f6f7"/>
      <stop offset="0.477" stop-color="#f9f9fa"/>
      <stop offset="0.715" stop-color="#fff"/>
    </radialGradient>
  </defs>
  <g id="Grupo_53049" data-name="Grupo 53049" transform="translate(-217 -997)">
    <g id="Grupo_18531" data-name="Grupo 18531" transform="translate(142 1024)">
      <g id="Grupo_18423" data-name="Grupo 18423" transform="translate(75 -27)">
        <g id="Grupo_18421" data-name="Grupo 18421">
          <g id="Grupo_18420" data-name="Grupo 18420">
            <g id="Grupo_18419" data-name="Grupo 18419">
              <path id="Trazado_40936" data-name="Trazado 40936" d="M286.55,2191.684a45.964,45.964,0,1,1-45.963-45.962A45.963,45.963,0,0,1,286.55,2191.684Z" transform="translate(-194.623 -2145.721)" fill="#fff"/>
            </g>
          </g>
        </g>
        <path id="Trazado_40937" data-name="Trazado 40937" d="M286.23,2191.334a45.963,45.963,0,1,0-45.963,45.965A45.782,45.782,0,0,0,286.23,2191.334Z" transform="translate(-194.303 -2145.372)" fill="url(#radial-gradient)"/>
        <path id="Trazado_40938" data-name="Trazado 40938" d="M272.56,2188.562a35.084,35.084,0,1,0-35.084,35.084A34.953,34.953,0,0,0,272.56,2188.562Z" transform="translate(-191.373 -2142.446)" fill="none" stroke="#7d6eb2" stroke-miterlimit="10" stroke-width="4"/>
        <g id="Grupo_18422" data-name="Grupo 18422" transform="translate(8.143 25.805)">
          <path id="Trazado_40939" data-name="Trazado 40939" d="M279.682,2164.488a45.969,45.969,0,0,1-79.137,45.773,45.823,45.823,0,0,0,79.137-45.773Z" transform="translate(-200.545 -2164.488)" fill="#eceef0"/>
        </g>
      </g>
    </g>
    <g id="Grupo_46651" data-name="Grupo 46651" transform="translate(1793.995 -139.989)">
      <path id="Trazado_96966" data-name="Trazado 96966" d="M-1531.222,1207.128a4.592,4.592,0,0,1-1.789-1.24c-1.379-1.365-2.787-2.7-4.167-4.064a1.517,1.517,0,0,0-1.158-.46c-3.127.013-6.254.009-9.381.006a3.262,3.262,0,0,1-3.545-3.523q-.006-10.7,0-21.408a5.815,5.815,0,0,1,.133-1.428,3.182,3.182,0,0,1,2.9-2.349c.576-.031,1.154-.019,1.731-.022s1.15,0,1.745,0c.068-.484.1-.944.2-1.39a6.567,6.567,0,0,1,6.437-5.186c1.459-.018,2.919,0,4.378-.01a2.034,2.034,0,0,0,.743-.143c2.81-1.162,5.613-2.343,8.425-3.5a.555.555,0,0,0,.4-.6,6.775,6.775,0,0,1,.183-1.708,3.239,3.239,0,0,1,3.422-2.237,3.278,3.278,0,0,1,2.931,2.91,9.091,9.091,0,0,1,.033.912q0,5.22,0,10.44c0,.142.013.285.022.483.183.011.35.029.518.029,1.138,0,2.277-.006,3.416,0a3.239,3.239,0,0,1,3.42,3.406q.012,10.944,0,21.889a3.237,3.237,0,0,1-3.446,3.429q-4.739.013-9.477,0a1.512,1.512,0,0,0-1.155.464c-1.392,1.375-2.81,2.723-4.2,4.1a4.369,4.369,0,0,1-1.759,1.2Zm-7.72-27.945c-.1-.032-.147-.05-.194-.059a6.5,6.5,0,0,1-5.25-4.531.39.39,0,0,0-.45-.308c-.946.009-1.892,0-2.839.007-1.362.008-1.941.576-1.942,1.923q-.006,10.8,0,21.6c0,1.31.6,1.907,1.911,1.908,3.16,0,6.319.009,9.479,0a2.9,2.9,0,0,1,2.156.878c1.5,1.489,3.031,2.956,4.55,4.431.617.6.962.6,1.585-.01,1.518-1.476,3.045-2.942,4.551-4.43a2.891,2.891,0,0,1,2.159-.869c3.208.014,6.416.007,9.624,0a1.6,1.6,0,0,0,1.74-1.739q.008-10.971,0-21.941a1.606,1.606,0,0,0-1.774-1.751c-.962-.007-1.924,0-2.887-.005h-1.072c0,1,0,1.93,0,2.858-.009,2.438.029,4.877-.049,7.312a3.153,3.153,0,0,1-2.692,2.916,3.306,3.306,0,0,1-3.485-1.772,4.025,4.025,0,0,1-.351-2.108.555.555,0,0,0-.41-.638c-2.445-1-4.88-2.027-7.319-3.043-.141-.059-.289-.1-.477-.165v.584c0,1.331.026,2.663-.007,3.993a3.282,3.282,0,0,1-4.44,2.98,3.228,3.228,0,0,1-2.111-3.042C-1538.958,1182.513-1538.943,1180.863-1538.943,1179.184Zm14.741-15.112a2.665,2.665,0,0,0-.3.082c-2.528,1.051-5.052,2.111-7.585,3.15-.3.125-.3.32-.3.564q0,4.787,0,9.575a.506.506,0,0,0,.375.557c2.386.976,4.763,1.974,7.142,2.965.213.089.426.175.667.274Zm4.954,8.61q0-5.7,0-11.394a1.644,1.644,0,0,0-1.652-1.791,1.673,1.673,0,0,0-1.634,1.772c0,.128,0,.256,0,.385q0,6.947,0,13.894,0,4.207,0,8.413a1.659,1.659,0,0,0,1.781,1.8,1.649,1.649,0,0,0,1.5-1.833Q-1519.242,1178.307-1519.248,1172.682Zm-14.818,4.817v-9.751c-1.547,0-3.071-.083-4.583.019a4.844,4.844,0,0,0-4.405,4.714,4.813,4.813,0,0,0,4.193,4.99C-1537.292,1177.62-1535.7,1177.5-1534.066,1177.5Zm-3.236,1.739c0,1.621-.006,3.206,0,4.79a1.618,1.618,0,0,0,1.641,1.742,1.648,1.648,0,0,0,1.637-1.76c.008-1.267,0-2.533,0-3.8v-.972Z" transform="translate(0 0)" fill="#00223d"/>
      <path id="Trazado_96972" data-name="Trazado 96972" d="M-1443.911,1483.087h-12.313a4.118,4.118,0,0,1-.528-.014.741.741,0,0,1-.7-.724.74.74,0,0,1,.558-.842,1.8,1.8,0,0,1,.521-.059q12.457,0,24.915,0a1.6,1.6,0,0,1,.565.08.742.742,0,0,1,.5.836.745.745,0,0,1-.674.7,3.833,3.833,0,0,1-.576.019Z" transform="translate(-84.759 -292.391)" fill="#00223d"/>
      <path id="Trazado_96973" data-name="Trazado 96973" d="M-1486.649,1517.173h-12.312a2.9,2.9,0,0,1-.479-.024.756.756,0,0,1-.682-.749.772.772,0,0,1,.641-.833,2.564,2.564,0,0,1,.525-.037q12.361,0,24.721,0a2.778,2.778,0,0,1,.526.032.779.779,0,0,1,.658.82.775.775,0,0,1-.711.772,4.528,4.528,0,0,1-.576.019Z" transform="translate(-46.209 -323.187)" fill="#00223d"/>
      <path id="Trazado_96974" data-name="Trazado 96974" d="M-1493.954,1551.3q-2.5,0-5,0a2.025,2.025,0,0,1-.57-.057.749.749,0,0,1-.572-.835.739.739,0,0,1,.648-.725,2.863,2.863,0,0,1,.526-.029q4.974,0,9.948-.005h.048c.738,0,1.126.283,1.132.813s-.393.835-1.117.836q-2.523,0-5.046,0Z" transform="translate(-46.234 -354.017)" fill="#00223d"/>
      <path id="Trazado_96975" data-name="Trazado 96975" d="M-1498.968,1482.988c-.112,0-.224,0-.336,0a.8.8,0,0,1-.847-.791.816.816,0,0,1,.8-.843,5.239,5.239,0,0,1,.815,0,.809.809,0,0,1,.823.824.8.8,0,0,1-.875.811C-1498.712,1482.993-1498.84,1482.989-1498.968,1482.988Z" transform="translate(-46.186 -292.294)" fill="#00223d"/>
      <path id="Trazado_96976" data-name="Trazado 96976" d="M-1200.78,1517.171c-.824.013-1.209-.248-1.21-.808s.386-.83,1.206-.828a3.384,3.384,0,0,1,.526.024.79.79,0,0,1,.71.825.791.791,0,0,1-.753.784A4.234,4.234,0,0,1-1200.78,1517.171Z" transform="translate(-315.597 -323.193)" fill="#00223d"/>
    </g>
  </g>
</svg>
