<svg xmlns="http://www.w3.org/2000/svg" xmlns:xlink="http://www.w3.org/1999/xlink" width="91.927" height="91.927" viewBox="0 0 91.927 91.927">
  <defs>
    <radialGradient id="radial-gradient" cx="0.076" cy="0.019" r="1.465" gradientTransform="translate(0.001)" gradientUnits="objectBoundingBox">
      <stop offset="0" stop-color="#f6f6f7"/>
      <stop offset="0.477" stop-color="#f9f9fa"/>
      <stop offset="0.715" stop-color="#fff"/>
    </radialGradient>
  </defs>
  <g id="Grupo_53050" data-name="Grupo 53050" transform="translate(-217 -997)">
    <g id="Grupo_18531" data-name="Grupo 18531" transform="translate(142 1024)">
      <g id="Grupo_18423" data-name="Grupo 18423" transform="translate(75 -27)">
        <g id="Grupo_18421" data-name="Grupo 18421">
          <g id="Grupo_18420" data-name="Grupo 18420">
            <g id="Grupo_18419" data-name="Grupo 18419">
              <path id="Trazado_40936" data-name="Trazado 40936" d="M286.55,2191.684a45.964,45.964,0,1,1-45.963-45.962A45.963,45.963,0,0,1,286.55,2191.684Z" transform="translate(-194.623 -2145.721)" fill="#fff"/>
            </g>
          </g>
        </g>
        <path id="Trazado_40937" data-name="Trazado 40937" d="M286.23,2191.334a45.963,45.963,0,1,0-45.963,45.965A45.782,45.782,0,0,0,286.23,2191.334Z" transform="translate(-194.303 -2145.372)" fill="url(#radial-gradient)"/>
        <path id="Trazado_40938" data-name="Trazado 40938" d="M272.56,2188.562a35.084,35.084,0,1,0-35.084,35.084A34.953,34.953,0,0,0,272.56,2188.562Z" transform="translate(-191.373 -2142.446)" fill="none" stroke="#7d6eb2" stroke-miterlimit="10" stroke-width="4"/>
        <g id="Grupo_18422" data-name="Grupo 18422" transform="translate(8.143 25.805)">
          <path id="Trazado_40939" data-name="Trazado 40939" d="M279.682,2164.488a45.969,45.969,0,0,1-79.137,45.773,45.823,45.823,0,0,0,79.137-45.773Z" transform="translate(-200.545 -2164.488)" fill="#eceef0"/>
        </g>
      </g>
    </g>
    <g id="Grupo_46652" data-name="Grupo 46652" transform="translate(2384.046 -583.07)">
      <path id="Trazado_96977" data-name="Trazado 96977" d="M-2125.321,1605.849c2.1.738,2.892,2.26,2.8,4.428-.085,1.908-.008,3.823-.021,5.735a3.508,3.508,0,0,1-3.7,3.721c-1.14.013-2.279,0-3.42,0,.088,1.564.531,2.01,2.169,2.145v1.264h-9.564v-1.19c.538-.112,1.256-.054,1.593-.384a5.52,5.52,0,0,0,.791-1.835c-1.052,0-1.974-.052-2.888.01a3.9,3.9,0,0,1-4.417-2.788v-8.332a4.183,4.183,0,0,1,2.778-2.777Zm1.39,9.016c0-1.976.062-3.854-.023-5.726a1.977,1.977,0,0,0-2.111-1.914q-6.2-.047-12.4,0a1.875,1.875,0,0,0-2.049,1.639c-.116,1.984-.034,3.978-.034,6Zm-16.625,1.4a2.092,2.092,0,0,0,2.37,2.117c2.776.018,5.552.006,8.327.006,1.234,0,2.468.03,3.7-.012a1.935,1.935,0,0,0,2.11-2.111Zm6.64,5.514h3.5c-.688-.687-.236-1.979-1.56-2.038C-2133.335,1619.682-2133.431,1619.8-2133.916,1621.78Z" transform="translate(0 0)" fill="#00223d"/>
      <path id="Trazado_96978" data-name="Trazado 96978" d="M-2020.6,1742.279a2.737,2.737,0,0,1-1.5-2.788c.068-2.435.015-4.873.022-7.31a2.088,2.088,0,0,1,2.218-2.362,2.7,2.7,0,0,0,.8-.186q5.869-2.463,11.724-4.961a1.127,1.127,0,0,0,.562-.688,2.076,2.076,0,0,1,1.815-1.812,2.056,2.056,0,0,1,2.141,1.281c.054.107.119.208.179.312v.926c-.855,1.628-1.594,1.875-3.349,1.192a1.285,1.285,0,0,0-.847.1c-2.3.949-4.593,1.922-6.887,2.887l-1.813.762.046.189h.875c3.083,0,6.166.045,9.247-.021a2.543,2.543,0,0,1,2.727,1.553v9.258l-1.481,1.666Zm8.263-11.109c-2.437,0-4.875.017-7.312-.01-.752-.009-1.079.288-1.077,1.028q.011,3.841,0,7.682c0,.742.343,1.053,1.075,1.052q7.266-.013,14.532,0c.77,0,1.134-.3,1.129-1.1q-.024-3.795,0-7.59c0-.784-.33-1.088-1.125-1.077C-2007.526,1731.191-2009.933,1731.17-2012.34,1731.17Zm8.658-6.984c-.535-.312-.845-.639-1.088-.594a1,1,0,0,0-.595.714c-.027.154.416.551.641.546C-2004.453,1724.847-2004.189,1724.531-2003.682,1724.187Z" transform="translate(-97.683 -94.77)" fill="#00223d"/>
      <path id="Trazado_96979" data-name="Trazado 96979" d="M-2141.985,1717.536a2.626,2.626,0,0,1,2.79-1.5c.886.07,1.782.014,2.471.014l1.569-2.629-1.917-1.679,1.215-.974,2.031,2.267,5.822-6.027.894,1.283-5.107,5.076,1.652,2.683c1.631,0,3.534,0,5.436,0,1.812,0,2.582.769,2.584,2.583,0,2.806-.047,5.614.022,8.419a2.829,2.829,0,0,1-1.5,2.885H-2140.5l-1.481-1.481Zm9.628,11.045c2.407,0,4.813.005,7.22,0,1.032,0,1.232-.207,1.234-1.255.006-2.9-.012-5.8.011-8.7.006-.857-.324-1.232-1.2-1.228q-7.174.027-14.348,0c-.878,0-1.2.37-1.2,1.231.026,2.9.006,5.8.012,8.7,0,1.052.2,1.25,1.234,1.253C-2137.047,1728.585-2134.7,1728.58-2132.357,1728.58Zm.045-12.552c-.212-.991-.732-1.469-1.478-1.351a1.258,1.258,0,0,0-1.2,1.351Z" transform="translate(0 -82.432)" fill="#00223d"/>
      <path id="Trazado_96980" data-name="Trazado 96980" d="M-1965.927,1620.846a2.437,2.437,0,0,1-2.647,1.681c-2.032-.054-4.066-.008-6.1-.016a2.132,2.132,0,0,1-2.36-2.331c-.011-4,.014-8.009-.015-12.013a2.536,2.536,0,0,1,1.493-2.318h8.147l1.481,1.666Zm-1.43-2.5v-8.3h-8.251v8.3Zm0,1.438h-8.232c-.129,1.1.063,1.357,1.047,1.363q3.042.019,6.085,0C-1967.457,1621.143-1967.271,1620.907-1967.355,1619.784Zm-.016-11.207c.115-1.1-.083-1.358-1.061-1.364q-3.041-.018-6.083,0c-1.03.006-1.269.341-1.018,1.364Z" transform="translate(-134.398 0)" fill="#00223d"/>
      <path id="Trazado_96986" data-name="Trazado 96986" d="M-2042.549,1699.164l-.82-.828c2.246-2.874,7.818-3.242,10.633-.02l-.893.826C-2036.564,1696.772-2039.528,1696.768-2042.549,1699.164Z" transform="translate(-80.357 -73.49)" fill="#00223d"/>
      <path id="Trazado_96987" data-name="Trazado 96987" d="M-2032.22,1713.285l-.927-.863a4.7,4.7,0,0,1,6.832.038l-1.021.789A3.594,3.594,0,0,0-2032.22,1713.285Z" transform="translate(-88.686 -85.655)" fill="#00223d"/>
      <path id="Trazado_96988" data-name="Trazado 96988" d="M-2021.924,1726.462a1.828,1.828,0,0,1,2.687-.022C-2020.167,1727.758-2020.988,1727.765-2021.924,1726.462Z" transform="translate(-97.831 -97.793)" fill="#00223d"/>
      <path id="Trazado_96999" data-name="Trazado 96999" d="M-2082.716,1627.427l-.656-.73,3.389-3.4.629.764Z" transform="translate(-47.761 -14.221)" fill="#00223d"/>
      <path id="Trazado_97000" data-name="Trazado 97000" d="M-2109.15,1627.184l-.771-.822,3.486-3.387.678.853Z" transform="translate(-26.127 -13.956)" fill="#00223d"/>
      <path id="Trazado_97001" data-name="Trazado 97001" d="M-1953.011,1793.913v1.221h-4.743v-1.221Z" transform="translate(-150.12 -153.243)" fill="#00223d"/>
      <path id="Trazado_97002" data-name="Trazado 97002" d="M-1953.029,1778.891v1.229h-4.749v-1.229Z" transform="translate(-150.1 -141.002)" fill="#00223d"/>
      <path id="Trazado_97003" data-name="Trazado 97003" d="M-2006.792,1780.068v-1.221h1.25v1.221Z" transform="translate(-110.162 -140.966)" fill="#00223d"/>
      <path id="Trazado_97004" data-name="Trazado 97004" d="M-1991.628,1778.8h1.222v1.246h-1.222Z" transform="translate(-122.518 -140.925)" fill="#00223d"/>
      <path id="Trazado_97005" data-name="Trazado 97005" d="M-1976.6,1778.748h1.222V1780h-1.222Z" transform="translate(-134.762 -140.886)" fill="#00223d"/>
      <path id="Trazado_97006" data-name="Trazado 97006" d="M-2005.5,1795.111h-1.239v-1.253h1.239Z" transform="translate(-110.207 -153.198)" fill="#00223d"/>
      <path id="Trazado_97007" data-name="Trazado 97007" d="M-1991.812,1795.1v-1.215h1.242v1.215Z" transform="translate(-122.368 -153.218)" fill="#00223d"/>
      <path id="Trazado_97008" data-name="Trazado 97008" d="M-1976.826,1795.139V1793.9h1.249v1.241Z" transform="translate(-134.579 -153.231)" fill="#00223d"/>
      <path id="Trazado_97009" data-name="Trazado 97009" d="M-2006.807,1810.129v-1.21h1.248v1.21Z" transform="translate(-110.149 -165.471)" fill="#00223d"/>
      <path id="Trazado_97010" data-name="Trazado 97010" d="M-1990.453,1808.948v1.231h-1.245v-1.231Z" transform="translate(-122.461 -165.494)" fill="#00223d"/>
      <path id="Trazado_97011" data-name="Trazado 97011" d="M-1976.622,1808.838h1.229v1.24h-1.229Z" transform="translate(-134.745 -165.404)" fill="#00223d"/>
      <path id="Trazado_97012" data-name="Trazado 97012" d="M-2121.845,1779.145c-1.355,0-2.71-.019-4.065.007-.77.015-1.132-.275-1.123-1.081q.037-3.094,0-6.189c-.01-.806.353-1.083,1.124-1.077q4.111.032,8.222,0c.733,0,1.067.27,1.058,1.033q-.036,3.141,0,6.282c.01.77-.335,1.041-1.061,1.03C-2119.074,1779.131-2120.46,1779.145-2121.845,1779.145Zm-3.832-6.932c0,1.686.025,3.254-.012,4.821-.015.623.214.783.8.775,2.093-.029,4.186-.009,6.279-.016a3.185,3.185,0,0,0,.564-.1v-5.484Z" transform="translate(-12.184 -134.413)" fill="#00223d"/>
      <path id="Trazado_97013" data-name="Trazado 97013" d="M-2062.659,1793.806h1.9v1.259h-1.9Z" transform="translate(-64.639 -153.156)" fill="#00223d"/>
      <path id="Trazado_97014" data-name="Trazado 97014" d="M-2062.763,1808.791h1.941v1.249h-1.941Z" transform="translate(-64.554 -165.366)" fill="#00223d"/>
      <path id="Trazado_97015" data-name="Trazado 97015" d="M-2057.746,1772.441h-1.221v-1.252h1.221Z" transform="translate(-67.647 -134.726)" fill="#00223d"/>
      <path id="Trazado_97016" data-name="Trazado 97016" d="M-1934.2,1653.806h-1.21v-2.7h1.21Z" transform="translate(-168.324 -36.876)" fill="#00223d"/>
      <path id="Trazado_97017" data-name="Trazado 97017" d="M-1934.192,1637.418h-1.248v-1.247h1.248Z" transform="translate(-168.302 -24.708)" fill="#00223d"/>
    </g>
  </g>
</svg>
