<svg xmlns="http://www.w3.org/2000/svg" xmlns:xlink="http://www.w3.org/1999/xlink" width="91.927" height="91.927" viewBox="0 0 91.927 91.927">
  <defs>
    <radialGradient id="radial-gradient" cx="0.076" cy="0.019" r="1.465" gradientTransform="translate(0.001)" gradientUnits="objectBoundingBox">
      <stop offset="0" stop-color="#f6f6f7"/>
      <stop offset="0.477" stop-color="#f9f9fa"/>
      <stop offset="0.715" stop-color="#fff"/>
    </radialGradient>
  </defs>
  <g id="Grupo_53048" data-name="Grupo 53048" transform="translate(-217 -997)">
    <g id="Grupo_18531" data-name="Grupo 18531" transform="translate(142 1024)">
      <g id="Grupo_18423" data-name="Grupo 18423" transform="translate(75 -27)">
        <g id="Grupo_18421" data-name="Grupo 18421">
          <g id="Grupo_18420" data-name="Grupo 18420">
            <g id="Grupo_18419" data-name="Grupo 18419">
              <path id="Trazado_40936" data-name="Trazado 40936" d="M286.55,2191.684a45.964,45.964,0,1,1-45.963-45.962A45.963,45.963,0,0,1,286.55,2191.684Z" transform="translate(-194.623 -2145.721)" fill="#fff"/>
            </g>
          </g>
        </g>
        <path id="Trazado_40937" data-name="Trazado 40937" d="M286.23,2191.334a45.963,45.963,0,1,0-45.963,45.965A45.782,45.782,0,0,0,286.23,2191.334Z" transform="translate(-194.303 -2145.372)" fill="url(#radial-gradient)"/>
        <path id="Trazado_40938" data-name="Trazado 40938" d="M272.56,2188.562a35.084,35.084,0,1,0-35.084,35.084A34.953,34.953,0,0,0,272.56,2188.562Z" transform="translate(-191.373 -2142.446)" fill="none" stroke="#7d6eb2" stroke-miterlimit="10" stroke-width="4"/>
        <g id="Grupo_18422" data-name="Grupo 18422" transform="translate(8.143 25.805)">
          <path id="Trazado_40939" data-name="Trazado 40939" d="M279.682,2164.488a45.969,45.969,0,0,1-79.137,45.773,45.823,45.823,0,0,0,79.137-45.773Z" transform="translate(-200.545 -2164.488)" fill="#eceef0"/>
        </g>
      </g>
    </g>
    <g id="Grupo_46650" data-name="Grupo 46650" transform="translate(1141.617 254.126)">
      <path id="Trazado_96960" data-name="Trazado 96960" d="M-777.7,903.6c-.211-2.816.849-4.877,3.59-5.951l-.174-.268a5.529,5.529,0,0,1,.315-6.408,4.358,4.358,0,0,1,7.524,1.191,5.406,5.406,0,0,1-.455,5.293q-.049.077-.095.155c0,.007,0,.019,0,.045,2.717,1.058,3.78,3.127,3.557,6.017a1.737,1.737,0,0,0,.218-.182c.421-.529.854-1.049,1.252-1.6a1.082,1.082,0,0,1,1.5-.36,1.032,1.032,0,0,1,.22,1.474c-.3.453-.628.889-.91,1.286l5.705,5.708c-.073-.513-.149-1.04-.22-1.566a3.373,3.373,0,0,1-.047-.512,1,1,0,0,1,.931-.983,1.008,1.008,0,0,1,1.08.821c.253,1.688.5,3.377.725,5.069a1.01,1.01,0,0,1-1.221,1.18q-2.491-.346-4.979-.716a1.015,1.015,0,0,1-.871-1.1,1,1,0,0,1,1.084-.917c.563.049,1.121.148,1.682.224.1.013.2.025.241.03l-5.646-5.641c-5.216,3.735-10.484,3.762-15.76-.032l-5.683,5.683c.515-.073,1.04-.148,1.565-.221.14-.019.28-.043.421-.048a1.016,1.016,0,0,1,1.076.931,1.017,1.017,0,0,1-.879,1.092c-1.539.226-3.079.443-4.619.664l-.27.041a1.051,1.051,0,0,1-1.293-1.3c.08-.54.154-1.08.232-1.62.155-1.07.308-2.139.466-3.208a1.019,1.019,0,0,1,1.1-.933,1.013,1.013,0,0,1,.916,1.171c-.057.532-.145,1.061-.219,1.591-.015.1-.026.209-.039.314L-780,904.33q-5.681-7.892.009-15.815l-5.7-5.7c.056.407.108.788.16,1.169.037.27.087.539.107.811a1.011,1.011,0,0,1-.911,1.12,1.019,1.019,0,0,1-1.109-.892q-.361-2.458-.709-4.919a1.029,1.029,0,0,1,1.231-1.255c1.641.226,3.28.467,4.919.708a1.016,1.016,0,0,1,.913,1.119,1.009,1.009,0,0,1-1.157.9c-.542-.057-1.081-.148-1.621-.223-.1-.014-.2-.022-.266-.03l5.671,5.668q7.855-5.664,15.79-.014l5.657-5.658-1.542.215c-.14.019-.28.043-.421.05a1.017,1.017,0,0,1-1.087-.919,1.016,1.016,0,0,1,.868-1.1c1.4-.208,2.8-.4,4.2-.6.26-.037.519-.082.78-.112a1.021,1.021,0,0,1,1.223,1.209c-.226,1.672-.471,3.34-.718,5.009a1.012,1.012,0,0,1-1.083.853.993.993,0,0,1-.93-1.071c.046-.563.146-1.121.222-1.682.014-.107.027-.215.038-.3l-5.676,5.678c.383.578.817,1.175,1.191,1.808a11.6,11.6,0,0,1,1.407,3.849,1.049,1.049,0,0,1-.811,1.355,1.056,1.056,0,0,1-1.2-.968,9.973,9.973,0,0,0-4.029-6.407,10.2,10.2,0,0,0-15.94,6.109,9.921,9.921,0,0,0,2.543,9.113c.054.06.113.116.172.171C-777.789,903.585-777.766,903.583-777.7,903.6Zm7.144-4.1c-.687,0-1.375-.008-2.062,0a2.957,2.957,0,0,0-2.981,2.575,27.132,27.132,0,0,0-.054,3.058c0,.072.094.172.17.211a10.2,10.2,0,0,0,9.793.035.357.357,0,0,0,.222-.376c-.01-.8,0-1.6,0-2.4a3.05,3.05,0,0,0-3.112-3.109C-769.242,899.491-769.9,899.493-770.556,899.494Zm2.533-4.914a3.465,3.465,0,0,0-.89-2.507,2.217,2.217,0,0,0-3.2-.1,3.433,3.433,0,0,0,.07,4.906,2.2,2.2,0,0,0,3.024-.063A3.179,3.179,0,0,0-768.023,894.58Z" transform="translate(-106.566 -106.591)" fill="#00223d"/>
      <path id="Trazado_96961" data-name="Trazado 96961" d="M-897.392,1104.687q2.439,0,4.878,0a1.04,1.04,0,0,1,1.059.7,1.024,1.024,0,0,1-1.029,1.352c-1.344.007-2.687,0-4.031,0h-.937c.088.084.136.14.193.182.443.335.892.663,1.332,1a1.029,1.029,0,0,1,.235,1.47,1.02,1.02,0,0,1-1.457.169q-2-1.494-4-3a1.011,1.011,0,0,1,0-1.7q1.991-1.511,4-3a1.022,1.022,0,0,1,1.457.169,1.028,1.028,0,0,1-.235,1.47c-.493.38-.994.749-1.492,1.123Z" transform="translate(0 -315.874)" fill="#00223d"/>
      <path id="Trazado_96962" data-name="Trazado 96962" d="M-256.863,1106.72h-.393c-1.536,0-3.071,0-4.607,0a1.023,1.023,0,0,1-1.02-1.358,1.04,1.04,0,0,1,1.063-.692q2.273,0,4.546,0h.4c-.109-.1-.167-.155-.233-.2-.443-.335-.893-.661-1.33-1a1.016,1.016,0,0,1-.2-1.451,1.018,1.018,0,0,1,1.434-.177q2.017,1.5,4.022,3.019a1.012,1.012,0,0,1-.011,1.7q-1.991,1.511-4,3a1.02,1.02,0,0,1-1.456-.179,1.018,1.018,0,0,1,.221-1.449c.422-.329.855-.644,1.283-.966C-257.072,1106.9-257,1106.832-256.863,1106.72Z" transform="translate(-599.927 -315.854)" fill="#00223d"/>
      <path id="Trazado_96963" data-name="Trazado 96963" d="M-560.232,769.577v.538c0,1.445,0,2.889,0,4.334a1.041,1.041,0,0,1-1.016,1.126,1.047,1.047,0,0,1-1.036-1.137c0-.071,0-.141,0-.212q0-2.167,0-4.334v-.319l-.061-.021q-.559.744-1.117,1.488a1.007,1.007,0,0,1-.939.447,1.018,1.018,0,0,1-.713-1.656c.615-.839,1.246-1.666,1.87-2.5.364-.485.724-.972,1.092-1.453a1.032,1.032,0,0,1,1.792.008q1.467,1.948,2.927,3.9a1.029,1.029,0,0,1-.159,1.5,1.03,1.03,0,0,1-1.467-.262c-.374-.488-.739-.982-1.108-1.474Z" transform="translate(-315.874)" fill="#00223d"/>
      <path id="Trazado_96964" data-name="Trazado 96964" d="M-562.29,1425.855q0-.159,0-.318c0-1.2,0-2.406,0-3.609a1.009,1.009,0,0,1,.7-1,.954.954,0,0,1,1.13.351,1.421,1.421,0,0,1,.215.7c.021,1.193.01,2.385.01,3.578v.291l.061.02c.367-.488.716-.99,1.108-1.457a1.488,1.488,0,0,1,.623-.44.956.956,0,0,1,1.087.406,1.022,1.022,0,0,1-.035,1.192c-.643.869-1.3,1.732-1.944,2.6-.346.461-.689.923-1.038,1.381a1.031,1.031,0,0,1-1.775,0q-1.48-1.959-2.946-3.929a1.027,1.027,0,0,1,.155-1.482,1.034,1.034,0,0,1,1.489.264c.371.486.735.977,1.1,1.465Z" transform="translate(-315.871 -615.749)" fill="#00223d"/>
      <path id="Trazado_96965" data-name="Trazado 96965" d="M-331.556,1188.987a1.014,1.014,0,0,1-1,1.009,1.018,1.018,0,0,1-1.04-1.032,1.024,1.024,0,0,1,1.038-1A.994.994,0,0,1-331.556,1188.987Z" transform="translate(-533.56 -396.963)" fill="#00223d"/>
    </g>
  </g>
</svg>
