<svg xmlns="http://www.w3.org/2000/svg" xmlns:xlink="http://www.w3.org/1999/xlink" width="316.028" height="385.821" viewBox="0 0 316.028 385.821">
  <defs>
    <linearGradient id="linear-gradient" x1="-30.681" y1="-2.445" x2="159.693" y2="15.534" gradientUnits="objectBoundingBox">
      <stop offset="0" stop-color="#a737d5"/>
      <stop offset="1" stop-color="#ef497a"/>
    </linearGradient>
    <linearGradient id="linear-gradient-2" y1="0.5" x2="1" y2="0.5" gradientUnits="objectBoundingBox">
      <stop offset="0" stop-color="#dae3fe"/>
      <stop offset="1" stop-color="#e9effd"/>
    </linearGradient>
    <linearGradient id="linear-gradient-6" x1="-31.909" y1="0.302" x2="-31.237" y2="1.263" gradientUnits="objectBoundingBox">
      <stop offset="0" stop-color="#febbba"/>
      <stop offset="1" stop-color="#ff928e"/>
    </linearGradient>
    <linearGradient id="linear-gradient-7" x1="-71.467" y1="1.602" x2="-70.432" y2="-1.187" xlink:href="#linear-gradient-6"/>
    <linearGradient id="linear-gradient-8" x1="-29.825" y1="1.698" x2="-29.362" y2="-1.193" xlink:href="#linear-gradient-6"/>
    <linearGradient id="linear-gradient-9" x1="-94.169" y1="1.857" x2="-93.914" y2="0.807" xlink:href="#linear-gradient-6"/>
    <linearGradient id="linear-gradient-10" x1="-62.392" y1="1.328" x2="-60.931" y2="-1.033" xlink:href="#linear-gradient-6"/>
    <linearGradient id="linear-gradient-11" x1="-225.703" y1="3.259" x2="-220.387" y2="-4.349" xlink:href="#linear-gradient-6"/>
    <linearGradient id="linear-gradient-12" x1="-114.581" y1="1.592" x2="-112.969" y2="4.225" xlink:href="#linear-gradient-6"/>
    <linearGradient id="linear-gradient-13" x1="0.245" y1="0.738" x2="1.049" y2="-0.129" xlink:href="#linear-gradient-6"/>
    <linearGradient id="linear-gradient-14" x1="0.5" x2="0.5" y2="1" gradientUnits="objectBoundingBox">
      <stop offset="0" stop-color="#f4efe2"/>
      <stop offset="0.697" stop-color="#fff"/>
      <stop offset="1" stop-color="#f4efe2"/>
    </linearGradient>
    <radialGradient id="radial-gradient" cx="0.5" cy="0.5" r="0.5" gradientUnits="objectBoundingBox">
      <stop offset="0" stop-color="#f2f2f0"/>
      <stop offset="1" stop-color="#eae699"/>
    </radialGradient>
    <linearGradient id="linear-gradient-15" x1="168.484" y1="-0.207" x2="169.492" y2="-0.207" xlink:href="#linear-gradient-6"/>
    <linearGradient id="linear-gradient-16" x1="187.787" y1="-0.014" x2="188.801" y2="-0.014" xlink:href="#linear-gradient-6"/>
    <linearGradient id="linear-gradient-17" x1="1.116" y1="0.941" x2="-0.257" y2="0.054" xlink:href="#linear-gradient-6"/>
    <linearGradient id="linear-gradient-18" x1="1.434" y1="1.247" x2="-0.053" y2="0.185" xlink:href="#linear-gradient-6"/>
    <linearGradient id="linear-gradient-19" x1="259.481" y1="0.059" x2="261.483" y2="-1.721" xlink:href="#linear-gradient-6"/>
    <linearGradient id="linear-gradient-20" x1="24.605" y1="0.303" x2="25.607" y2="0.303" xlink:href="#linear-gradient-6"/>
    <linearGradient id="linear-gradient-21" x1="63.919" y1="0.247" x2="64.91" y2="0.247" xlink:href="#linear-gradient-6"/>
    <linearGradient id="linear-gradient-22" x1="78.957" y1="0.5" x2="79.957" y2="0.5" xlink:href="#linear-gradient-6"/>
    <linearGradient id="linear-gradient-23" x1="-2.291" y1="7.018" x2="-3.428" y2="8.299" xlink:href="#linear-gradient-6"/>
    <linearGradient id="linear-gradient-24" x1="-13.283" y1="24.541" x2="-10.677" y2="21.894" xlink:href="#linear-gradient-6"/>
  </defs>
  <g id="Grupo_28685" data-name="Grupo 28685" transform="translate(-488.187 -455)">
    <g id="Grupo_28695" data-name="Grupo 28695" transform="translate(492.189 459.018)">
      <g id="Grupo_28689" data-name="Grupo 28689" transform="translate(0 58.933)">
        <g id="Grupo_28685-2" data-name="Grupo 28685" opacity="0.3">
          <path id="Trazado_68412" data-name="Trazado 68412" d="M539.151,913.081a1.111,1.111,0,0,1-1.167,1.052c-1.191-.062-2.4-.073-3.6-.032a1.111,1.111,0,0,1-1.146-1.052v-.022a1.111,1.111,0,0,1,1.073-1.147c1.26-.042,2.535-.031,3.788.034a1.111,1.111,0,0,1,1.052,1.05A1.056,1.056,0,0,1,539.151,913.081ZM528.569,914.7c-1.18.2-2.363.458-3.517.759a1.111,1.111,0,1,1-.561-2.15c1.214-.317,2.459-.586,3.7-.8a1.111,1.111,0,0,1,1.283.907,1.152,1.152,0,0,1,.015.131A1.111,1.111,0,0,1,528.569,914.7Zm-9.055,2.625c-1.1.459-2.2.972-3.258,1.525a1.111,1.111,0,1,1-1.028-1.97c1.116-.582,2.27-1.122,3.431-1.606a1.111,1.111,0,1,1,.854,2.051Zm-8.24,4.584c-.973.7-1.927,1.441-2.837,2.216A1.111,1.111,0,0,1,507,922.429c.958-.816,1.962-1.6,2.986-2.332a1.111,1.111,0,0,1,1.292,1.808Zm-7.013,6.306c-.793.892-1.559,1.83-2.276,2.789a1.111,1.111,0,1,1-1.779-1.331c.754-1.009,1.56-2,2.394-2.934a1.111,1.111,0,1,1,1.66,1.476Zm-5.444,7.7c-.577,1.047-1.115,2.13-1.6,3.222a1.111,1.111,0,0,1-2.03-.9c.511-1.149,1.079-2.29,1.686-3.392a1.111,1.111,0,1,1,1.946,1.073Zm-.963,41.243a1.111,1.111,0,0,1-1.5-.474c-.579-1.115-1.118-2.271-1.6-3.435a1.111,1.111,0,0,1,2.052-.851c.458,1.105.969,2.2,1.52,3.262a1.11,1.11,0,0,1-.474,1.5Zm-2.636-32.533c-.329,1.148-.613,2.324-.842,3.5a1.111,1.111,0,1,1-2.18-.427c.242-1.234.54-2.473.887-3.681a1.111,1.111,0,1,1,2.136.613Zm-1.062,23.585a1.111,1.111,0,0,1-1.354-.8c-.315-1.217-.581-2.463-.792-3.7a1.111,1.111,0,0,1,2.191-.373c.2,1.18.454,2.364.753,3.521a1.1,1.1,0,0,1,.034.221A1.111,1.111,0,0,1,494.156,968.205Zm-.5-14.291c-.064,1.192-.078,2.4-.04,3.6a1.111,1.111,0,0,1-2.22.094c0-.008,0-.016,0-.024-.04-1.258-.026-2.533.042-3.787a1.111,1.111,0,0,1,2.219,0C493.658,953.834,493.658,953.874,493.656,953.914Z" transform="translate(-491.373 -911.854)" fill="#00223d"/>
          <path id="Trazado_68413" data-name="Trazado 68413" d="M552.75,1410.34a1.1,1.1,0,0,0-.232-.622c-.352-.453-.7-.92-1.034-1.389a1.111,1.111,0,1,0-1.809,1.29c.352.494.718.985,1.087,1.461a1.111,1.111,0,0,0,1.987-.741Z" transform="translate(-541.464 -1339.517)" fill="#00223d"/>
        </g>
        <g id="Grupo_28686" data-name="Grupo 28686" transform="translate(36.874 15.204)" opacity="0.3">
          <path id="Trazado_68414" data-name="Trazado 68414" d="M762.958,1537.714a1.111,1.111,0,0,0-.992-1.045c-.569-.061-1.148-.134-1.717-.219a1.111,1.111,0,1,0-.327,2.2c.6.089,1.209.167,1.808.231a1.111,1.111,0,0,0,1.227-1.165Z" transform="translate(-758.975 -1465.579)" fill="#00223d"/>
          <path id="Trazado_68415" data-name="Trazado 68415" d="M858.8,1090.565a1.111,1.111,0,1,1-2.222.008c0-1.168-.058-2.354-.161-3.539a1.111,1.111,0,0,1,2.214-.191q.067.77.107,1.536C858.778,1089.107,858.8,1089.842,858.8,1090.565Zm-1.937-8.377a1.111,1.111,0,0,1-1.328-.839c-.259-1.149-.57-2.3-.924-3.419a1.111,1.111,0,1,1,2.118-.669c.372,1.179.7,2.39.972,3.6a1.1,1.1,0,0,1,.026.187A1.111,1.111,0,0,1,856.864,1082.188Zm1.544,14.418c-.164,1.225-.384,2.46-.652,3.67a1.111,1.111,0,0,1-2.169-.481c.255-1.149.463-2.322.619-3.485a1.111,1.111,0,0,1,2.2.3Zm-4.419-23.5a1.111,1.111,0,0,1-1.48-.527c-.5-1.062-1.061-2.116-1.652-3.131a1.111,1.111,0,0,1,1.919-1.119c.623,1.069,1.209,2.178,1.74,3.3a1.109,1.109,0,0,1-.527,1.48Zm2.056,32.974c-.43,1.158-.915,2.314-1.443,3.436a1.111,1.111,0,1,1-2.011-.946c.5-1.066.962-2.163,1.37-3.263a1.111,1.111,0,1,1,2.083.773Zm-4.384,8.724c-.674,1.039-1.4,2.061-2.157,3.038a1.111,1.111,0,1,1-1.756-1.36c.719-.929,1.409-1.9,2.05-2.888a1.111,1.111,0,1,1,1.864,1.21Zm-6.181,7.562c-.885.867-1.816,1.708-2.767,2.5a1.111,1.111,0,0,1-1.418-1.711c.9-.749,1.789-1.547,2.63-2.372a1.111,1.111,0,0,1,1.556,1.586ZM837.8,1128.4c-1.053.653-2.146,1.269-3.249,1.83a1.111,1.111,0,1,1-1.007-1.98c1.047-.533,2.085-1.117,3.085-1.738a1.111,1.111,0,1,1,1.171,1.888Zm-8.826,4.2c-1.168.4-2.369.764-3.57,1.068a1.111,1.111,0,1,1-.547-2.154c1.141-.29,2.281-.631,3.391-1.015a1.111,1.111,0,1,1,.726,2.1Zm-9.523,2.157c-.9.1-1.824.18-2.732.228q-.493.026-.984.041a1.1,1.1,0,0,1-1.144-1.076,1.111,1.111,0,0,1,1.076-1.145q.467-.014.936-.039c.863-.046,1.737-.118,2.6-.216a1.111,1.111,0,0,1,1.229.978c0,.023,0,.046.006.069A1.111,1.111,0,0,1,819.447,1134.754Z" transform="translate(-806.922 -1061.495)" fill="#00223d"/>
          <path id="Trazado_68416" data-name="Trazado 68416" d="M1047.7,1024.623a1.109,1.109,0,0,0-.235-.627c-.371-.473-.76-.947-1.154-1.409a1.111,1.111,0,1,0-1.69,1.442c.375.439.744.89,1.1,1.339a1.111,1.111,0,0,0,1.984-.745Z" transform="translate(-1005.032 -1022.197)" fill="#00223d"/>
        </g>
        <g id="Grupo_28688" data-name="Grupo 28688" transform="translate(10.56 10.946)">
          <path id="Trazado_68417" data-name="Trazado 68417" d="M618.083,995.676a.52.52,0,0,0-.6-.007l-5.191,3.6a27.532,27.532,0,0,0-8.664-2.116l-2.948-5.585a.519.519,0,0,0-.539-.271l-7.491,1.159a.519.519,0,0,0-.432.421l-1.121,6.215a27.53,27.53,0,0,0-7.62,4.636l-6.038-1.866a.52.52,0,0,0-.572.189l-4.477,6.117a.519.519,0,0,0-.007.6l3.6,5.191a27.526,27.526,0,0,0-2.116,8.664l-5.585,2.948a.52.52,0,0,0-.271.539l1.159,7.491a.519.519,0,0,0,.421.432l6.215,1.121a27.523,27.523,0,0,0,4.636,7.62l-1.866,6.038a.519.519,0,0,0,.189.572l6.117,4.477a.519.519,0,0,0,.6.008l5.191-3.6a27.527,27.527,0,0,0,8.664,2.116l2.948,5.585a.519.519,0,0,0,.539.271l7.491-1.159a.519.519,0,0,0,.431-.421l1.122-6.215a27.525,27.525,0,0,0,7.62-4.636l6.038,1.866a.519.519,0,0,0,.572-.189l4.477-6.117a.519.519,0,0,0,.008-.6l-3.6-5.191a27.527,27.527,0,0,0,2.116-8.664l5.585-2.948a.52.52,0,0,0,.271-.539l-1.159-7.491a.52.52,0,0,0-.421-.432l-6.215-1.121a27.532,27.532,0,0,0-4.636-7.62l1.866-6.038a.519.519,0,0,0-.189-.572Z" transform="translate(-568.006 -991.294)" fill="#e2dfdf"/>
          <g id="Grupo_28687" data-name="Grupo 28687" transform="translate(25.857 25.857)">
            <path id="Trazado_68418" data-name="Trazado 68418" d="M770.861,1187.28a7.614,7.614,0,1,1,.023-1.119A7.628,7.628,0,0,1,770.861,1187.28Zm-12.085,3.013a5.842,5.842,0,1,0-1.317-4.273,5.932,5.932,0,0,0-.018.866A5.8,5.8,0,0,0,758.776,1190.293Z" transform="translate(-755.655 -1178.947)" fill="#00223d"/>
          </g>
          <path id="Trazado_68419" data-name="Trazado 68419" d="M711.662,1116.942a19.143,19.143,0,0,0-.2-1.915h0q-.047-.3-.1-.6a18.857,18.857,0,0,0-.787-2.9l-.014-.038-.04-.109c-.026-.071-.053-.141-.079-.211a.445.445,0,0,0-.438-.285.453.453,0,0,0-.136.029.445.445,0,0,0-.256.574,17.868,17.868,0,0,1-4.905,19.823,17.738,17.738,0,0,1-9.028,4.217,18.081,18.081,0,0,1-1.827.189,17.848,17.848,0,1,1,5.811-34.365.439.439,0,0,0,.191.032.444.444,0,0,0,.144-.855,18.678,18.678,0,0,0-8.02-1.348,18.738,18.738,0,0,0-17.543,21.576,18.741,18.741,0,0,0,19.463,15.848,19.131,19.131,0,0,0,1.918-.2,18.739,18.739,0,0,0,15.848-19.465Z" transform="translate(-659.577 -1084.293)" fill="#00223d"/>
        </g>
      </g>
      <g id="Grupo_28694" data-name="Grupo 28694" transform="translate(20.278 0)">
        <g id="Grupo_28690" data-name="Grupo 28690" opacity="0.3">
          <path id="Trazado_68420" data-name="Trazado 68420" d="M887.974,488.283a.686.686,0,0,0-.527-.631c-.567-.134-1.145-.254-1.72-.354a.686.686,0,1,0-.236,1.352c.547.1,1.1.209,1.639.337a.687.687,0,0,0,.826-.509A.7.7,0,0,0,887.974,488.283Z" transform="translate(-850.973 -486.857)" fill="#00223d"/>
          <path id="Trazado_68421" data-name="Trazado 68421" d="M670.315,484.918a.686.686,0,0,1-.719.651,28.6,28.6,0,0,0-2.879.005q-.3.016-.606.039a.687.687,0,0,1-.734-.634.71.71,0,0,1,.634-.735q.318-.023.634-.04a29.788,29.788,0,0,1,3.018-.005.686.686,0,0,1,.651.648C670.316,484.871,670.316,484.895,670.315,484.918Zm-7.657,1.163a28.459,28.459,0,0,0-3.37.885.686.686,0,0,1-.43-1.3,29.747,29.747,0,0,1,3.532-.928.687.687,0,0,1,.807.54.708.708,0,0,1,.012.1A.686.686,0,0,1,662.658,486.081Zm-6.6,2.181a28.175,28.175,0,0,0-3.05,1.686.686.686,0,0,1-.737-1.158,29.64,29.64,0,0,1,3.2-1.769.686.686,0,0,1,.589,1.24ZM650.186,492a28.345,28.345,0,0,0-2.543,2.381.686.686,0,0,1-1-.942,29.761,29.761,0,0,1,2.667-2.5.686.686,0,0,1,.874,1.058Zm-4.777,5.056a28.6,28.6,0,0,0-1.889,2.927.686.686,0,0,1-1.2-.672,30.04,30.04,0,0,1,1.98-3.068.686.686,0,0,1,1.106.813Zm-3.4,6.062a28.1,28.1,0,0,0-1.117,3.3.686.686,0,1,1-1.325-.359,29.525,29.525,0,0,1,1.171-3.458.686.686,0,0,1,1.27.52Zm-1.818,6.708a28.2,28.2,0,0,0-.273,3.473.686.686,0,0,1-1.373-.024,29.767,29.767,0,0,1,.287-3.641.686.686,0,0,1,1.365.059A.7.7,0,0,1,640.185,509.824Zm-.051,11.214a.686.686,0,0,1-.824-.513,29.861,29.861,0,0,1-.552-3.125c-.021-.16-.038-.319-.055-.478a.679.679,0,0,1,.611-.754.686.686,0,0,1,.754.611c.015.149.032.3.052.451a28.5,28.5,0,0,0,.526,2.984.675.675,0,0,1,.017.12A.686.686,0,0,1,640.134,521.038Z" transform="translate(-638.539 -484.164)" fill="#00223d"/>
        </g>
        <g id="Grupo_28691" data-name="Grupo 28691" transform="translate(43.279 10.174)" opacity="0.3">
          <path id="Trazado_68422" data-name="Trazado 68422" d="M968.6,603.15a29.909,29.909,0,0,1-.075,3.591.686.686,0,1,1-1.368-.112,28.366,28.366,0,0,0,.071-3.425.686.686,0,0,1,1.371-.063Zm-.927-2.79a.686.686,0,0,1-.786-.568,28.723,28.723,0,0,0-.747-3.346.686.686,0,0,1,1.319-.379,30,30,0,0,1,.782,3.507.675.675,0,0,1,.008.074A.686.686,0,0,1,967.67,600.36Zm.341,9.939a29.814,29.814,0,0,1-.941,3.468.686.686,0,0,1-1.3-.439,28.467,28.467,0,0,0,.9-3.307.686.686,0,1,1,1.343.279Zm-2.12-16.721a.686.686,0,0,1-.9-.363,28.242,28.242,0,0,0-1.532-3.066.686.686,0,1,1,1.188-.687,29.426,29.426,0,0,1,1.607,3.216.687.687,0,0,1-.363.9Zm-.175,23.514a29.836,29.836,0,0,1-1.747,3.139.686.686,0,1,1-1.157-.739,28.27,28.27,0,0,0,1.666-2.994.686.686,0,0,1,1.238.594Zm-3.859,6.045a29.981,29.981,0,0,1-2.448,2.631.686.686,0,0,1-.946-.994,28.681,28.681,0,0,0,2.335-2.51.686.686,0,0,1,1.059.873Zm-5.2,4.948a29.654,29.654,0,0,1-3.009,1.967.686.686,0,0,1-.68-1.192,28.056,28.056,0,0,0,2.869-1.876.686.686,0,0,1,.96.141.679.679,0,0,1,.135.373A.686.686,0,0,1,956.661,628.086Z" transform="translate(-952.626 -584.832)" fill="#00223d"/>
          <path id="Trazado_68423" data-name="Trazado 68423" d="M1011.007,559.986a.686.686,0,0,0-.138-.377c-.354-.468-.724-.928-1.1-1.368a.686.686,0,1,0-1.044.891c.358.419.71.858,1.048,1.3a.686.686,0,0,0,1.233-.451Z" transform="translate(-1000.855 -558)" fill="#00223d"/>
        </g>
        <g id="Grupo_28693" data-name="Grupo 28693" transform="translate(7.007 7.268)">
          <path id="Trazado_68424" data-name="Trazado 68424" d="M722.9,539.838a.348.348,0,0,0-.4-.005l-3.474,2.412a18.423,18.423,0,0,0-5.8-1.415l-1.972-3.738a.348.348,0,0,0-.36-.181l-5.013.776a.347.347,0,0,0-.289.282l-.75,4.159a18.417,18.417,0,0,0-5.1,3.1l-4.04-1.249a.347.347,0,0,0-.383.127l-3,4.093a.347.347,0,0,0-.005.4l2.412,3.473a18.417,18.417,0,0,0-1.416,5.8l-3.737,1.972a.348.348,0,0,0-.181.36l.776,5.013a.347.347,0,0,0,.282.289l4.159.751a18.415,18.415,0,0,0,3.1,5.1l-1.249,4.04a.347.347,0,0,0,.127.383l4.093,3a.347.347,0,0,0,.4,0l3.474-2.412a18.417,18.417,0,0,0,5.8,1.416l1.973,3.738a.347.347,0,0,0,.36.181l5.013-.776a.347.347,0,0,0,.289-.282l.75-4.159a18.421,18.421,0,0,0,5.1-3.1l4.04,1.249a.348.348,0,0,0,.383-.127l3-4.093a.347.347,0,0,0,.005-.4l-2.412-3.474a18.42,18.42,0,0,0,1.416-5.8l3.737-1.973a.347.347,0,0,0,.181-.36l-.776-5.013a.348.348,0,0,0-.282-.289l-4.159-.75a18.419,18.419,0,0,0-3.1-5.1l1.249-4.04a.347.347,0,0,0-.127-.383Z" transform="translate(-689.389 -536.906)" fill="#e2dfdf"/>
          <g id="Grupo_28692" data-name="Grupo 28692" transform="translate(17.211 17.211)">
            <path id="Trazado_68425" data-name="Trazado 68425" d="M824.654,667.487a5.173,5.173,0,1,1,.016-.769A5.3,5.3,0,0,1,824.654,667.487Zm-5.525,3.316a3.818,3.818,0,0,0,4.159-3.444h0a3.818,3.818,0,0,0-7.6-.715,3.817,3.817,0,0,0,3.444,4.159Z" transform="translate(-814.297 -661.812)" fill="#00223d"/>
          </g>
          <path id="Trazado_68426" data-name="Trazado 68426" d="M783.455,618.517q-.034-.65-.135-1.307a13,13,0,0,0-.664-2.549l-.042-.111a.686.686,0,1,0-1.281.491,11.593,11.593,0,0,1,.63,2.378h0c.007.044.013.089.02.134a11.44,11.44,0,0,1-.59,5.627,11.611,11.611,0,0,1-1.463,2.746l-.015.021-.046.064a11.478,11.478,0,0,1-7.556,4.594,11.708,11.708,0,0,1-1.183.123,11.554,11.554,0,1,1,3.762-22.247.686.686,0,0,0,.894-.377.687.687,0,0,0-.377-.894A12.927,12.927,0,1,0,771.2,632.1a13.228,13.228,0,0,0,1.323-.137A12.945,12.945,0,0,0,783.455,618.517Z" transform="translate(-748.216 -596.703)" fill="#00223d"/>
        </g>
      </g>
    </g>
    <g id="Grupo_28702" data-name="Grupo 28702" transform="translate(542.452 455)">
      <path id="Trazado_68431" data-name="Trazado 68431" d="M856.149,797.472a23.535,23.535,0,0,1,23.535-23.535h200.145a20.735,20.735,0,0,1,20.708,19.681l14.774,290.172a15.291,15.291,0,0,1-14.993,16.066l-229.391,4.169a14.514,14.514,0,0,1-14.778-14.512Z" transform="translate(-856.149 -729.99)" fill="#00223d"/>
      <path id="Trazado_68432" data-name="Trazado 68432" d="M948.654,2787.014h-.007l-25.668-.332a15.83,15.83,0,0,1-15.565-15.768v-38.753a.548.548,0,0,1,1.1,0v38.753a14.73,14.73,0,0,0,14.483,14.672l25.667.332a.548.548,0,0,1-.007,1.1Z" transform="translate(-900.35 -2417.911)" fill="#91b3fa"/>
      <path id="Trazado_68433" data-name="Trazado 68433" d="M907.962,2606.321a.548.548,0,0,1-.548-.548V2599.5a.548.548,0,0,1,1.1,0v6.276A.548.548,0,0,1,907.962,2606.321Z" transform="translate(-900.35 -2303.528)" fill="url(#linear-gradient)"/>
      <g id="Grupo_28700" data-name="Grupo 28700" transform="translate(16.397 41.532)">
        <path id="Trazado_68434" data-name="Trazado 68434" d="M975.145,763.29a6.836,6.836,0,0,1,7.754-6.818c27.332,3.706,121.318,15.17,199.024,9.2a6.321,6.321,0,0,1,6.808,5.962l15.491,291.466a7.274,7.274,0,0,1-6.834,7.65c-32.682,1.934-167.277,9.411-215.284,4.382a5.763,5.763,0,0,1-5.157-5.7Z" transform="translate(-975.145 -756.408)" fill="#dbdada"/>
        <path id="Trazado_68435" data-name="Trazado 68435" d="M998.509,817.918a6.579,6.579,0,0,1,7.462-6.562c26.3,3.567,116.75,14.6,191.53,8.858a6.083,6.083,0,0,1,6.551,5.738l14.908,280.491a7,7,0,0,1-6.577,7.362c-31.451,1.861-160.978,9.056-207.178,4.217a5.547,5.547,0,0,1-4.963-5.489Z" transform="translate(-995.29 -803.732)" fill="#fff"/>
        <path id="Trazado_68436" data-name="Trazado 68436" d="M1175.187,989.684l2.793,60.135a3.822,3.822,0,0,0,3.71,3.646c11.137.314,45.84,1.161,65.435.139a4.269,4.269,0,0,0,4.044-4.127c.374-11.277,1.191-44.1-1.379-57.823a4.818,4.818,0,0,0-4.574-3.919l-65.827-2.3A4.065,4.065,0,0,0,1175.187,989.684Z" transform="translate(-1147.619 -953.873)" fill="#dbdada"/>
        <path id="Trazado_68437" data-name="Trazado 68437" d="M1907.251,1020.7a2.008,2.008,0,0,0,2.066-2.017,2.2,2.2,0,0,0-2.183-2.055l-72.625-1.294a1.381,1.381,0,0,0-1.418,1.966l.492,1.4a3.222,3.222,0,0,0,2.83,2Z" transform="translate(-1714.773 -979.659)" fill="#dbdada"/>
        <path id="Trazado_68438" data-name="Trazado 68438" d="M1834.508,1096.695a1.38,1.38,0,0,0-1.418,1.966l.492,1.4a3.222,3.222,0,0,0,2.83,2h70.839a2.008,2.008,0,0,0,2.066-2.017,2.2,2.2,0,0,0-2.183-2.055Z" transform="translate(-1714.773 -1049.806)" fill="#dbdada"/>
        <path id="Trazado_68439" data-name="Trazado 68439" d="M1834.508,1179.235a1.38,1.38,0,0,0-1.418,1.966l.492,1.4a3.222,3.222,0,0,0,2.83,2h70.839a2.008,2.008,0,0,0,2.066-2.017,2.2,2.2,0,0,0-2.183-2.055Z" transform="translate(-1714.773 -1120.972)" fill="#dbdada"/>
        <path id="Trazado_68440" data-name="Trazado 68440" d="M1834.508,1273.177a1.381,1.381,0,0,0-1.418,1.966l.492,1.4a3.222,3.222,0,0,0,2.83,2h70.839a2.008,2.008,0,0,0,2.066-2.017,2.2,2.2,0,0,0-2.183-2.055Z" transform="translate(-1714.773 -1201.969)" fill="#dbdada"/>
        <path id="Trazado_68441" data-name="Trazado 68441" d="M1834.508,1365.859a1.381,1.381,0,0,0-1.418,1.966l.492,1.4a3.222,3.222,0,0,0,2.83,2h70.839a2.008,2.008,0,0,0,2.066-2.017,2.2,2.2,0,0,0-2.183-2.055Z" transform="translate(-1714.773 -1281.88)" fill="#dbdada"/>
        <path id="Trazado_68442" data-name="Trazado 68442" d="M1352.94,1582.521a1.922,1.922,0,0,0,1.991-2.017,2.276,2.276,0,0,0-2.258-2.034l-169.55-1.336c-1.168-.009-1.529.731-.8,1.645l1.656,2.08a5,5,0,0,0,3.448,1.662Z" transform="translate(-1153.451 -1464.043)" fill="#dbdada"/>
        <path id="Trazado_68443" data-name="Trazado 68443" d="M1183.124,1658.491c-1.168-.009-1.529.731-.8,1.645l1.656,2.08a5,5,0,0,0,3.448,1.662H1352.94a1.922,1.922,0,0,0,1.991-2.017,2.275,2.275,0,0,0-2.258-2.034Z" transform="translate(-1153.451 -1534.19)" fill="#dbdada"/>
        <path id="Trazado_68444" data-name="Trazado 68444" d="M1170.942,1791.119c4.066-.312,11.68-.456,15.872-.515a3.8,3.8,0,0,1,3.75,2.9,61.912,61.912,0,0,1,1.785,15.346,3.373,3.373,0,0,1-3.4,3.3l-15.467-.167a3.714,3.714,0,0,1-3.658-3.368l-1.36-14.551A2.706,2.706,0,0,1,1170.942,1791.119Z" transform="translate(-1141.812 -1648.099)" fill="#fff" opacity="0.6"/>
        <path id="Trazado_68445" data-name="Trazado 68445" d="M1381.081,1837.624a1.691,1.691,0,0,0-1.807,2.012l.44,2.93a2.552,2.552,0,0,0,2.44,2.1h38.006a2.1,2.1,0,0,0,2.1-2.124l-.013-1.075a2.275,2.275,0,0,0-2.149-2.213Z" transform="translate(-1323.568 -1688.639)" fill="#dbdada"/>
        <path id="Trazado_68446" data-name="Trazado 68446" d="M1782.466,1791.119c4.066-.312,11.68-.456,15.872-.515a3.8,3.8,0,0,1,3.75,2.9,61.9,61.9,0,0,1,1.784,15.346,3.373,3.373,0,0,1-3.4,3.3l-15.467-.167a3.714,3.714,0,0,1-3.658-3.368l-1.36-14.551A2.706,2.706,0,0,1,1782.466,1791.119Z" transform="translate(-1669.072 -1648.099)" fill="#dbdada"/>
        <path id="Trazado_68447" data-name="Trazado 68447" d="M1992.6,1837.624a1.691,1.691,0,0,0-1.807,2.012l.44,2.93a2.552,2.552,0,0,0,2.44,2.1h38.006a2.1,2.1,0,0,0,2.1-2.124l-.013-1.075a2.276,2.276,0,0,0-2.149-2.213Z" transform="translate(-1850.827 -1688.639)" fill="#dbdada"/>
        <g id="Grupo_28699" data-name="Grupo 28699" transform="translate(31.458 176.356)">
          <path id="Trazado_68448" data-name="Trazado 68448" d="M1222.942,2091.021h-.039l-14.273-.137a3.837,3.837,0,0,1-3.915-3.263l-1.255-11.976a2.6,2.6,0,0,1,.615-1.957,3.135,3.135,0,0,1,2.184-1.078h0c1.2-.082,2.9-.227,4.688-.379,3.775-.322,8.473-.721,11.117-.755a3.989,3.989,0,0,1,4,2.8c.744,2.749.678,7.953.537,13.5A3.527,3.527,0,0,1,1222.942,2091.021Zm-16.608-17.316a2.029,2.029,0,0,0-1.42.689,1.513,1.513,0,0,0-.364,1.137l1.255,11.975a2.746,2.746,0,0,0,2.836,2.282l14.272.137h.028a2.431,2.431,0,0,0,2.559-2.184c.139-5.459.206-10.575-.5-13.182a2.945,2.945,0,0,0-2.925-1.986c-2.6.033-7.28.431-11.037.751-1.8.153-3.5.3-4.707.38Z" transform="translate(-1203.447 -2066.625)" fill="#fff"/>
          <path id="Trazado_68449" data-name="Trazado 68449" d="M1224.032,2090.945c3-.205,9.515-.867,12.606-.905a2.763,2.763,0,0,1,2.766,1.911c.6,2.205.517,6.6.414,10.66a2.374,2.374,0,0,1-2.51,2.172l-11.406-.11a2.635,2.635,0,0,1-2.7-2.216l-1-9.57A1.853,1.853,0,0,1,1224.032,2090.945Z" transform="translate(-1219.61 -2082.63)" fill="url(#linear-gradient-2)"/>
          <path id="Trazado_68450" data-name="Trazado 68450" d="M1435.164,2127.772a3.543,3.543,0,0,0,3.457,2.64l132.056-1.126a2.68,2.68,0,0,0-.011-5.359l-132.059-.6A3.544,3.544,0,0,0,1435.164,2127.772Z" transform="translate(-1403.132 -2111.329)" fill="#dbdada"/>
          <path id="Trazado_68451" data-name="Trazado 68451" d="M1232.88,2046.462h0a2.19,2.19,0,0,1,3.022.822l2.815,5.046a.7.7,0,0,0,1.256-.054l6.982-15.545a.78.78,0,0,1,1.49.337,30.689,30.689,0,0,1-8.93,21.358s-4.187-1.627-7.558-9.031A2.3,2.3,0,0,1,1232.88,2046.462Z" transform="translate(-1227.849 -2036.269)" fill="#00223d"/>
          <path id="Trazado_68452" data-name="Trazado 68452" d="M1222.942,2313.014h-.039l-14.273-.137a3.837,3.837,0,0,1-3.915-3.263l-1.255-11.975a2.6,2.6,0,0,1,.615-1.957,3.134,3.134,0,0,1,2.184-1.078h0c1.2-.082,2.9-.227,4.688-.379,3.775-.322,8.473-.721,11.117-.754h.057a3.98,3.98,0,0,1,3.939,2.8c.744,2.749.678,7.953.537,13.5A3.527,3.527,0,0,1,1222.942,2313.014Zm-16.608-17.316a2.029,2.029,0,0,0-1.42.689,1.513,1.513,0,0,0-.364,1.137l1.255,11.975a2.745,2.745,0,0,0,2.836,2.282l14.272.137h.028a2.432,2.432,0,0,0,2.559-2.184c.139-5.459.206-10.575-.5-13.182a2.928,2.928,0,0,0-2.925-1.985c-2.6.032-7.28.43-11.037.75-1.8.153-3.5.3-4.707.381Z" transform="translate(-1203.447 -2258.03)" fill="#fff"/>
          <path id="Trazado_68453" data-name="Trazado 68453" d="M1224.032,2312.943c3-.2,9.515-.866,12.606-.9a2.762,2.762,0,0,1,2.766,1.91c.6,2.205.517,6.6.414,10.659a2.374,2.374,0,0,1-2.51,2.172l-11.406-.109a2.635,2.635,0,0,1-2.7-2.215l-1-9.57A1.852,1.852,0,0,1,1224.032,2312.943Z" transform="translate(-1219.61 -2274.039)" fill="url(#linear-gradient-2)"/>
          <path id="Trazado_68454" data-name="Trazado 68454" d="M1435.164,2349.77a3.543,3.543,0,0,0,3.457,2.64l132.056-1.126a2.68,2.68,0,0,0-.011-5.359l-132.059-.6A3.544,3.544,0,0,0,1435.164,2349.77Z" transform="translate(-1403.132 -2302.737)" fill="#dbdada"/>
          <path id="Trazado_68455" data-name="Trazado 68455" d="M1232.88,2268.459h0a2.191,2.191,0,0,1,3.022.822l2.815,5.046a.7.7,0,0,0,1.256-.054l6.982-15.545a.78.78,0,0,1,1.49.337,30.69,30.69,0,0,1-8.93,21.358s-4.187-1.627-7.558-9.031A2.3,2.3,0,0,1,1232.88,2268.459Z" transform="translate(-1227.849 -2227.677)" fill="#00223d"/>
          <path id="Trazado_68456" data-name="Trazado 68456" d="M1222.942,2535.011h-.039l-14.273-.137a3.835,3.835,0,0,1-3.915-3.263l-1.255-11.975a2.6,2.6,0,0,1,.615-1.958,3.134,3.134,0,0,1,2.184-1.078h0c1.2-.082,2.9-.226,4.688-.379,3.775-.321,8.473-.721,11.117-.754h.057a3.98,3.98,0,0,1,3.939,2.8c.744,2.749.678,7.953.537,13.5A3.527,3.527,0,0,1,1222.942,2535.011Zm-16.608-17.316a2.03,2.03,0,0,0-1.42.689,1.513,1.513,0,0,0-.364,1.138l1.255,11.975a2.744,2.744,0,0,0,2.836,2.281l14.273.137h.028a2.431,2.431,0,0,0,2.559-2.184c.139-5.459.206-10.575-.5-13.182a2.924,2.924,0,0,0-2.925-1.985c-2.6.033-7.28.43-11.037.751-1.8.153-3.5.3-4.707.38Z" transform="translate(-1203.447 -2449.437)" fill="#fff"/>
          <path id="Trazado_68457" data-name="Trazado 68457" d="M1224.032,2534.94c3-.205,9.515-.867,12.606-.906a2.764,2.764,0,0,1,2.766,1.911c.6,2.206.517,6.6.414,10.659a2.374,2.374,0,0,1-2.51,2.172l-11.406-.11a2.635,2.635,0,0,1-2.7-2.215l-1-9.57A1.852,1.852,0,0,1,1224.032,2534.94Z" transform="translate(-1219.61 -2465.446)" fill="url(#linear-gradient-2)"/>
          <path id="Trazado_68458" data-name="Trazado 68458" d="M1435.164,2571.768a3.544,3.544,0,0,0,3.457,2.64l132.056-1.125a2.68,2.68,0,0,0-.011-5.36l-132.059-.6A3.544,3.544,0,0,0,1435.164,2571.768Z" transform="translate(-1403.132 -2494.144)" fill="#dbdada"/>
          <path id="Trazado_68459" data-name="Trazado 68459" d="M1232.88,2490.457h0a2.191,2.191,0,0,1,3.022.822l2.815,5.046a.7.7,0,0,0,1.256-.054l6.982-15.545a.78.78,0,0,1,1.49.336,30.69,30.69,0,0,1-8.93,21.359s-4.187-1.627-7.558-9.031A2.3,2.3,0,0,1,1232.88,2490.457Z" transform="translate(-1227.849 -2419.085)" fill="#00223d"/>
          <path id="Trazado_68460" data-name="Trazado 68460" d="M1222.942,2757.009h-.039l-14.273-.137a3.835,3.835,0,0,1-3.915-3.263l-1.255-11.975a2.6,2.6,0,0,1,.615-1.958,3.134,3.134,0,0,1,2.184-1.078h0c1.2-.082,2.9-.226,4.688-.379,3.775-.322,8.473-.721,11.117-.754h.057a3.98,3.98,0,0,1,3.939,2.8c.744,2.749.678,7.952.537,13.5A3.527,3.527,0,0,1,1222.942,2757.009Zm-16.608-17.316a2.029,2.029,0,0,0-1.42.689,1.515,1.515,0,0,0-.364,1.138l1.255,11.975a2.745,2.745,0,0,0,2.836,2.281l14.273.137h.028a2.431,2.431,0,0,0,2.559-2.184c.139-5.459.206-10.575-.5-13.183a2.92,2.92,0,0,0-2.925-1.985c-2.6.033-7.28.431-11.037.751-1.8.153-3.5.3-4.707.381Z" transform="translate(-1203.447 -2640.845)" fill="#fff"/>
          <path id="Trazado_68461" data-name="Trazado 68461" d="M1224.032,2756.938c3-.2,9.515-.866,12.606-.905a2.763,2.763,0,0,1,2.766,1.911c.6,2.206.517,6.6.414,10.659a2.374,2.374,0,0,1-2.51,2.172l-11.406-.109a2.635,2.635,0,0,1-2.7-2.215l-1-9.57A1.853,1.853,0,0,1,1224.032,2756.938Z" transform="translate(-1219.61 -2656.854)" fill="url(#linear-gradient-2)"/>
          <path id="Trazado_68462" data-name="Trazado 68462" d="M1435.164,2793.765h0a3.544,3.544,0,0,0,3.457,2.64l132.056-1.126a2.68,2.68,0,0,0-.011-5.359l-132.059-.6A3.544,3.544,0,0,0,1435.164,2793.765Z" transform="translate(-1403.132 -2685.552)" fill="#dbdada"/>
          <path id="Trazado_68463" data-name="Trazado 68463" d="M1232.88,2712.455h0a2.19,2.19,0,0,1,3.022.822l2.815,5.046a.7.7,0,0,0,1.256-.054l6.982-15.544a.78.78,0,0,1,1.49.336,30.69,30.69,0,0,1-8.93,21.358s-4.187-1.627-7.558-9.031A2.3,2.3,0,0,1,1232.88,2712.455Z" transform="translate(-1227.849 -2610.493)" fill="#00223d"/>
        </g>
      </g>
      <path id="Trazado_68464" data-name="Trazado 68464" d="M1691.567,459.384c-7.229-5.029-13.516-4.93-17.941-3.624a8.826,8.826,0,0,0-6.269,9.28l1.908,20.83,22.709,2.015S1705.745,469.247,1691.567,459.384Zm-9.986,16.8a5.662,5.662,0,1,1,5.662-5.662A5.662,5.662,0,0,1,1681.58,476.188Z" transform="translate(-1555.546 -455)" fill="#00223d"/>
      <g id="Grupo_28701" data-name="Grupo 28701" transform="translate(114.581 3.05)">
        <path id="Trazado_68465" data-name="Trazado 68465" d="M1689.1,496.192a.548.548,0,0,1-.545-.5l-.3-3.317a.548.548,0,1,1,1.091-.1l.3,3.317a.548.548,0,0,1-.5.6Zm-.6-6.5a.548.548,0,0,1-.545-.5l-.231-2.518a8.425,8.425,0,0,1,5.974-8.84,16.971,16.971,0,0,1,8.3-.341.548.548,0,0,1-.22,1.073,15.906,15.906,0,0,0-7.77.318,7.327,7.327,0,0,0-5.192,7.689l.231,2.518a.548.548,0,0,1-.5.6Z" transform="translate(-1687.692 -477.135)" fill="#bdd0fb"/>
      </g>
      <path id="Trazado_68466" data-name="Trazado 68466" d="M1456.511,671.2V660.728a6.391,6.391,0,0,1,6.609-6.387l72.2,2.474a6.215,6.215,0,0,1,5.991,5.84l.6,10.063Z" transform="translate(-1373.785 -626.87)" fill="#00223d"/>
      <path id="Trazado_68467" data-name="Trazado 68467" d="M1629.04,676.145h-3.105a.548.548,0,1,1,0-1.1h3.105a.548.548,0,1,1,0,1.1Z" transform="translate(-1519.392 -644.728)" fill="#bdd0fb"/>
      <path id="Trazado_68468" data-name="Trazado 68468" d="M1481.445,685.77a.548.548,0,0,1-.548-.548v-4.237a5.943,5.943,0,0,1,5.936-5.936h11.416a.548.548,0,1,1,0,1.1h-11.416a4.846,4.846,0,0,0-4.84,4.84v4.237A.548.548,0,0,1,1481.445,685.77Z" transform="translate(-1394.811 -644.728)" fill="#bdd0fb"/>
      <path id="Trazado_68469" data-name="Trazado 68469" d="M1241.22,755.358a6.8,6.8,0,0,1,6.8-6.477l126.262,0a9.333,9.333,0,0,1,9.2,7.74l.107.617a8.014,8.014,0,0,1-7.9,9.382H1246.146a5.211,5.211,0,0,1-5.2-5.461Z" transform="translate(-1187.915 -708.383)" fill="#dbdada"/>
    </g>
    <g id="Grupo_28708" data-name="Grupo 28708" transform="translate(488.187 543.398)">
      <g id="Grupo_28705" data-name="Grupo 28705" transform="translate(0 71.471)">
        <path id="Trazado_68470" data-name="Trazado 68470" d="M655.976,1789.063s-4.5,2.189-5.328,4.7c-.664,2.018-5.64,2.278-6.132,6.246a4.553,4.553,0,0,1-3.811,4c-5.082.779-12.915,3.418-14.168,12.243-.957,6.735,2.477,9.29,6.081,10.174a5.1,5.1,0,0,1,3.87,5.9c-.513,2.563.252,5.526,4.692,7.868,9.95,5.25,19.887-12.438,19.887-12.438l2.036-30.885Z" transform="translate(-603.77 -1765.108)" fill="#00223d"/>
        <path id="Trazado_68471" data-name="Trazado 68471" d="M964.488,1670.858s-12.8,34.9-34.619,45.811c0,0,7.261,11.847,11.05,12.566,0,0,23.3-29.828,25.681-54.264Z" transform="translate(-865.445 -1663.191)" fill="url(#linear-gradient-6)"/>
        <path id="Trazado_68472" data-name="Trazado 68472" d="M473.637,3181.829l-.644,5.293a2.187,2.187,0,0,1-1.918,1.913,33.841,33.841,0,0,1-7.084.111,1.873,1.873,0,0,1-1.573-2.428c.65-2.043,1.838-5.111,3.551-6.917h5.872A1.809,1.809,0,0,1,473.637,3181.829Z" transform="translate(-462.33 -2964.211)" fill="#7d6eb2"/>
        <path id="Trazado_68473" data-name="Trazado 68473" d="M807.247,2744.522l.991,5.83s-3.319,33.617-3.909,47.064a10.535,10.535,0,0,0,1.559,5.988l5.771,9.372-14.667-8.655-.292-1.79,2.4-3.3-3.145-37.66a11.552,11.552,0,0,1,1.315-6.391l3.034-5.7Z" transform="translate(-749.95 -2588.911)" fill="url(#linear-gradient-7)"/>
        <path id="Trazado_68474" data-name="Trazado 68474" d="M810.307,3162.641h-4.681a2.819,2.819,0,0,1-2.236-1.1c-1.459-1.9-4.482-5.6-5.928-5.692-1.946-.13-1.7,6.788-1.7,6.788h-1.091l-1.381-8.6a5.088,5.088,0,0,1,2.67-5.319s.445,3.289,2.857,4.745,9.815,6.666,9.815,6.666a6.7,6.7,0,0,1,1.9.051A1.238,1.238,0,0,1,810.307,3162.641Z" transform="translate(-747.632 -2937.418)" fill="#7d6eb2"/>
        <path id="Trazado_68475" data-name="Trazado 68475" d="M512.4,2749.456s-19.443,36.881-22.534,45.3a80.886,80.886,0,0,0-4.215,16.11c-.065,1.04-1.358,2.036-4.921,2.036a3.418,3.418,0,0,1-3.181-1.451,2.076,2.076,0,0,1-.079-2.012c1.125-2.276,4.694-9.55,6.016-12.849,1.578-3.939,4.973-21.79,6.835-28s3.966-12.939,12.074-19.14C502.4,2749.456,507.966,2744,512.4,2749.456Z" transform="translate(-475.197 -2591.076)" fill="url(#linear-gradient-8)"/>
        <path id="Trazado_68476" data-name="Trazado 68476" d="M773.373,2047.79c5.015-21.253-7.69-33.272-7.69-33.272,8.017-7.7,22.624-11.2,22.624-11.2s13.938,10.19,12.285,18.166c-.969,4.675-9.8,28-9.8,28A19.4,19.4,0,0,1,773.373,2047.79Z" transform="translate(-723.883 -1949.841)" fill="#7d6eb2"/>
        <path id="Trazado_68477" data-name="Trazado 68477" d="M667.055,2336.567c2.041-6.149,11.12-10.522,11.12-10.522a19.4,19.4,0,0,0,17.421,1.7,34.942,34.942,0,0,1,.567,13.5c-1.263,6.5-9.191,48.3-9.191,48.3-12.491,2.531-31.7-2.546-31.7-2.546C663.226,2372.866,665.013,2342.716,667.055,2336.567Z" transform="translate(-628.684 -2228.097)" fill="#7d6eb2"/>
        <path id="Trazado_68478" data-name="Trazado 68478" d="M837.829,1890.47l-4.078,18.316c-.39,1.613,1.08,1.349,2.711,1.042,2.671-.5,6.114-1.541,7.265-3.62a1.973,1.973,0,0,0,.209-.69l1.752-12.7a2.282,2.282,0,0,0-1.335-2.4l-3.38-1.5A2.282,2.282,0,0,0,837.829,1890.47Z" transform="translate(-782.518 -1851.036)" fill="url(#linear-gradient-9)"/>
        <g id="Grupo_28703" data-name="Grupo 28703" transform="translate(46.18 15.486)">
          <path id="Trazado_68479" data-name="Trazado 68479" d="M844.653,1773.032s4.829,2.039,8.113,9.017.832,10.2-2.248,10.643-7.687.375-12.559-4.133S838.375,1770.615,844.653,1773.032Z" transform="translate(-830.737 -1766.523)" fill="url(#linear-gradient-10)"/>
          <path id="Trazado_68480" data-name="Trazado 68480" d="M807.969,1745.912s-3.643-10.21,5.409-10.33l2.13,1.489s3.321-5.66-2.13-8.363-11.831-.47-14.151,6.874-2.716,12.26,1.143,15.774,5.45-.47,5.45-.47-2.1-3.286-1.246-5.045,2.829.363,2.829.363Z" transform="translate(-797.472 -1727.601)" fill="#00223d"/>
          <path id="Trazado_68481" data-name="Trazado 68481" d="M834.854,1845.852s-1.842-5.259-4.3-3.165,2,4.858,3.741,5.753Z" transform="translate(-825.372 -1826.405)" fill="url(#linear-gradient-11)"/>
        </g>
        <g id="Grupo_28704" data-name="Grupo 28704" transform="translate(96.495)">
          <path id="Trazado_68482" data-name="Trazado 68482" d="M1166.4,1629.234c.2.621-2.067,1.566-3.4-.973-.047-1.217-.787-6.432-.06-7.423,3.874-5.281,7.965-5.623,7.965-5.623a17.646,17.646,0,0,1,2.127,4.205,5.1,5.1,0,0,1-.509,3.758c-.64,1.152-1.512,2.65-2.337,3.822A5.041,5.041,0,0,1,1166.4,1629.234Z" transform="translate(-1162.619 -1615.213)" fill="url(#linear-gradient-12)"/>
        </g>
        <path id="Trazado_68483" data-name="Trazado 68483" d="M747.359,2020.174s37.3,45.545,65.165-6.314a6.41,6.41,0,0,0,.2-3.239c-.169-.966.47-4.394.821-6.145a.966.966,0,0,0-.859-1.15,1.319,1.319,0,0,0-1.165.5l-5.09,6.482a2.718,2.718,0,0,0,1.441,3.226,1.341,1.341,0,0,1,.5,2.025c-21.193,27.78-56.639-2.7-57.288-2.346C748.782,2014.481,746.123,2015.885,747.359,2020.174Z" transform="translate(-707.813 -1949.841)" fill="url(#linear-gradient-13)"/>
      </g>
      <g id="Grupo_28707" data-name="Grupo 28707" transform="translate(63.813)">
        <path id="Trazado_68484" data-name="Trazado 68484" d="M1126.423,1867.109c.059-.731.805-1.363,2.069-1.87-1.373-.757-2.133-1.569-2.069-2.365.194-2.409,7.823-3.759,17.039-3.016s16.529,3.3,16.335,5.707c-.059.731-.8,1.363-2.069,1.87,1.373.757,2.133,1.569,2.069,2.365-.059.73-.8,1.363-2.069,1.87,1.373.757,2.133,1.569,2.069,2.365-.059.731-.8,1.363-2.069,1.87,1.373.757,2.133,1.569,2.069,2.365-.086,1.065-1.628,1.923-4.116,2.485a21.345,21.345,0,0,1-.063,2.6c-.361,4.439-5.353,7.919-11.957,7.919s-12.319-4.745-12.384-9.2a22.421,22.421,0,0,1,.129-2.906c-3.16-1.055-5.084-2.344-4.983-3.594.059-.73.805-1.363,2.069-1.87-1.373-.757-2.133-1.569-2.069-2.365.059-.731.805-1.363,2.069-1.87C1127.118,1868.717,1126.359,1867.905,1126.423,1867.109Z" transform="translate(-1098.725 -1754.501)" fill="url(#linear-gradient-14)"/>
        <g id="Grupo_28706" data-name="Grupo 28706" transform="translate(30.359 110.96)">
          <path id="Trazado_68485" data-name="Trazado 68485" d="M1184.4,2004.615a39.81,39.81,0,0,0,7.31-.6.221.221,0,1,0-.083-.435,47.673,47.673,0,0,1-12.177.385,52.343,52.343,0,0,1-10.213-1.762.222.222,0,0,0-.124.425,52.792,52.792,0,0,0,10.3,1.777C1181.127,2004.547,1182.8,2004.615,1184.4,2004.615Z" transform="translate(-1165.757 -1988.362)" fill="#91b3fa"/>
          <path id="Trazado_68486" data-name="Trazado 68486" d="M1164.356,1966.613a34.777,34.777,0,0,0,8.975-.973.221.221,0,0,0-.121-.426c-3.194.91-8.338,1.192-13.758.755-5.362-.432-10.363-1.52-13.378-2.911a.221.221,0,1,0-.186.4c3.059,1.411,8.116,2.514,13.528,2.95C1161.1,1966.546,1162.768,1966.613,1164.356,1966.613Z" transform="translate(-1145.76 -1954.599)" fill="#91b3fa"/>
          <path id="Trazado_68487" data-name="Trazado 68487" d="M1164.4,1935.881a32.32,32.32,0,0,0,9.461-1.139.221.221,0,1,0-.139-.42c-3.147,1.037-8.482,1.378-14.272.912-5.362-.432-10.363-1.52-13.378-2.911a.222.222,0,0,0-.186.4c3.06,1.411,8.117,2.514,13.528,2.95C1161.131,1935.813,1162.807,1935.881,1164.4,1935.881Z" transform="translate(-1145.76 -1928.099)" fill="#91b3fa"/>
          <path id="Trazado_68488" data-name="Trazado 68488" d="M1164.805,1905.342a38.162,38.162,0,0,0,7.97-.725.221.221,0,0,0-.1-.432,46.151,46.151,0,0,1-12.794.512c-5.314-.428-10.289-1.5-13.309-2.88a.221.221,0,0,0-.183.4c3.064,1.394,8.095,2.485,13.457,2.917C1161.544,1905.274,1163.213,1905.342,1164.805,1905.342Z" transform="translate(-1146.194 -1901.797)" fill="#91b3fa"/>
        </g>
        <path id="Trazado_68489" data-name="Trazado 68489" d="M992.694,1187.761a31.169,31.169,0,0,1,5.581-10.9,72.13,72.13,0,0,0,15.538-40.169c1.6-27.916-23.156-41.892-45.748-39.995s-44.885,18.719-42.445,44.689c1.5,15.98,10.446,28.1,17.1,35.061a36.979,36.979,0,0,1,8.878,15.729c2,7.216,6.755,16.208,18.059,16.756C984.29,1209.646,990.365,1196.011,992.694,1187.761Z" transform="translate(-925.437 -1096.531)" fill="url(#radial-gradient)"/>
        <path id="Trazado_68490" data-name="Trazado 68490" d="M1158.591,1540.024l-7.905-51.415c-.163-1.062-.686-1.775-1.168-1.593s-.74,1.191-.576,2.253c0,.028.01.063.015.091l9,50.937c.068.383.262.625.435.54S1158.648,1540.394,1158.591,1540.024Z" transform="translate(-1118.103 -1433.185)" fill="#00223d"/>
        <path id="Trazado_68491" data-name="Trazado 68491" d="M1278.713,1542.987l7.905-51.415c.163-1.062.686-1.776,1.168-1.593s.739,1.191.576,2.253c0,.028-.01.063-.015.091l-9,50.937c-.068.383-.262.625-.434.54S1278.656,1543.357,1278.713,1542.987Z" transform="translate(-1230.018 -1435.74)" fill="#00223d"/>
        <path id="Trazado_68492" data-name="Trazado 68492" d="M1161.74,1427.806a.829.829,0,0,1,1.038-.269l4.4,2.056,1.528-4.353a.934.934,0,0,1,.535-.539,1.088,1.088,0,0,1,1.353.417l.008.014,3.62,6.6,3.359-9.4.006-.016a1.072,1.072,0,0,1,.509-.573,1.318,1.318,0,0,1,1.662.327l5.061,6.967a.61.61,0,0,1-.178.879.848.848,0,0,1-1.076-.117l-4.456-4.971-4.012,8.938,0,.007a.709.709,0,0,1-.353.347.838.838,0,0,1-1.05-.272l-3.872-6.213-1.457,3.142-.013.028a.622.622,0,0,1-.036.067.829.829,0,0,1-1.037.269l-5.225-2.442A.621.621,0,0,1,1161.74,1427.806Z" transform="translate(-1129.1 -1376.796)" fill="#00223d" opacity="0.79"/>
        <path id="Trazado_68493" data-name="Trazado 68493" d="M1017.447,1578.251a1.416,1.416,0,0,0,1.136-2.26,58.01,58.01,0,0,1-3.641-5.531,1.416,1.416,0,1,0-2.453,1.417,60.794,60.794,0,0,0,3.819,5.8A1.414,1.414,0,0,0,1017.447,1578.251Z" transform="translate(-1000.33 -1504.546)" fill="#fff" opacity="0.79"/>
        <path id="Trazado_68494" data-name="Trazado 68494" d="M967.566,1305.181a1.417,1.417,0,0,0,1.3-1.981,46.386,46.386,0,0,1-1.078-35.208,1.416,1.416,0,0,0-2.575-1.18c-.319.7-7.723,17.3,1.055,37.517A1.417,1.417,0,0,0,967.566,1305.181Z" transform="translate(-956.953 -1242.635)" fill="#fff" opacity="0.79"/>
      </g>
    </g>
    <g id="Grupo_28714" data-name="Grupo 28714" transform="translate(692.414 627.314)">
      <path id="Trazado_68495" data-name="Trazado 68495" d="M2282.277,3165.665s.784,4.2,1.188,8.369a2.871,2.871,0,0,1-2.717,3.138c-5.549.284-17.419.847-21.681.7a.934.934,0,0,1-.834-1.272,2.092,2.092,0,0,1,1.059-1.138l19.528-9.2Z" transform="translate(-2214.941 -2964.469)" fill="#f6c343"/>
      <path id="Trazado_68496" data-name="Trazado 68496" d="M2397.751,3143.1l-.55,5.042s-3.421,1.632-5.784-.146l1.369-5.627Z" transform="translate(-2329.83 -2944.379)" fill="url(#linear-gradient-15)"/>
      <path id="Trazado_68497" data-name="Trazado 68497" d="M2398.694,2459.611c.271,1.313,2.012,65.626-4.589,94.517a.979.979,0,0,0,.585,1.133,17.044,17.044,0,0,0,5.611,1.085,1.686,1.686,0,0,0,1.66-1.226c1.9-6.707,11-40.305,11.923-72.327,1.031-35.781-.012-1.218-.012-1.218l-1.016-22.1Z" transform="translate(-2332.125 -2355.584)" fill="#1363b2"/>
      <path id="Trazado_68498" data-name="Trazado 68498" d="M2548.294,3180.046s1.2,2.115,2.4,7.753a1.752,1.752,0,0,1-1.522,2.113c-1.831.2-4.651.457-6.911.462a1.747,1.747,0,0,1-1.748-1.932,14.733,14.733,0,0,1,3.363-8.114Z" transform="translate(-2458.376 -2976.868)" fill="#f6c343"/>
      <path id="Trazado_68499" data-name="Trazado 68499" d="M2570.126,3131.395l-1.323,7.631s-1.371,1.04-4.11.322l.588-8.2Z" transform="translate(-2479.23 -2934.705)" fill="url(#linear-gradient-16)"/>
      <path id="Trazado_68500" data-name="Trazado 68500" d="M2451.147,2452.3c5.948,33.884-.419,83.891-2.635,93.689a1.525,1.525,0,0,1-1.22,1.169,10.24,10.24,0,0,1-4.4-.134,1.4,1.4,0,0,1-1.017-1.277c-.385-7.9-.291-56.42-5.713-75.543a4.358,4.358,0,0,0-1.7-2.387l-10.239-7.133L2423.33,2449Z" transform="translate(-2357.345 -2346.556)" fill="#1363b2"/>
      <g id="Grupo_28709" data-name="Grupo 28709" transform="translate(7.34 16.127)">
        <path id="Trazado_68501" data-name="Trazado 68501" d="M2209.21,1992.5c16.85-.439,35.489,4.087,35.489,4.087,5.3,29.263,1.48,63.111,1.48,63.111-13.014,3.546-27.784-1.827-27.784-1.827-2.285-12.23-12.732-46.614-12.732-46.614a55.518,55.518,0,0,1-20.665-6.342c4.214-4.98,6.162-11.283,7-15.006A56.544,56.544,0,0,0,2209.21,1992.5Z" transform="translate(-2159.195 -1966.851)" fill="#f6c343"/>
        <path id="Trazado_68502" data-name="Trazado 68502" d="M1997.729,1823.87a3.224,3.224,0,0,1,3.741-1.089c2.58,10.452,15.664,18.822,29.063,22.846-.837,3.723-2.786,10.027-7,15.007C2001.244,1848.379,1997.729,1823.87,1997.729,1823.87Z" transform="translate(-1997.729 -1822.568)" fill="url(#linear-gradient-17)"/>
      </g>
      <g id="Grupo_28710" data-name="Grupo 28710" transform="translate(0 0)">
        <path id="Trazado_68503" data-name="Trazado 68503" d="M1952.206,1723.463c-.168.552,1.846,1.372,3.006-.892.031-1.08.644-5.711-.01-6.584-3.48-4.651-10.2-10.458-10.2-10.458a1.585,1.585,0,0,0-.177,2.2l3.263,3.335a15.626,15.626,0,0,0-1.851,3.747,4.527,4.527,0,0,0,.483,3.328c.577,1.016,1.363,2.337,2.1,3.37A4.471,4.471,0,0,0,1952.206,1723.463Z" transform="translate(-1944.46 -1705.529)" fill="url(#linear-gradient-18)"/>
        <path id="Trazado_68504" data-name="Trazado 68504" d="M1977.2,1761.476l2.968,2.468.948,2.476-2.6,2.937s-.93-4.922-1.6-5.983S1976.6,1761.794,1977.2,1761.476Z" transform="translate(-1972.137 -1753.767)" fill="url(#linear-gradient-19)"/>
      </g>
      <path id="Trazado_68505" data-name="Trazado 68505" d="M2572.48,2054.751l6.308-16.38s15.843,10.546,18.561,24.081a37.262,37.262,0,0,0-13.649,3.8C2582.475,2059.858,2572.48,2054.751,2572.48,2054.751Z" transform="translate(-2485.944 -1992.508)" fill="#f6c343"/>
      <path id="Trazado_68506" data-name="Trazado 68506" d="M2459.338,2220.918s17.768,9.82,23.651,1.234a6.7,6.7,0,0,0,1.179-5.22,37.242,37.242,0,0,1,13.649-3.8,18.718,18.718,0,0,1-1.911,12.85c-10.263,19.208-38.865-.685-38.865-.685Z" transform="translate(-2386.41 -2143.189)" fill="url(#linear-gradient-20)"/>
      <path id="Trazado_68507" data-name="Trazado 68507" d="M2415.346,1908.24l5.51,15.456a.558.558,0,0,1-.248.675c-1.454.822-6.7,3.208-13.082-.755a2.631,2.631,0,0,1-1.229-1.868l-1.865-13.4Z" transform="translate(-2341.051 -1880.308)" fill="url(#linear-gradient-21)"/>
      <g id="Grupo_28712" data-name="Grupo 28712" transform="translate(32.253 56.637)">
        <g id="Grupo_28711" data-name="Grupo 28711">
          <path id="Trazado_68508" data-name="Trazado 68508" d="M2222.832,2153.167l-9.679-33.8a.985.985,0,0,0-.833-.71c-1.754-.2-6.836-.78-12.7-1.275-7.067-.6-15.275-1.082-20.179-.67a.989.989,0,0,0-.809,1.424c2.789,5.642,14.26,28.594,20.005,36.112a.992.992,0,0,0,.8.392l22.457-.209A.989.989,0,0,0,2222.832,2153.167Z" transform="translate(-2178.526 -2116.557)" fill="#1363b2"/>
          <path id="Trazado_68509" data-name="Trazado 68509" d="M2408.248,2250.869s1.348-5.544.8-7.511-1.6-4.5-5.11-3.934a51.4,51.4,0,0,0-7.656,2.042,2.011,2.011,0,0,0,2.879,1.735l-1.656,1.281s.237,2.052,2.491.956l-1.54,1.7a1.8,1.8,0,0,0,2.628.6C2402.748,2246.659,2403.543,2251.536,2408.248,2250.869Z" transform="translate(-2366.28 -2222.425)" fill="url(#linear-gradient-22)"/>
        </g>
        <path id="Trazado_68510" data-name="Trazado 68510" d="M2300.711,2177.985a2.841,2.841,0,1,1-2.841-2.842A2.841,2.841,0,0,1,2300.711,2177.985Z" transform="translate(-2278.976 -2167.07)" fill="#91b3fa"/>
        <path id="Trazado_68511" data-name="Trazado 68511" d="M2253.266,2142.943l-1.971-6.685a2.292,2.292,0,0,0-1.722-1.609c-6.177-1.289-23.083-1.562-23.253-1.565l.011-.755c.7.011,17.149.277,23.4,1.581a3.047,3.047,0,0,1,2.293,2.134l1.971,6.685Z" transform="translate(-2219.735 -2130.156)" fill="#91b3fa"/>
      </g>
      <g id="Grupo_28713" data-name="Grupo 28713" transform="translate(55.073 4.728)">
        <path id="Trazado_68512" data-name="Trazado 68512" d="M2370.346,1790.021c-.192.192-8.113,16.693-8.113,16.693l8.977,4.6,9.7-14.456S2373.564,1786.807,2370.346,1790.021Z" transform="translate(-2359.74 -1782.56)" fill="url(#linear-gradient-23)"/>
        <path id="Trazado_68513" data-name="Trazado 68513" d="M2361.331,1754.538a1.6,1.6,0,0,1-.107,1.334l-4.477,7.918a1.488,1.488,0,0,1-.246.324c-.533.526-2.357,2.057-3.766-.027-1.2-1.776-2.329-3.391-3.537-4.057a1.394,1.394,0,0,0-1.932.675,58.67,58.67,0,0,0-3.064,7.711,1.54,1.54,0,0,0,.829,1.854,38.021,38.021,0,0,0,8.6,2.661,1.4,1.4,0,0,0,1.354-.61c1.372-1.994,5.238-7.565,6.557-8.959,1.226-1.3,3.488-.807,4.508-.5a1.369,1.369,0,0,0,1.144-.159,3.439,3.439,0,0,0,1.188-5.093,1.578,1.578,0,0,1,.443-2.066,3.461,3.461,0,0,0,1.214-4.768,4.384,4.384,0,0,0-4.837-2.512,1.473,1.473,0,0,1-1.56-.92.96.96,0,0,0-.739-.617,1.471,1.471,0,0,1-1.125-1.732,3.975,3.975,0,0,0-2.048-4.458c-3.873-2.259-7.266,1.422-8.129,4.53s3.468,5.3,6.192,5.67C2359.793,1751.01,2360.89,1753.327,2361.331,1754.538Z" transform="translate(-2344.135 -1739.842)" fill="#00223d"/>
        <path id="Trazado_68514" data-name="Trazado 68514" d="M2458.242,1899.374s1.722-5.347,3.927-5.15,3.94,2.526,1.208,5.146C2459.978,1902.628,2458.242,1899.374,2458.242,1899.374Z" transform="translate(-2442.519 -1872.947)" fill="url(#linear-gradient-24)"/>
      </g>
    </g>
  </g>
</svg>
