<svg xmlns="http://www.w3.org/2000/svg" xmlns:xlink="http://www.w3.org/1999/xlink" width="91.927" height="91.927" viewBox="0 0 91.927 91.927">
  <defs>
    <radialGradient id="radial-gradient" cx="0.076" cy="0.019" r="1.465" gradientTransform="translate(0.001)" gradientUnits="objectBoundingBox">
      <stop offset="0" stop-color="#f6f6f7"/>
      <stop offset="0.477" stop-color="#f9f9fa"/>
      <stop offset="0.715" stop-color="#fff"/>
    </radialGradient>
  </defs>
  <g id="Grupo_53053" data-name="Grupo 53053" transform="translate(-217 -997)">
    <g id="Grupo_18531" data-name="Grupo 18531" transform="translate(142 1024)">
      <g id="Grupo_18423" data-name="Grupo 18423" transform="translate(75 -27)">
        <g id="Grupo_18421" data-name="Grupo 18421">
          <g id="Grupo_18420" data-name="Grupo 18420">
            <g id="Grupo_18419" data-name="Grupo 18419">
              <path id="Trazado_40936" data-name="Trazado 40936" d="M286.55,2191.684a45.964,45.964,0,1,1-45.963-45.962A45.963,45.963,0,0,1,286.55,2191.684Z" transform="translate(-194.623 -2145.721)" fill="#fff"/>
            </g>
          </g>
        </g>
        <path id="Trazado_40937" data-name="Trazado 40937" d="M286.23,2191.334a45.963,45.963,0,1,0-45.963,45.965A45.782,45.782,0,0,0,286.23,2191.334Z" transform="translate(-194.303 -2145.372)" fill="url(#radial-gradient)"/>
        <path id="Trazado_40938" data-name="Trazado 40938" d="M272.56,2188.562a35.084,35.084,0,1,0-35.084,35.084A34.953,34.953,0,0,0,272.56,2188.562Z" transform="translate(-191.373 -2142.446)" fill="none" stroke="#7d6eb2" stroke-miterlimit="10" stroke-width="4"/>
        <g id="Grupo_18422" data-name="Grupo 18422" transform="translate(8.143 25.805)">
          <path id="Trazado_40939" data-name="Trazado 40939" d="M279.682,2164.488a45.969,45.969,0,0,1-79.137,45.773,45.823,45.823,0,0,0,79.137-45.773Z" transform="translate(-200.545 -2164.488)" fill="#eceef0"/>
        </g>
      </g>
    </g>
    <g id="Grupo_46655" data-name="Grupo 46655" transform="translate(3191.476 -1662.514)">
      <path id="Trazado_97052" data-name="Trazado 97052" d="M-2928.223,2719.445q6.588,0,13.176.008c.365,0,.521-.083.47-.465a4.607,4.607,0,0,1-.006-.66c.006-.458.232-.6.635-.392,1.074.558,2.144,1.125,3.215,1.688.563.3,1.131.581,1.684.894.132.075.3.249.292.364a.6.6,0,0,1-.3.394c-1.62.833-3.248,1.65-4.876,2.467-.347.174-.57.045-.608-.338-.009-.085-.007-.171-.008-.257-.01-.722-.01-.722-.713-.722h-26.938a2.477,2.477,0,0,1-2.662-2.623c-.01-2.557-.007-5.114-.007-7.67,0-.924,0-1.847,0-2.771q0-7.958,0-15.916c0-.5,0-.5-.492-.5-.147,0-.294.005-.44,0-.43-.014-.574-.244-.376-.627.444-.858.9-1.711,1.346-2.566.4-.758.784-1.522,1.2-2.269a.7.7,0,0,1,.44-.351c.125-.009.313.2.392.36.8,1.566,1.591,3.14,2.384,4.712.243.482.1.708-.447.712-.233,0-.466.019-.7,0-.265-.021-.336.093-.333.341.01.966,0,1.933,0,2.9q0,5.468,0,10.937c0,1.064-.035,2.127-.033,3.191,0,2.933.026,5.866.026,8.8,0,.341.159.363.427.363Q-2934.848,2719.441-2928.223,2719.445Z" fill="#00223d"/>
      <path id="Trazado_97053" data-name="Trazado 97053" d="M-2872.2,2796.821h5.75a.864.864,0,0,1,.037.15c.033.636.032.636.689.636a3.329,3.329,0,0,1,.55,0c.545.092.887-.278,1.265-.55.08-.057.1-.24.1-.364.006-1.395,0-2.789,0-4.183v-.438c.155-.01.284-.026.414-.026,1.663,0,3.327.008,4.99-.009.337,0,.412.114.405.424-.018.818-.006,1.635-.006,2.492.476.025.9.115,1.3-.239a13.281,13.281,0,0,1,1.22-.939.594.594,0,0,0,.271-.551c-.009-1.773,0-3.547,0-5.32v-2h5.809v5.973c.542,0,1.029.009,1.515-.01a.314.314,0,0,0,.209-.214,5.757,5.757,0,0,0,.011-.585c.018-.306.2-.423.464-.285q2.032,1.059,4.055,2.135c.307.164.3.412-.014.573q-1.975,1.01-3.959,2c-.331.165-.505.046-.525-.327-.027-.52-.027-.52-.545-.52-1.187,0-2.373-.009-3.559.009a1.085,1.085,0,0,0-.595.2c-1,.745-1.986,1.509-2.971,2.273a2.844,2.844,0,0,1-1.8.619c-.832,0-1.664-.014-2.495.008a1.292,1.292,0,0,0-.641.2c-.931.609-1.848,1.238-2.763,1.871a3.022,3.022,0,0,1-1.792.546c-.868-.007-1.737-.016-2.6.009a1.716,1.716,0,0,0-.759.2c-.7.39-1.375.822-2.063,1.232q-.878.523-1.765,1.031a1.413,1.413,0,0,1-1.59-.025,1.381,1.381,0,0,1,.027-2.2c.36-.25.729-.49,1.109-.708a.463.463,0,0,0,.268-.466c-.011-.734,0-1.468,0-2.2Z" transform="translate(-66.84 -91.522)" fill="#00223d"/>
      <path id="Trazado_97054" data-name="Trazado 97054" d="M-2616.55,2941.239c0-1.247,0-2.494,0-3.742a.57.57,0,0,1,.245-.522c.89-.667,1.763-1.357,2.654-2.022a.994.994,0,0,1,.53-.183c.66-.021,1.321.009,1.98-.016.337-.013.412.116.4.425-.03,1.122-.052,2.245-.05,3.368,0,1.4.032,2.8.044,4.2q.01,1.137,0,2.274a1.2,1.2,0,0,1-1.283,1.284q-1.614.008-3.228,0a1.212,1.212,0,0,1-1.288-1.29C-2616.557,2943.758-2616.55,2942.5-2616.55,2941.239Z" transform="translate(-305.509 -229.441)" fill="#00223d"/>
      <path id="Trazado_97055" data-name="Trazado 97055" d="M-2727.73,2980.692c0,1.087,0,2.175,0,3.262a1.235,1.235,0,0,1-1.4,1.4q-1.54,0-3.079,0a1.22,1.22,0,0,1-1.324-1.324c0-1.442,0-2.884-.006-4.325a.451.451,0,0,1,.28-.439c.859-.537,1.729-1.064,2.532-1.677a3.083,3.083,0,0,1,2.226-.686c.768.06.771.013.771.788Q-2727.73,2979.189-2727.73,2980.692Z" transform="translate(-197.113 -268.482)" fill="#00223d"/>
      <path id="Trazado_97056" data-name="Trazado 97056" d="M-2842.07,3015.615c0,.685.005,1.37,0,2.055a1.2,1.2,0,0,1-1.273,1.262q-1.633.008-3.266,0a1.185,1.185,0,0,1-1.249-1.243c-.008-.575-.015-1.15.01-1.724a.555.555,0,0,1,.224-.394c1.32-.783,2.631-1.587,3.993-2.292a3.657,3.657,0,0,1,1.424-.146c.041,0,.13.182.132.281C-2842.065,3014.146-2842.071,3014.881-2842.07,3015.615Z" transform="translate(-91.177 -302.066)" fill="#00223d"/>
      <path id="Trazado_97057" data-name="Trazado 97057" d="M-2844.99,2883.77c-.842,0-1.685-.01-2.527.006-.276,0-.405-.061-.383-.364.024-.328,0-.659.01-.989a1.155,1.155,0,0,1,1.124-1.173q1.776-.042,3.552,0a1.169,1.169,0,0,1,1.105,1.157c.013.354-.007.709.01,1.062.012.251-.1.307-.326.3C-2843.281,2883.763-2844.135,2883.77-2844.99,2883.77Z" transform="translate(-91.143 -179.846)" fill="#00223d"/>
      <path id="Trazado_97058" data-name="Trazado 97058" d="M-2616.56,2734.857c0-.448-.022-.888.005-1.326a1.222,1.222,0,0,1,1.211-1.148q1.686-.022,3.373,0a1.187,1.187,0,0,1,1.2,1.183,9.38,9.38,0,0,1,0,1.1c-.005.086-.143.236-.221.236-1.821.011-3.642.005-5.462,0C-2616.476,2734.9-2616.5,2734.885-2616.56,2734.857Z" transform="translate(-305.495 -41.916)" fill="#00223d"/>
      <path id="Trazado_97059" data-name="Trazado 97059" d="M-2733.943,2818.926a10.992,10.992,0,0,1,.148-1.582,1.1,1.1,0,0,1,1.176-.833c1.069,0,2.138-.006,3.207,0a1.225,1.225,0,0,1,1.306,1.305c.007.329.013.66-.011.988-.006.083-.127.225-.195.225-1.843.005-3.686,0-5.528-.012C-2733.849,2819.021-2733.857,2819.006-2733.943,2818.926Z" transform="translate(-196.737 -119.876)" fill="#00223d"/>
    </g>
  </g>
</svg>
