<svg xmlns="http://www.w3.org/2000/svg" xmlns:xlink="http://www.w3.org/1999/xlink" width="91.927" height="91.927" viewBox="0 0 91.927 91.927">
  <defs>
    <radialGradient id="radial-gradient" cx="0.076" cy="0.019" r="1.465" gradientTransform="translate(0.001)" gradientUnits="objectBoundingBox">
      <stop offset="0" stop-color="#f6f6f7"/>
      <stop offset="0.477" stop-color="#f9f9fa"/>
      <stop offset="0.715" stop-color="#fff"/>
    </radialGradient>
  </defs>
  <g id="Grupo_53051" data-name="Grupo 53051" transform="translate(-217 -997)">
    <g id="Grupo_18531" data-name="Grupo 18531" transform="translate(142 1024)">
      <g id="Grupo_18423" data-name="Grupo 18423" transform="translate(75 -27)">
        <g id="Grupo_18421" data-name="Grupo 18421">
          <g id="Grupo_18420" data-name="Grupo 18420">
            <g id="Grupo_18419" data-name="Grupo 18419">
              <path id="Trazado_40936" data-name="Trazado 40936" d="M286.55,2191.684a45.964,45.964,0,1,1-45.963-45.962A45.963,45.963,0,0,1,286.55,2191.684Z" transform="translate(-194.623 -2145.721)" fill="#fff"/>
            </g>
          </g>
        </g>
        <path id="Trazado_40937" data-name="Trazado 40937" d="M286.23,2191.334a45.963,45.963,0,1,0-45.963,45.965A45.782,45.782,0,0,0,286.23,2191.334Z" transform="translate(-194.303 -2145.372)" fill="url(#radial-gradient)"/>
        <path id="Trazado_40938" data-name="Trazado 40938" d="M272.56,2188.562a35.084,35.084,0,1,0-35.084,35.084A34.953,34.953,0,0,0,272.56,2188.562Z" transform="translate(-191.373 -2142.446)" fill="none" stroke="#7d6eb2" stroke-miterlimit="10" stroke-width="4"/>
        <g id="Grupo_18422" data-name="Grupo 18422" transform="translate(8.143 25.805)">
          <path id="Trazado_40939" data-name="Trazado 40939" d="M279.682,2164.488a45.969,45.969,0,0,1-79.137,45.773,45.823,45.823,0,0,0,79.137-45.773Z" transform="translate(-200.545 -2164.488)" fill="#eceef0"/>
        </g>
      </g>
    </g>
    <g id="Grupo_46653" data-name="Grupo 46653" transform="translate(2475.876 -757.225)">
      <path id="Trazado_97018" data-name="Trazado 97018" d="M-2199.365,1789.389c.381-3.486.381-3.486-3.147-4.181V1783c3.822-.765,6.077,1.313,5.913,4.647-.173,3.531-.039,7.076-.038,10.615v1.476l-2.611-.615v-7.368h-29.11c-.023.43-.062.8-.062,1.176q-.005,8.506,0,17.013c0,1.68.353,2.043,2.012,2.046,4.348.01,8.7.065,13.042-.033,1.312-.03,1.991.292,2.08,1.629a5.615,5.615,0,0,0,.281,1c-.478.031-.876.078-1.274.078q-7.1.008-14.194,0c-3.053,0-4.576-1.5-4.581-4.547q-.018-11.384,0-22.769c.006-2.981,1.5-4.469,4.484-4.516,1.059-.017,2.119,0,3.248,0a3.871,3.871,0,0,1,.213-1.435c.3-.471.831-1.1,1.259-1.1a1.673,1.673,0,0,1,1.229,1.095,21.04,21.04,0,0,1,.018,4.208,1.582,1.582,0,0,1-.977,1.117,1.529,1.529,0,0,1-1.353-.585,1.2,1.2,0,0,0-1.406-.754c-.254.017-.511,0-.767,0-3.363,0-3.771.507-3.161,4.014Z" transform="translate(0 -0.021)" fill="#00223d"/>
      <path id="Trazado_97019" data-name="Trazado 97019" d="M-2129.618,1864.83l-1.558,4.144-3.507-2.274,1.288-.671a7.469,7.469,0,0,0-8.177-4.3,7.787,7.787,0,0,0-6.34,6.656,7.771,7.771,0,0,0,5.443,8.4,7.751,7.751,0,0,0,9.1-3.907c.357-.659.692-1.431,1.608-.965.991.5.512,1.3.173,1.983a9.805,9.805,0,0,1-11.278,4.9,9.774,9.774,0,0,1-7.087-10.532,9.663,9.663,0,0,1,8.479-8.594,9.387,9.387,0,0,1,9.479,4.515C-2131.435,1865.033-2131,1865.623-2129.618,1864.83Z" transform="translate(-60.331 -59.032)" fill="#00223d"/>
      <path id="Trazado_97020" data-name="Trazado 97020" d="M-2181.525,1785.3V1782.9h11.147c.046-.622-.062-1.156.146-1.5.292-.481.813-1.124,1.249-1.133a1.676,1.676,0,0,1,1.261,1.069,21.83,21.83,0,0,1,.008,4.325,1.626,1.626,0,0,1-1.047,1.06c-.361.1-.9-.289-1.286-.561-.211-.148-.274-.507-.445-.855Z" transform="translate(-36.867)" fill="#00223d"/>
      <path id="Trazado_97021" data-name="Trazado 97021" d="M-2206.646,1878.5c-3.42.024-3.067.356-2.987-3.52.007-.356.7-.951,1.122-1a32.953,32.953,0,0,1,3.693-.047.8.8,0,0,1,.377.035c1.436.848.532,2.226.72,3.353.126.756-.342,1.185-1.14,1.178C-2205.455,1878.5-2206.05,1878.5-2206.646,1878.5Z" transform="translate(-15.912 -69.692)" fill="#00223d"/>
      <path id="Trazado_97022" data-name="Trazado 97022" d="M-2206.811,1847.74c-3.139.011-2.928.278-2.968-2.966-.015-1.236.477-1.7,1.671-1.62.889.057,1.784.011,2.677.012a2.4,2.4,0,0,1,.635.013c1.841.529.791,2.042,1.005,3.108.155.771-.087,1.464-1.108,1.454C-2205.536,1847.735-2206.173,1847.74-2206.811,1847.74Z" transform="translate(-15.84 -46.798)" fill="#00223d"/>
      <path id="Trazado_97023" data-name="Trazado 97023" d="M-2172.545,1847.8c-3.192,0-3.016.432-2.992-3.321.005-.835.395-1.261,1.246-1.255,1.191.008,2.382,0,3.573,0a1.05,1.05,0,0,1,1.194,1.167c0,.085,0,.17,0,.255C-2169.522,1848.126-2169.254,1847.809-2172.545,1847.8Z" transform="translate(-41.316 -46.859)" fill="#00223d"/>
      <path id="Trazado_97024" data-name="Trazado 97024" d="M-2119.053,1880.994c.026-.175-.014-.444.1-.585,1.1-1.352.619-3.019.96-4.516.1-.431.556-.78.849-1.167a5.093,5.093,0,0,1,.852,1.193,4.892,4.892,0,0,1,.112,1.521,7.571,7.571,0,0,0,2.069,5.126,3.089,3.089,0,0,1,.719.883c.119.341.154.917-.045,1.106a1.312,1.312,0,0,1-1.12.059c-.377-.141-.641-.56-1-.769a12.039,12.039,0,0,0-1.985-.978A1.966,1.966,0,0,1-2119.053,1880.994Z" transform="translate(-83.36 -70.3)" fill="#00223d"/>
      <path id="Trazado_97025" data-name="Trazado 97025" d="M-2172.2,1873.967c.51,0,1.02-.01,1.529,0,1.21.025,1.608.524,1.35,1.677-.648,2.894-.649,2.932-3.645,2.868-.733-.016-2.008-.243-2.086-.587a11.485,11.485,0,0,1,0-3.494c.016-.181.6-.4.94-.443A17.214,17.214,0,0,1-2172.2,1873.967Z" transform="translate(-41.579 -69.722)" fill="#00223d"/>
      <path id="Trazado_97026" data-name="Trazado 97026" d="M-2138.262,1843.156c.384,0,.769.024,1.151,0,1.967-.15,1.915.6,1.81,2.445-.011.19-.344.433-.577.526-1.219.489-2.464.913-3.681,1.408-1.057.43-1.618.111-1.7-1.042-.006-.085,0-.17,0-.256C-2141.348,1843.159-2141.349,1843.159-2138.262,1843.156Z" transform="translate(-66.814 -46.788)" fill="#00223d"/>
    </g>
  </g>
</svg>
