<svg xmlns="http://www.w3.org/2000/svg" width="444.154" height="115.505" viewBox="0 0 444.154 115.505">
  <g id="Grupo_53079" data-name="Grupo 53079" transform="translate(-499.594 -20.061)">
    <text id="REVISTA" transform="translate(640 48.061)" fill="#f6c343" font-size="29" font-family="Montserrat-Bold, Montserrat" font-weight="700"><tspan x="0" y="0">REVISTA</tspan></text>
    <g id="Grupo_46270" data-name="Grupo 46270" transform="translate(499.594 33.557)">
      <path id="Trazado_27177" data-name="Trazado 27177" d="M4413.216,985.462V885.036a10.106,10.106,0,0,1,1.932-.4c14.523.024,29.055-.231,43.565.192,22.281.649,40.021,16.449,43.949,38.284,2.6,14.449.612,28.046-7.09,40.628-6.943,11.345-17.264,18.777-30.375,19.967C4448.091,985.258,4430.816,984.955,4413.216,985.462Zm30.519-23.405c14.349,2.23,21.555-1.983,25.824-14.721a40.416,40.416,0,0,0-.076-25.883c-3.621-11.173-9.305-15.07-21.041-15.01-3.474.017-4.9.961-4.776,4.622.24,7.026.069,14.065.069,21.1C4443.733,942.046,4443.734,951.929,4443.734,962.057Z" transform="translate(-4413.216 -884.471)" fill="#fff"/>
      <path id="Trazado_27178" data-name="Trazado 27178" d="M4557.219,911.421h26.09c.231,2.988.466,6.013.814,10.526,5.751-9.443,13.44-12.609,22.66-12.574,14.638.055,23.068,7.076,23.721,21.475.774,17.1.349,34.253.257,51.383-.006,1.043-1.629,2.955-2.54,2.98-8.5.231-17.014.137-26.059.137,0-4.686,0-8.964,0-13.241-.009-11.208.1-22.417-.082-33.622-.1-6.418-2.243-9.141-6.638-9.455-5.271-.375-8.623,2.389-9.269,8.748-.611,6.025-.456,12.135-.505,18.207-.072,8.646.1,17.3-.157,25.934-.039,1.291-1.8,3.588-2.824,3.625-8.352.3-16.719.167-25.466.167Z" transform="translate(-4417.459 -885.202)" fill="#fff"/>
      <path id="Trazado_27179" data-name="Trazado 27179" d="M4721.97,953.663h-50.151c-1.8,6.706,2.312,12.952,6.962,14.315,6.578,1.927,12.343-.292,15.586-6.054.618-1.1,2.211-2.433,3.289-2.379,8.192.408,16.368,1.134,25,1.794-1.792,8.108-6.294,13.868-12.572,18.391-14.794,10.657-41.794,9.831-55.889-1.784-11.454-9.437-14.693-22.109-12.367-35.942,2.381-14.166,10.286-24.718,24.521-29.553a48.552,48.552,0,0,1,24.284-2.091C4711.964,914.054,4723.986,931.626,4721.97,953.663ZM4692.657,939.4c.59-8.964-3.159-13.353-10.807-13.258-7.058.086-11.1,5.144-10.233,13.258Z" transform="translate(-4419.931 -885.21)" fill="#fff"/>
      <path id="Trazado_27180" data-name="Trazado 27180" d="M4826.5,986.881c-19.724.116-35.069-10.338-39.931-27.085-6.44-22.183,5.667-43.379,28.231-48.877,16.128-3.93,31.029-1.165,42.686,11.074,11.483,12.058,13.63,26.722,7.431,41.891-5.968,14.6-18.2,21.362-33.584,22.974A46.381,46.381,0,0,1,4826.5,986.881Zm-11.254-38.022c.771,4.812,1.247,10.078,2.539,15.138,1.048,4.105,4.151,6.057,8.732,6.03s7.562-2.1,8.74-6.136a52.492,52.492,0,0,0,.372-29.34c-1.2-4.275-3.887-7.26-8.95-7.337-5.285-.081-8.208,2.958-9.366,7.427C4816.159,939.078,4815.942,943.751,4815.242,948.86Z" transform="translate(-4424.165 -885.198)" fill="#fff"/>
      <path id="Trazado_27181" data-name="Trazado 27181" d="M4733.492,984.959V911.4h23.852v13.765l1.166.732c3.209-11.557,9.773-18.237,22.76-16.189V934.7c-1.916,0-3.789-.029-5.659,0-8.99.162-13.4,4.312-13.525,13.3-.174,12.165-.044,24.334-.044,36.959Z" transform="translate(-4422.652 -885.201)" fill="#fff"/>
      <path id="Trazado_27182" data-name="Trazado 27182" d="M4543.177,985.866c-8.588,0-16.785.118-24.969-.153-1-.034-2.752-2.157-2.762-3.323q-.25-31.917.025-63.835c.01-1.187,2.051-3.333,3.21-3.376,8.028-.3,16.071-.157,24.5-.157Z" transform="translate(-4416.224 -885.367)" fill="#fff"/>
      <path id="Trazado_27183" data-name="Trazado 27183" d="M4540.682,895.637c-.006,5.966-5.4,11.209-11.536,11.212a11.478,11.478,0,0,1-11.278-11.418c0-6.293,4.929-10.974,11.533-10.962A10.866,10.866,0,0,1,4540.682,895.637Z" transform="translate(-4416.299 -884.468)" fill="#fff"/>
    </g>
  </g>
</svg>
