<svg xmlns="http://www.w3.org/2000/svg" xmlns:xlink="http://www.w3.org/1999/xlink" width="356.281" height="306.473" viewBox="0 0 356.281 306.473">
  <defs>
    <linearGradient id="linear-gradient" x1="0.5" x2="0.5" y2="1" gradientUnits="objectBoundingBox">
      <stop offset="0" stop-color="#fff"/>
      <stop offset="1" stop-color="#d2e6ee"/>
    </linearGradient>
  </defs>
  <g id="Grupo_46132" data-name="Grupo 46132" transform="translate(-103.362 -31.307)">
    <g id="Grupo_46099" data-name="Grupo 46099" transform="translate(138.685 137.616)">
      <path id="Trazado_96006" data-name="Trazado 96006" d="M117.658,57.823l4.635,6.256c-1.248,1.877,8.408-9.95,8.408-9.95l3.4,1.491L127.8,66.3a4.092,4.092,0,0,1-6.782.266l-6.81-.214-3.261-6.6C111.858,60.478,117.094,56.77,117.658,57.823Z" transform="translate(-110.945 -54.129)" fill="#00223d" fill-rule="evenodd"/>
      <path id="Trazado_96007" data-name="Trazado 96007" d="M112.778,55.664l-.047,8.161C111.371,60.182,112.778,55.664,112.778,55.664Z" transform="translate(-106.578 -48.514)" fill="#191e7f" fill-rule="evenodd"/>
    </g>
    <path id="Trazado_96013" data-name="Trazado 96013" d="M178.017,36.165l1.388,7.464,10.742-2L168.02,63.341,155.993,51.088l-29.155,30.3,5.47,5.264,23.74-24.672,11.872,12.1,29.14-28.591.415,11.4,7.588-.276-.922-25.3Z" transform="translate(85.879 0)" fill="#f6c343"/>
    <g id="Grupo_46108" data-name="Grupo 46108" transform="translate(389.08 101.701)">
      <g id="Grupo_46103" data-name="Grupo 46103" transform="translate(0 30.595)">
        <g id="Grupo_46101" data-name="Grupo 46101">
          <path id="Trazado_96014" data-name="Trazado 96014" d="M206.277,73.6c1.165-.55,2.194-1.043,3.1-1.486-.27-.974-.54-1.942-.81-2.916-.289-.964-.564-1.938-.834-2.911-1.011.112-2.138.233-3.424.377l-2.581.293a16.379,16.379,0,0,0-3.279-4.02l.848-2.511c.424-1.211.787-2.292,1.127-3.251-.885-.489-1.77-.978-2.651-1.453s-1.789-.974-2.674-1.467c-.624.806-1.328,1.691-2.12,2.711l-1.668,2.119a16.531,16.531,0,0,0-4.518-.531l-1.1-2.427c-.531-1.169-.992-2.2-1.421-3.135-.978.252-1.957.508-2.93.759s-1.956.508-2.93.759c.093,1.02.177,2.152.3,3.428l.233,2.651a17.043,17.043,0,0,0-3.7,2.683l-2.38-.992c-1.193-.5-2.236-.936-3.191-1.332-.536.857-1.071,1.719-1.607,2.557l-1.607,2.576c.764.675,1.607,1.444,2.548,2.3l1.9,1.686A16.932,16.932,0,0,0,170,76.115l-2.194,1.043c-1.165.55-2.194,1.043-3.107,1.467.27.974.545,1.947.834,2.911.27.974.54,1.942.811,2.916,1.015-.112,2.157-.238,3.433-.359l2.343-.252a16.8,16.8,0,0,0,3.447,4.374l-.745,2.11c-.424,1.206-.787,2.287-1.127,3.247.885.489,1.765.964,2.65,1.453s1.775.978,2.669,1.449c.629-.787,1.346-1.677,2.129-2.674l1.4-1.765a16.311,16.311,0,0,0,4.928.6l.908,2.036c.512,1.179.988,2.208,1.4,3.126.978-.256,1.952-.508,2.93-.759s1.952-.508,2.93-.759c-.089-1-.177-2.133-.279-3.414l-.2-2.283a17.266,17.266,0,0,0,3.969-2.963l2.12.871c1.192.489,2.231.918,3.182,1.295.54-.838,1.076-1.7,1.612-2.557s1.071-1.7,1.607-2.557c-.764-.675-1.607-1.444-2.567-2.292l-1.812-1.593a16.533,16.533,0,0,0,.778-6.116ZM189.727,85.73A10.687,10.687,0,1,1,197.385,72.7,10.691,10.691,0,0,1,189.727,85.73Z" transform="translate(-164.698 -52.987)" fill="#f6c343"/>
        </g>
        <g id="Grupo_46102" data-name="Grupo 46102" transform="translate(9.258 9.277)">
          <path id="Trazado_96015" data-name="Trazado 96015" d="M177.868,81.039A13.1,13.1,0,1,1,192.746,70,13.12,13.12,0,0,1,177.868,81.039Zm3.522-23.752a10.911,10.911,0,1,0,9.191,12.391A10.925,10.925,0,0,0,181.389,57.287Z" transform="translate(-166.685 -54.978)" fill="#00223d"/>
        </g>
      </g>
      <g id="Grupo_46105" data-name="Grupo 46105" transform="translate(12.806)">
        <path id="Trazado_96016" data-name="Trazado 96016" d="M194.367,56.961c.657-.554,1.23-1.048,1.742-1.491-.345-.578-.685-1.155-1.025-1.738S194.39,52.582,194.05,52c-.634.247-1.337.517-2.143.834l-1.607.629a11.032,11.032,0,0,0-2.8-2.026l.112-1.765c.065-.848.116-1.607.168-2.283-.652-.163-1.309-.326-1.956-.48s-1.318-.321-1.97-.489c-.265.629-.564,1.318-.9,2.11l-.713,1.649a10.906,10.906,0,0,0-3,.433l-1.127-1.374c-.54-.661-1.016-1.248-1.453-1.775-.582.331-1.169.661-1.756.992l-1.751.992c.233.638.48,1.351.778,2.152l.606,1.668a11.487,11.487,0,0,0-1.924,2.362l-1.7-.233c-.852-.121-1.6-.219-2.283-.312-.2.647-.391,1.29-.6,1.924s-.4,1.29-.592,1.933q.908.454,2.031,1.043l1.514.759a11.134,11.134,0,0,0,.452,4.053l-1.234,1.048c-.657.554-1.234,1.048-1.747,1.481.34.578.68,1.155,1.034,1.728s.68,1.16,1.02,1.738c.633-.242,1.351-.522,2.147-.82l1.467-.559a11.275,11.275,0,0,0,2.967,2.222l-.117,1.486c-.065.852-.116,1.607-.168,2.283.652.163,1.3.317,1.957.484s1.3.326,1.966.475c.27-.62.578-1.314.913-2.087l.6-1.379a10.787,10.787,0,0,0,3.275-.461l.936,1.155c.531.671,1.016,1.253,1.435,1.775l1.756-.992,1.756-.992c-.228-.629-.48-1.342-.769-2.147l-.512-1.435a11.68,11.68,0,0,0,2.045-2.59l1.514.2c.848.112,1.593.21,2.269.293.2-.634.4-1.281.6-1.924s.4-1.281.6-1.924c-.606-.3-1.281-.652-2.045-1.034l-1.439-.717a11,11,0,0,0-.545-4.071ZM185.791,67.6a7.118,7.118,0,1,1,2.7-9.7A7.117,7.117,0,0,1,185.791,67.6Z" transform="translate(-167.447 -46.419)" fill="#00223d"/>
        <g id="Grupo_46104" data-name="Grupo 46104" transform="translate(6.121 6.242)">
          <path id="Trazado_96017" data-name="Trazado 96017" d="M178.473,65.162a8.729,8.729,0,1,1,7.691-9.657A8.743,8.743,0,0,1,178.473,65.162Zm-1.8-15.9a7.271,7.271,0,1,0,8.045,6.405A7.284,7.284,0,0,0,176.671,49.264Z" transform="translate(-168.761 -47.759)" fill="#f6c343"/>
        </g>
      </g>
      <g id="Grupo_46107" data-name="Grupo 46107" transform="translate(40.233 17.343)">
        <path id="Trazado_96018" data-name="Trazado 96018" d="M201.224,61.667q1.062-.8,1.887-1.425c-.317-.62-.629-1.239-.946-1.859s-.643-1.23-.96-1.849c-.666.214-1.411.447-2.259.722l-1.7.55a11.324,11.324,0,0,0-2.762-2.264l.228-1.812c.121-.871.219-1.654.317-2.348-.666-.21-1.332-.419-1.989-.615s-1.342-.415-2-.624c-.312.629-.661,1.318-1.062,2.12l-.834,1.658a11.367,11.367,0,0,0-3.121.256l-1.076-1.486c-.517-.717-.969-1.351-1.383-1.924l-1.873.913q-.936.461-1.873.913c.2.675.415,1.43.671,2.273L181,56.622a11.775,11.775,0,0,0-2.129,2.315l-1.742-.345c-.871-.177-1.63-.326-2.329-.461-.247.652-.489,1.3-.741,1.947l-.727,1.956c.606.349,1.276.755,2.031,1.2l1.509.876a11.69,11.69,0,0,0,.214,4.211l-1.337,1.006c-.713.526-1.337,1-1.9,1.411.317.62.633,1.239.96,1.854s.629,1.234.946,1.854c.671-.214,1.425-.457,2.269-.713l1.547-.489A11.618,11.618,0,0,0,182.5,75.73l-.21,1.523c-.121.871-.219,1.649-.317,2.343.662.214,1.323.41,1.985.62s1.332.419,2,.615c.317-.62.68-1.318,1.071-2.1l.7-1.383a11.251,11.251,0,0,0,3.41-.27l.89,1.248c.508.722.969,1.356,1.369,1.919q.936-.461,1.873-.913c.624-.307,1.248-.61,1.873-.913-.2-.666-.41-1.416-.657-2.269l-.442-1.509a11.988,11.988,0,0,0,2.273-2.543l1.551.3c.866.168,1.63.317,2.324.443.247-.643.489-1.295.736-1.947s.494-1.295.736-1.947c-.606-.349-1.281-.755-2.045-1.2l-1.444-.825a11.249,11.249,0,0,0-.307-4.234Zm-9.507,10.448a7.357,7.357,0,1,1,3.386-9.838A7.358,7.358,0,0,1,191.716,72.115Z" transform="translate(-173.335 -50.142)" fill="#00223d"/>
        <g id="Grupo_46106" data-name="Grupo 46106" transform="translate(6.146 6.323)">
          <path id="Trazado_96019" data-name="Trazado 96019" d="M184.146,69.525a9.019,9.019,0,1,1,8.534-9.48A9.026,9.026,0,0,1,184.146,69.525Zm-.871-16.509a7.513,7.513,0,1,0,7.9,7.108A7.521,7.521,0,0,0,183.275,53.017Z" transform="translate(-174.654 -51.499)" fill="#f6c343"/>
        </g>
      </g>
    </g>
    <g id="Grupo_46109" data-name="Grupo 46109" transform="translate(147.442 77.188)">
      <path id="Trazado_96020" data-name="Trazado 96020" d="M152.395,42.319c50.467,35.491,113.479,72.305,174.074,79.768,0,0,7.942,10.146-.526,42.069-8.441,31.816-18.6,37.494-18.6,37.494-57.362-20.906-130.221-16.765-191.309-8.1Z" transform="translate(-101.107 -36.905)" fill="#00223d" fill-rule="evenodd"/>
      <path id="Trazado_96021" data-name="Trazado 96021" d="M153.057,41.19l7.36,1.77c11.413,2.744,12.125,40.6,1.533,84.645-10.57,43.936-28.439,77.434-39.851,74.69l-7.355-1.77c11.408,2.744,29.282-30.754,39.847-74.69,10.593-44.048,9.88-81.9-1.533-84.645Z" transform="translate(-105.808 -41.035)" fill="#bfb9b9" fill-rule="evenodd"/>
      <path id="Trazado_96022" data-name="Trazado 96022" d="M120.334,116.03c10.593-44.048,28.434-77.439,39.739-74.718,11.413,2.744,12.125,40.6,1.533,84.645-10.565,43.936-28.439,77.434-39.847,74.69-11.305-2.72-11.995-40.676-1.425-84.617Zm4.477,1.076c8.953-37.219,23.464-65.658,32.314-63.529,8.958,2.152,8.846,34.056-.1,71.276s-23.356,65.686-32.314,63.529c-8.851-2.129-8.846-34.052.1-71.276Z" transform="translate(-112.825 -41.157)" fill="#bfb9b9" fill-rule="evenodd"/>
      <path id="Trazado_96023" data-name="Trazado 96023" d="M120.68,107.44c8.953-37.219,23.464-65.658,32.314-63.529,8.958,2.152,8.846,34.056-.1,71.276s-23.356,65.686-32.314,63.529c-8.851-2.129-8.846-34.052.1-71.276Z" transform="translate(-108.694 -31.491)" fill="#dbdada" fill-rule="evenodd"/>
      <path id="Trazado_96024" data-name="Trazado 96024" d="M116.66,101.117q2.809-11.683,5.618-23.356c1.9-7.891,3.769-15.68,5.664-23.571,3.112-.266,6.54-.457,10.211-.7l10.341-.787a259.9,259.9,0,0,1-5.5,29.929,266.854,266.854,0,0,1-8.809,29.584l-8.911-5.641c-3.13-1.994-5.967-3.8-8.613-5.455Z" transform="translate(-98.795 1.068)" fill="#00223d" fill-rule="evenodd"/>
      <path id="Trazado_96025" data-name="Trazado 96025" d="M118.512,75.155c3.1-12.9,8.091-22.872,11.292-22.1,3.093.745,3.116,11.916.009,24.824s-8.2,22.844-11.292,22.1c-3.2-.769-3.116-11.92-.009-24.824Z" transform="translate(-100.656 2.206)" fill="#0c2c46" fill-rule="evenodd"/>
      <path id="Trazado_96026" data-name="Trazado 96026" d="M177.488,59.449a26.662,26.662,0,0,1,2.93.475c18.88,4.542,29.822,26.128,24.512,48.2s-24.87,36.325-43.745,31.788a32.189,32.189,0,0,1-4.4-1.4c.531.126.932.335,1.467.466,0,0,10.164-5.678,18.6-37.494,8.105-30.884,1.039-41.379.634-42.041Z" transform="translate(47.981 25.761)" fill="#dbdada" fill-rule="evenodd"/>
      <path id="Trazado_96027" data-name="Trazado 96027" d="M141.024,69.129,229.969,90.52c2.348.564,1.071,9.619-1.859,11.962L136.832,88.428c3.4-4.262,5.646-14.1,4.192-19.3Z" transform="translate(-25.001 61.173)" fill="#dbdada" fill-rule="evenodd"/>
      <path id="Trazado_96028" data-name="Trazado 96028" d="M158.359,74.492c2.143,19.243-12.1,68.616-17.361,81.566l39.786,7.2s18.451-60.771,10.639-83.639Z" transform="translate(-9.761 80.792)" fill="#bfb9b9" fill-rule="evenodd"/>
      <path id="Trazado_96029" data-name="Trazado 96029" d="M143.064,156.683l30.162,5.45s18.451-60.771,10.639-83.639L160.048,74.8c2.585,18.335-11.6,67.945-16.984,81.883Z" transform="translate(-2.203 81.918)" fill="#dbdada" fill-rule="evenodd"/>
    </g>
    <g id="Grupo_46125" data-name="Grupo 46125" transform="translate(254.917 81.691)">
      <g id="Grupo_46121" data-name="Grupo 46121">
        <g id="Grupo_46110" data-name="Grupo 46110" transform="translate(46.401)">
          <rect id="Rectángulo_28267" data-name="Rectángulo 28267" width="1.591" height="17.526" fill="#f6c343"/>
        </g>
        <g id="Grupo_46115" data-name="Grupo 46115" transform="translate(55.747 2.909)">
          <g id="Grupo_46111" data-name="Grupo 46111" transform="translate(0 0)">
            <rect id="Rectángulo_28268" data-name="Rectángulo 28268" width="16.933" height="1.593" transform="translate(0 15.769) rotate(-68.628)" fill="#f6c343"/>
          </g>
          <g id="Grupo_46112" data-name="Grupo 46112" transform="translate(8.356 7.648)">
            <rect id="Rectángulo_28269" data-name="Rectángulo 28269" width="16.96" height="1.591" transform="translate(0 12.677) rotate(-48.371)" fill="#f6c343"/>
          </g>
          <g id="Grupo_46113" data-name="Grupo 46113" transform="translate(15.217 20.134)">
            <rect id="Rectángulo_28270" data-name="Rectángulo 28270" width="15.891" height="1.59" transform="translate(0 6.461) rotate(-23.99)" fill="#f6c343"/>
          </g>
          <g id="Grupo_46114" data-name="Grupo 46114" transform="translate(22.064 35.989)">
            <rect id="Rectángulo_28271" data-name="Rectángulo 28271" width="1.591" height="14.677" transform="matrix(0.066, -0.998, 0.998, 0.066, 0, 1.587)" fill="#f9c61e"/>
          </g>
        </g>
        <g id="Grupo_46120" data-name="Grupo 46120" transform="translate(0 1.87)">
          <g id="Grupo_46116" data-name="Grupo 46116" transform="translate(30.767 0)">
            <rect id="Rectángulo_28272" data-name="Rectángulo 28272" width="1.592" height="16.878" transform="translate(0 0.546) rotate(-20.06)" fill="#f6c343"/>
          </g>
          <g id="Grupo_46117" data-name="Grupo 46117" transform="translate(15.352 6.349)">
            <rect id="Rectángulo_28273" data-name="Rectángulo 28273" width="1.59" height="19.238" transform="translate(0 1.088) rotate(-43.167)" fill="#f6c343"/>
          </g>
          <g id="Grupo_46118" data-name="Grupo 46118" transform="translate(5.878 19.401)">
            <rect id="Rectángulo_28274" data-name="Rectángulo 28274" width="1.59" height="17.851" transform="translate(0 1.452) rotate(-65.975)" fill="#f6c343"/>
          </g>
          <g id="Grupo_46119" data-name="Grupo 46119" transform="translate(0 36.056)">
            <path id="Trazado_96030" data-name="Trazado 96030" d="M135.992,52.825l-.1-1.589,15.884-.971.1,1.589Z" transform="translate(-135.897 -50.265)" fill="#f6c343"/>
          </g>
        </g>
      </g>
      <g id="Grupo_46124" data-name="Grupo 46124" transform="translate(17.055 20.567)">
        <path id="Trazado_96031" data-name="Trazado 96031" d="M163.732,65.989c-1.714,3.2-5.6,5.343-10.127,5.3-4.6-.047-8.441-2.273-10.015-5.5Z" transform="translate(-124.808 23.866)" fill="url(#linear-gradient)"/>
        <path id="Trazado_96032" data-name="Trazado 96032" d="M183.886,121.78s-.689-4.164.568-12.764,20.892-23.505,11.5-46.443c-8.688-21.256-43.643-21.321-53.491-.55C132.319,83.3,151.926,100.068,153,108.691s.307,12.778.307,12.778Z" transform="translate(-139.558 -46.539)" fill="#f6c343"/>
        <path id="Trazado_96033" data-name="Trazado 96033" d="M142.95,62.627l27.293.28-.126,11.823a2.848,2.848,0,0,1-2.874,2.818l-21.6-.224a2.8,2.8,0,0,1-2.814-2.874Z" transform="translate(-127.592 12.317)" fill="url(#linear-gradient)"/>
        <path id="Trazado_96034" data-name="Trazado 96034" d="M144.14,63l27.144.28a1.5,1.5,0,0,1,1.519,1.551h0a1.559,1.559,0,0,1-1.551,1.588l-27.144-.279a1.619,1.619,0,0,1-1.588-1.621h0A1.563,1.563,0,0,1,144.14,63Z" transform="translate(-128.726 13.692)" fill="#00223d"/>
        <path id="Trazado_96035" data-name="Trazado 96035" d="M144.129,64.006l27.148.28a1.493,1.493,0,0,1,1.514,1.547h0a1.555,1.555,0,0,1-1.547,1.588L144.1,67.146a1.623,1.623,0,0,1-1.588-1.626h0a1.557,1.557,0,0,1,1.621-1.514Z" transform="translate(-128.766 17.361)" fill="#00223d"/>
        <path id="Trazado_96036" data-name="Trazado 96036" d="M144.12,64.946l27.143.279a1.542,1.542,0,0,1,1.519,1.547h0a1.559,1.559,0,0,1-1.551,1.588l-27.144-.279A1.616,1.616,0,0,1,142.5,66.46h0a1.607,1.607,0,0,1,1.621-1.514Z" transform="translate(-128.799 20.8)" fill="#00223d"/>
        <path id="Trazado_96037" data-name="Trazado 96037" d="M167.5,59.081a5.288,5.288,0,0,0-6.065-3.531c-2.46.331-4.225,1.854-4.29,3.675-.042.741-.079,2.823-.116,5.576l-.871-.009-1.383-.014-.829-.009c.023-2.748.037-4.831.028-5.571-.07-1.868-1.863-3.419-4.351-3.782-2.185-.307-5.064.4-6.07,3.424a6.2,6.2,0,0,0,3.522,7.709l4.924.13c-.089,8.939-.266,22.485-.266,22.676l1.928.023c.014-.778.182-13.91.266-22.681l.824.009,1.388.014.866.009c-.1,8.771-.163,21.908-.168,22.686l1.928.009c0-.191.07-13.732.172-22.672l4.5.042.387-.075A6.214,6.214,0,0,0,167.5,59.081ZM147.7,64.7a4.27,4.27,0,0,1-2.31-5.254,3.392,3.392,0,0,1,3.964-2.12c1.477.21,2.66,1.062,2.693,1.915.009.717,0,2.776-.023,5.506Zm15.545.158-4.276-.042c.033-2.725.075-4.784.117-5.506.028-.857,1.151-1.654,2.613-1.849a3.371,3.371,0,0,1,3.969,2.194A4.246,4.246,0,0,1,163.24,64.862Z" transform="translate(-126.248 -14.308)" fill="#00223d"/>
        <g id="Grupo_46122" data-name="Grupo 46122" transform="translate(51.688 24.001)">
          <path id="Trazado_96038" data-name="Trazado 96038" d="M153.114,58.352l-2.46-.764a21.616,21.616,0,0,0,.75-5.879l2.576-.019A23.968,23.968,0,0,1,153.114,58.352Z" transform="translate(-150.654 -51.691)" fill="#f9eff4"/>
        </g>
        <g id="Grupo_46123" data-name="Grupo 46123" transform="translate(39.6 4.735)">
          <path id="Trazado_96039" data-name="Trazado 96039" d="M160.007,61.171a14.951,14.951,0,0,0-1.053-2.432c-3.5-6.424-10.821-8.7-10.9-8.72l.745-2.464c.34.1,8.413,2.613,12.41,9.95a17.317,17.317,0,0,1,1.234,2.851Z" transform="translate(-148.059 -47.555)" fill="#f9eff4"/>
        </g>
      </g>
    </g>
    <g id="Grupo_46126" data-name="Grupo 46126" transform="translate(310.799 198.303)">
      <path id="Trazado_96040" data-name="Trazado 96040" d="M163.106,78.412l-.592,75.6-5.427.13s-3.433-19.252-3.433-27.963a40.6,40.6,0,0,1,2.185-14.082l-3.894-29.128s1.253-1.7,2.408-3.34c.14-.009.279-.014.415-.028a81.165,81.165,0,0,0,8.338-1.192Z" transform="translate(-133.071 -25.983)" fill="#167377" fill-rule="evenodd"/>
      <path id="Trazado_96041" data-name="Trazado 96041" d="M172.716,79.122l-7.383,11.4-11.082,63.72-5.417.13c-.331-7.747-1.393-37.41,5.79-42.409l-.047-4.714h0c-.354-7-.736-19.681.708-26.133l2.376-2.772a20.427,20.427,0,0,0,9.419,1.486c2.292-.228,4.22-.489,5.636-.713Z" transform="translate(-145.382 -26.214)" fill="#167377" fill-rule="evenodd"/>
      <path id="Trazado_96042" data-name="Trazado 96042" d="M165.7,100.893l-10.22-.009-2.45-1.034-.233,1.043h-3.848l-.317-6.121,5.418-.13s7.4,4.025,10.09,3.9,1.561,2.352,1.561,2.352Z" transform="translate(-145.183 33.39)" fill="#00223d" fill-rule="evenodd"/>
      <path id="Trazado_96043" data-name="Trazado 96043" d="M170.126,100.893l-10.215-.009-2.46-1.034-.224,1.043H153.38l-.331-6.121,5.427-.13s7.407,4.025,10.09,3.9,1.56,2.352,1.56,2.352Z" transform="translate(-129.032 33.39)" fill="#00223d" fill-rule="evenodd"/>
      <path id="Trazado_96044" data-name="Trazado 96044" d="M202.752,73.952,189.779,84.088a3.544,3.544,0,0,1-4.048.219L178.283,79.7l-1.868-.536v0l-5.646-1.621L169.758,76.5h-2.669l-.894.927-5.329,1.528a9.476,9.476,0,0,0-1.211,1.342l2.6-7.337-2.851-3.074L148.135,94.481a2.612,2.612,0,0,0,2.651,3.685l6.829-4.444L157.4,114.25c6.638,4.267,16.886,2.571,20.5-.033q.594-12.479,1.2-24.945l7.556,3.228a3.547,3.547,0,0,0,3.852-.708l14.562-14.035Z" transform="translate(-147.893 -57.159)" fill-rule="evenodd" fill="url(#linear-gradient)"/>
      <path id="Trazado_96045" data-name="Trazado 96045" d="M151.669,69.413c.769-.27,1.742.484,2.175,1.7s.158,2.422-.615,2.7-1.742-.484-2.171-1.7-.163-2.422.61-2.7Z" transform="translate(-137.076 -59.104)" fill="#fc9" stroke="#ff0" stroke-miterlimit="10" stroke-width="0.198" fill-rule="evenodd"/>
      <path id="Trazado_96046" data-name="Trazado 96046" d="M150.445,69.373l.5-.3a.341.341,0,0,1,.456.126l3.927,6.675a.339.339,0,0,1-.117.461l-.5.289a.334.334,0,0,1-.457-.116l-3.927-6.675a.339.339,0,0,1,.116-.461Z" transform="translate(-139.154 -60.289)" fill-rule="evenodd"/>
      <path id="Trazado_96047" data-name="Trazado 96047" d="M155.1,69.271c.811.116,1.323,1.239,1.151,2.515S155.28,74,154.465,73.9s-1.323-1.234-1.151-2.511.974-2.222,1.789-2.115Z" transform="translate(-128.184 -59.452)" fill="#ffb699" fill-rule="evenodd"/>
      <path id="Trazado_96048" data-name="Trazado 96048" d="M159.651,73.888a8.931,8.931,0,0,1,1.984-2.548,7.676,7.676,0,0,1,3.694-1.36.9.9,0,0,1-.2,1.006,5.4,5.4,0,0,1-1.658,1,4.068,4.068,0,0,0,2.106-.387c1.574-.559,3.284-1.873,3.871-1s-.079,2.9-1.984,4.174a39.218,39.218,0,0,1-5.413,2.655Z" transform="translate(-104.88 -56.829)" fill="#ffb699" fill-rule="evenodd"/>
      <path id="Trazado_96049" data-name="Trazado 96049" d="M151.68,70.411h5.879v5.441a2.942,2.942,0,0,1-2.939,2.939h0a2.945,2.945,0,0,1-2.939-2.939Z" transform="translate(-134.04 -55.253)" fill="#f49e7f" fill-rule="evenodd"/>
      <path id="Trazado_96050" data-name="Trazado 96050" d="M157.464,84.686c3.563,0,6.47-3.9,6.47-8.669s-2.907-8.669-6.47-8.669-6.47,3.89-6.47,8.669,2.9,8.669,6.47,8.669Z" transform="translate(-136.55 -66.458)" fill="#ffb699" fill-rule="evenodd"/>
      <path id="Trazado_96051" data-name="Trazado 96051" d="M153.545,73.5a13.828,13.828,0,0,0,6.219,1.276,9.8,9.8,0,0,0,7-3.1s-2.795-4.109-7.225-4.5-7.374,4.109-7.374,4.109a2.092,2.092,0,0,0-1.379,2.147c-.061,1.831,1.672,5.641,1.672,5.641L152.8,76.1a3.7,3.7,0,0,0,.927-1.248,2.841,2.841,0,0,0-.186-1.346Z" transform="translate(-137.33 -67.157)" fill-rule="evenodd" fill="url(#linear-gradient)"/>
      <path id="Trazado_96052" data-name="Trazado 96052" d="M153.726,70.257s-.154.089-.452.219c.168-.452.452-.219.452-.219Zm1.374-2.213a2.093,2.093,0,0,1,1.384,2.147c.065,1.831-1.672,5.641-1.672,5.641l-.349-2.981a3.826,3.826,0,0,1-.932-1.248,2.866,2.866,0,0,1,.2-1.346Z" transform="translate(-128.209 -63.912)" fill-rule="evenodd" fill="url(#linear-gradient)"/>
      <path id="Trazado_96053" data-name="Trazado 96053" d="M150.209,76.378a7.447,7.447,0,0,0,.727-2.357c-.107-1.16.061-4.244,1.537-4.733,1.509-.5,3.484,3.126,2.059,4.006-.019-.019-.41-.741-.475-.666-.051-.033-.093.065-.065.494a4.287,4.287,0,0,1-.559,2.828,7.97,7.97,0,0,1-1.57,1.281Z" transform="translate(-139.421 -59.534)" fill="#ffb699" fill-rule="evenodd"/>
    </g>
    <path id="Trazado_96064" data-name="Trazado 96064" d="M172.672,73.077c-1.956,5.306-3.913,10.5-5.827,15.736-2.283-1.719-4.56-3.368-6.806-5.017s-4.481-3.3-6.68-4.91c1.873-5.161,3.75-10.327,5.664-15.559-.489-.326-.936-.685-1.425-1.006q-14.3,39.206-28,76.609-13.381,36.677-26.24,71.737c.447.4.857.787,1.262,1.183q1.894-5.164,3.792-10.327c1.994,1.831,3.992,3.694,6.028,5.525,2,1.863,4.034,3.764,6.074,5.627-1.3,3.512-2.609,6.992-3.871,10.43.405.4.853.825,1.3,1.22q13.262-35.489,27.134-72.561,14.24-37.906,29.1-77.611c-.489-.359-.978-.717-1.509-1.076ZM121.334,210.523c-2.04-1.863-4.076-3.764-6.112-5.59-2-1.868-4.034-3.731-6.032-5.557q1.53-4.088,3.056-8.282c2,1.831,4.034,3.657,6.07,5.52,2.04,1.831,4.076,3.694,6.154,5.557-1.057,2.795-2.078,5.595-3.135,8.352Zm3.95-10.5c-2.078-1.863-4.113-3.727-6.191-5.59-2-1.831-4.034-3.657-6.074-5.487,1.02-2.758,2.04-5.557,3.056-8.352,2.04,1.831,4.076,3.619,6.154,5.45,2.036,1.826,4.118,3.694,6.2,5.52-1.062,2.832-2.12,5.627-3.14,8.459Zm3.955-10.644c-2.082-1.868-4.16-3.694-6.2-5.525-2.078-1.826-4.113-3.619-6.154-5.445,1.02-2.8,2.04-5.595,3.1-8.427,2.036,1.756,4.113,3.587,6.2,5.376,2.078,1.831,4.155,3.624,6.275,5.487-1.1,2.832-2.161,5.7-3.219,8.534Zm4.034-10.756c-2.119-1.831-4.2-3.657-6.279-5.45s-4.155-3.619-6.233-5.376c1.062-2.832,2.078-5.7,3.14-8.534,2.078,1.756,4.155,3.55,6.233,5.343,2.12,1.793,4.239,3.619,6.359,5.413-1.1,2.9-2.161,5.772-3.219,8.6Zm4.034-10.826c-2.12-1.831-4.239-3.624-6.317-5.417-2.119-1.789-4.2-3.582-6.275-5.338,1.057-2.832,2.12-5.734,3.135-8.6,2.119,1.756,4.2,3.512,6.317,5.268,2.119,1.793,4.239,3.587,6.4,5.38-1.1,2.9-2.157,5.8-3.256,8.711Zm4.113-10.97c-2.161-1.793-4.318-3.587-6.438-5.343s-4.2-3.512-6.317-5.306c1.062-2.869,2.12-5.734,3.219-8.674,2.078,1.756,4.2,3.475,6.358,5.231,2.119,1.793,4.276,3.55,6.438,5.343-1.1,2.939-2.2,5.841-3.261,8.748Zm4.113-11.045c-2.157-1.789-4.318-3.55-6.475-5.306-2.119-1.756-4.239-3.475-6.358-5.231,1.062-2.907,2.119-5.846,3.219-8.785,2.119,1.724,4.281,3.442,6.4,5.2,2.161,1.724,4.36,3.48,6.522,5.236-1.1,2.977-2.2,5.949-3.3,8.888Zm4.16-11.184c-2.161-1.756-4.36-3.475-6.522-5.231-2.157-1.723-4.276-3.442-6.438-5.166,1.1-2.939,2.161-5.911,3.261-8.855,2.157,1.686,4.318,3.41,6.48,5.091,2.2,1.724,4.4,3.48,6.6,5.2-1.141,3.014-2.241,6.023-3.382,8.962Zm4.234-11.254c-2.2-1.756-4.4-3.48-6.6-5.2s-4.36-3.405-6.475-5.091c1.057-2.977,2.157-5.953,3.256-8.962,2.161,1.686,4.36,3.368,6.563,5.054,2.2,1.724,4.4,3.442,6.638,5.161-1.137,3.014-2.278,6.023-3.382,9.037Zm4.239-11.4c-2.2-1.719-4.439-3.438-6.643-5.124s-4.4-3.373-6.559-5.054q1.649-4.521,3.3-9.037c2.2,1.649,4.4,3.335,6.6,5.022l6.722,5.054-3.424,9.139Zm4.318-11.506q-3.361-2.529-6.722-5.054c-2.241-1.686-4.439-3.335-6.643-4.984,1.1-3.047,2.241-6.093,3.345-9.139,2.241,1.649,4.439,3.261,6.68,4.91,2.241,1.686,4.523,3.368,6.806,5.054-1.183,3.084-2.324,6.168-3.466,9.214Z" transform="translate(0 113.455)" fill="#00223d" fill-rule="evenodd"/>
    <path id="Trazado_96065" data-name="Trazado 96065" d="M112.275,74.212l1.621,2.7,2.478,2.376s4.956-.475,6.163.261a2.693,2.693,0,0,1,.955,2.506h-9.754l-.731-1.272.065,1.272h-3.088l-.2-4.966Z" transform="translate(23.471 156.955)" fill="#00223d" fill-rule="evenodd"/>
    <path id="Trazado_96066" data-name="Trazado 96066" d="M118.064,94.45l-.955,29.557-4.388.121s-2.2-14.24-2.138-20.03a21.506,21.506,0,0,1,2.394-9.768L109,61.479c.61,3.913,10.188,9.414,10.188,9.414Z" transform="translate(20.621 110.375)" fill="#9fbfed" fill-rule="evenodd"/>
    <path id="Trazado_96067" data-name="Trazado 96067" d="M116.3,60.558a7.715,7.715,0,0,1,.289-2.781,6.633,6.633,0,0,1,2.078-2.665.785.785,0,0,1,.326.811,5.11,5.11,0,0,1-.745,1.481s.456-.112,1.342-1.239c.913-1.146,1.556-2.869,2.394-2.511.806.377,1.262,2.161.443,3.95a34.043,34.043,0,0,1-2.73,4.444Z" transform="translate(47.256 81.576)" fill="#ffb699" fill-rule="evenodd"/>
    <path id="Trazado_96068" data-name="Trazado 96068" d="M115.973,68.1l1.626,2.7,2.469,2.376s4.956-.48,6.172.261.946,2.506.946,2.506h-9.754l-.731-1.272.065,1.272h-3.074l-.21-4.966Z" transform="translate(37.018 134.603)" fill="#00223d" fill-rule="evenodd"/>
    <path id="Trazado_96069" data-name="Trazado 96069" d="M110.371,59.053H115.9l-.149-5.562a12.511,12.511,0,0,1-3.1,1.258c-.68-.042-2.278-1.607-2.278-1.607Z" transform="translate(25.641 79.876)" fill="#f4a57d" fill-rule="evenodd"/>
    <path id="Trazado_96070" data-name="Trazado 96070" d="M116.308,54.088s.447.578,2.627.731,2.9-.657,2.9-.657l3.349.885a8.708,8.708,0,0,1,5.422,4.286l4.458,8.31a.843.843,0,0,0,1.435.079l7.36-8.925,3.4,1.491L139.2,74a4.092,4.092,0,0,1-6.787.266l-3.871-5.282-.1,19.043c-4.22,2.562-14.5,2.562-18.558,0L108.757,63.4a8.245,8.245,0,0,1,4.449-7.7Z" transform="translate(19.704 83.337)" fill="#00223d" fill-rule="evenodd"/>
    <path id="Trazado_96071" data-name="Trazado 96071" d="M127.55,61.373l19.467,6.312a3.269,3.269,0,0,1,1.738,4.877L134.025,95.42l-4.118.573s1.975-8.939,4.751-14.827a21.855,21.855,0,0,1,6.68-8.124l-19.825.009a9.357,9.357,0,0,1-6.778-2.865c-2.534-2.651-5.795-6.517-5.744-8.813,4.062,2.562,14.338,2.562,18.558,0Z" transform="translate(20.592 109.987)" fill="#b9d2fc" fill-rule="evenodd"/>
    <path id="Trazado_96072" data-name="Trazado 96072" d="M115.369,65.254c3.07,0,5.567-3.242,5.567-7.22s-2.5-7.225-5.567-7.225-5.557,3.242-5.557,7.225,2.5,7.22,5.557,7.22Z" transform="translate(23.596 71.341)" fill="#ffbd99" fill-rule="evenodd"/>
    <path id="Trazado_96073" data-name="Trazado 96073" d="M114.154,50.562h9.605a.5.5,0,0,1,.5.5v2.1a2.616,2.616,0,0,1-2.609,2.609h-2.413l-.256.713a1.407,1.407,0,0,0,.27,1.411l.484.536-.643.759a1.726,1.726,0,0,0-.387.829l-.293,1.6S118,59.6,117.089,60.009s-.186,2.748.471,2.944a.594.594,0,0,0,.811-.373,10.8,10.8,0,0,0-.848,2.8c-.084,1.626-4.677,1.411-4.677-.266,0,0-4.136-3.545-2.93-8.473a5.094,5.094,0,0,1,1.64-2.991v-.489a2.606,2.606,0,0,1,2.6-2.6Z" transform="translate(23.166 70.438)" fill="#00223d" fill-rule="evenodd"/>
    <g id="Grupo_46128" data-name="Grupo 46128" transform="translate(152.296 221.414)">
      <path id="Trazado_96074" data-name="Trazado 96074" d="M154.807,94.2c15.065,0,27.87,1.472,32.449,3.554,1.081-.5,1.686-1,1.821-1.528h0V99.44c0,2.87-15.358,5.241-34.271,5.241s-34.271-2.371-34.271-5.241l.028-3.4c0,.606.629,1.16,1.789,1.686,4.612-2.054,17.385-3.526,32.454-3.526Z" transform="translate(-89.469 8.658)" fill="#f9c61e" fill-rule="evenodd"/>
      <path id="Trazado_96075" data-name="Trazado 96075" d="M154.785,93.469c18.94,0,34.271,2.371,34.271,5.241,0,2.9-15.33,5.245-34.271,5.245-18.912,0-34.243-2.348-34.243-5.245,0-2.869,15.33-5.241,34.243-5.241Z" transform="translate(-89.448 5.988)" fill="#dba50e" fill-rule="evenodd"/>
      <path id="Trazado_96076" data-name="Trazado 96076" d="M135.228,101.387c-.13-.475-.233-.946-.34-1.369a43,43,0,0,1-5.031-.368,10.5,10.5,0,0,1-3-.843c-.736-.368-1.025-.764-.946-1.239,1.183-.051,2.343-.1,3.5-.158a2.023,2.023,0,0,0,1.342,1.057,13.621,13.621,0,0,0,3.871.578c-.13-.526-.261-1.025-.368-1.477-.1-.419-.21-.815-.317-1.183-1.262-.079-2.553-.186-3.82-.345a7.975,7.975,0,0,1-2.054-.447c-.419-.182-.578-.368-.5-.578.158-.345.894-.606,2.185-.815.424-.056.922-.107,1.528-.135.582-.051,1.267-.079,2.054-.079a.533.533,0,0,1-.051-.182h1.342c.028.051.056.13.079.182.685,0,1.318.028,1.873.079.554.028,1.081.079,1.528.135a7.365,7.365,0,0,1,2.581.68c-.843.028-1.714.056-2.581.079a3.262,3.262,0,0,0-1.239-.447,17.194,17.194,0,0,0-2-.182c.107.21.186.447.293.685s.233.5.368.792c1.472.075,2.474.13,2.977.182a24.177,24.177,0,0,1,2.5.317,12.909,12.909,0,0,1,1.9.475,3.805,3.805,0,0,1,1.239.685c.685.578.5,1.132-.662,1.63a9.054,9.054,0,0,1-2.446.606,29.032,29.032,0,0,1-3.717.293c.186.419.4.894.606,1.37-.894,0-1.789.023-2.688.023Zm-1.817-7.057a14.776,14.776,0,0,0-2.264.21c-.554.107-.871.266-.894.419,0,.186.238.345.764.475a17.753,17.753,0,0,0,2.762.294c-.079-.266-.13-.531-.21-.769l-.158-.629Zm3.5,4.714a9.64,9.64,0,0,0,3.293-.554c.713-.261.894-.606.582-.974a2.567,2.567,0,0,0-1.425-.657,25.247,25.247,0,0,0-3.554-.4c.13.368.317.736.475,1.16.182.419.391.894.629,1.421Z" transform="translate(-69.868 7.21)" fill="#fdce2f"/>
      <path id="Trazado_96077" data-name="Trazado 96077" d="M154.548,92.536c15.069,0,27.87,1.477,32.454,3.554,1.053-.471,1.686-1,1.794-1.528h0l.023,3.214c0,2.9-15.358,5.245-34.271,5.245-18.936,0-34.266-2.348-34.266-5.245V94.409c0,.578.629,1.155,1.817,1.682,4.584-2.078,17.385-3.554,32.449-3.554Z" transform="translate(-90.399 2.575)" fill="#f9c61e" fill-rule="evenodd"/>
      <path id="Trazado_96078" data-name="Trazado 96078" d="M154.548,91.812c18.94,0,34.271,2.348,34.271,5.245s-15.33,5.241-34.271,5.241c-18.912,0-34.266-2.343-34.266-5.241s15.354-5.245,34.266-5.245Z" transform="translate(-90.399 -0.074)" fill="#dba50e" fill-rule="evenodd"/>
      <path id="Trazado_96079" data-name="Trazado 96079" d="M134.978,99.728c-.13-.475-.238-.922-.368-1.346-2.054-.079-3.741-.21-5.031-.391a9.4,9.4,0,0,1-3-.843c-.713-.345-1-.764-.922-1.216,1.16-.074,2.348-.13,3.48-.182A2.166,2.166,0,0,0,130.5,96.8a13.075,13.075,0,0,0,3.871.606c-.13-.554-.266-1.053-.4-1.5-.1-.424-.21-.82-.289-1.188-1.267-.079-2.557-.182-3.848-.34a7.714,7.714,0,0,1-2.026-.424c-.447-.182-.606-.391-.5-.606.135-.34.871-.606,2.161-.787.424-.079.95-.107,1.528-.158.606-.028,1.29-.056,2.054-.079A.6.6,0,0,0,133,92.14h1.37a1.5,1.5,0,0,0,.079.186c.685.023,1.29.051,1.868.079.554.023,1.057.079,1.5.13a7.619,7.619,0,0,1,2.609.685c-.871.028-1.714.051-2.585.079a3.169,3.169,0,0,0-1.262-.419,12.256,12.256,0,0,0-1.975-.186c.079.21.182.419.289.657.107.266.21.526.345.792,1.5.079,2.5.158,3,.186a25.17,25.17,0,0,1,2.5.312,13.63,13.63,0,0,1,1.873.475,3.99,3.99,0,0,1,1.262.685c.685.606.5,1.16-.657,1.635a10.682,10.682,0,0,1-2.45.634,29.5,29.5,0,0,1-3.713.261c.182.447.368.894.578,1.37-.894.028-1.765.028-2.66.028Zm-1.817-7.062a14.565,14.565,0,0,0-2.264.214c-.582.13-.871.261-.9.447-.023.158.21.312.741.447a15.339,15.339,0,0,0,2.762.289c-.051-.266-.13-.5-.182-.736s-.107-.447-.158-.661Zm3.475,4.714a10.453,10.453,0,0,0,3.321-.526c.685-.289.866-.606.578-.974a2.546,2.546,0,0,0-1.421-.685,22.546,22.546,0,0,0-3.582-.368c.158.34.317.736.5,1.132.186.447.4.922.606,1.421Z" transform="translate(-70.8 1.126)" fill="#fdce2f"/>
      <path id="Trazado_96080" data-name="Trazado 96080" d="M152.138,91.315c15.065,0,27.866,1.472,32.449,3.554,1.057-.475,1.686-1,1.793-1.528h.028v3.214c0,2.9-15.358,5.241-34.271,5.241-18.94,0-34.271-2.343-34.271-5.241V93.183c0,.582.657,1.16,1.817,1.686,4.612-2.082,17.385-3.554,32.454-3.554Z" transform="translate(-99.233 -1.892)" fill="#f9c61e" fill-rule="evenodd"/>
      <path id="Trazado_96081" data-name="Trazado 96081" d="M152.138,90.591c18.94,0,34.271,2.343,34.271,5.241s-15.33,5.241-34.271,5.241c-18.912,0-34.271-2.343-34.271-5.241s15.358-5.241,34.271-5.241Z" transform="translate(-99.233 -4.54)" fill="#dba50e" fill-rule="evenodd"/>
      <path id="Trazado_96082" data-name="Trazado 96082" d="M132.559,98.5c-.13-.47-.233-.922-.34-1.342a48.946,48.946,0,0,1-5.031-.4,9.077,9.077,0,0,1-3-.843c-.736-.34-1.025-.764-.946-1.211,1.183-.079,2.343-.13,3.475-.186a2.155,2.155,0,0,0,1.369,1.057,13.389,13.389,0,0,0,3.871.606c-.13-.554-.261-1.053-.368-1.5-.1-.419-.21-.815-.317-1.183-1.262-.079-2.553-.186-3.82-.345a7.867,7.867,0,0,1-2.054-.419c-.419-.186-.578-.4-.5-.606.13-.345.894-.606,2.185-.792.4-.079.922-.1,1.5-.158.606-.023,1.29-.051,2.054-.079,0-.051-.028-.1-.028-.182h1.342a1.889,1.889,0,0,0,.079.182c.685.028,1.318.056,1.873.079s1.081.079,1.528.135a7.781,7.781,0,0,1,2.581.685c-.843.023-1.714.051-2.581.079a3.2,3.2,0,0,0-1.239-.424,12.666,12.666,0,0,0-2-.182c.079.21.186.419.289.657.107.266.238.526.345.792,1.5.075,2.5.154,3,.182a24.172,24.172,0,0,1,2.5.317,11.656,11.656,0,0,1,1.868.475,3.929,3.929,0,0,1,1.267.685c.685.606.5,1.16-.661,1.63a10.084,10.084,0,0,1-2.45.634,29.352,29.352,0,0,1-3.713.266c.186.447.368.894.606,1.37-.894.023-1.789.023-2.688.023Zm-1.817-7.057a15.4,15.4,0,0,0-2.264.21c-.578.13-.871.266-.894.447-.028.158.238.317.736.447a15.958,15.958,0,0,0,2.79.294c-.079-.266-.13-.5-.21-.741-.051-.238-.1-.447-.158-.657Zm3.5,4.714a10.512,10.512,0,0,0,3.293-.526c.713-.289.871-.606.582-.974a2.563,2.563,0,0,0-1.425-.685,22.483,22.483,0,0,0-3.582-.368c.158.34.317.736.5,1.132.182.447.391.922.629,1.421Z" transform="translate(-79.631 -3.341)" fill="#fdce2f"/>
      <path id="Trazado_96083" data-name="Trazado 96083" d="M155.508,90.24c15.069,0,27.87,1.477,32.454,3.559,1.076-.5,1.686-1,1.817-1.528h0v3.209c0,2.9-15.358,5.245-34.271,5.245-18.94,0-34.271-2.348-34.271-5.245v-3.4c0,.606.661,1.16,1.817,1.686,4.612-2.054,17.385-3.531,32.454-3.531Z" transform="translate(-86.905 -5.824)" fill="#f9c61e" fill-rule="evenodd"/>
      <path id="Trazado_96084" data-name="Trazado 96084" d="M155.508,89.516c18.94,0,34.271,2.348,34.271,5.217,0,2.9-15.33,5.241-34.271,5.241-18.912,0-34.271-2.343-34.271-5.241,0-2.869,15.358-5.217,34.271-5.217Z" transform="translate(-86.905 -8.473)" fill="#dba50e" fill-rule="evenodd"/>
      <path id="Trazado_96085" data-name="Trazado 96085" d="M135.934,97.432c-.135-.475-.238-.95-.345-1.369a44.142,44.142,0,0,1-5.031-.368,10.658,10.658,0,0,1-3-.843c-.736-.368-1.025-.764-.946-1.239,1.183-.051,2.343-.107,3.5-.158a2.055,2.055,0,0,0,1.342,1.053,13.48,13.48,0,0,0,3.876.582c-.135-.526-.266-1.029-.373-1.477-.1-.419-.21-.815-.312-1.183-1.267-.079-2.557-.186-3.82-.345a7.8,7.8,0,0,1-2.054-.447c-.424-.186-.582-.368-.5-.582.13-.34.894-.6,2.185-.815.424-.051.922-.1,1.528-.13.582-.051,1.267-.051,2.031-.079,0-.051-.028-.13-.028-.186h1.346c.023.056.051.135.079.186.685,0,1.314.028,1.868.079.554.028,1.081.079,1.528.13a7.25,7.25,0,0,1,2.581.685c-.843.028-1.71.051-2.581.079a3.262,3.262,0,0,0-1.239-.447,16.228,16.228,0,0,0-2-.182c.079.21.186.447.293.68s.238.531.34.792c1.5.079,2.5.13,3,.186a22.962,22.962,0,0,1,2.5.317,12.427,12.427,0,0,1,1.873.47,4.141,4.141,0,0,1,1.262.685c.685.582.5,1.137-.657,1.635a9.094,9.094,0,0,1-2.45.606,28.213,28.213,0,0,1-3.717.289c.186.424.4.894.606,1.37-.894,0-1.789.028-2.683.028Zm-1.821-7.057a14.206,14.206,0,0,0-2.264.21c-.578.13-.866.261-.894.419-.028.186.238.345.736.475a19.528,19.528,0,0,0,2.795.289c-.079-.261-.135-.526-.214-.764l-.158-.629Zm3.508,4.714a9.724,9.724,0,0,0,3.289-.554c.713-.265.871-.606.582-.974a2.535,2.535,0,0,0-1.425-.661,25.252,25.252,0,0,0-3.582-.4c.158.373.317.741.5,1.16s.4.9.634,1.425Z" transform="translate(-67.303 -7.273)" fill="#fdce2f"/>
      <path id="Trazado_96086" data-name="Trazado 96086" d="M154.493,88.928c15.069,0,27.87,1.477,32.454,3.559,1.081-.5,1.686-1,1.817-1.528h0v3.214c0,2.869-15.358,5.241-34.271,5.241s-34.271-2.371-34.271-5.241l.028-3.4c0,.606.634,1.16,1.789,1.686,4.612-2.054,17.389-3.531,32.454-3.531Z" transform="translate(-90.618 -10.624)" fill="#f9c61e" fill-rule="evenodd"/>
      <path id="Trazado_96087" data-name="Trazado 96087" d="M154.283,88.19c18.838,0,34.089,2.357,34.089,5.213,0,2.883-15.251,5.217-34.089,5.217-18.81,0-34.056-2.334-34.056-5.217,0-2.855,15.246-5.213,34.056-5.213Z" transform="translate(-90.6 -13.324)" fill="#dba50e" fill-rule="evenodd"/>
      <path id="Trazado_96088" data-name="Trazado 96088" d="M134.919,96.12c-.135-.475-.238-.946-.345-1.37a44.23,44.23,0,0,1-5.031-.368,10.621,10.621,0,0,1-3-.843c-.741-.368-1.029-.764-.95-1.239,1.183-.051,2.343-.107,3.5-.158a2.041,2.041,0,0,0,1.342,1.053,13.479,13.479,0,0,0,3.876.582c-.135-.526-.266-1.029-.368-1.477-.107-.419-.214-.815-.317-1.183-1.267-.079-2.557-.186-3.82-.345a8.082,8.082,0,0,1-2.054-.447c-.424-.186-.582-.368-.5-.578.158-.345.894-.606,2.189-.82.419-.051.918-.1,1.528-.13.578-.051,1.262-.079,2.054-.079a.454.454,0,0,1-.056-.186h1.346c.023.056.051.135.079.186.685,0,1.314.028,1.868.079.554.028,1.081.079,1.528.13a7.318,7.318,0,0,1,2.581.685c-.843.028-1.71.056-2.581.079a3.264,3.264,0,0,0-1.239-.447,16.227,16.227,0,0,0-2-.182c.1.21.182.447.289.685s.238.5.368.787c1.477.079,2.478.13,2.977.186a22.969,22.969,0,0,1,2.5.317,12.769,12.769,0,0,1,1.9.475,3.843,3.843,0,0,1,1.239.68c.685.582.5,1.137-.657,1.635a9.093,9.093,0,0,1-2.45.606,28.206,28.206,0,0,1-3.717.289c.186.424.4.9.61,1.37-.9,0-1.793.028-2.688.028ZM133.1,89.063a14.21,14.21,0,0,0-2.269.21c-.55.1-.866.261-.894.419,0,.186.238.345.764.475a18.539,18.539,0,0,0,2.767.289c-.079-.261-.135-.526-.21-.764l-.158-.629Zm3.5,4.714a9.61,9.61,0,0,0,3.289-.554c.713-.261.9-.606.582-.974a2.535,2.535,0,0,0-1.421-.657,24.636,24.636,0,0,0-3.559-.4c.13.368.317.736.475,1.155.186.424.4.9.634,1.425Z" transform="translate(-71.016 -12.073)" fill="#f9c61e"/>
      <path id="Trazado_96089" data-name="Trazado 96089" d="M154.239,87.266c15.065,0,27.866,1.477,32.449,3.554,1.053-.475,1.686-1,1.793-1.528h0l.023,3.214c0,2.9-15.354,5.241-34.266,5.241-18.94,0-34.271-2.343-34.271-5.241V89.134c0,.582.634,1.16,1.817,1.686,4.584-2.078,17.385-3.554,32.454-3.554Z" transform="translate(-91.547 -16.704)" fill="#f9c61e" fill-rule="evenodd"/>
      <path id="Trazado_96090" data-name="Trazado 96090" d="M154.052,86.542c18.838,0,34.089,2.334,34.089,5.213s-15.251,5.217-34.089,5.217c-18.81,0-34.084-2.334-34.084-5.217s15.274-5.213,34.084-5.213Z" transform="translate(-91.547 -19.353)" fill="#dba50e" fill-rule="evenodd"/>
      <path id="Trazado_96091" data-name="Trazado 96091" d="M134.66,94.458c-.13-.475-.238-.922-.368-1.346a50.292,50.292,0,0,1-5.031-.4,9.282,9.282,0,0,1-3-.843c-.708-.34-1-.764-.918-1.211,1.155-.079,2.343-.13,3.475-.182a2.166,2.166,0,0,0,1.37,1.053,13.1,13.1,0,0,0,3.871.606c-.13-.554-.261-1.053-.4-1.5-.1-.424-.21-.82-.289-1.188-1.262-.079-2.553-.182-3.843-.34a7.8,7.8,0,0,1-2.031-.424c-.447-.182-.606-.4-.5-.606.13-.34.866-.606,2.157-.792.424-.079.95-.1,1.528-.154.606-.028,1.295-.056,2.054-.079a.6.6,0,0,0-.051-.186h1.369c.028.079.056.13.079.186.685.023,1.29.051,1.873.079.55.023,1.053.074,1.5.13a7.618,7.618,0,0,1,2.609.685c-.871.028-1.714.051-2.581.079a3.217,3.217,0,0,0-1.267-.424,12.281,12.281,0,0,0-1.975-.182c.079.21.186.419.289.657.107.266.214.526.345.792,1.5.079,2.5.158,3,.182a25.178,25.178,0,0,1,2.506.317,12.482,12.482,0,0,1,1.868.475,4.074,4.074,0,0,1,1.267.685c.685.606.5,1.16-.661,1.635a10.7,10.7,0,0,1-2.45.629,29.4,29.4,0,0,1-3.713.266c.186.447.368.894.578,1.37-.894.028-1.761.028-2.66.028ZM132.843,87.4a15.39,15.39,0,0,0-2.264.21c-.582.135-.871.266-.894.447-.028.158.21.317.736.452a15.349,15.349,0,0,0,2.767.289c-.056-.266-.135-.5-.186-.741s-.107-.447-.158-.657Zm3.48,4.714a10.555,10.555,0,0,0,3.317-.526c.685-.289.871-.606.578-.974a2.546,2.546,0,0,0-1.421-.685,22.48,22.48,0,0,0-3.582-.368c.158.34.317.736.5,1.132.186.447.4.922.61,1.421Z" transform="translate(-71.945 -18.153)" fill="#f9c61e"/>
      <path id="Trazado_96092" data-name="Trazado 96092" d="M151.824,86.044c15.069,0,27.87,1.477,32.454,3.559,1.053-.475,1.686-1,1.789-1.528h.028v3.214c0,2.9-15.358,5.241-34.271,5.241-18.94,0-34.271-2.343-34.271-5.241V87.917c0,.578.661,1.16,1.817,1.686,4.612-2.082,17.389-3.559,32.454-3.559Z" transform="translate(-100.382 -21.174)" fill="#f9c61e" fill-rule="evenodd"/>
      <path id="Trazado_96093" data-name="Trazado 96093" d="M151.824,85.321c18.94,0,34.271,2.343,34.271,5.241S170.764,95.8,151.824,95.8c-18.912,0-34.271-2.343-34.271-5.241s15.358-5.241,34.271-5.241Z" transform="translate(-100.382 -23.819)" fill="#dba50e" fill-rule="evenodd"/>
      <path id="Trazado_96094" data-name="Trazado 96094" d="M132.25,93.233c-.135-.475-.238-.922-.345-1.342a50.4,50.4,0,0,1-5.031-.4,9.047,9.047,0,0,1-3-.843c-.741-.345-1.029-.764-.95-1.211,1.183-.079,2.343-.13,3.475-.186a2.176,2.176,0,0,0,1.37,1.053,13.281,13.281,0,0,0,3.876.61c-.135-.554-.266-1.057-.373-1.5-.1-.419-.21-.815-.312-1.183-1.267-.079-2.557-.186-3.82-.345a8.018,8.018,0,0,1-2.054-.419c-.424-.186-.582-.4-.5-.606.13-.345.894-.606,2.189-.792.391-.079.918-.107,1.5-.158.606-.023,1.29-.051,2.054-.079,0-.051-.028-.1-.028-.182h1.346a.842.842,0,0,0,.079.182c.685.028,1.314.056,1.868.079s1.081.079,1.528.13a7.862,7.862,0,0,1,2.581.685c-.843.028-1.71.056-2.581.079a3.285,3.285,0,0,0-1.239-.419,12.589,12.589,0,0,0-2-.186c.079.214.182.424.289.661.1.261.238.526.34.787,1.5.079,2.5.158,3,.186a22.963,22.963,0,0,1,2.5.317,11.848,11.848,0,0,1,1.873.475,3.951,3.951,0,0,1,1.262.685c.685.606.5,1.155-.657,1.63a10.14,10.14,0,0,1-2.45.633,29.416,29.416,0,0,1-3.717.266c.186.447.373.894.61,1.37-.9.023-1.793.023-2.688.023Zm-1.817-7.057a14.213,14.213,0,0,0-2.269.21c-.578.13-.866.261-.894.447-.028.158.238.317.736.447a15.627,15.627,0,0,0,2.795.289c-.079-.261-.135-.5-.214-.736-.051-.238-.1-.447-.154-.657Zm3.5,4.714a10.478,10.478,0,0,0,3.289-.526c.713-.289.871-.606.582-.974a2.5,2.5,0,0,0-1.421-.685,22.471,22.471,0,0,0-3.587-.373c.158.345.317.741.5,1.137.182.447.4.918.633,1.421Z" transform="translate(-80.78 -22.619)" fill="#fdce2f"/>
      <path id="Trazado_96095" data-name="Trazado 96095" d="M155.194,84.97c15.069,0,27.87,1.477,32.454,3.554,1.081-.5,1.686-1,1.817-1.528h0v3.214c0,2.9-15.358,5.245-34.271,5.245-18.936,0-34.271-2.348-34.271-5.245v-3.4c0,.606.662,1.16,1.821,1.686,4.607-2.054,17.385-3.531,32.449-3.531Z" transform="translate(-88.054 -25.103)" fill="#f9c61e" fill-rule="evenodd"/>
      <path id="Trazado_96096" data-name="Trazado 96096" d="M155.194,84.246c18.94,0,34.271,2.343,34.271,5.217,0,2.9-15.33,5.241-34.271,5.241-18.912,0-34.271-2.343-34.271-5.241,0-2.874,15.358-5.217,34.271-5.217Z" transform="translate(-88.054 -27.752)" fill="#dba50e" fill-rule="evenodd"/>
      <path id="Trazado_96097" data-name="Trazado 96097" d="M135.62,92.162c-.13-.475-.238-.95-.345-1.37a44.065,44.065,0,0,1-5.031-.373,10.525,10.525,0,0,1-3-.839c-.741-.373-1.029-.764-.95-1.239,1.188-.056,2.343-.107,3.5-.158a2.053,2.053,0,0,0,1.346,1.053,13.444,13.444,0,0,0,3.871.582c-.13-.531-.266-1.029-.368-1.477-.107-.424-.214-.815-.317-1.188-1.267-.079-2.557-.182-3.82-.34a7.992,7.992,0,0,1-2.054-.447c-.424-.186-.582-.373-.5-.582.135-.34.9-.606,2.189-.815.419-.051.922-.107,1.528-.13.578-.056,1.262-.056,2.026-.079,0-.051-.028-.135-.028-.186h1.346c.028.051.051.135.079.186.685,0,1.318.023,1.868.079.554.023,1.081.079,1.528.13a7.218,7.218,0,0,1,2.581.685c-.838.028-1.71.051-2.581.079a3.161,3.161,0,0,0-1.234-.447,17.266,17.266,0,0,0-2-.186c.079.214.182.447.289.685s.238.526.34.792c1.5.079,2.506.13,3,.182a24.176,24.176,0,0,1,2.5.317,12.659,12.659,0,0,1,1.873.475,3.991,3.991,0,0,1,1.262.685c.685.582.5,1.132-.657,1.635a9.223,9.223,0,0,1-2.45.606,29.018,29.018,0,0,1-3.713.289c.182.424.391.894.606,1.37-.9,0-1.794.028-2.688.028ZM133.8,85.1a14.691,14.691,0,0,0-2.269.214c-.578.13-.866.261-.894.419-.023.186.238.345.741.475a19.36,19.36,0,0,0,2.79.289c-.079-.266-.13-.526-.21-.764L133.8,85.1Zm3.5,4.719a9.779,9.779,0,0,0,3.293-.554c.708-.266.866-.606.578-.978a2.566,2.566,0,0,0-1.421-.657,25.328,25.328,0,0,0-3.582-.4c.158.373.317.741.5,1.16s.4.894.633,1.425Z" transform="translate(-68.452 -26.552)" fill="#f9c61e"/>
      <path id="Trazado_96098" data-name="Trazado 96098" d="M122.437,91.1l-.82,2.436-.587,1.486s3.019.564,4.22.6.694-1.132.694-1.132l-.084-2.1Z" transform="translate(-87.662 -2.682)" fill="#ffbd99" fill-rule="evenodd"/>
      <path id="Trazado_96099" data-name="Trazado 96099" d="M120.208,91.243l-2.464,2.3-1.561,2.11s2.8,2.078,4.025,1.491,1.267-3.214,1.267-3.214Z" transform="translate(-105.394 -2.155)" fill="#ffbd99" fill-rule="evenodd"/>
      <path id="Trazado_96100" data-name="Trazado 96100" d="M124.865,82.4a12.83,12.83,0,0,0-3.116,1.393c-.508.554-.312,2.1-.312,2.1l4.113-.913Z" transform="translate(-86.312 -34.49)" fill="#f4a082" fill-rule="evenodd"/>
      <path id="Trazado_96101" data-name="Trazado 96101" d="M125.685,78.767l.787,13.514-4.439,3.206.678,1.693,3.368-.35,4-3.3L127.7,79.007Z" transform="translate(-83.993 -47.794)" fill="#0b4884" fill-rule="evenodd"/>
      <path id="Trazado_96102" data-name="Trazado 96102" d="M133.786,86.348,121.255,93.06l-.382-3.363a3.25,3.25,0,0,1,2.222-3.452l11.063-3.6Zm-12.051,18.563c1.859-3.647,3.149-6.559,3.149-6.559s1.272-.154,3.2-.457l-1.323,26.324-4.491.228-.531-19.537ZM135.84,82.826c-.48-.023-.876-.065-1.179-.088.3.023.7.065,1.179.088Z" transform="translate(-88.311 -33.594)" fill="#00223d" fill-rule="evenodd"/>
      <path id="Trazado_96103" data-name="Trazado 96103" d="M125.293,82.443a12.438,12.438,0,0,0-3.251,1.043c-.564.5-.512,2.269-.512,2.269l4.169-.7Z" transform="translate(-85.841 -34.348)" fill="#ffb699" fill-rule="evenodd"/>
      <path id="Trazado_96104" data-name="Trazado 96104" d="M123.289,75.876l-.731-1.216s1.118-3.517,4.593-2.278c3.456,1.22,4.616,20.166,11.753,24.558,0,0-1.118,1.7-5.124-.634-3.983-2.357-7.5-8.129-9.209-13.923-1.686-5.795-1.281-6.508-1.281-6.508Z" transform="translate(-82.073 -72.118)" fill="#00223d" fill-rule="evenodd"/>
      <path id="Trazado_96105" data-name="Trazado 96105" d="M128.577,77.72c-.988,1.728-3.2,5.227-5.357,5.464a11.655,11.655,0,0,1,1.22-2.665L122.5,77.785l3.5-2.557Z" transform="translate(-82.292 -60.742)" fill="#f4a082" fill-rule="evenodd"/>
      <path id="Trazado_96106" data-name="Trazado 96106" d="M124.7,80.007l-.96,1.22-1.22,4.817a5.461,5.461,0,0,0,.573,4.1,55.609,55.609,0,0,1,3.4,6.391c.242,1.095,1.751,11.222,1.751,11.222a18.176,18.176,0,0,0,7.761-.219c4.9-1.029,5.818-1.64,5.818-1.64a82.352,82.352,0,0,1-1.663-10.956c-.461-5.818-2.4-12.6-3.717-14.673-.75-1.174-7.346-4.5-7.346-4.5Z" transform="translate(-82.817 -58.785)" fill="#1363b2" fill-rule="evenodd"/>
      <path id="Trazado_96107" data-name="Trazado 96107" d="M163.087,82.265s3.741,7.63-2.688,11.827c-6.452,4.178-19.42,5.664-19.42,5.664a138.8,138.8,0,0,1-6.517,12.726c-3.5,5.907-14.3,16.234-14.3,16.234l-3.708-2.534L136.344,93.99a7.607,7.607,0,0,1,4.523-3.61l9.014-2.627.373-3.7a20.2,20.2,0,0,0,7.346-.3,32.8,32.8,0,0,0,5.487-1.486Z" transform="translate(-104.406 -34.999)" fill="#00223d" fill-rule="evenodd"/>
      <path id="Trazado_96108" data-name="Trazado 96108" d="M131.119,78.7c-1.486,3.3,2.45,16.243,2.45,16.243l-11.427,8.389,1.3,2.623s15.9-6.745,16.145-9.7c.177-2.194-1.23-11.1-2.05-16.574-.461-3.1-4.649-4.076-6.223-1.369A4.29,4.29,0,0,0,131.119,78.7Z" transform="translate(-83.591 -55.247)" fill="#0b4884" fill-rule="evenodd"/>
      <path id="Trazado_96109" data-name="Trazado 96109" d="M122.157,74.35l1.868-1.686c1.831.713,2.278,1.668,2.744,3.456l-1.22,1.444Z" transform="translate(-83.539 -70.122)" fill="#1363b2" fill-rule="evenodd"/>
      <path id="Trazado_96110" data-name="Trazado 96110" d="M122.6,82.067s3.638,4.635,6.34,4.188a4.869,4.869,0,0,0,3.517-6.913c-1.668-3.149-3.578-7.253-7.681-5.669-4.127,1.584-4.514,3.638-3.987,5.669a4.5,4.5,0,0,0,1.812,2.725Z" transform="translate(-89.227 -67.716)" fill="#ffb699" fill-rule="evenodd"/>
      <path id="Trazado_96111" data-name="Trazado 96111" d="M128.867,78.485a9.111,9.111,0,0,1-4.272,6.326c-3.778,2.152-5.464-4.556-3.6-8.459a6.6,6.6,0,0,1,10.509-1.668c3.13,3.172,2.744,7.36,1.831,8.846a7.3,7.3,0,0,1-3.214-2.2,7.694,7.694,0,0,1-1.258-2.846Z" transform="translate(-90.575 -69.706)" fill="#00223d" fill-rule="evenodd"/>
      <path id="Trazado_96112" data-name="Trazado 96112" d="M144.1,90.342l-15,2.418-9.987-12.121-.284.242a.368.368,0,0,0-.042.517l9.484,11.5h0l.065.349a.348.348,0,0,0,.405.307l15.475-2.5Z" transform="translate(-96.199 -40.947)" fill="#b9d2fc" fill-rule="evenodd"/>
      <path id="Trazado_96113" data-name="Trazado 96113" d="M115.5,95.749c2.432.1,9.158-3.559,9.158-3.559l4.938.121a2.334,2.334,0,0,1,.354,1.225,2.858,2.858,0,0,1-.387,1.84l-.028,2.511h-1.067l-.47-2.5-4.635,2.478-9.279.019S113.052,95.623,115.5,95.749Z" transform="translate(-113.867 1.309)" fill="#0b4884" fill-rule="evenodd"/>
      <path id="Trazado_96114" data-name="Trazado 96114" d="M120.345,97.086c2.422-.214,8.608-4.728,8.608-4.728l4.914-.531A2.37,2.37,0,0,1,134.375,93a2.9,2.9,0,0,1-.14,1.877l.3,2.492-1.057.14-.8-2.413-4.267,3.065-9.2,1.239S117.9,97.286,120.345,97.086Z" transform="translate(-95.585 -0.019)" fill="#0b4884" fill-rule="evenodd"/>
    </g>
    <g id="Grupo_46131" data-name="Grupo 46131" transform="translate(234.203 230.426)">
      <g id="Grupo_46129" data-name="Grupo 46129" transform="translate(0 58.354)">
        <path id="Trazado_96115" data-name="Trazado 96115" d="M134.167,93.013H200.4v1.831H135.848a2.014,2.014,0,0,0-2,2.017v7.286a2.014,2.014,0,0,0,2,2.017H200.4v1.831H134.167a2.68,2.68,0,0,1-2.66-2.66V95.673a2.68,2.68,0,0,1,2.66-2.66Z" transform="translate(-131.241 -63.047)" fill="#7d6eb2" fill-rule="evenodd"/>
        <path id="Trazado_96116" data-name="Trazado 96116" d="M134.008,93.406h64.554v11.32H134.008a2.014,2.014,0,0,1-2-2.017V95.423a2.014,2.014,0,0,1,2-2.017Z" transform="translate(-129.401 -61.609)" fill="#eadce4" fill-rule="evenodd"/>
        <path id="Trazado_96117" data-name="Trazado 96117" d="M134.167,89.8H200.4v1.831H135.848a2.014,2.014,0,0,0-2,2.017v7.285a2.014,2.014,0,0,0,2,2.017H200.4v1.831H134.167a2.68,2.68,0,0,1-2.66-2.66V92.457a2.68,2.68,0,0,1,2.66-2.66Z" transform="translate(-131.241 -74.811)" fill="#00223d" fill-rule="evenodd"/>
        <path id="Trazado_96118" data-name="Trazado 96118" d="M134.008,90.19h64.554v11.32H134.008a2.014,2.014,0,0,1-2-2.017V92.207a2.014,2.014,0,0,1,2-2.017Z" transform="translate(-129.401 -73.374)" fill="#eadce4" fill-rule="evenodd"/>
        <path id="Trazado_96119" data-name="Trazado 96119" d="M134.11,86.58h66.236v1.831H135.792a2.022,2.022,0,0,0-2,2.022v7.281a2.022,2.022,0,0,0,2,2.022h64.554v1.831H134.11a2.683,2.683,0,0,1-2.66-2.66V89.24a2.683,2.683,0,0,1,2.66-2.66Z" transform="translate(-131.45 -86.58)" fill="#1363b2" fill-rule="evenodd"/>
        <path id="Trazado_96120" data-name="Trazado 96120" d="M133.955,86.973h64.554V98.3H133.955a2.022,2.022,0,0,1-2-2.022V88.995a2.022,2.022,0,0,1,2-2.022Z" transform="translate(-129.614 -85.142)" fill="#eadce4" fill-rule="evenodd"/>
      </g>
      <g id="Grupo_46130" data-name="Grupo 46130" transform="translate(17.947)">
        <path id="Trazado_96121" data-name="Trazado 96121" d="M172.634,89.46c2.511,4.584-5.6,29.92-5.6,29.92l-4.276-.093.308-23.724c-10.775,4.057-17.031,0-17.031,0l.307,23.724-4.272.093s-8.115-25.336-5.609-29.92c2.171-3.9,14.683-5.6,18.088-5.264,3.405-.34,15.922,1.36,18.088,5.264Z" transform="translate(-132.833 -37.101)" fill="#00223d" fill-rule="evenodd"/>
        <path id="Trazado_96122" data-name="Trazado 96122" d="M155.011,97.332l-8.115-.186-1.887-.992-.247.992-3-.307-.033-5.143,4.276.093s5.7,3.685,7.8,3.685c2.138,0,1.207,1.859,1.207,1.859Z" transform="translate(-111.805 -9.51)" fill="#cd4022" fill-rule="evenodd"/>
        <path id="Trazado_96123" data-name="Trazado 96123" d="M135.49,97.332l8.147-.186,1.887-.992.251.992,2.972-.307.061-5.143-4.272.093s-5.7,3.685-7.807,3.685c-2.138,0-1.239,1.859-1.239,1.859Z" transform="translate(-135.303 -9.51)" fill="#cd4022" fill-rule="evenodd"/>
        <path id="Trazado_96124" data-name="Trazado 96124" d="M143.756,106.023h7.122l-9.2-10.472,9.014-17.5c-7.1-.2-11.129,10.383-14.3,17.366a3.1,3.1,0,0,0,.573,3.4Z" transform="translate(-132.323 -59.422)" fill="#7d6eb2" fill-rule="evenodd"/>
        <path id="Trazado_96125" data-name="Trazado 96125" d="M149.625,105.185l-5.911,3.838,6.1-13.16-9.2-17.808c6.955-.2,10.984,9.4,14.128,16.262a4.375,4.375,0,0,1-.433,4.383Z" transform="translate(-115.866 -59.422)" fill="#7d6eb2" fill-rule="evenodd"/>
        <path id="Trazado_96126" data-name="Trazado 96126" d="M139.311,75.871c-.713.093-1.179,1.053-1.053,2.171s.806,1.947,1.519,1.854c.713-.061,1.206-1.048,1.053-2.166-.126-1.113-.806-1.952-1.519-1.859Z" transform="translate(-124.566 -67.43)" fill="#ffb699" fill-rule="evenodd"/>
        <path id="Trazado_96127" data-name="Trazado 96127" d="M142.555,75.871c.713.093,1.179,1.053,1.053,2.171s-.806,1.947-1.519,1.854c-.713-.061-1.174-1.048-1.053-2.166s.806-1.952,1.519-1.859Z" transform="translate(-114.399 -67.43)" fill="#ffb699" fill-rule="evenodd"/>
        <path id="Trazado_96128" data-name="Trazado 96128" d="M147.437,77.986h1.984a9.807,9.807,0,0,1,9.787,9.787v18.554a7.146,7.146,0,0,1-7.122,7.122h-7.309a7.147,7.147,0,0,1-7.127-7.122V87.773a9.807,9.807,0,0,1,9.787-9.787Z" transform="translate(-126.716 -59.665)" fill="#7d6eb2" fill-rule="evenodd"/>
        <path id="Trazado_96129" data-name="Trazado 96129" d="M139.3,77.421h5.949v2.6a2.627,2.627,0,0,1-2.6,2.637h-.713A2.633,2.633,0,0,1,139.3,80.02Z" transform="translate(-120.683 -61.732)" fill="#e58d6e" fill-rule="evenodd"/>
        <path id="Trazado_96130" data-name="Trazado 96130" d="M144.914,74.25c3.624-.061,6.629,3.689,6.722,8.394s-2.786,8.613-6.41,8.674c-3.6.061-6.629-3.717-6.689-8.427-.093-4.7,2.753-8.576,6.377-8.641Z" transform="translate(-123.48 -73.336)" fill="#ffb699" fill-rule="evenodd"/>
        <path id="Trazado_96131" data-name="Trazado 96131" d="M138.288,81.57h23.487a1.072,1.072,0,0,1,1.076,1.039V98.973a1.072,1.072,0,0,1-1.076,1.039H138.288a1.048,1.048,0,0,1-1.076-1.039V82.609a1.048,1.048,0,0,1,1.076-1.039Z" transform="translate(-128.318 -46.554)" fill="#f9eff4" fill-rule="evenodd"/>
        <path id="Trazado_96132" data-name="Trazado 96132" d="M142.635,89.629a3.4,3.4,0,1,0-3.4-3.405,3.424,3.424,0,0,0,3.4,3.405Z" transform="translate(-120.921 -41.97)" fill="#c8c6cc" fill-rule="evenodd"/>
        <path id="Trazado_96133" data-name="Trazado 96133" d="M154.3,78.572s-2.795-4.113-7.225-4.5-7.374,4.109-7.374,4.109a2.093,2.093,0,0,0-1.383,2.147c-.061,1.831,1.672,5.641,1.672,5.641l.349-2.981a3.708,3.708,0,0,0,.932-1.248,2.885,2.885,0,0,0-.191-1.346,13.873,13.873,0,0,0,6.223,1.281,8.367,8.367,0,0,0,2.874-.447,1.443,1.443,0,0,0,.014.512,3.779,3.779,0,0,0,.927,1.248l.349,2.981s1.742-3.81,1.677-5.641a2.53,2.53,0,0,0-.14-.62A9.9,9.9,0,0,0,154.3,78.572Z" transform="translate(-124.284 -74.053)" fill="#00223d"/>
      </g>
    </g>
    <g id="Grupo_46282" data-name="Grupo 46282" transform="translate(355.186 270.445)">
      <rect id="Rectángulo_28228" data-name="Rectángulo 28228" width="55.478" height="64.157" rx="6.949" transform="translate(0 0)" fill="#00223d"/>
      <g id="Grupo_46036" data-name="Grupo 46036" transform="translate(5.132 6.715)">
        <g id="Grupo_46035" data-name="Grupo 46035">
          <rect id="Rectángulo_28229" data-name="Rectángulo 28229" width="46.919" height="13.178" rx="1.773" fill="url(#linear-gradient)"/>
          <rect id="Rectángulo_28230" data-name="Rectángulo 28230" width="12.064" height="8.365" rx="1.773" transform="translate(0 17.851)" fill="url(#linear-gradient)"/>
          <rect id="Rectángulo_28231" data-name="Rectángulo 28231" width="12.064" height="8.365" rx="1.773" transform="translate(17.427 17.851)" fill="url(#linear-gradient)"/>
          <rect id="Rectángulo_28232" data-name="Rectángulo 28232" width="12.064" height="8.365" rx="1.773" transform="translate(34.855 17.851)" fill="url(#linear-gradient)"/>
          <rect id="Rectángulo_28233" data-name="Rectángulo 28233" width="12.064" height="8.365" rx="1.773" transform="translate(0 31.298)" fill="url(#linear-gradient)"/>
          <rect id="Rectángulo_28234" data-name="Rectángulo 28234" width="12.064" height="8.365" rx="1.773" transform="translate(17.427 31.298)" fill="url(#linear-gradient)"/>
          <rect id="Rectángulo_28235" data-name="Rectángulo 28235" width="12.064" height="8.365" rx="1.773" transform="translate(0 44.745)" fill="url(#linear-gradient)"/>
          <rect id="Rectángulo_28236" data-name="Rectángulo 28236" width="12.064" height="8.365" rx="1.773" transform="translate(17.427 44.745)" fill="url(#linear-gradient)"/>
        </g>
        <rect id="Rectángulo_28237" data-name="Rectángulo 28237" width="12.064" height="21.812" rx="1.773" transform="translate(34.855 31.298)" fill="url(#linear-gradient)"/>
      </g>
      <g id="Grupo_46037" data-name="Grupo 46037" transform="translate(4.279 5.863)" opacity="0.45">
        <path id="Trazado_95891" data-name="Trazado 95891" d="M573.518,293.458A1.457,1.457,0,0,1,574.975,292h44.006a1.457,1.457,0,0,1,1.457,1.457v10.263a1.457,1.457,0,0,1-1.457,1.457H574.975" transform="translate(-573.518 -292.001)" fill="url(#linear-gradient)"/>
        <rect id="Rectángulo_28238" data-name="Rectángulo 28238" width="12.064" height="8.365" rx="1.773" transform="translate(0 17.851)" fill="#e2deff"/>
        <rect id="Rectángulo_28239" data-name="Rectángulo 28239" width="12.064" height="8.365" rx="1.773" transform="translate(17.428 17.851)" fill="#e2deff"/>
        <rect id="Rectángulo_28240" data-name="Rectángulo 28240" width="12.064" height="8.365" rx="1.773" transform="translate(34.855 17.851)" fill="url(#linear-gradient)"/>
        <rect id="Rectángulo_28241" data-name="Rectángulo 28241" width="12.064" height="8.365" rx="1.773" transform="translate(0 31.298)" fill="#e2deff"/>
        <rect id="Rectángulo_28242" data-name="Rectángulo 28242" width="12.064" height="8.365" rx="1.773" transform="translate(17.428 31.298)" fill="#e2deff"/>
        <rect id="Rectángulo_28243" data-name="Rectángulo 28243" width="12.064" height="8.365" rx="1.773" transform="translate(0 44.745)" fill="#e2deff"/>
        <rect id="Rectángulo_28244" data-name="Rectángulo 28244" width="12.064" height="8.365" rx="1.773" transform="translate(17.428 44.745)" fill="#e2deff"/>
      </g>
      <rect id="Rectángulo_28245" data-name="Rectángulo 28245" width="12.064" height="21.812" rx="1.773" transform="translate(39.134 37.161)" fill="#f6c343"/>
      <path id="Trazado_95892" data-name="Trazado 95892" d="M616.784,351.294V332.4a1.457,1.457,0,0,1,1.457-1.457h9.151a1.453,1.453,0,0,1,.509.1,1.454,1.454,0,0,0-1.361-.949h-9.151a1.457,1.457,0,0,0-1.457,1.458v18.9a1.454,1.454,0,0,0,.948,1.361A1.449,1.449,0,0,1,616.784,351.294Z" transform="translate(-576.798 -292.926)" fill="#f9c110"/>
    </g>
    <g id="Grupo_46283" data-name="Grupo 46283" transform="translate(344.799 61.308)">
      <path id="Trazado_95952" data-name="Trazado 95952" d="M640.932,222.133H585.208l6.673-4.937v-24.1a3.641,3.641,0,0,1,3.641-3.641h45.41a3.641,3.641,0,0,1,3.641,3.641v25.4A3.641,3.641,0,0,1,640.932,222.133Z" transform="translate(-585.208 -189.453)" fill="#dbdada"/>
      <g id="Grupo_46065" data-name="Grupo 46065" transform="translate(11.06 4.701)">
        <rect id="Rectángulo_28246" data-name="Rectángulo 28246" width="25.466" height="2.437" transform="translate(17.997)" fill="#fff" opacity="0.45"/>
        <rect id="Rectángulo_28247" data-name="Rectángulo 28247" width="25.466" height="2.437" transform="translate(17.997 3.64)" fill="#fff" opacity="0.45"/>
        <rect id="Rectángulo_28248" data-name="Rectángulo 28248" width="25.466" height="2.437" transform="translate(17.997 7.281)" fill="#fff" opacity="0.45"/>
        <rect id="Rectángulo_28249" data-name="Rectángulo 28249" width="25.466" height="2.437" transform="translate(17.997 10.828)" fill="#fff" opacity="0.45"/>
        <rect id="Rectángulo_28250" data-name="Rectángulo 28250" width="17.76" height="2.437" transform="translate(17.997 15.071)" fill="#fff" opacity="0.45"/>
        <g id="Grupo_46064" data-name="Grupo 46064">
          <rect id="Rectángulo_28251" data-name="Rectángulo 28251" width="15.997" height="18.705" rx="3.385" fill="#00223d"/>
          <rect id="Rectángulo_28252" data-name="Rectángulo 28252" width="15.997" height="2.008" transform="translate(0 21.034)" fill="#fff" opacity="0.45"/>
          <g id="Grupo_46063" data-name="Grupo 46063" transform="translate(1.93 4.188)">
            <path id="Trazado_95953" data-name="Trazado 95953" d="M604.766,205.357h-5.8a.724.724,0,0,1-.7-.534l-1.117-4.124a.724.724,0,0,1,.7-.913h8.038a.723.723,0,0,1,.7.913l-1.117,4.124A.724.724,0,0,1,604.766,205.357Z" transform="translate(-597.12 -197.407)" fill="url(#linear-gradient)"/>
            <g id="Grupo_46061" data-name="Grupo 46061" transform="translate(1.534)">
              <path id="Trazado_95954" data-name="Trazado 95954" d="M605.661,206.482H598.67a.145.145,0,0,1,0-.289h6.882l2.433-8.484a.144.144,0,0,1,.138-.1h1.521a.144.144,0,0,1,0,.289h-1.412l-2.433,8.484A.144.144,0,0,1,605.661,206.482Z" transform="translate(-598.526 -197.604)" fill="url(#linear-gradient)"/>
            </g>
            <g id="Grupo_46062" data-name="Grupo 46062" transform="translate(1.057 9.169)">
              <path id="Trazado_95955" data-name="Trazado 95955" d="M599.78,206.857a.846.846,0,1,1-.846-.845A.846.846,0,0,1,599.78,206.857Z" transform="translate(-598.089 -206.012)" fill="url(#linear-gradient)"/>
              <circle id="Elipse_3864" data-name="Elipse 3864" cx="0.845" cy="0.845" r="0.845" transform="translate(6.147)" fill="url(#linear-gradient)"/>
            </g>
          </g>
        </g>
      </g>
    </g>
    <g id="Grupo_46127" data-name="Grupo 46127" transform="translate(365.569 195.732)">
      <path id="Trazado_96054" data-name="Trazado 96054" d="M169.583,76.913a8.9,8.9,0,0,0-1.966-2.525,7.616,7.616,0,0,0-3.675-1.351.9.9,0,0,0,.2,1,5.343,5.343,0,0,0,1.644.983,3.891,3.891,0,0,1-2.087-.377c-1.565-.554-3.256-1.854-3.848-.988s.084,2.879,1.97,4.141A38.371,38.371,0,0,0,167.2,80.43Z" transform="translate(-159.651 -43.075)" fill="#ffbd99" fill-rule="evenodd"/>
      <path id="Trazado_96055" data-name="Trazado 96055" d="M166.6,78.559l.587,75.068,5.385.13s2.45-20.357,2.45-29.012-1.728-12.927-1.728-12.927l4.383-28.732s-1.239-1.682-2.39-3.307c-.135-.014-.275-.023-.41-.037a80.339,80.339,0,0,1-8.278-1.183Z" transform="translate(-134.214 -22.874)" fill="#00223d" fill-rule="evenodd"/>
      <path id="Trazado_96056" data-name="Trazado 96056" d="M167.181,79.261,174.5,90.585l11,63.268,5.39.13s1.034-24.568-1.509-33.451-3.922-9.931-3.922-9.931,1.057-20.217-.983-29.347L182.12,78.5a20.275,20.275,0,0,1-9.349,1.472c-2.278-.224-4.183-.484-5.59-.708Z" transform="translate(-132.104 -23.101)" fill="#00223d" fill-rule="evenodd"/>
      <path id="Trazado_96057" data-name="Trazado 96057" d="M196.69,70.688l7.779,2.166a7.307,7.307,0,0,1,4.91,4.532l7.1,19.322a5.132,5.132,0,0,1-1.02,5.217l-8.007,8.827-3.172-3.689s-5.911,6.466-10.965,5.976-6.661-1.724-6.661-1.724l-1.127-19.742L183.283,95.8a4.811,4.811,0,0,1-6.619,1.938l-15.54-8.767,2.478-4.5,10.882,5.394a3.111,3.111,0,0,0,4.29-1.7l3.442-9.233a7.322,7.322,0,0,1,3.321-3.852l6.321-3.494Zm9.065,15.866,3.782,9.181a5.123,5.123,0,0,1-.936,5.394l-2.734,3.023Z" transform="translate(-154.261 -51.668)" fill="#26aab7" fill-rule="evenodd"/>
      <path id="Trazado_96058" data-name="Trazado 96058" d="M171.936,78.536c-.363.242-.824.559-1.1.769-.508.377-.825.624-.825.624a5.269,5.269,0,0,0,2.744,3.47,13.644,13.644,0,0,0,1.728-1.905Z" transform="translate(-121.765 -22.959)" fill="#ffbd99" fill-rule="evenodd"/>
      <path id="Trazado_96059" data-name="Trazado 96059" d="M173.536,69.834h-5.814v4.887a2.917,2.917,0,0,0,2.911,2.907h0a2.916,2.916,0,0,0,2.9-2.907Z" transform="translate(-130.124 -54.793)" fill="#eda27c" fill-rule="evenodd"/>
      <path id="Trazado_96060" data-name="Trazado 96060" d="M172.52,66.954c-3.377.121-5.986,3.708-5.818,8.008s1,8.32,6.051,8.65,6.326-4.807,6.168-9.107-3.028-7.681-6.4-7.551Z" transform="translate(-133.884 -65.342)" fill="#ffbd99" fill-rule="evenodd"/>
      <path id="Trazado_96061" data-name="Trazado 96061" d="M181.729,69.838a3.773,3.773,0,0,0-3.084-3.14c-2.758-.494-12.889,1.137-12.889,1.137s1.533,5.459,5.255,6.158a23.752,23.752,0,0,0,8.389-.438,12.01,12.01,0,0,0,.438,4.267,12.122,12.122,0,0,0,1.84,2.991s2.595-4.109,2.073-7.416-2.022-3.559-2.022-3.559Z" transform="translate(-137.316 -66.605)" fill="#00223d" fill-rule="evenodd"/>
      <path id="Trazado_96062" data-name="Trazado 96062" d="M168.787,101.112,179,101.1l2.45-1.034.233,1.043h3.848L185.86,95l-5.422-.13s-7.4,4.02-10.085,3.894-1.565,2.352-1.565,2.352Z" transform="translate(-127.067 36.777)" fill="#1363b2" fill-rule="evenodd"/>
      <path id="Trazado_96063" data-name="Trazado 96063" d="M164.429,100.874l10.136,0,2.441-1.025.224,1.03h3.824l.321-6.07-5.385-.13s-7.351,3.992-10.011,3.871-1.551,2.329-1.551,2.329Z" transform="translate(-143.014 36.078)" fill="#1363b2" fill-rule="evenodd"/>
    </g>
  </g>
</svg>
